<svg width="430" height="205" viewBox="0 0 430 205" fill="none" xmlns="http://www.w3.org/2000/svg">
  <mask id="mask0_2365_915" style="mask-type:alpha" maskUnits="userSpaceOnUse" x="0" y="0" width="430" height="205">
    <rect width="430" height="204.7" fill="#D9D9D9"/>
  </mask>
  <g mask="url(#mask0_2365_915)">
    <path d="M66.28 46.97L165.34 64.87H264.4L383.89 31.14L400.23 45.7L340.23 98.04L128.83 107.74L29 44.93L37.94 27.31L66.28 46.97Z" fill="#6FA72E"/>
    <path d="M164.74 66.72L249.09 65.1L265.6 66.8L344 46L383.89 31.14L341 40.71L264.4 64.87L248.83 60.63L165.34 64.87L83.8899 45.95L66.2799 46.97L37.9399 27.31L65.5099 49.53L164.74 66.72Z" fill="#92C94B"/>
    <path d="M83 64.55C94.91 44.81 86.23 26.08 86.23 26.08C79.76 28.63 74.83 40.04 74.83 40.04C82.83 19.95 66.83 6.17 66.83 6.17C62.74 22.51 57.3 38.34 57.3 38.34C51.68 4.46 31.6 9.4 31.6 9.4C38.24 20.63 38.41 40.04 38.41 40.04L83.01 64.55H83Z" fill="#6FA72E"/>
    <path d="M33.85 10.46C33.85 10.46 50.91 13.65 56.83 40.03C56.83 40.03 65.64 20.8 67.04 8.92C67.04 8.92 78.27 22.07 73.81 42.11C73.81 42.11 81.34 31 85.3 28.58C85.3 28.58 90.92 44.58 83 64.54C94.91 44.8 86.23 26.07 86.23 26.07C79.76 28.62 74.83 40.03 74.83 40.03C82.83 19.94 66.83 6.16 66.83 6.16C62.74 22.5 57.3 38.33 57.3 38.33C51.68 4.46 31.6 9.4 31.6 9.4C38.24 20.63 38.41 40.04 38.41 40.04C38.41 40.04 40.3 21.44 33.86 10.47L33.85 10.46Z" fill="#92C94B"/>
    <path d="M341.04 56.15C331.46 35.17 342.23 17.56 342.23 17.56C348.36 20.84 351.96 32.73 351.96 32.73C346.31 11.87 363.78 -7.62939e-06 363.78 -7.62939e-06C365.97 16.7 369.57 33.05 369.57 33.05C379.03 0.0399933 398.41 7.24999 398.41 7.24999C390.53 17.65 388.14 36.91 388.14 36.91L341.03 56.16L341.04 56.15Z" fill="#6FA72E"/>
    <path d="M396.05 8.03999C396.05 8.03999 378.73 9.25999 369.84 34.79C369.84 34.79 363.29 14.67 363.25 2.71999C363.25 2.71999 350.58 14.5 352.73 34.92C352.73 34.92 346.52 23.02 342.86 20.16C342.86 20.16 335.45 35.41 341.03 56.14C331.45 35.16 342.22 17.55 342.22 17.55C348.35 20.83 351.95 32.72 351.95 32.72C346.3 11.85 363.77 -0.0100098 363.77 -0.0100098C365.96 16.69 369.56 33.04 369.56 33.04C379.03 0.0399895 398.41 7.24999 398.41 7.24999C390.53 17.65 388.14 36.91 388.14 36.91C388.14 36.91 388.39 18.22 396.05 8.04999V8.03999Z" fill="#92C94B"/>
    <path d="M144.26 67.2C145.63 51.08 158.28 44.02 158.28 44.02C160.9 48.14 159 56.65 159 56.65C162.73 41.95 177.5 40.71 177.5 40.71C173.09 51.67 169.66 62.91 169.66 62.91C186.81 45.99 196.18 57.07 196.18 57.07C187.78 60.71 179.69 71.66 179.69 71.66L144.26 67.2Z" fill="#6FA72E"/>
    <path d="M194.46 56.74C194.46 56.74 183.45 51.52 169.22 64.07C169.22 64.07 172.14 49.52 176.24 42.2C176.24 42.2 164.44 45.04 158.72 58.26C158.72 58.26 159.02 48.85 157.77 45.84C157.77 45.84 147.99 52.61 144.26 67.21C145.63 51.09 158.28 44.03 158.28 44.03C160.9 48.15 159 56.66 159 56.66C162.73 41.96 177.5 40.72 177.5 40.72C173.09 51.68 169.66 62.92 169.66 62.92C186.81 46 196.18 57.08 196.18 57.08C187.78 60.72 179.69 71.67 179.69 71.67C179.69 71.67 186.28 60.33 194.46 56.75V56.74Z" fill="#92C94B"/>
    <path d="M245.24 74.27C242.27 57.32 253.35 46.63 253.35 46.63C257.16 50.15 257.52 59.41 257.52 59.41C257.36 43.28 272.21 38 272.21 38C270.65 50.47 270.18 62.95 270.18 62.95C283.21 40.9 295.86 49.74 295.86 49.74C288.21 55.77 282.87 69.22 282.87 69.22L245.24 74.26V74.27Z" fill="#6FA72E"/>
    <path d="M294.01 49.88C294.01 49.88 281.28 47.5 270.05 64.27C270.05 64.27 269.1 48.51 271.32 39.88C271.32 39.88 259.96 46 257.67 61.15C257.67 61.15 255.42 51.39 253.32 48.64C253.32 48.64 245.1 58.26 245.23 74.28C242.26 57.33 253.34 46.64 253.34 46.64C257.15 50.16 257.51 59.42 257.51 59.42C257.35 43.29 272.2 38.01 272.2 38.01C270.64 50.48 270.17 62.96 270.17 62.96C283.2 40.91 295.85 49.75 295.85 49.75C288.2 55.78 282.86 69.23 282.86 69.23C282.86 69.23 286.55 55.78 294 49.88H294.01Z" fill="#92C94B"/>
    <path d="M-34.2254 88.8476C-34.8382 60.1862 -13.8768 45.3688 -13.8768 45.3688C-8.48057 52.1262 -10.2333 67.4823 -10.2333 67.4823C-6.41358 40.8658 19.3738 35.9199 19.3738 35.9199C13.6613 56.0711 9.72042 76.5088 9.72042 76.5088C36.7676 43.4612 55.3574 61.2265 55.3574 61.2265C41.2415 69.2213 29.0343 90.0435 29.0343 90.0435L-34.2362 88.8414L-34.2254 88.8476Z" fill="#6FA72E"/>
    <path d="M52.2748 60.9757C52.2748 60.9757 31.9049 53.8469 9.18029 78.6221C9.18029 78.6221 11.5939 52.4311 17.4438 38.7549C17.4438 38.7549 -2.81029 45.9764 -10.4158 70.3461C-10.4158 70.3461 -11.6522 53.7028 -14.4227 48.6405C-14.4227 48.6405 -30.3937 62.41 -34.2192 88.8369C-34.832 60.1755 -13.8706 45.3581 -13.8706 45.3581C-8.47434 52.1155 -10.2271 67.4716 -10.2271 67.4716C-6.40735 40.8551 19.38 35.9092 19.38 35.9092C13.6676 56.0604 9.72664 76.4981 9.72664 76.4981C36.7676 43.4613 55.3574 61.2266 55.3574 61.2266C41.2416 69.2213 29.0343 90.0436 29.0343 90.0436C29.0343 90.0436 38.5187 68.8186 52.2579 60.9803L52.2748 60.9757Z" fill="#92C94B"/>
    <path d="M460.59 80.8475C461.203 52.1862 440.241 37.3688 440.241 37.3688C434.845 44.1262 436.598 59.4823 436.598 59.4823C432.778 32.8657 406.991 27.9199 406.991 27.9199C412.703 48.0711 416.644 68.5087 416.644 68.5087C389.597 35.4612 371.007 53.2265 371.007 53.2265C385.123 61.2212 397.33 82.0435 397.33 82.0435L460.601 80.8414L460.59 80.8475Z" fill="#6FA72E"/>
    <path d="M374.09 52.9756C374.09 52.9756 394.46 45.8468 417.184 70.6221C417.184 70.6221 414.771 44.431 408.921 30.7549C408.921 30.7549 429.175 37.9764 436.78 62.3461C436.78 62.3461 438.017 45.7028 440.787 40.6405C440.787 40.6405 456.758 54.41 460.584 80.8369C461.196 52.1755 440.235 37.3581 440.235 37.3581C434.839 44.1155 436.592 59.4716 436.592 59.4716C432.772 32.855 406.985 27.9092 406.985 27.9092C412.697 48.0604 416.638 68.4981 416.638 68.4981C389.597 35.4613 371.007 53.2266 371.007 53.2266C385.123 61.2213 397.33 82.0436 397.33 82.0436C397.33 82.0436 387.846 60.8185 374.107 52.9802L374.09 52.9756Z" fill="#92C94B"/>
    <path d="M132.741 178.01C133.254 153.995 115.691 141.58 115.691 141.58C111.17 147.242 112.638 160.108 112.638 160.108C109.438 137.807 87.8315 133.663 87.8315 133.663C92.6178 150.547 95.9198 167.671 95.9198 167.671C73.2576 139.982 57.6817 154.867 57.6817 154.867C69.509 161.565 79.7372 179.012 79.7372 179.012L132.75 178.005L132.741 178.01Z" fill="#6FA72E"/>
    <path d="M60.2645 154.657C60.2645 154.657 77.332 148.684 96.3723 169.442C96.3723 169.442 94.35 147.497 89.4485 136.039C89.4485 136.039 106.419 142.089 112.791 162.508C112.791 162.508 113.827 148.563 116.149 144.321C116.149 144.321 129.53 155.859 132.736 178.001C133.249 153.986 115.686 141.571 115.686 141.571C111.165 147.233 112.633 160.099 112.633 160.099C109.433 137.798 87.8262 133.654 87.8262 133.654C92.6125 150.538 95.9145 167.663 95.9145 167.663C73.2576 139.982 57.6817 154.867 57.6817 154.867C69.509 161.566 79.7371 179.012 79.7371 179.012C79.7371 179.012 71.7904 161.228 60.2787 154.661L60.2645 154.657Z" fill="#92C94B"/>
    <path d="M196.179 158.593C196.569 145.905 183.254 139.345 183.254 139.345C179.826 142.337 180.939 149.135 180.939 149.135C178.513 137.352 162.132 135.162 162.132 135.162C165.761 144.083 168.264 153.131 168.264 153.131C151.084 138.501 139.275 146.365 139.275 146.365C148.242 149.904 155.996 159.122 155.996 159.122L196.186 158.59L196.179 158.593Z" fill="#6FA72E"/>
    <path d="M141.233 146.254C141.233 146.254 154.172 143.098 168.607 154.066C168.607 154.066 167.074 142.472 163.358 136.417C163.358 136.417 176.224 139.614 181.055 150.402C181.055 150.402 181.841 143.035 183.6 140.794C183.6 140.794 193.745 146.889 196.175 158.588C196.565 145.9 183.25 139.34 183.25 139.34C179.822 142.332 180.935 149.13 180.935 149.13C178.509 137.347 162.128 135.157 162.128 135.157C165.757 144.078 168.26 153.126 168.26 153.126C151.083 138.501 139.275 146.365 139.275 146.365C148.242 149.904 155.996 159.122 155.996 159.122C155.996 159.122 149.971 149.726 141.244 146.256L141.233 146.254Z" fill="#92C94B"/>
    <path d="M228.303 158.593C227.914 145.905 241.229 139.345 241.229 139.345C244.657 142.337 243.544 149.135 243.544 149.135C245.97 137.352 262.35 135.162 262.35 135.162C258.722 144.083 256.218 153.131 256.218 153.131C273.399 138.501 285.208 146.365 285.208 146.365C276.241 149.904 268.487 159.122 268.487 159.122L228.297 158.59L228.303 158.593Z" fill="#6FA72E"/>
    <path d="M283.25 146.254C283.25 146.254 270.31 143.098 255.875 154.066C255.875 154.066 257.409 142.472 261.125 136.417C261.125 136.417 248.259 139.614 243.428 150.402C243.428 150.402 242.642 143.035 240.882 140.794C240.882 140.794 230.737 146.889 228.307 158.588C227.918 145.9 241.233 139.34 241.233 139.34C244.661 142.332 243.548 149.13 243.548 149.13C245.974 137.347 262.354 135.157 262.354 135.157C258.726 144.078 256.222 153.126 256.222 153.126C273.399 138.501 285.208 146.365 285.208 146.365C276.241 149.904 268.487 159.122 268.487 159.122C268.487 159.122 274.512 149.726 283.239 146.256L283.25 146.254Z" fill="#92C94B"/>
    <path d="M301.676 177.01C301.163 152.995 318.726 140.58 318.726 140.58C323.247 146.242 321.779 159.108 321.779 159.108C324.979 136.807 346.586 132.663 346.586 132.663C341.799 149.547 338.497 166.671 338.497 166.671C361.159 138.982 376.735 153.867 376.735 153.867C364.908 160.565 354.68 178.012 354.68 178.012L301.667 177.005L301.676 177.01Z" fill="#6FA72E"/>
    <path d="M374.153 153.657C374.153 153.657 357.085 147.684 338.045 168.442C338.045 168.442 340.067 146.497 344.968 135.039C344.968 135.039 327.998 141.089 321.626 161.508C321.626 161.508 320.59 147.563 318.268 143.321C318.268 143.321 304.887 154.859 301.681 177.001C301.168 152.986 318.731 140.571 318.731 140.571C323.252 146.233 321.784 159.099 321.784 159.099C324.984 136.798 346.591 132.654 346.591 132.654C341.804 149.538 338.502 166.663 338.502 166.663C361.159 138.982 376.735 153.867 376.735 153.867C364.908 160.566 354.68 178.012 354.68 178.012C354.68 178.012 362.627 160.228 374.138 153.661L374.153 153.657Z" fill="#92C94B"/>
  </g>
</svg>