<svg width="430" height="764" viewBox="0 0 430 764" fill="none" xmlns="http://www.w3.org/2000/svg">
  <path d="M140.541 -57.9628C140.578 -63.2897 145.246 -67.4684 150.517 -68.2495C160.361 -69.6989 174.817 -70.0565 174.845 -59.6851C174.845 -59.6851 173.453 64.0378 177.198 88.0746C179.57 103.302 179.306 113.438 178.789 118.822C178.535 121.523 176.436 123.688 173.735 124.045L147.336 127.584C147.336 127.584 140.814 128.28 139.825 120.93C138.837 113.58 141.83 106.041 141.792 101.872C141.755 97.806 139.844 52.7911 140.541 -57.9722V-57.9628Z" fill="#476723"/>
  <path d="M151.307 716.242C151.307 716.242 153.133 706.068 140.851 678.737C140.851 678.737 158.592 672.46 169.321 671.744C170.93 671.641 172.304 672.883 172.314 674.492C172.483 690.689 172.125 735.055 172.652 756.852C173.095 775.355 173.537 809.97 173.688 822.525C173.716 825.141 171.655 827.297 169.038 827.391L146.978 828.134C146.978 828.134 140.456 828.831 139.468 821.48C138.479 814.13 141.472 809.274 141.435 805.104C141.397 801.434 135.242 754.716 134.047 703.856C134.047 703.856 142.649 714.783 151.298 716.232L151.307 716.242Z" fill="#476723"/>
  <path d="M130.169 675.17C130.169 675.17 123.468 660.601 91.4128 658.455C91.4128 658.455 104.25 670.549 130.169 675.17Z" fill="#476723"/>
  <path d="M129.143 677.721C129.143 677.721 106.076 668.441 86.9895 684.525C86.9895 684.525 107.346 685.269 129.143 677.721Z" fill="#476723"/>
  <path d="M130.677 679.452C130.677 679.452 109.671 681.052 114.819 707.536C114.819 707.536 127.732 694.52 130.677 679.452Z" fill="#476723"/>
  <path d="M132.249 678.746C132.249 678.746 143.317 686.276 148.333 712.091C148.333 712.091 126.772 698.463 132.249 678.746Z" fill="#476723"/>
  <path d="M148.663 133.297C150.658 133.108 164.333 130.972 172.492 129.692C175.739 129.184 178.713 131.612 178.836 134.897C179.984 164.053 184.596 287.381 181.358 306.477C180.191 313.366 170.017 312.613 168.662 312.679C167.307 312.745 148.286 313.356 142.818 315.013C137.359 316.669 136.795 313.385 137.83 308.952C138.856 304.519 139.044 277.762 140.362 251.043C141.595 226.197 140.145 153.992 140.145 153.992C140.145 153.992 137.256 134.37 148.653 133.306L148.663 133.297Z" fill="#476723"/>
  <path d="M137.52 324.772C137.52 324.772 136.927 319.511 139.797 319.248C141.378 319.097 168.37 317.733 168.37 317.733C144.343 347.868 145.905 362.042 145.905 362.042C163.928 359.369 180.031 334.25 180.031 334.25C179.918 344.565 180.21 361.345 177.471 380.328C172.351 415.913 172.615 464.73 172.907 482.489C172.973 486.527 170.224 490.066 166.29 490.988C156.135 493.388 137.802 497.105 134.63 493.52C128.833 486.96 137.52 324.763 137.52 324.763V324.772Z" fill="#476723"/>
  <path d="M187.033 306.863C187.033 306.863 205.404 294.185 224.971 300.726C224.971 300.726 204.924 308.754 187.033 306.863Z" fill="#476723"/>
  <path d="M189.998 315.982C189.998 315.982 220.754 316.029 228.867 341.054C228.867 341.054 201.32 330.363 189.998 315.982Z" fill="#476723"/>
  <path d="M183.918 319.116C183.918 319.116 206.223 333.177 190.901 364.244C190.901 364.244 182.459 342.861 183.918 319.116Z" fill="#476723"/>
  <path d="M175.937 320.189C175.937 320.189 180.078 339.765 150.216 356.771C150.216 356.771 159.994 331.963 175.937 320.189Z" fill="#476723"/>
  <path d="M169.161 496.324C169.161 496.324 137.491 498.489 132.964 505.369C128.428 512.239 133.905 672.45 133.905 672.45C133.905 672.45 153.82 666.775 168.916 665.834C171.608 665.664 173.697 663.443 173.659 660.752L171.739 526.272C171.739 526.272 174.77 496.145 169.161 496.324Z" fill="#476723"/>
  <path d="M354.444 -57.9628C354.482 -63.2897 359.15 -67.4684 364.42 -68.2495C374.265 -69.6989 388.721 -70.0565 388.749 -59.6851C388.749 -59.6851 387.356 64.0378 391.102 88.0746C393.473 103.302 393.21 113.438 392.692 118.822C392.438 121.523 390.339 123.688 387.638 124.045L361.239 127.584C361.239 127.584 354.717 128.28 353.729 120.93C352.741 113.58 355.733 106.041 355.696 101.872C355.658 97.806 353.748 52.7911 354.444 -57.9722V-57.9628Z" fill="#476723"/>
  <path d="M365.211 716.242C365.211 716.242 367.036 706.068 354.755 678.737C354.755 678.737 372.495 672.46 383.224 671.744C384.834 671.641 386.208 672.883 386.217 674.492C386.386 690.689 386.029 735.055 386.556 756.852C387.008 775.59 387.45 810.874 387.6 823.005C387.629 825.358 385.784 827.315 383.422 827.41L360.872 828.37C360.872 828.37 354.35 829.066 353.362 821.716C352.373 814.365 355.366 809.274 355.329 805.104C355.291 801.434 349.136 754.716 347.941 703.856C347.941 703.856 356.543 714.783 365.192 716.232L365.211 716.242Z" fill="#476723"/>
  <path d="M344.073 675.17C344.073 675.17 337.372 660.601 305.316 658.455C305.316 658.455 318.154 670.549 344.073 675.17Z" fill="#476723"/>
  <path d="M343.056 677.721C343.056 677.721 319.989 668.441 300.902 684.525C300.902 684.525 321.259 685.269 343.056 677.721Z" fill="#476723"/>
  <path d="M344.59 679.452C344.59 679.452 323.584 681.052 328.732 707.536C328.732 707.536 341.644 694.52 344.59 679.452Z" fill="#476723"/>
  <path d="M346.153 678.746C346.153 678.746 357.221 686.276 362.237 712.091C362.237 712.091 340.675 698.463 346.153 678.746Z" fill="#476723"/>
  <path d="M362.566 133.297C364.561 133.108 378.236 130.972 386.396 129.692C389.643 129.184 392.617 131.612 392.739 134.897C393.887 164.053 398.499 287.381 395.262 306.477C394.095 313.366 383.921 312.613 382.565 312.679C381.21 312.745 362.19 313.356 356.722 315.013C351.263 316.669 350.698 313.385 351.734 308.952C352.759 304.519 352.948 277.762 354.265 251.043C355.498 226.197 354.049 153.992 354.049 153.992C354.049 153.992 351.16 134.37 362.557 133.306L362.566 133.297Z" fill="#476723"/>
  <path d="M351.432 324.772C351.432 324.772 350.84 319.511 353.71 319.248C355.291 319.097 382.283 317.733 382.283 317.733C358.256 347.868 359.818 362.042 359.818 362.042C377.841 359.369 393.944 334.25 393.944 334.25C393.831 344.565 394.123 361.345 391.384 380.328C386.264 415.913 386.528 464.73 386.82 482.489C386.885 486.527 384.137 490.066 380.203 490.988C370.048 493.388 351.715 497.105 348.543 493.52C342.746 486.96 351.432 324.763 351.432 324.763V324.772Z" fill="#476723"/>
  <path d="M400.946 306.863C400.946 306.863 419.317 294.185 438.884 300.726C438.884 300.726 418.837 308.754 400.946 306.863Z" fill="#476723"/>
  <path d="M403.911 315.982C403.911 315.982 434.667 316.029 442.78 341.054C442.78 341.054 415.233 330.363 403.911 315.982Z" fill="#476723"/>
  <path d="M397.831 319.116C397.831 319.116 420.136 333.177 404.814 364.244C404.814 364.244 396.372 342.861 397.831 319.116Z" fill="#476723"/>
  <path d="M389.85 320.189C389.85 320.189 393.991 339.765 364.128 356.771C364.128 356.771 373.907 331.963 389.85 320.189Z" fill="#476723"/>
  <path d="M383.074 496.324C383.074 496.324 351.404 498.489 346.877 505.369C342.341 512.239 347.818 672.45 347.818 672.45C347.818 672.45 367.733 666.775 382.829 665.834C385.521 665.664 387.61 663.443 387.572 660.752L385.652 526.272C385.652 526.272 388.683 496.145 383.074 496.324Z" fill="#476723"/>
  <path d="M33.7585 -58.9416C33.4197 -70.0095 39.2266 -67.3272 44.5441 -67.5719C64.7316 -68.4942 68.5715 -70.2354 68.8726 -59.0075C68.8726 -59.0075 67.5927 64.0284 71.3384 88.0746C75.0842 112.111 72.2514 123.462 72.2514 123.462L41.4759 127.593C41.4759 127.593 34.9538 128.29 33.9656 120.939C32.9774 113.589 35.9702 106.05 35.9326 101.881C35.8949 97.8155 36.9961 46.3348 33.7491 -58.9322L33.7585 -58.9416Z" fill="#476723"/>
  <path d="M27.9232 678.953C27.9232 678.953 45.7015 672.93 63.4891 671.744C65.089 671.641 66.4537 672.892 66.4725 674.502C66.6419 690.699 66.2843 735.064 66.8113 756.861C67.2443 774.95 67.6772 808.436 67.8372 821.659C67.8748 824.746 65.409 827.287 62.3221 827.344L41.1369 827.739C41.1369 827.739 34.6148 828.435 33.6266 821.085C32.6384 813.735 35.6312 809.283 35.5936 805.114C35.5559 800.945 27.4433 735.874 27.9327 678.953H27.9232Z" fill="#476723"/>
  <path d="M31.1797 127.226C31.1797 127.226 24.4787 112.657 -7.57666 110.511C-7.57666 110.511 5.26055 122.605 31.1797 127.226Z" fill="#476723"/>
  <path d="M30.1539 129.777C30.1539 129.777 7.08641 120.497 -12 136.581C-12 136.581 8.35696 137.325 30.1539 129.777Z" fill="#476723"/>
  <path d="M31.6974 131.508C31.6974 131.508 10.6911 133.108 15.8391 159.592C15.8391 159.592 28.7516 146.576 31.6974 131.508Z" fill="#476723"/>
  <path d="M33.2596 130.793C33.2596 130.793 44.3275 138.322 49.3438 164.138C49.3438 164.138 27.7822 150.51 33.2596 130.793Z" fill="#476723"/>
  <path d="M42.9629 136.308C41.6358 133.758 73.7477 133.297 73.7477 133.297C73.7477 133.297 79.1781 284.793 75.5076 306.477C74.3406 313.366 72.176 312.265 70.8207 312.331C69.4655 312.396 42.4358 313.356 36.9678 315.013C31.5091 316.669 30.9444 313.385 31.9797 308.952C33.0055 304.519 33.1938 277.762 34.5114 251.043C35.7443 226.197 34.2949 153.992 34.2949 153.992C34.2949 153.992 43.6499 165.888 51.2261 167.357C51.2261 167.357 54.1342 157.785 42.9534 136.308H42.9629Z" fill="#476723"/>
  <path d="M31.6691 324.772C31.6691 324.772 31.0762 319.512 33.9467 319.248C36.8077 318.975 74.303 316.443 74.303 316.443C74.303 316.443 77.9828 336.085 71.6207 380.338C65.2586 424.59 67.2067 489.313 67.2067 489.313C67.2067 489.313 34.1255 500.484 28.7892 493.539C23.4529 486.593 31.6785 324.782 31.6785 324.782L31.6691 324.772Z" fill="#476723"/>
  <path d="M83.7803 484.071C83.7803 484.071 102.151 471.393 121.718 477.934C121.718 477.934 101.671 485.962 83.7803 484.071Z" fill="#476723"/>
  <path d="M86.7449 493.181C86.7449 493.181 117.501 493.228 125.614 518.253C125.614 518.253 98.0668 507.562 86.7449 493.181Z" fill="#476723"/>
  <path d="M80.6745 496.324C80.6745 496.324 102.98 510.385 87.6578 541.452C87.6578 541.452 79.2158 520.069 80.6745 496.324Z" fill="#476723"/>
  <path d="M72.6936 497.388C72.6936 497.388 75.1406 519.109 45.2781 536.107C45.2781 536.107 56.7506 509.152 72.6936 497.388Z" fill="#476723"/>
  <path d="M61.3058 500.776C61.3058 500.776 31.6409 498.489 27.114 505.359C22.5777 512.23 28.0551 672.441 28.0551 672.441C28.0551 672.441 47.9698 666.766 63.0657 665.825C65.7574 665.655 67.8467 663.434 67.8091 660.742L65.8891 526.262C65.8891 526.262 46.5392 543.476 35.5749 547.504C35.5749 547.504 43.4993 520.22 61.3152 500.767L61.3058 500.776Z" fill="#476723"/>
  <path d="M249.808 -58.9416C249.469 -70.0095 255.276 -67.3272 260.593 -67.5719C280.781 -68.4942 284.621 -70.2354 284.922 -59.0075C284.922 -59.0075 283.642 64.0284 287.388 88.0746C291.133 112.111 288.3 123.462 288.3 123.462L257.525 127.593C257.525 127.593 251.003 128.29 250.015 120.939C249.026 113.589 252.019 106.05 251.982 101.881C251.944 97.8155 253.045 46.3348 249.798 -58.9322L249.808 -58.9416Z" fill="#476723"/>
  <path d="M243.972 678.953C243.972 678.953 261.751 672.93 279.538 671.744C281.138 671.641 282.503 672.892 282.522 674.502C282.691 690.699 282.333 735.064 282.861 756.861C283.312 775.656 283.755 811.071 283.905 823.118C283.933 825.424 282.136 827.334 279.83 827.457L257.177 828.624C257.177 828.624 250.655 829.32 249.666 821.97C248.678 814.619 251.671 809.283 251.633 805.114C251.596 800.945 243.483 735.874 243.972 678.953Z" fill="#476723"/>
  <path d="M247.229 127.226C247.229 127.226 240.528 112.657 208.472 110.511C208.472 110.511 221.31 122.605 247.229 127.226Z" fill="#476723"/>
  <path d="M246.203 129.777C246.203 129.777 223.135 120.497 204.049 136.581C204.049 136.581 224.406 137.325 246.203 129.777Z" fill="#476723"/>
  <path d="M247.746 131.508C247.746 131.508 226.74 133.108 231.888 159.592C231.888 159.592 244.801 146.576 247.746 131.508Z" fill="#476723"/>
  <path d="M249.309 130.793C249.309 130.793 260.377 138.322 265.393 164.138C265.393 164.138 243.831 150.51 249.309 130.793Z" fill="#476723"/>
  <path d="M259.012 136.308C257.685 133.758 289.797 133.297 289.797 133.297C289.797 133.297 295.227 284.793 291.557 306.477C290.39 313.366 288.225 312.265 286.87 312.331C285.515 312.396 258.485 313.356 253.017 315.013C247.558 316.669 246.994 313.385 248.029 308.952C249.055 304.519 249.243 277.762 250.56 251.043C251.793 226.197 250.344 153.992 250.344 153.992C250.344 153.992 259.699 165.888 267.275 167.357C267.275 167.357 270.183 157.785 259.003 136.308H259.012Z" fill="#476723"/>
  <path d="M247.718 324.772C247.718 324.772 247.125 319.512 249.996 319.248C252.857 318.975 290.352 316.443 290.352 316.443C290.352 316.443 294.032 336.085 287.67 380.338C281.308 424.59 283.256 489.313 283.256 489.313C283.256 489.313 250.175 500.484 244.838 493.539C239.502 486.593 247.728 324.782 247.728 324.782L247.718 324.772Z" fill="#476723"/>
  <path d="M299.829 484.071C299.829 484.071 318.201 471.393 337.767 477.934C337.767 477.934 317.721 485.962 299.829 484.071Z" fill="#476723"/>
  <path d="M302.794 493.181C302.794 493.181 333.551 493.228 341.663 518.253C341.663 518.253 314.116 507.562 302.794 493.181Z" fill="#476723"/>
  <path d="M296.714 496.324C296.714 496.324 319.019 510.385 303.697 541.452C303.697 541.452 295.255 520.069 296.714 496.324Z" fill="#476723"/>
  <path d="M288.743 497.388C288.743 497.388 291.19 519.109 261.327 536.107C261.327 536.107 272.8 509.152 288.743 497.388Z" fill="#476723"/>
  <path d="M277.355 500.776C277.355 500.776 247.69 498.489 243.163 505.359C238.627 512.23 244.104 672.441 244.104 672.441C244.104 672.441 264.019 666.766 279.115 665.825C281.806 665.655 283.896 663.434 283.858 660.742L281.938 526.262C281.938 526.262 262.588 543.476 251.624 547.504C251.624 547.504 259.548 520.22 277.364 500.767L277.355 500.776Z" fill="#476723"/>
</svg>
