<svg width="430" height="649" viewBox="0 0 430 649" fill="none" xmlns="http://www.w3.org/2000/svg">
<path d="M369.431 13.6126L371.949 0L361.611 8.87822L355.604 0L349.94 10.3842L331.253 7.70693L344.541 17.7564L231.85 36.5267L77.5119 24.9319L90.8389 11.7819L71.4854 17.7761L64.1458 2.02762L60.4514 21.5361L37.3351 15.4926L0 3.13986V649H430V3.53357L369.431 13.6126Z" fill="#6FA72E"/>
<path d="M270.41 52.1623L272.624 38.4511L262.619 49.6603L248.606 43.7367L255.877 52.7754L91.0838 47.4152L104.911 37.6972L88.3988 41.1933V33.0163L79.2268 40.4891L67.7225 31.467L71.162 43.919L0 23V649H430V29.6361L270.41 52.1623Z" fill="#5B8A27"/>
<path d="M159.59 72.4832L157.376 56.265L167.381 69.5157L181.394 62.5133L174.123 73.1981L338.916 66.8616L325.08 55.3738L341.601 59.5165V49.8404L350.773 58.6742L362.278 48.009L358.828 62.7386L430 38V649H0L0 45.8446L159.59 72.4832Z" fill="#496D20"/>
<mask id="mask0_2302_9175" style="mask-type:alpha" maskUnits="userSpaceOnUse" x="0" y="38" width="430" height="611">
<path d="M159.59 72.4832L157.376 56.265L167.381 69.5157L181.394 62.5133L174.123 73.1981L338.916 66.8616L325.08 55.3738L341.601 59.5165V49.8404L350.773 58.6742L362.278 48.009L358.828 62.7386L430 38V649H0L0 45.8446L159.59 72.4832Z" fill="#496D20"/>
</mask>
<g mask="url(#mask0_2302_9175)">
<path d="M140.541 49.0372C140.578 43.7103 145.246 39.5316 150.517 38.7505C160.361 37.3011 174.817 36.9435 174.845 47.3149C174.845 47.3149 173.453 171.038 177.198 195.075C179.57 210.302 179.306 220.438 178.789 225.822C178.535 228.523 176.436 230.688 173.735 231.045L147.336 234.584C147.336 234.584 140.814 235.28 139.825 227.93C138.837 220.58 141.83 213.041 141.792 208.872C141.755 204.806 139.844 159.791 140.541 49.0278V49.0372Z" fill="#476723"/>
<path d="M148.663 240.297C150.658 240.108 164.333 237.972 172.492 236.692C175.739 236.184 178.713 238.612 178.836 241.897C179.984 271.053 184.596 394.381 181.358 413.477C180.191 420.366 170.017 419.613 168.662 419.679C167.307 419.745 148.286 420.356 142.818 422.013C137.359 423.669 136.795 420.385 137.83 415.952C138.856 411.519 139.044 384.762 140.362 358.043C141.595 333.197 140.145 260.992 140.145 260.992C140.145 260.992 137.256 241.37 148.653 240.306L148.663 240.297Z" fill="#476723"/>
<path d="M137.52 431.772C137.52 431.772 136.927 426.511 139.797 426.248C141.378 426.097 168.37 424.733 168.37 424.733C144.343 454.868 145.905 469.042 145.905 469.042C163.928 466.369 180.031 441.25 180.031 441.25C179.918 451.565 180.21 468.345 177.471 487.328C172.351 522.913 172.615 571.73 172.907 589.489C172.973 593.527 170.224 597.066 166.29 597.988C156.135 600.388 137.802 604.105 134.63 600.52C128.833 593.96 137.52 431.763 137.52 431.763V431.772Z" fill="#476723"/>
<path d="M187.033 413.862C187.033 413.862 205.404 401.185 224.971 407.726C224.971 407.726 204.924 415.754 187.033 413.862Z" fill="#476723"/>
<path d="M189.998 422.982C189.998 422.982 220.754 423.029 228.867 448.054C228.867 448.054 201.32 437.363 189.998 422.982Z" fill="#476723"/>
<path d="M183.918 426.116C183.918 426.116 206.223 440.177 190.901 471.244C190.901 471.244 182.459 449.861 183.918 426.116Z" fill="#476723"/>
<path d="M175.937 427.189C175.937 427.189 180.078 446.765 150.216 463.771C150.216 463.771 159.994 438.963 175.937 427.189Z" fill="#476723"/>
<path d="M169.161 603.324C169.161 603.324 137.491 605.489 132.964 612.369C128.428 619.239 133.905 779.45 133.905 779.45C133.905 779.45 153.82 773.775 168.916 772.834C171.608 772.664 173.697 770.443 173.659 767.752L171.739 633.272C171.739 633.272 174.77 603.145 169.161 603.324Z" fill="#476723"/>
<path d="M354.444 49.0372C354.482 43.7103 359.15 39.5316 364.42 38.7505C374.265 37.3011 388.721 36.9435 388.749 47.3149C388.749 47.3149 387.356 171.038 391.102 195.075C393.473 210.302 393.21 220.438 392.692 225.822C392.438 228.523 390.339 230.688 387.638 231.045L361.239 234.584C361.239 234.584 354.717 235.28 353.729 227.93C352.741 220.58 355.733 213.041 355.696 208.872C355.658 204.806 353.748 159.791 354.444 49.0278V49.0372Z" fill="#476723"/>
<path d="M362.566 240.297C364.561 240.108 378.236 237.972 386.396 236.692C389.643 236.184 392.617 238.612 392.739 241.897C393.887 271.053 398.499 394.381 395.262 413.477C394.095 420.366 383.921 419.613 382.565 419.679C381.21 419.745 362.19 420.356 356.722 422.013C351.263 423.669 350.698 420.385 351.734 415.952C352.759 411.519 352.948 384.762 354.265 358.043C355.498 333.197 354.049 260.992 354.049 260.992C354.049 260.992 351.16 241.37 362.557 240.306L362.566 240.297Z" fill="#476723"/>
<path d="M351.432 431.772C351.432 431.772 350.84 426.511 353.71 426.248C355.291 426.097 382.283 424.733 382.283 424.733C358.256 454.868 359.818 469.042 359.818 469.042C377.841 466.369 393.944 441.25 393.944 441.25C393.831 451.565 394.123 468.345 391.384 487.328C386.264 522.913 386.528 571.73 386.82 589.489C386.885 593.527 384.137 597.066 380.203 597.988C370.048 600.388 351.715 604.105 348.543 600.52C342.746 593.96 351.432 431.763 351.432 431.763V431.772Z" fill="#476723"/>
<path d="M400.946 413.862C400.946 413.862 419.317 401.185 438.884 407.726C438.884 407.726 418.837 415.754 400.946 413.862Z" fill="#476723"/>
<path d="M403.911 422.982C403.911 422.982 434.667 423.029 442.78 448.054C442.78 448.054 415.233 437.363 403.911 422.982Z" fill="#476723"/>
<path d="M397.831 426.116C397.831 426.116 420.136 440.177 404.814 471.244C404.814 471.244 396.372 449.861 397.831 426.116Z" fill="#476723"/>
<path d="M389.85 427.189C389.85 427.189 393.991 446.765 364.128 463.771C364.128 463.771 373.907 438.963 389.85 427.189Z" fill="#476723"/>
<path d="M383.074 603.324C383.074 603.324 351.404 605.489 346.877 612.369C342.341 619.239 347.818 779.45 347.818 779.45C347.818 779.45 367.733 773.775 382.829 772.834C385.521 772.664 387.61 770.443 387.572 767.752L385.652 633.272C385.652 633.272 388.683 603.145 383.074 603.324Z" fill="#476723"/>
<path d="M33.7585 48.0584C33.4197 36.9905 39.2266 39.6728 44.5441 39.4281C64.7316 38.5058 68.5715 36.7646 68.8726 47.9925C68.8726 47.9925 67.5927 171.028 71.3384 195.075C75.0842 219.111 72.2514 230.462 72.2514 230.462L41.4759 234.593C41.4759 234.593 34.9538 235.29 33.9656 227.939C32.9774 220.589 35.9702 213.05 35.9326 208.881C35.8949 204.815 36.9961 153.335 33.7491 48.0678L33.7585 48.0584Z" fill="#476723"/>
<path d="M31.1797 234.226C31.1797 234.226 24.4787 219.657 -7.57666 217.511C-7.57666 217.511 5.26055 229.605 31.1797 234.226Z" fill="#476723"/>
<path d="M30.1539 236.777C30.1539 236.777 7.08641 227.497 -12 243.581C-12 243.581 8.35696 244.325 30.1539 236.777Z" fill="#476723"/>
<path d="M31.6974 238.508C31.6974 238.508 10.6911 240.108 15.8391 266.592C15.8391 266.592 28.7516 253.576 31.6974 238.508Z" fill="#476723"/>
<path d="M33.2596 237.793C33.2596 237.793 44.3275 245.322 49.3438 271.138C49.3438 271.138 27.7822 257.51 33.2596 237.793Z" fill="#476723"/>
<path d="M42.9629 243.308C41.6358 240.758 73.7477 240.297 73.7477 240.297C73.7477 240.297 79.1781 391.793 75.5076 413.477C74.3406 420.366 72.176 419.265 70.8207 419.331C69.4655 419.396 42.4358 420.356 36.9678 422.013C31.5091 423.669 30.9444 420.385 31.9797 415.952C33.0055 411.519 33.1938 384.762 34.5114 358.043C35.7443 333.197 34.2949 260.992 34.2949 260.992C34.2949 260.992 43.6499 272.888 51.2261 274.357C51.2261 274.357 54.1342 264.785 42.9534 243.308H42.9629Z" fill="#476723"/>
<path d="M31.6691 431.772C31.6691 431.772 31.0762 426.512 33.9467 426.248C36.8077 425.975 74.303 423.443 74.303 423.443C74.303 423.443 77.9828 443.085 71.6207 487.338C65.2586 531.59 67.2067 596.313 67.2067 596.313C67.2067 596.313 34.1255 607.484 28.7892 600.539C23.4529 593.593 31.6785 431.782 31.6785 431.782L31.6691 431.772Z" fill="#476723"/>
<path d="M83.7803 591.071C83.7803 591.071 102.151 578.393 121.718 584.934C121.718 584.934 101.671 592.962 83.7803 591.071Z" fill="#476723"/>
<path d="M86.7449 600.181C86.7449 600.181 117.501 600.228 125.614 625.253C125.614 625.253 98.0668 614.562 86.7449 600.181Z" fill="#476723"/>
<path d="M80.6745 603.324C80.6745 603.324 102.98 617.385 87.6578 648.452C87.6578 648.452 79.2158 627.069 80.6745 603.324Z" fill="#476723"/>
<path d="M72.6936 604.388C72.6936 604.388 75.1406 626.109 45.2781 643.107C45.2781 643.107 56.7506 616.152 72.6936 604.388Z" fill="#476723"/>
<path d="M61.3058 607.776C61.3058 607.776 31.6409 605.489 27.114 612.359C22.5777 619.23 28.0551 779.441 28.0551 779.441C28.0551 779.441 47.9698 773.766 63.0657 772.825C65.7574 772.655 67.8467 770.434 67.8091 767.742L65.8891 633.262C65.8891 633.262 46.5392 650.476 35.5749 654.504C35.5749 654.504 43.4993 627.22 61.3152 607.767L61.3058 607.776Z" fill="#476723"/>
<path d="M249.808 48.0584C249.469 36.9905 255.276 39.6728 260.593 39.4281C280.781 38.5058 284.621 36.7646 284.922 47.9925C284.922 47.9925 283.642 171.028 287.388 195.075C291.133 219.111 288.3 230.462 288.3 230.462L257.525 234.593C257.525 234.593 251.003 235.29 250.015 227.939C249.026 220.589 252.019 213.05 251.982 208.881C251.944 204.815 253.045 153.335 249.798 48.0678L249.808 48.0584Z" fill="#476723"/>
<path d="M247.229 234.226C247.229 234.226 240.528 219.657 208.472 217.511C208.472 217.511 221.31 229.605 247.229 234.226Z" fill="#476723"/>
<path d="M246.203 236.777C246.203 236.777 223.135 227.497 204.049 243.581C204.049 243.581 224.406 244.325 246.203 236.777Z" fill="#476723"/>
<path d="M247.746 238.508C247.746 238.508 226.74 240.108 231.888 266.592C231.888 266.592 244.801 253.576 247.746 238.508Z" fill="#476723"/>
<path d="M249.309 237.793C249.309 237.793 260.377 245.322 265.393 271.138C265.393 271.138 243.831 257.51 249.309 237.793Z" fill="#476723"/>
<path d="M259.012 243.308C257.685 240.758 289.797 240.297 289.797 240.297C289.797 240.297 295.227 391.793 291.557 413.477C290.39 420.366 288.225 419.265 286.87 419.331C285.515 419.396 258.485 420.356 253.017 422.013C247.558 423.669 246.994 420.385 248.029 415.952C249.055 411.519 249.243 384.762 250.56 358.043C251.793 333.197 250.344 260.992 250.344 260.992C250.344 260.992 259.699 272.888 267.275 274.357C267.275 274.357 270.183 264.785 259.003 243.308H259.012Z" fill="#476723"/>
<path d="M247.718 431.772C247.718 431.772 247.125 426.512 249.996 426.248C252.857 425.975 290.352 423.443 290.352 423.443C290.352 423.443 294.032 443.085 287.67 487.338C281.308 531.59 283.256 596.313 283.256 596.313C283.256 596.313 250.175 607.484 244.838 600.539C239.502 593.593 247.728 431.782 247.728 431.782L247.718 431.772Z" fill="#476723"/>
<path d="M299.829 591.071C299.829 591.071 318.201 578.393 337.767 584.934C337.767 584.934 317.721 592.962 299.829 591.071Z" fill="#476723"/>
<path d="M302.794 600.181C302.794 600.181 333.551 600.228 341.663 625.253C341.663 625.253 314.116 614.562 302.794 600.181Z" fill="#476723"/>
<path d="M296.714 603.324C296.714 603.324 319.019 617.385 303.697 648.452C303.697 648.452 295.255 627.069 296.714 603.324Z" fill="#476723"/>
<path d="M288.743 604.388C288.743 604.388 291.19 626.109 261.327 643.107C261.327 643.107 272.8 616.152 288.743 604.388Z" fill="#476723"/>
<path d="M277.355 607.776C277.355 607.776 247.69 605.489 243.163 612.359C238.627 619.23 244.104 779.441 244.104 779.441C244.104 779.441 264.019 773.766 279.115 772.825C281.806 772.655 283.896 770.434 283.858 767.742L281.938 633.262C281.938 633.262 262.588 650.476 251.624 654.504C251.624 654.504 259.548 627.22 277.364 607.767L277.355 607.776Z" fill="#476723"/>
</g>
</svg>