<svg width="352" height="60" viewBox="0 0 352 60" fill="none" xmlns="http://www.w3.org/2000/svg">
  <path d="M12.3916 56.7948L2.71423 41.8109L3.50664 17.8331L15.6903 2.70538L336.937 4.92868L349.264 18.7613L348.275 41.8145L339.863 56.7948H12.3916Z" fill="#324C0B"/>
    <path d="M16.9668 5.41434L335.729 7.61964L346.532 19.7434L345.618 41.0518L338.292 54.0966H13.8545L5.4321 41.0518L6.16355 18.8225L16.9668 5.41434ZM14.4103 0L12.7825 2.02183L1.97922 15.4336L0.846188 16.8402L0.785234 18.6462L0.0573687 40.8755L0 42.5664L0.917899 43.9874L9.34034 57.0322L10.9287 59.4929H341.433L342.975 56.7444L350.3 43.6996L350.931 42.5736L350.985 41.2821L351.9 19.9737L351.993 17.7828L350.533 16.1459L339.73 4.02208L338.142 2.23769L335.757 2.2197L17.0026 0.0179878L14.4103 0Z" fill="#496D20"/>
      <mask id="path-3-outside-1_2369_1260" maskUnits="userSpaceOnUse" x="124" y="16" width="103" height="28" fill="black">
        <rect fill="white" x="124" y="16" width="103" height="28"/>
        <path d="M140.156 26.9375H134.078L142.625 33.1875L141.984 40.3594L134.812 41L127.516 40.1562L130.125 34.2969L133.875 36.3125H137.297L134.812 33.1875L128.562 29.2031L128.125 23.3438L131.688 19.6094L137.938 19.7188L142.625 21.8125L140.156 26.9375ZM159.141 41H149.922L150.594 24.7188L144.5 24.3125V19.125H162.938V24.4062L156.844 25.375L159.141 41ZM184.375 41H178.125L175 34.75H171.875L168.75 41H164.062L169.438 19.1562L178.125 19.2031L184.375 41ZM176.562 30.9375L172.844 22.25L170.312 30.9375H176.562ZM202.812 41H196.562L195 32.6094L192.312 32.5625L191.203 41H185.625L186.656 19.6719L196.562 19.125L202.266 20.6875L201.703 28.5L198.125 31.625L202.812 41ZM190.234 28.8594L195.531 28.3594L198.844 23.8906L193.453 22L190.203 22.4375L190.234 28.8594ZM219.359 41H210.141L210.812 24.7188L204.719 24.3125V19.125H223.156V24.4062L217.062 25.375L219.359 41Z"/>
      </mask>
    <path d="M140.156 26.9375H134.078L142.625 33.1875L141.984 40.3594L134.812 41L127.516 40.1562L130.125 34.2969L133.875 36.3125H137.297L134.812 33.1875L128.562 29.2031L128.125 23.3438L131.688 19.6094L137.938 19.7188L142.625 21.8125L140.156 26.9375ZM159.141 41H149.922L150.594 24.7188L144.5 24.3125V19.125H162.938V24.4062L156.844 25.375L159.141 41ZM184.375 41H178.125L175 34.75H171.875L168.75 41H164.062L169.438 19.1562L178.125 19.2031L184.375 41ZM176.562 30.9375L172.844 22.25L170.312 30.9375H176.562ZM202.812 41H196.562L195 32.6094L192.312 32.5625L191.203 41H185.625L186.656 19.6719L196.562 19.125L202.266 20.6875L201.703 28.5L198.125 31.625L202.812 41ZM190.234 28.8594L195.531 28.3594L198.844 23.8906L193.453 22L190.203 22.4375L190.234 28.8594ZM219.359 41H210.141L210.812 24.7188L204.719 24.3125V19.125H223.156V24.4062L217.062 25.375L219.359 41Z" fill="white"/>
  <path d="M140.156 26.9375V29.9375C141.309 29.9375 142.359 29.2775 142.859 28.2394L140.156 26.9375ZM134.078 26.9375V23.9375C132.78 23.9375 131.629 24.7722 131.226 26.0061C130.823 27.2399 131.26 28.5929 132.307 29.3591L134.078 26.9375ZM142.625 33.1875L145.613 33.4544C145.707 32.4068 145.245 31.3867 144.396 30.7659L142.625 33.1875ZM141.984 40.3594L142.251 43.3475C143.697 43.2183 144.843 42.0723 144.972 40.6263L141.984 40.3594ZM134.812 41L134.468 43.9801C134.671 44.0036 134.876 44.0063 135.079 43.9881L134.812 41ZM127.516 40.1562L124.775 38.9358C124.387 39.8081 124.437 40.8132 124.91 41.6426C125.383 42.472 126.222 43.0267 127.171 43.1364L127.516 40.1562ZM130.125 34.2969L131.545 31.6544C130.81 31.2594 129.944 31.1883 129.155 31.4581C128.365 31.7279 127.724 32.3143 127.384 33.0764L130.125 34.2969ZM133.875 36.3125L132.455 38.955C132.891 39.1897 133.379 39.3125 133.875 39.3125V36.3125ZM137.297 36.3125V39.3125C138.448 39.3125 139.498 38.6533 139.999 37.6162C140.499 36.5791 140.362 35.347 139.645 34.4456L137.297 36.3125ZM134.812 33.1875L137.161 31.3206C136.954 31.0604 136.705 30.8365 136.425 30.6578L134.812 33.1875ZM128.562 29.2031L125.571 29.4265C125.641 30.3697 126.152 31.2244 126.95 31.7328L128.562 29.2031ZM128.125 23.3438L125.954 21.273C125.368 21.8871 125.07 22.7207 125.133 23.5671L128.125 23.3438ZM131.688 19.6094L131.74 16.6098C130.902 16.5952 130.096 16.932 129.517 17.5386L131.688 19.6094ZM137.938 19.7188L139.161 16.9796C138.792 16.8148 138.394 16.7263 137.99 16.7192L137.938 19.7188ZM142.625 21.8125L145.328 23.1144C145.68 22.3841 145.721 21.5425 145.442 20.7813C145.164 20.02 144.589 19.4039 143.848 19.0733L142.625 21.8125ZM140.156 23.9375H134.078V29.9375H140.156V23.9375ZM132.307 29.3591L140.854 35.6091L144.396 30.7659L135.849 24.5159L132.307 29.3591ZM139.637 32.9206L138.996 40.0925L144.972 40.6263L145.613 33.4544L139.637 32.9206ZM141.717 37.3713L134.546 38.0119L135.079 43.9881L142.251 43.3475L141.717 37.3713ZM135.157 38.0199L127.86 37.1761L127.171 43.1364L134.468 43.9801L135.157 38.0199ZM130.256 41.3767L132.866 35.5173L127.384 33.0764L124.775 38.9358L130.256 41.3767ZM128.705 36.9393L132.455 38.955L135.295 33.67L131.545 31.6544L128.705 36.9393ZM133.875 39.3125H137.297V33.3125H133.875V39.3125ZM139.645 34.4456L137.161 31.3206L132.464 35.0544L134.949 38.1794L139.645 34.4456ZM136.425 30.6578L130.175 26.6734L126.95 31.7328L133.2 35.7172L136.425 30.6578ZM131.554 28.9797L131.117 23.1204L125.133 23.5671L125.571 29.4265L131.554 28.9797ZM130.296 25.4145L133.858 21.6802L129.517 17.5386L125.954 21.273L130.296 25.4145ZM131.635 22.6089L137.885 22.7183L137.99 16.7192L131.74 16.6098L131.635 22.6089ZM136.714 22.4579L141.402 24.5517L143.848 19.0733L139.161 16.9796L136.714 22.4579ZM139.922 20.5106L137.453 25.6356L142.859 28.2394L145.328 23.1144L139.922 20.5106ZM159.141 41V44C160.012 44 160.841 43.6208 161.411 42.961C161.981 42.3012 162.236 41.4262 162.109 40.5637L159.141 41ZM149.922 41L146.924 40.8763C146.891 41.6927 147.192 42.4876 147.757 43.0771C148.323 43.6667 149.105 44 149.922 44V41ZM150.594 24.7188L153.591 24.8424C153.658 23.2166 152.417 21.8336 150.793 21.7254L150.594 24.7188ZM144.5 24.3125H141.5C141.5 25.8919 142.725 27.2008 144.3 27.3059L144.5 24.3125ZM144.5 19.125V16.125C142.843 16.125 141.5 17.4681 141.5 19.125H144.5ZM162.938 19.125H165.938C165.938 17.4681 164.594 16.125 162.938 16.125V19.125ZM162.938 24.4062L163.409 27.369C164.865 27.1375 165.938 25.8813 165.938 24.4062H162.938ZM156.844 25.375L156.373 22.4122C154.75 22.6702 153.637 24.1856 153.876 25.8113L156.844 25.375ZM159.141 38H149.922V44H159.141V38ZM152.919 41.1237L153.591 24.8424L147.596 24.5951L146.924 40.8763L152.919 41.1237ZM150.793 21.7254L144.7 21.3191L144.3 27.3059L150.394 27.7121L150.793 21.7254ZM147.5 24.3125V19.125H141.5V24.3125H147.5ZM144.5 22.125H162.938V16.125H144.5V22.125ZM159.938 19.125V24.4062H165.938V19.125H159.938ZM162.466 21.4435L156.373 22.4122L157.315 28.3378L163.409 27.369L162.466 21.4435ZM153.876 25.8113L156.173 41.4363L162.109 40.5637L159.812 24.9387L153.876 25.8113ZM184.375 41V44C185.317 44 186.204 43.5577 186.771 42.8055C187.338 42.0532 187.518 41.0785 187.259 40.1731L184.375 41ZM178.125 41L175.442 42.3416C175.95 43.358 176.989 44 178.125 44V41ZM175 34.75L177.683 33.4084C177.175 32.392 176.136 31.75 175 31.75V34.75ZM171.875 34.75V31.75C170.739 31.75 169.7 32.392 169.192 33.4084L171.875 34.75ZM168.75 41V44C169.886 44 170.925 43.358 171.433 42.3416L168.75 41ZM164.062 41L161.149 40.2832C160.929 41.1783 161.133 42.1251 161.701 42.8506C162.27 43.5762 163.141 44 164.062 44V41ZM169.438 19.1562L169.454 16.1563C168.067 16.1488 166.856 17.0928 166.524 18.4394L169.438 19.1562ZM178.125 19.2031L181.009 18.3762C180.642 17.0955 179.474 16.2104 178.141 16.2032L178.125 19.2031ZM176.562 30.9375V33.9375C177.571 33.9375 178.511 33.4311 179.067 32.5895C179.622 31.748 179.717 30.6838 179.32 29.7569L176.562 30.9375ZM172.844 22.25L175.602 21.0694C175.103 19.9049 173.927 19.1789 172.662 19.2555C171.398 19.332 170.318 20.1946 169.964 21.4108L172.844 22.25ZM170.312 30.9375L167.432 30.0983C167.168 31.0047 167.346 31.9826 167.913 32.7378C168.479 33.4931 169.368 33.9375 170.312 33.9375V30.9375ZM184.375 38H178.125V44H184.375V38ZM180.808 39.6584L177.683 33.4084L172.317 36.0916L175.442 42.3416L180.808 39.6584ZM175 31.75H171.875V37.75H175V31.75ZM169.192 33.4084L166.067 39.6584L171.433 42.3416L174.558 36.0916L169.192 33.4084ZM168.75 38H164.062V44H168.75V38ZM166.976 41.7168L172.351 19.8731L166.524 18.4394L161.149 40.2832L166.976 41.7168ZM169.421 22.1562L178.109 22.2031L178.141 16.2032L169.454 16.1563L169.421 22.1562ZM175.241 20.03L181.491 41.8269L187.259 40.1731L181.009 18.3762L175.241 20.03ZM179.32 29.7569L175.602 21.0694L170.086 23.4306L173.805 32.1181L179.32 29.7569ZM169.964 21.4108L167.432 30.0983L173.193 31.7767L175.724 23.0892L169.964 21.4108ZM170.312 33.9375H176.562V27.9375H170.312V33.9375ZM202.812 41V44C203.852 44 204.818 43.4616 205.364 42.5772C205.911 41.6927 205.961 40.5883 205.496 39.6584L202.812 41ZM196.562 41L193.613 41.5492C193.878 42.9698 195.117 44 196.562 44V41ZM195 32.6094L197.949 32.0602C197.688 30.6589 196.477 29.6347 195.052 29.6098L195 32.6094ZM192.312 32.5625L192.365 29.563C190.839 29.5364 189.537 30.6588 189.338 32.1714L192.312 32.5625ZM191.203 41V44C192.709 44 193.981 42.8839 194.178 41.3911L191.203 41ZM185.625 41L182.629 40.8551C182.589 41.6749 182.887 42.4752 183.453 43.0695C184.019 43.6637 184.804 44 185.625 44V41ZM186.656 19.6719L186.491 16.6764C184.956 16.7612 183.734 17.9919 183.66 19.527L186.656 19.6719ZM196.562 19.125L197.355 16.2316C197.043 16.1462 196.72 16.1117 196.397 16.1296L196.562 19.125ZM202.266 20.6875L205.258 20.9029C205.361 19.4745 204.44 18.1725 203.058 17.7941L202.266 20.6875ZM201.703 28.5L203.677 30.7596C204.272 30.2392 204.639 29.5045 204.695 28.7154L201.703 28.5ZM198.125 31.625L196.152 29.3654C195.123 30.2642 194.831 31.7446 195.442 32.9666L198.125 31.625ZM190.234 28.8594L187.234 28.874C187.239 29.7161 187.596 30.5177 188.221 31.083C188.845 31.6483 189.678 31.9252 190.516 31.8461L190.234 28.8594ZM195.531 28.3594L195.813 31.3461C196.661 31.2661 197.434 30.8298 197.941 30.1459L195.531 28.3594ZM198.844 23.8906L201.254 25.6771C201.821 24.9114 201.991 23.9216 201.712 23.0104C201.432 22.0992 200.736 21.3751 199.837 21.0597L198.844 23.8906ZM193.453 22L194.446 19.1691C193.999 19.0124 193.522 18.9637 193.053 19.0268L193.453 22ZM190.203 22.4375L189.803 19.4643C188.309 19.6655 187.196 20.9444 187.203 22.4521L190.203 22.4375ZM202.812 38H196.562V44H202.812V38ZM199.512 40.4508L197.949 32.0602L192.051 33.1586L193.613 41.5492L199.512 40.4508ZM195.052 29.6098L192.365 29.563L192.26 35.562L194.948 35.6089L195.052 29.6098ZM189.338 32.1714L188.229 40.6089L194.178 41.3911L195.287 32.9536L189.338 32.1714ZM191.203 38H185.625V44H191.203V38ZM188.621 41.1449L189.653 19.8168L183.66 19.527L182.629 40.8551L188.621 41.1449ZM186.822 22.6673L196.728 22.1204L196.397 16.1296L186.491 16.6764L186.822 22.6673ZM195.77 22.0184L201.473 23.5809L203.058 17.7941L197.355 16.2316L195.77 22.0184ZM199.273 20.4721L198.711 28.2846L204.695 28.7154L205.258 20.9029L199.273 20.4721ZM199.73 26.2404L196.152 29.3654L200.098 33.8846L203.677 30.7596L199.73 26.2404ZM195.442 32.9666L200.129 42.3416L205.496 39.6584L200.808 30.2834L195.442 32.9666ZM190.516 31.8461L195.813 31.3461L195.249 25.3727L189.952 25.8727L190.516 31.8461ZM197.941 30.1459L201.254 25.6771L196.434 22.1041L193.121 26.5729L197.941 30.1459ZM199.837 21.0597L194.446 19.1691L192.46 24.8309L197.851 26.7216L199.837 21.0597ZM193.053 19.0268L189.803 19.4643L190.603 25.4107L193.853 24.9732L193.053 19.0268ZM187.203 22.4521L187.234 28.874L193.234 28.8448L193.203 22.4229L187.203 22.4521ZM219.359 41V44C220.231 44 221.06 43.6208 221.63 42.961C222.2 42.3012 222.454 41.4262 222.327 40.5637L219.359 41ZM210.141 41L207.143 40.8763C207.109 41.6927 207.41 42.4876 207.976 43.0771C208.542 43.6667 209.324 44 210.141 44V41ZM210.812 24.7188L213.81 24.8424C213.877 23.2166 212.636 21.8336 211.012 21.7254L210.812 24.7188ZM204.719 24.3125H201.719C201.719 25.8919 202.943 27.2008 204.519 27.3059L204.719 24.3125ZM204.719 19.125V16.125C203.062 16.125 201.719 17.4681 201.719 19.125H204.719ZM223.156 19.125H226.156C226.156 17.4681 224.813 16.125 223.156 16.125V19.125ZM223.156 24.4062L223.627 27.369C225.084 27.1375 226.156 25.8813 226.156 24.4062H223.156ZM217.062 25.375L216.591 22.4122C214.969 22.6702 213.855 24.1856 214.094 25.8113L217.062 25.375ZM219.359 38H210.141V44H219.359V38ZM213.138 41.1237L213.81 24.8424L207.815 24.5951L207.143 40.8763L213.138 41.1237ZM211.012 21.7254L204.918 21.3191L204.519 27.3059L210.613 27.7121L211.012 21.7254ZM207.719 24.3125V19.125H201.719V24.3125H207.719ZM204.719 22.125H223.156V16.125H204.719V22.125ZM220.156 19.125V24.4062H226.156V19.125H220.156ZM222.685 21.4435L216.591 22.4122L217.534 28.3378L223.627 27.369L222.685 21.4435ZM214.094 25.8113L216.391 41.4363L222.327 40.5637L220.031 24.9387L214.094 25.8113Z" fill="#496D20" mask="url(#path-3-outside-1_2369_1260)"/>
</svg>