<svg width="94" height="95" viewBox="0 0 94 95" fill="none" xmlns="http://www.w3.org/2000/svg">
  <path d="M5.21411 63.4945V15.6523L23.587 0.440243H76.1943L92.6669 15.3372L93.937 65.0797L79.995 80.2918H18.8315L5.21411 63.4945Z" fill="#6FA72E"/>
  <path d="M12.9585 59.4548V19.9683L28.1228 7.41087H71.5437L85.1419 19.7009L86.1924 60.763L74.6854 73.3204H24.1981L12.9585 59.4548Z" fill="#5B8A27"/>
  <path d="M5.21394 15.6524L23.5869 0.440308H18.9554L0.487016 15.6524L0 65.1371L11.6024 75.5172H14.9543L5.21394 63.4946V15.6524Z" fill="#324C0B"/>
  <path d="M26.9583 16.8651L37.1856 15.6523L40.6902 22.5087L33.8242 52.6369L36.8705 60.5724L66.6835 57.0391L66.0341 55.9601L63.2553 55.2629L64.8023 53.9069L61.756 48.8076L64.7736 38.1887L62.2717 36.0497L65.8336 34.4549L63.3985 33.2708L66.3206 32.717L69.2809 22.3177L67.7817 19.8063L63.2553 18.5553L66.0723 16.9319L63.4463 12.5392L26.9583 16.8651Z" fill="#996644"/>
  <path d="M26.5382 15.872L22.6326 23.6356L24.2942 29.5466L33.5857 28.945L34.9035 22.3273L32.6498 21.9931L31.3798 25.6696L25.9366 26.3285L25.8793 23.4446L29.0306 18.1161L38.0452 17.333L37.1858 15.6524L26.5382 15.872Z" fill="#70492F"/>
  <path d="M34.3873 17.6478L36.6409 22.136L29.1256 52.4074L33.8239 65.0602L36.8701 60.5721L33.8239 52.6366L40.6899 22.5084L38.0447 17.3327L34.3873 17.6478Z" fill="#70492F"/>
  <path d="M32.6493 21.9927L36.2494 21.3529L36.6409 22.1359L35.1035 28.3334L33.5851 28.9446L34.9029 22.3269L32.6493 21.9927Z" fill="#3F291B"/>
  <path d="M31.3791 25.6695L32.6491 21.993L36.2492 21.3532L35.2752 19.4051L34.3871 17.648L29.0299 18.1159L25.8787 23.4445L25.936 26.3284L31.3791 25.6695Z" fill="#3F291B"/>
  <path d="M26.5382 15.8719L54.6037 12.8161L63.4464 12.5392L37.1857 15.6523L26.5382 15.8719Z" fill="#543723"/>
  <path d="M66.6832 57.0388L66.0339 55.9597L63.255 55.2626L64.802 53.9066L61.7558 48.8073L33.824 52.6365L36.8702 60.572L66.6832 57.0388Z" fill="#996644"/>
  <path d="M33.824 52.6366L61.7558 48.8073L64.7734 38.1885L62.2714 36.0494L65.8334 34.4547L63.3983 33.2705L66.3204 32.7167L69.2807 22.3175L40.6899 22.5084L33.824 52.6366Z" fill="#895B3B"/>
  <path d="M66.0719 16.9315V17.915L64.4199 18.8795L63.2549 18.5548L66.0719 16.9315Z" fill="#543723"/>
  <path d="M65.8334 34.4547L65.6997 33.7767L64.2769 33.1083L63.3983 33.2706L65.8334 34.4547Z" fill="#543723"/>
  <path d="M64.7732 38.1884V37.1475L63.2071 35.6291L62.2712 36.0493L64.7732 38.1884Z" fill="#543723"/>
  <path d="M64.8019 53.9068L65.0502 54.7472L64.2194 55.5016L63.2549 55.2628L64.8019 53.9068Z" fill="#543723"/>
  <path d="M64.611 54.069L61.3643 48.855L64.4773 37.9402L64.7734 38.1884L61.7558 48.8073L64.802 53.9066L64.611 54.069Z" fill="#70492F"/>
  <path d="M65.9669 32.7931L68.8031 22.3175H69.2805L66.3202 32.7167L65.9669 32.7931Z" fill="#70492F"/>
  <path d="M67.2948 19.6723L68.8036 22.3175H69.2811L67.7818 19.806L67.2948 19.6723Z" fill="#70492F"/>
  <path d="M65.7857 17.0942L63.1405 12.5774L63.4461 12.5392L66.0721 16.9319L65.7857 17.0942Z" fill="#70492F"/>
  <path d="M32.6493 21.9927L35.7337 20.3215L36.6409 22.1359L34.9029 22.3269L32.6493 21.9927Z" fill="#543723"/>
  <path d="M38.4361 18.0969L63.7992 13.7042L63.1403 12.5774L37.1852 15.6523L38.4361 18.0969Z" fill="#A56F4A"/>
  <path d="M39.057 17.9056L41.1292 22.3174L34.2919 52.5697L36.641 58.5953H36.1063L33.824 52.6365L40.6899 22.5084L38.4363 18.0966L39.057 17.9056Z" fill="#A56F4A"/>
  <path d="M33.824 65.0605L63.9139 61.7373L66.6832 57.039L36.8702 60.5723L33.824 65.0605Z" fill="#543723"/>
  <path d="M56.7615 50.8126L51.92 55.8356L46.2477 50.8222L51.9486 45.7037L56.7615 50.8126Z" fill="#F9C900"/>
  <path d="M54.7082 42.6766L60.1514 22.3175L56.3889 16.5592L48.7303 21.7445L49.0073 42.6766H54.7082Z" fill="#F9C900"/>
  <path d="M56.3894 16.5594L51.8248 16.4544L44.3094 21.7447L45.2262 42.6769H49.0077L48.7308 21.7447L56.3894 16.5594Z" fill="#997C00"/>
  <path d="M57.955 30.5009L53.7724 26.3947L48.8258 29.0685L49.0072 42.6763H54.7082L57.955 30.5009Z" fill="#FFDC48"/>
  <path d="M48.7309 21.7443H44.3096L45.2263 42.6765H49.0078L48.7309 21.7443Z" fill="#7C6400"/>
  <path d="M51.9487 45.7038H48.1576L42.3898 50.7077L46.2477 50.8223L51.9487 45.7038Z" fill="#997C00"/>
  <path d="M42.3898 50.7077L47.7851 55.8357H51.92L46.2477 50.8223L42.3898 50.7077Z" fill="#7C6400"/>
  <path d="M46.2476 50.8224L52.0918 49.8102L56.7614 50.8129L51.9199 55.8358L46.2476 50.8224Z" fill="#FFDC48"/>
  <path d="M63.9234 86.4796L63.6083 90.3566H54.4791L54.46 89.8983L49.1983 90.3662L47.0688 90.1179L47.1356 90.3471H36.0871L34.4064 86.9857L32.7257 90.3471H12.7962L13.331 77.465L8.70911 77.1594V66.9608H29.4216L40.4511 67.0371L41.6734 71.2961L45.4645 67.3141L52.3687 67.4382L53.7629 68.0589L53.7247 66.9608H61.9849L62.4623 69.0903L63.6465 66.9608H71.5915C72.5369 66.9608 73.3868 67.3618 73.9788 68.0112L74.6473 67.3141L81.5515 67.4382L88.7803 70.6659L85.3521 77.7801L87.8158 79.585L86.9182 89.6118L78.362 90.3757L72.6515 89.7168L71.5437 91.9227L63.8756 86.4796H63.9234Z" fill="#5B8A27"/>
  <path d="M23.7207 87.177H16.5492L17.0744 74.505L12.3284 74.1899V70.1505H26.681V74.2567L21.935 75.0111L23.7207 87.177Z" fill="white"/>
  <path d="M43.3445 87.1769H38.4839L36.0488 82.3163H33.6137L31.1786 87.1769H27.5308L31.7134 70.1791L38.4743 70.2173L43.3349 87.1865L43.3445 87.1769ZM37.2615 79.3465L34.3681 72.5856L32.4009 79.3465H37.2615Z" fill="white"/>
  <path d="M53.8296 76.2336H49.1027L55.7586 81.0942L55.262 86.671L49.6756 87.1676L43.9938 86.5087L46.0278 81.9441L48.9499 83.5102H51.6141L49.6756 81.0751L44.815 77.9716L44.4712 73.407L47.2406 70.504L52.1012 70.59L55.749 72.2229L53.8296 76.2145V76.2336Z" fill="white"/>
  <path d="M70.8275 87.177L61.6315 80.6452L61.0967 87.177H57.9836L57.4489 70.1505H59.8839L61.6315 77.9046L65.9573 70.1505H72.0402C72.088 70.1505 72.1166 70.1791 72.1166 70.2364C72.1166 70.7998 70.0635 74.018 65.9669 79.8813L72.0498 84.7419L70.837 87.177H70.8275Z" fill="white"/>
  <path d="M83.0316 76.2336H78.3047L84.9606 81.0942L84.464 86.671L78.8777 87.1676L73.1958 86.5087L75.2298 81.9441L78.1519 83.5102H80.8162L78.8777 81.0751L74.017 77.9716L73.6733 73.407L76.4426 70.504L81.3032 70.59L84.951 72.2229L83.0316 76.2145V76.2336Z" fill="white"/>
  <path d="M8.70917 66.9705L5.21411 66.5503V79.7952L10.4185 80.2918L9.45402 93.6991L33.1077 92.9638L34.416 91.5409L36.1349 93.0497L48.4058 93.3839V91.7892L53.0658 91.7605L52.8271 93.4699L65.289 93.3839L65.881 91.3308L71.6297 94.7304L74.3609 92.2476L77.9801 92.9542L85.0943 92.3144L86.9564 89.6119L78.4002 90.3759L72.6897 89.717L71.5916 91.9229L63.9234 86.4798L63.6083 90.3568H54.4791L54.46 89.908L49.1984 90.3759L47.0784 90.1276L47.1357 90.3568H36.0871L34.4064 86.9954L32.7257 90.3568H12.7963L13.331 77.4747L8.70917 77.1692V66.9705Z" fill="#324C0B"/>
</svg>