<svg width="89" height="95" viewBox="0 0 89 95" fill="none" xmlns="http://www.w3.org/2000/svg">
  <path d="M0.781372 63.0647V15.5472L19.0302 0.440186H71.265L87.6326 15.2321L88.8931 64.6404L75.0466 79.7379H14.3128L0.781372 63.0647Z" fill="#6FA72E"/>
  <path d="M8.46814 59.0539V19.8348L23.537 7.36334H66.6522L80.1646 19.5674L81.1959 60.3526L69.7749 72.8145H19.6409L8.46814 59.0539Z" fill="#5B8A27"/>
  <path d="M42.6739 24.6667L56.5968 15.1364L67.1011 27.7225L65.3918 50.0774L40.9646 64.6115L18.0461 42.8868L19.4594 22.222L31.5584 12.4531L42.6739 24.6667Z" fill="#C12B3A"/>
  <path d="M56.5972 15.1363L61.6393 15.5756L71.6279 26.9584L69.3647 50.9368L45.8542 64.6114H40.965L65.3922 50.0774L67.1015 27.7224L56.5972 15.1363Z" fill="#821E28"/>
  <path d="M31.5585 12.453L36.7342 13.1119L46.0544 22.3557L42.6739 24.6666L31.5585 12.453Z" fill="#59161F"/>
  <path d="M19.4596 22.222L36.1996 31.9337L45.4338 33.3947L67.1012 27.7224L65.3919 50.0774L46.5033 54.5751L31.5586 51.7294L18.0463 42.8868L19.4596 22.222Z" fill="#AF283C"/>
  <path d="M65.3919 50.0776L46.0545 53.1525L32.3894 51.1949L18.0463 42.887L40.9647 64.6117L65.3919 50.0776Z" fill="#9E283F"/>
  <path d="M26.5646 21.2768L30.8904 24.8387L27.2521 33.1466L23.6902 33.5477L21.6658 30.1481L22.2005 24.6859L26.5646 21.2768Z" fill="white"/>
  <path d="M69.3647 50.937L65.3922 50.0776L40.965 64.6117H45.8542L69.3647 50.937Z" fill="#59161F"/>
  <path d="M48.7189 59.9991H40.9649L33.7169 57.7454L40.9649 64.6114L48.7189 59.9991Z" fill="#7F2138"/>
  <path d="M59.4524 18.5645L46.0547 22.3556L56.5971 15.1363L59.4524 18.5645Z" fill="#DD314B"/>
  <path d="M39.5894 21.2766L28.2257 15.1364L31.5584 12.453L39.5894 21.2766Z" fill="#DD314B"/>
  <path d="M56.5969 15.1363L65.3919 28.1712V50.0774L67.1012 27.7224L56.5969 15.1363Z" fill="#DD314B"/>
  <path d="M19.4596 22.222L18.7052 42.6194L40.9647 64.6115L18.0463 42.8868L19.4596 22.222Z" fill="#7F2138"/>
  <path d="M26.5644 21.2768L29.1714 25.2684L26.7363 32.6118L23.6901 33.5477L27.252 33.1466L30.8903 24.8387L26.5644 21.2768Z" fill="#FFD2DD"/>
  <path d="M34.0414 92.5817H17.884L18.1991 86.155H17.7312L16.9577 92.5817H4.93506V68.2022L23.2507 66.044L23.4035 66.8939L31.5777 66.4356L34.0414 67.1136V66.8939L53.7322 64.7071V66.4738H60.2639L60.665 67.4574L60.7891 66.4738H72.0191L72.0096 66.8653L78.4745 66.9703L86.897 70.7423L83.2205 78.3722L85.6747 80.1675L84.6434 91.7318L74.9508 92.6008L70.9974 92.1424L70.9783 92.5817H46.7325L46.7707 92.066L42.7122 92.3047L42.8459 92.5817H38.224L34.0414 92.8299V92.5817Z" fill="#5B8A27"/>
  <path d="M8.99357 71.8117L19.8989 70.5225L20.5578 74.3804H13.243L13.2812 78.2384H20.5578L20.0708 82.0963H14.1311L13.3576 88.523H8.98401V71.8212L8.99357 71.8117Z" fill="white"/>
  <path d="M36.2856 88.5137H31.1481L29.8589 81.6191L27.653 81.5809L26.7363 88.5233H22.1526L23.0025 70.9811L31.1481 70.5323L35.8368 71.8215L35.3784 78.2482L32.4372 80.817L36.2952 88.5233L36.2856 88.5137ZM25.9437 78.5347L30.2982 78.124L33.0197 74.4475L28.5888 72.891L25.915 73.2539L25.9437 78.5347Z" fill="white"/>
  <path d="M38.1097 88.5137V70.5227L49.674 69.2336V73.0915L41.347 74.3807L41.1464 76.9494H49.674V80.2631L41.9677 80.8074V84.3024L49.674 84.1019V87.8261L38.1097 88.5232V88.5137Z" fill="white"/>
  <path d="M67.0725 88.5135H62.6512V85.9447L56.7115 76.9492L55.7088 88.5135H51.0869L52.3761 70.5225H57.5136L62.6512 83.3664L64.351 70.5225H67.7983L67.0821 88.5135H67.0725Z" fill="white"/>
  <path d="M79.401 76.9591H74.4067L81.435 82.0967L80.9098 87.9982L75.0179 88.5234L69.0209 87.8263L71.1695 83.0134L74.2539 84.675H77.071L75.0274 82.1062L69.8899 78.8308L69.527 74.018L72.4586 70.9431L77.5962 71.029L81.4541 72.7479L79.4201 76.9591H79.401Z" fill="white"/>
  <path d="M0.78125 63.0647V69.7683L4.93522 74.3711V68.2023L0.78125 63.0647Z" fill="#324C0B"/>
  <path d="M88.8928 64.6404V71.1053L83.2205 78.3723L86.8969 70.7424L84.3473 69.5965L88.8928 64.6404Z" fill="#324C0B"/>
  <path d="M4.93506 92.5816L6.08098 94.7302H83.6502L84.6434 91.7317L75.3328 92.6103L70.9974 92.1424L70.9783 92.5816H46.7325L46.7707 92.066L44.7844 92.1806L42.7122 92.3047L42.8459 92.5816H17.884L18.1991 86.1549H17.7312L16.9577 92.5816H4.93506Z" fill="#324C0B"/>
</svg>