<svg width="352" height="60" viewBox="0 0 352 60" fill="none" xmlns="http://www.w3.org/2000/svg">
  <path d="M12.6774 56.7948L3 41.8109L3.7924 17.8331L15.9761 2.70538L337.223 4.92868L349.55 18.7613L348.56 41.8145L340.149 56.7948H12.6774Z" fill="#6FA72E"/>
  <path d="M16.9668 5.41434L335.729 7.61964L346.532 19.7434L345.618 41.0518L338.292 54.0966H13.8545L5.4321 41.0518L6.16355 18.8225L16.9668 5.41434ZM14.4103 0L12.7825 2.02183L1.97922 15.4336L0.846188 16.8402L0.785234 18.6462L0.0573687 40.8755L0 42.5664L0.917899 43.9874L9.34034 57.0322L10.9287 59.4929H341.433L342.975 56.7444L350.3 43.6996L350.931 42.5736L350.985 41.2821L351.9 19.9737L351.993 17.7828L350.533 16.1459L339.73 4.02208L338.142 2.23769L335.757 2.2197L17.0026 0.0179878L14.4103 0Z" fill="#496D20"/>
  <mask id="path-3-outside-1_2369_1265" maskUnits="userSpaceOnUse" x="194" y="16" width="107" height="30" fill="black">
  <rect fill="white" x="194" y="16" width="107" height="30"/>
  <path d="M199.125 30.7812L197.562 26.9375L203.812 19.125H210.062L208.5 41C204.333 40.9062 202.25 40.7604 202.25 40.5625L206.141 24.5156L203.297 23.8125L199.125 30.7812ZM214.969 30.7812L213.406 26.9375L219.656 19.125H225.906L224.344 41C220.177 40.9062 218.094 40.7604 218.094 40.5625L221.984 24.5156L219.141 23.8125L214.969 30.7812ZM230.812 30.7812L229.25 26.9375L235.5 19.125H241.75L240.188 41C236.021 40.9062 233.938 40.7604 233.938 40.5625L237.828 24.5156L234.984 23.8125L230.812 30.7812ZM247.453 36.6875L251.031 38.9375L247.797 42.8125L244.781 39.5938L247.453 36.6875ZM255.375 30.7812L253.812 26.9375L260.062 19.125H266.312L264.75 41C260.583 40.9062 258.5 40.7604 258.5 40.5625L262.391 24.5156L259.547 23.8125L255.375 30.7812ZM271.219 30.7812L269.656 26.9375L275.906 19.125H282.156L280.594 41C276.427 40.9062 274.344 40.7604 274.344 40.5625L278.234 24.5156L275.391 23.8125L271.219 30.7812ZM287.062 30.7812L285.5 26.9375L291.75 19.125H298L296.438 41C292.271 40.9062 290.188 40.7604 290.188 40.5625L294.078 24.5156L291.234 23.8125L287.062 30.7812Z"/>
  </mask>
    <path d="M199.125 30.7812L197.562 26.9375L203.812 19.125H210.062L208.5 41C204.333 40.9062 202.25 40.7604 202.25 40.5625L206.141 24.5156L203.297 23.8125L199.125 30.7812ZM214.969 30.7812L213.406 26.9375L219.656 19.125H225.906L224.344 41C220.177 40.9062 218.094 40.7604 218.094 40.5625L221.984 24.5156L219.141 23.8125L214.969 30.7812ZM230.812 30.7812L229.25 26.9375L235.5 19.125H241.75L240.188 41C236.021 40.9062 233.938 40.7604 233.938 40.5625L237.828 24.5156L234.984 23.8125L230.812 30.7812ZM247.453 36.6875L251.031 38.9375L247.797 42.8125L244.781 39.5938L247.453 36.6875ZM255.375 30.7812L253.812 26.9375L260.062 19.125H266.312L264.75 41C260.583 40.9062 258.5 40.7604 258.5 40.5625L262.391 24.5156L259.547 23.8125L255.375 30.7812ZM271.219 30.7812L269.656 26.9375L275.906 19.125H282.156L280.594 41C276.427 40.9062 274.344 40.7604 274.344 40.5625L278.234 24.5156L275.391 23.8125L271.219 30.7812ZM287.062 30.7812L285.5 26.9375L291.75 19.125H298L296.438 41C292.271 40.9062 290.188 40.7604 290.188 40.5625L294.078 24.5156L291.234 23.8125L287.062 30.7812Z" fill="white"/>
    <path d="M199.125 30.7812L196.346 31.911C196.774 32.9645 197.761 33.6853 198.895 33.7724C200.029 33.8595 201.115 33.298 201.699 32.3222L199.125 30.7812ZM197.562 26.9375L195.22 25.0634C194.541 25.9118 194.374 27.0608 194.783 28.0672L197.562 26.9375ZM203.812 19.125V16.125C202.901 16.125 202.039 16.5393 201.47 17.2509L203.812 19.125ZM210.062 19.125L213.055 19.3387C213.114 18.5081 212.826 17.6901 212.258 17.0806C211.691 16.4712 210.895 16.125 210.062 16.125V19.125ZM208.5 41L208.433 43.9992C210.032 44.0352 211.378 42.8096 211.492 41.2137L208.5 41ZM202.25 40.5625L199.334 39.8556C199.278 40.0871 199.25 40.3244 199.25 40.5625H202.25ZM206.141 24.5156L209.056 25.2225C209.445 23.6175 208.464 21.9997 206.861 21.6033L206.141 24.5156ZM203.297 23.8125L204.017 20.9002C202.737 20.5837 201.4 21.1402 200.723 22.2716L203.297 23.8125ZM201.904 29.6515L200.342 25.8078L194.783 28.0672L196.346 31.911L201.904 29.6515ZM199.905 28.8116L206.155 20.9991L201.47 17.2509L195.22 25.0634L199.905 28.8116ZM203.812 22.125H210.062V16.125H203.812V22.125ZM207.07 18.9113L205.508 40.7863L211.492 41.2137L213.055 19.3387L207.07 18.9113ZM208.567 38.0008C206.495 37.9541 204.99 37.8954 204.022 37.8276C203.523 37.7927 203.246 37.7605 203.129 37.7412C203.047 37.7276 203.16 37.7392 203.351 37.8071C203.429 37.8346 203.722 37.9397 204.051 38.1817C204.315 38.376 205.25 39.1438 205.25 40.5625H199.25C199.25 42.0059 200.201 42.7981 200.498 43.0163C200.86 43.2822 201.201 43.4108 201.344 43.4614C201.665 43.5755 201.974 43.6318 202.152 43.6611C202.556 43.7277 203.06 43.775 203.603 43.813C204.718 43.8911 206.339 43.9521 208.433 43.9992L208.567 38.0008ZM205.166 41.2694L209.056 25.2225L203.225 23.8087L199.334 39.8556L205.166 41.2694ZM206.861 21.6033L204.017 20.9002L202.577 26.7248L205.421 27.4279L206.861 21.6033ZM200.723 22.2716L196.551 29.2403L201.699 32.3222L205.871 25.3534L200.723 22.2716ZM214.969 30.7812L212.19 31.911C212.618 32.9645 213.605 33.6853 214.739 33.7724C215.873 33.8595 216.959 33.298 217.543 32.3222L214.969 30.7812ZM213.406 26.9375L211.064 25.0634C210.385 25.9118 210.218 27.0608 210.627 28.0672L213.406 26.9375ZM219.656 19.125V16.125C218.745 16.125 217.883 16.5393 217.314 17.2509L219.656 19.125ZM225.906 19.125L228.899 19.3387C228.958 18.5081 228.669 17.6901 228.102 17.0806C227.534 16.4712 226.739 16.125 225.906 16.125V19.125ZM224.344 41L224.276 43.9992C225.876 44.0352 227.222 42.8096 227.336 41.2137L224.344 41ZM218.094 40.5625L215.178 39.8556C215.122 40.0871 215.094 40.3244 215.094 40.5625H218.094ZM221.984 24.5156L224.9 25.2225C225.289 23.6175 224.308 21.9997 222.704 21.6033L221.984 24.5156ZM219.141 23.8125L219.861 20.9002C218.581 20.5837 217.244 21.1402 216.567 22.2716L219.141 23.8125ZM217.748 29.6515L216.185 25.8078L210.627 28.0672L212.19 31.911L217.748 29.6515ZM215.749 28.8116L221.999 20.9991L217.314 17.2509L211.064 25.0634L215.749 28.8116ZM219.656 22.125H225.906V16.125H219.656V22.125ZM222.914 18.9113L221.351 40.7863L227.336 41.2137L228.899 19.3387L222.914 18.9113ZM224.411 38.0008C222.339 37.9541 220.834 37.8954 219.866 37.8276C219.367 37.7927 219.09 37.7605 218.973 37.7412C218.89 37.7276 219.004 37.7392 219.195 37.8071C219.273 37.8346 219.566 37.9397 219.895 38.1817C220.159 38.376 221.094 39.1438 221.094 40.5625H215.094C215.094 42.0059 216.045 42.7981 216.341 43.0163C216.703 43.2822 217.045 43.4108 217.188 43.4614C217.509 43.5755 217.818 43.6318 217.996 43.6611C218.4 43.7277 218.904 43.775 219.447 43.813C220.562 43.8911 222.182 43.9521 224.276 43.9992L224.411 38.0008ZM221.009 41.2694L224.9 25.2225L219.069 23.8087L215.178 39.8556L221.009 41.2694ZM222.704 21.6033L219.861 20.9002L218.421 26.7248L221.264 27.4279L222.704 21.6033ZM216.567 22.2716L212.395 29.2403L217.543 32.3222L221.715 25.3534L216.567 22.2716ZM230.812 30.7812L228.033 31.911C228.462 32.9645 229.449 33.6853 230.583 33.7724C231.717 33.8595 232.802 33.298 233.387 32.3222L230.812 30.7812ZM229.25 26.9375L226.907 25.0634C226.229 25.9118 226.062 27.0608 226.471 28.0672L229.25 26.9375ZM235.5 19.125V16.125C234.589 16.125 233.727 16.5393 233.157 17.2509L235.5 19.125ZM241.75 19.125L244.742 19.3387C244.802 18.5081 244.513 17.6901 243.946 17.0806C243.378 16.4712 242.583 16.125 241.75 16.125V19.125ZM240.188 41L240.12 43.9992C241.72 44.0352 243.066 42.8096 243.18 41.2137L240.188 41ZM233.938 40.5625L231.022 39.8556C230.966 40.0871 230.938 40.3244 230.938 40.5625H233.938ZM237.828 24.5156L240.744 25.2225C241.133 23.6175 240.151 21.9997 238.548 21.6033L237.828 24.5156ZM234.984 23.8125L235.704 20.9002C234.424 20.5837 233.088 21.1402 232.41 22.2716L234.984 23.8125ZM233.592 29.6515L232.029 25.8078L226.471 28.0672L228.033 31.911L233.592 29.6515ZM231.593 28.8116L237.843 20.9991L233.157 17.2509L226.907 25.0634L231.593 28.8116ZM235.5 22.125H241.75V16.125H235.5V22.125ZM238.758 18.9113L237.195 40.7863L243.18 41.2137L244.742 19.3387L238.758 18.9113ZM240.255 38.0008C238.182 37.9541 236.678 37.8954 235.709 37.8276C235.211 37.7927 234.934 37.7605 234.817 37.7412C234.734 37.7276 234.848 37.7392 235.039 37.8071C235.116 37.8346 235.409 37.9397 235.739 38.1817C236.003 38.376 236.938 39.1438 236.938 40.5625H230.938C230.938 42.0059 231.888 42.7981 232.185 43.0163C232.547 43.2822 232.889 43.4108 233.032 43.4614C233.353 43.5755 233.662 43.6318 233.84 43.6611C234.243 43.7277 234.748 43.775 235.291 43.813C236.406 43.8911 238.026 43.9521 240.12 43.9992L240.255 38.0008ZM236.853 41.2694L240.744 25.2225L234.913 23.8087L231.022 39.8556L236.853 41.2694ZM238.548 21.6033L235.704 20.9002L234.264 26.7248L237.108 27.4279L238.548 21.6033ZM232.41 22.2716L228.238 29.2403L233.387 32.3222L237.558 25.3534L232.41 22.2716ZM247.453 36.6875L249.05 34.1479C247.825 33.3774 246.224 33.5916 245.245 34.6571L247.453 36.6875ZM251.031 38.9375L253.334 40.8599C253.889 40.1953 254.13 39.3235 253.994 38.4685C253.859 37.6136 253.361 36.8587 252.628 36.3979L251.031 38.9375ZM247.797 42.8125L245.608 44.8636C246.195 45.4908 247.024 45.8359 247.883 45.8113C248.742 45.7866 249.549 45.3947 250.1 44.7349L247.797 42.8125ZM244.781 39.5938L242.573 37.5634C241.51 38.7193 241.518 40.499 242.592 41.6449L244.781 39.5938ZM245.856 39.2271L249.434 41.4771L252.628 36.3979L249.05 34.1479L245.856 39.2271ZM248.728 37.0151L245.494 40.8901L250.1 44.7349L253.334 40.8599L248.728 37.0151ZM249.986 40.7614L246.971 37.5426L242.592 41.6449L245.608 44.8636L249.986 40.7614ZM246.99 41.6241L249.662 38.7179L245.245 34.6571L242.573 37.5634L246.99 41.6241ZM255.375 30.7812L252.596 31.911C253.024 32.9645 254.011 33.6853 255.145 33.7724C256.279 33.8595 257.365 33.298 257.949 32.3222L255.375 30.7812ZM253.812 26.9375L251.47 25.0634C250.791 25.9118 250.624 27.0608 251.033 28.0672L253.812 26.9375ZM260.062 19.125V16.125C259.151 16.125 258.289 16.5393 257.72 17.2509L260.062 19.125ZM266.312 19.125L269.305 19.3387C269.364 18.5081 269.076 17.6901 268.508 17.0806C267.941 16.4712 267.145 16.125 266.312 16.125V19.125ZM264.75 41L264.683 43.9992C266.282 44.0352 267.628 42.8096 267.742 41.2137L264.75 41ZM258.5 40.5625L255.584 39.8556C255.528 40.0871 255.5 40.3244 255.5 40.5625H258.5ZM262.391 24.5156L265.306 25.2225C265.695 23.6175 264.714 21.9997 263.111 21.6033L262.391 24.5156ZM259.547 23.8125L260.267 20.9002C258.987 20.5837 257.65 21.1402 256.973 22.2716L259.547 23.8125ZM258.154 29.6515L256.592 25.8078L251.033 28.0672L252.596 31.911L258.154 29.6515ZM256.155 28.8116L262.405 20.9991L257.72 17.2509L251.47 25.0634L256.155 28.8116ZM260.062 22.125H266.312V16.125H260.062V22.125ZM263.32 18.9113L261.758 40.7863L267.742 41.2137L269.305 19.3387L263.32 18.9113ZM264.817 38.0008C262.745 37.9541 261.24 37.8954 260.272 37.8276C259.773 37.7927 259.496 37.7605 259.379 37.7412C259.297 37.7276 259.41 37.7392 259.601 37.8071C259.679 37.8346 259.972 37.9397 260.301 38.1817C260.565 38.376 261.5 39.1438 261.5 40.5625H255.5C255.5 42.0059 256.451 42.7981 256.748 43.0163C257.11 43.2822 257.451 43.4108 257.594 43.4614C257.915 43.5755 258.224 43.6318 258.402 43.6611C258.806 43.7277 259.31 43.775 259.853 43.813C260.968 43.8911 262.589 43.9521 264.683 43.9992L264.817 38.0008ZM261.416 41.2694L265.306 25.2225L259.475 23.8087L255.584 39.8556L261.416 41.2694ZM263.111 21.6033L260.267 20.9002L258.827 26.7248L261.671 27.4279L263.111 21.6033ZM256.973 22.2716L252.801 29.2403L257.949 32.3222L262.121 25.3534L256.973 22.2716ZM271.219 30.7812L268.44 31.911C268.868 32.9645 269.855 33.6853 270.989 33.7724C272.123 33.8595 273.209 33.298 273.793 32.3222L271.219 30.7812ZM269.656 26.9375L267.314 25.0634C266.635 25.9118 266.468 27.0608 266.877 28.0672L269.656 26.9375ZM275.906 19.125V16.125C274.995 16.125 274.133 16.5393 273.564 17.2509L275.906 19.125ZM282.156 19.125L285.149 19.3387C285.208 18.5081 284.919 17.6901 284.352 17.0806C283.784 16.4712 282.989 16.125 282.156 16.125V19.125ZM280.594 41L280.526 43.9992C282.126 44.0352 283.472 42.8096 283.586 41.2137L280.594 41ZM274.344 40.5625L271.428 39.8556C271.372 40.0871 271.344 40.3244 271.344 40.5625H274.344ZM278.234 24.5156L281.15 25.2225C281.539 23.6175 280.558 21.9997 278.954 21.6033L278.234 24.5156ZM275.391 23.8125L276.111 20.9002C274.831 20.5837 273.494 21.1402 272.817 22.2716L275.391 23.8125ZM273.998 29.6515L272.435 25.8078L266.877 28.0672L268.44 31.911L273.998 29.6515ZM271.999 28.8116L278.249 20.9991L273.564 17.2509L267.314 25.0634L271.999 28.8116ZM275.906 22.125H282.156V16.125H275.906V22.125ZM279.164 18.9113L277.601 40.7863L283.586 41.2137L285.149 19.3387L279.164 18.9113ZM280.661 38.0008C278.589 37.9541 277.084 37.8954 276.116 37.8276C275.617 37.7927 275.34 37.7605 275.223 37.7412C275.14 37.7276 275.254 37.7392 275.445 37.8071C275.523 37.8346 275.816 37.9397 276.145 38.1817C276.409 38.376 277.344 39.1438 277.344 40.5625H271.344C271.344 42.0059 272.295 42.7981 272.591 43.0163C272.953 43.2822 273.295 43.4108 273.438 43.4614C273.759 43.5755 274.068 43.6318 274.246 43.6611C274.65 43.7277 275.154 43.775 275.697 43.813C276.812 43.8911 278.432 43.9521 280.526 43.9992L280.661 38.0008ZM277.259 41.2694L281.15 25.2225L275.319 23.8087L271.428 39.8556L277.259 41.2694ZM278.954 21.6033L276.111 20.9002L274.671 26.7248L277.514 27.4279L278.954 21.6033ZM272.817 22.2716L268.645 29.2403L273.793 32.3222L277.965 25.3534L272.817 22.2716ZM287.062 30.7812L284.283 31.911C284.712 32.9645 285.699 33.6853 286.833 33.7724C287.967 33.8595 289.052 33.298 289.637 32.3222L287.062 30.7812ZM285.5 26.9375L283.157 25.0634C282.479 25.9118 282.312 27.0608 282.721 28.0672L285.5 26.9375ZM291.75 19.125V16.125C290.839 16.125 289.977 16.5393 289.407 17.2509L291.75 19.125ZM298 19.125L300.992 19.3387C301.052 18.5081 300.763 17.6901 300.196 17.0806C299.628 16.4712 298.833 16.125 298 16.125V19.125ZM296.438 41L296.37 43.9992C297.97 44.0352 299.316 42.8096 299.43 41.2137L296.438 41ZM290.188 40.5625L287.272 39.8556C287.216 40.0871 287.188 40.3244 287.188 40.5625H290.188ZM294.078 24.5156L296.994 25.2225C297.383 23.6175 296.401 21.9997 294.798 21.6033L294.078 24.5156ZM291.234 23.8125L291.954 20.9002C290.674 20.5837 289.338 21.1402 288.66 22.2716L291.234 23.8125ZM289.842 29.6515L288.279 25.8078L282.721 28.0672L284.283 31.911L289.842 29.6515ZM287.843 28.8116L294.093 20.9991L289.407 17.2509L283.157 25.0634L287.843 28.8116ZM291.75 22.125H298V16.125H291.75V22.125ZM295.008 18.9113L293.445 40.7863L299.43 41.2137L300.992 19.3387L295.008 18.9113ZM296.505 38.0008C294.432 37.9541 292.928 37.8954 291.959 37.8276C291.461 37.7927 291.184 37.7605 291.067 37.7412C290.984 37.7276 291.098 37.7392 291.289 37.8071C291.366 37.8346 291.659 37.9397 291.989 38.1817C292.253 38.376 293.188 39.1438 293.188 40.5625H287.188C287.188 42.0059 288.138 42.7981 288.435 43.0163C288.797 43.2822 289.139 43.4108 289.282 43.4614C289.603 43.5755 289.912 43.6318 290.09 43.6611C290.493 43.7277 290.998 43.775 291.541 43.813C292.656 43.8911 294.276 43.9521 296.37 43.9992L296.505 38.0008ZM293.103 41.2694L296.994 25.2225L291.163 23.8087L287.272 39.8556L293.103 41.2694ZM294.798 21.6033L291.954 20.9002L290.514 26.7248L293.358 27.4279L294.798 21.6033ZM288.66 22.2716L284.488 29.2403L289.637 32.3222L293.808 25.3534L288.66 22.2716Z" fill="#496D20" mask="url(#path-3-outside-1_2369_1265)"/>
    <mask id="path-5-outside-2_2369_1265" maskUnits="userSpaceOnUse" x="49" y="16" width="101" height="29" fill="black">
    <rect fill="white" x="49" y="16" width="101" height="29"/>
    <path d="M65.8438 41H56.6094L52.2344 35.625C52.0885 35.6042 52.0156 35.151 52.0156 34.2656C52.0156 32.5052 52.3021 29.0208 52.875 23.8125L57.125 19.125H64.4062L70.6875 22.25L67.6719 26.9375L61.7188 24.4062L56 30.625L61.1562 36.8438L69.3125 33.1875L72.1562 36.3125L65.8438 41ZM74.125 19.125L78.8125 21.1406L78.125 35.7188L88.1875 36.3125L89.2812 41L74.125 41.1562V19.125ZM110.812 41H104.562L101.438 34.75H98.3125L95.1875 41H90.5L95.875 19.1562L104.562 19.2031L110.812 41ZM103 30.9375L99.2812 22.25L96.75 30.9375H103ZM113.031 19.125H118.969L119.188 41H113.031V19.125ZM121.125 41L123.531 19.125H128.938L133.625 28.5L139.875 19.125H146.125L145.656 41H137.609L138.312 30.625L133.078 36.7969L128.234 30.0625L125.812 41H121.125Z"/>
  </mask>
  <path d="M65.8438 41H56.6094L52.2344 35.625C52.0885 35.6042 52.0156 35.151 52.0156 34.2656C52.0156 32.5052 52.3021 29.0208 52.875 23.8125L57.125 19.125H64.4062L70.6875 22.25L67.6719 26.9375L61.7188 24.4062L56 30.625L61.1562 36.8438L69.3125 33.1875L72.1562 36.3125L65.8438 41ZM74.125 19.125L78.8125 21.1406L78.125 35.7188L88.1875 36.3125L89.2812 41L74.125 41.1562V19.125ZM110.812 41H104.562L101.438 34.75H98.3125L95.1875 41H90.5L95.875 19.1562L104.562 19.2031L110.812 41ZM103 30.9375L99.2812 22.25L96.75 30.9375H103ZM113.031 19.125H118.969L119.188 41H113.031V19.125ZM121.125 41L123.531 19.125H128.938L133.625 28.5L139.875 19.125H146.125L145.656 41H137.609L138.312 30.625L133.078 36.7969L128.234 30.0625L125.812 41H121.125Z" fill="white"/>
  <path d="M65.8438 41V44C66.488 44 67.1151 43.7926 67.6323 43.4086L65.8438 41ZM56.6094 41L54.2827 42.8938C54.8524 43.5937 55.7069 44 56.6094 44V41ZM52.2344 35.625L54.5611 33.7312C54.0848 33.146 53.4055 32.7619 52.6586 32.6552L52.2344 35.625ZM52.875 23.8125L50.6525 21.7974C50.2279 22.2657 49.9621 22.8562 49.893 23.4845L52.875 23.8125ZM57.125 19.125V16.125C56.2784 16.125 55.4712 16.4827 54.9025 17.1099L57.125 19.125ZM64.4062 19.125L65.7425 16.4391C65.3274 16.2325 64.87 16.125 64.4062 16.125V19.125ZM70.6875 22.25L73.2105 23.8731C73.672 23.1558 73.8063 22.2758 73.5798 21.4535C73.3533 20.6311 72.7875 19.944 72.0238 19.5641L70.6875 22.25ZM67.6719 26.9375L66.498 29.6983C67.8429 30.2701 69.4042 29.7897 70.1949 28.5606L67.6719 26.9375ZM61.7188 24.4062L62.8926 21.6455C61.7243 21.1487 60.3698 21.4411 59.5105 22.3756L61.7188 24.4062ZM56 30.625L53.7918 28.5943C52.7759 29.699 52.7326 31.3845 53.6906 32.5398L56 30.625ZM61.1562 36.8438L58.8468 38.7586C59.7071 39.7961 61.1536 40.1326 62.3834 39.5813L61.1562 36.8438ZM69.3125 33.1875L71.5313 31.1684C70.6586 30.2094 69.2685 29.9196 68.0853 30.45L69.3125 33.1875ZM72.1562 36.3125L73.9448 38.7211C74.6252 38.2158 75.0602 37.4462 75.1422 36.6027C75.2242 35.7591 74.9455 34.9202 74.3751 34.2934L72.1562 36.3125ZM65.8438 38H56.6094V44H65.8438V38ZM58.9361 39.1062L54.5611 33.7312L49.9077 37.5188L54.2827 42.8938L58.9361 39.1062ZM52.6586 32.6552C53.4261 32.7648 53.9795 33.1473 54.3152 33.4864C54.6268 33.8012 54.7887 34.1111 54.8626 34.2711C54.9429 34.4453 54.9834 34.5843 55.0016 34.653C55.0213 34.7278 55.0298 34.778 55.0322 34.7929C55.0347 34.8085 55.0156 34.6666 55.0156 34.2656H49.0156C49.0156 34.7501 49.033 35.2775 49.1084 35.7462C49.1425 35.9582 49.2179 36.3589 49.4148 36.7855C49.5432 37.0638 50.1846 38.3626 51.8101 38.5948L52.6586 32.6552ZM55.0156 34.2656C55.0156 32.6968 55.2812 29.3754 55.857 24.1405L49.893 23.4845C49.323 28.6663 49.0156 32.3136 49.0156 34.2656H55.0156ZM55.0975 25.8276L59.3475 21.1401L54.9025 17.1099L50.6525 21.7974L55.0975 25.8276ZM57.125 22.125H64.4062V16.125H57.125V22.125ZM63.07 21.8109L69.3512 24.9359L72.0238 19.5641L65.7425 16.4391L63.07 21.8109ZM68.1645 20.6269L65.1489 25.3144L70.1949 28.5606L73.2105 23.8731L68.1645 20.6269ZM68.8458 24.1767L62.8926 21.6455L60.5449 27.167L66.498 29.6983L68.8458 24.1767ZM59.5105 22.3756L53.7918 28.5943L58.2082 32.6557L63.927 26.4369L59.5105 22.3756ZM53.6906 32.5398L58.8468 38.7586L63.4657 34.9289L58.3094 28.7102L53.6906 32.5398ZM62.3834 39.5813L70.5397 35.925L68.0853 30.45L59.9291 34.1062L62.3834 39.5813ZM67.0937 35.2066L69.9374 38.3316L74.3751 34.2934L71.5313 31.1684L67.0937 35.2066ZM70.3677 33.9039L64.0552 38.5914L67.6323 43.4086L73.9448 38.7211L70.3677 33.9039ZM74.125 19.125L75.3101 16.369C74.3831 15.9704 73.3178 16.0645 72.475 16.6195C71.6323 17.1745 71.125 18.1159 71.125 19.125H74.125ZM78.8125 21.1406L81.8092 21.2819C81.8681 20.033 81.1462 18.8785 79.9976 18.3846L78.8125 21.1406ZM78.125 35.7188L75.1283 35.5774C75.0509 37.2186 76.3081 38.6168 77.9483 38.7135L78.125 35.7188ZM88.1875 36.3125L91.109 35.6308C90.8072 34.3371 89.6904 33.396 88.3642 33.3177L88.1875 36.3125ZM89.2812 41L89.3122 43.9998C90.2222 43.9905 91.0788 43.5685 91.6408 42.8527C92.2029 42.1368 92.4096 41.2046 92.2028 40.3183L89.2812 41ZM74.125 41.1562H71.125C71.125 41.9573 71.4453 42.725 72.0146 43.2885C72.584 43.8519 73.355 44.1643 74.1559 44.1561L74.125 41.1562ZM72.9399 21.881L77.6274 23.8966L79.9976 18.3846L75.3101 16.369L72.9399 21.881ZM75.8158 20.9993L75.1283 35.5774L81.1217 35.8601L81.8092 21.2819L75.8158 20.9993ZM77.9483 38.7135L88.0108 39.3073L88.3642 33.3177L78.3017 32.724L77.9483 38.7135ZM85.266 36.9942L86.3597 41.6817L92.2028 40.3183L91.109 35.6308L85.266 36.9942ZM89.2503 38.0002L74.0941 38.1564L74.1559 44.1561L89.3122 43.9998L89.2503 38.0002ZM77.125 41.1562V19.125H71.125V41.1562H77.125ZM110.812 41V44C111.754 44 112.642 43.5577 113.208 42.8055C113.775 42.0532 113.956 41.0785 113.696 40.1731L110.812 41ZM104.562 41L101.879 42.3416C102.387 43.358 103.426 44 104.562 44V41ZM101.438 34.75L104.121 33.4084C103.613 32.392 102.574 31.75 101.438 31.75V34.75ZM98.3125 34.75V31.75C97.1762 31.75 96.1374 32.392 95.6292 33.4084L98.3125 34.75ZM95.1875 41V44C96.3238 44 97.3626 43.358 97.8708 42.3416L95.1875 41ZM90.5 41L87.5869 40.2832C87.3666 41.1783 87.5701 42.1251 88.1388 42.8506C88.7075 43.5762 89.5781 44 90.5 44V41ZM95.875 19.1562L95.8912 16.1563C94.5044 16.1488 93.2933 17.0928 92.9619 18.4394L95.875 19.1562ZM104.562 19.2031L107.446 18.3762C107.079 17.0955 105.911 16.2104 104.579 16.2032L104.562 19.2031ZM103 30.9375V33.9375C104.008 33.9375 104.949 33.4311 105.504 32.5895C106.059 31.748 106.155 30.6838 105.758 29.7569L103 30.9375ZM99.2812 22.25L102.039 21.0694C101.541 19.9049 100.364 19.1789 99.1 19.2555C97.8355 19.332 96.7554 20.1946 96.401 21.4108L99.2812 22.25ZM96.75 30.9375L93.8698 30.0983C93.6057 31.0047 93.7837 31.9826 94.3503 32.7378C94.9168 33.4931 95.8059 33.9375 96.75 33.9375V30.9375ZM110.812 38H104.562V44H110.812V38ZM107.246 39.6584L104.121 33.4084L98.7542 36.0916L101.879 42.3416L107.246 39.6584ZM101.438 31.75H98.3125V37.75H101.438V31.75ZM95.6292 33.4084L92.5042 39.6584L97.8708 42.3416L100.996 36.0916L95.6292 33.4084ZM95.1875 38H90.5V44H95.1875V38ZM93.4131 41.7168L98.7881 19.8731L92.9619 18.4394L87.5869 40.2832L93.4131 41.7168ZM95.8588 22.1562L104.546 22.2031L104.579 16.2032L95.8912 16.1563L95.8588 22.1562ZM101.679 20.03L107.929 41.8269L113.696 40.1731L107.446 18.3762L101.679 20.03ZM105.758 29.7569L102.039 21.0694L96.5233 23.4306L100.242 32.1181L105.758 29.7569ZM96.401 21.4108L93.8698 30.0983L99.6302 31.7767L102.161 23.0892L96.401 21.4108ZM96.75 33.9375H103V27.9375H96.75V33.9375ZM113.031 19.125V16.125C111.374 16.125 110.031 17.4681 110.031 19.125H113.031ZM118.969 19.125L121.969 19.095C121.952 17.4499 120.614 16.125 118.969 16.125V19.125ZM119.188 41V44C119.988 44 120.756 43.6798 121.319 43.1107C121.883 42.5416 122.195 41.7708 122.187 40.97L119.188 41ZM113.031 41H110.031C110.031 42.6569 111.374 44 113.031 44V41ZM113.031 22.125H118.969V16.125H113.031V22.125ZM115.969 19.155L116.188 41.03L122.187 40.97L121.969 19.095L115.969 19.155ZM119.188 38H113.031V44H119.188V38ZM116.031 41V19.125H110.031V41H116.031ZM121.125 41L118.143 40.672C118.05 41.5196 118.322 42.3669 118.891 43.002C119.46 43.6371 120.272 44 121.125 44V41ZM123.531 19.125V16.125C122.001 16.125 120.717 17.2762 120.549 18.797L123.531 19.125ZM128.938 19.125L131.621 17.7834C131.113 16.767 130.074 16.125 128.938 16.125V19.125ZM133.625 28.5L130.942 29.8416C131.42 30.7982 132.371 31.4278 133.439 31.4942C134.506 31.5607 135.528 31.0539 136.121 30.1641L133.625 28.5ZM139.875 19.125V16.125C138.872 16.125 137.935 16.6263 137.379 17.4609L139.875 19.125ZM146.125 19.125L149.124 19.1893C149.142 18.3827 148.833 17.6031 148.269 17.0265C147.705 16.45 146.932 16.125 146.125 16.125V19.125ZM145.656 41V44C147.288 44 148.621 42.6957 148.656 41.0643L145.656 41ZM137.609 41L134.616 40.7972C134.56 41.6261 134.85 42.4413 135.418 43.0483C135.985 43.6554 136.778 44 137.609 44V41ZM138.312 30.625L141.306 30.8278C141.393 29.5352 140.641 28.3324 139.441 27.8452C138.24 27.358 136.863 27.6965 136.025 28.6846L138.312 30.625ZM133.078 36.7969L130.643 38.5486C131.182 39.2981 132.036 39.7576 132.958 39.7945C133.881 39.8313 134.769 39.4414 135.366 38.7373L133.078 36.7969ZM128.234 30.0625L130.67 28.3108C129.979 27.3505 128.789 26.8857 127.63 27.124C126.472 27.3622 125.561 28.259 125.305 29.4139L128.234 30.0625ZM125.812 41V44C127.219 44 128.437 43.0222 128.742 41.6486L125.812 41ZM124.107 41.328L126.513 19.453L120.549 18.797L118.143 40.672L124.107 41.328ZM123.531 22.125H128.938V16.125H123.531V22.125ZM126.254 20.4666L130.942 29.8416L136.308 27.1584L131.621 17.7834L126.254 20.4666ZM136.121 30.1641L142.371 20.7891L137.379 17.4609L131.129 26.8359L136.121 30.1641ZM139.875 22.125H146.125V16.125H139.875V22.125ZM143.126 19.0607L142.657 40.9357L148.656 41.0643L149.124 19.1893L143.126 19.0607ZM145.656 38H137.609V44H145.656V38ZM140.603 41.2028L141.306 30.8278L135.319 30.4222L134.616 40.7972L140.603 41.2028ZM136.025 28.6846L130.79 34.8565L135.366 38.7373L140.6 32.5654L136.025 28.6846ZM135.514 35.0452L130.67 28.3108L125.799 31.8142L130.643 38.5486L135.514 35.0452ZM125.305 29.4139L122.883 40.3514L128.742 41.6486L131.163 30.7111L125.305 29.4139ZM125.812 38H121.125V44H125.812V38Z" fill="#496D20" mask="url(#path-5-outside-2_2369_1265)"/>
  <path d="M156 23.4675L157.363 36.1942L166.83 43.2462L183.27 40.5134L187.518 31.428L181.756 15.745L164.862 14L156 23.4675Z" fill="#F9C900"/>
  <path d="M156 23.4675V37.1821L166.607 45.02L183.27 40.5134L166.83 43.2462L157.363 36.1942L156 23.4675Z" fill="#BA9600"/>
  <path d="M160.845 25.8182L163.852 35.8842L174.185 38.242L182.665 33.0143L179.867 20.8212L169.412 17.2592L160.845 25.8182Z" fill="#BA9600"/>
  <path d="M160.845 25.8182L164.674 35.2496L174.185 38.242L163.852 35.8842L160.845 25.8182Z" fill="#FFED9F"/>
  <path d="M164.862 14L182.665 14.822L187.518 31.428L181.756 15.745L164.862 14Z" fill="#FFED9F"/>
  <path d="M169.412 17.2592L179.146 21.6504L182.665 33.0143L179.867 20.8212L169.412 17.2592Z" fill="#997C00"/>
</svg>