<svg width="249" height="248" viewBox="0 0 249 248" fill="none" xmlns="http://www.w3.org/2000/svg">
  <path opacity="0.3" d="M124.06 247.34C166.619 247.34 201.12 239.877 201.12 230.67C201.12 221.463 166.619 214 124.06 214C81.5009 214 47 221.463 47 230.67C47 239.877 81.5009 247.34 124.06 247.34Z" fill="black"/>
  <path d="M216.878 103.364C216.878 103.364 328.516 64.8129 124.377 64.8129C-79.7613 64.8129 32.4463 103.364 32.4463 103.364H216.887H216.878Z" fill="#8E7450" stroke="black" stroke-width="3" stroke-linecap="round" stroke-linejoin="round"/>
  <path d="M12.6409 73.3809C12.6409 73.3809 -4.71087 84.0196 39.8169 98.1327L32.4365 103.364C32.4365 103.364 -20.7181 85.7666 12.6409 73.3809Z" fill="#756042" stroke="black" stroke-width="3" stroke-linecap="round" stroke-linejoin="round"/>
  <path d="M236.359 73.3809C236.359 73.3809 253.711 84.0196 209.183 98.1327L216.564 103.364C216.564 103.364 269.718 85.7666 236.359 73.3809Z" fill="#756042" stroke="black" stroke-width="3" stroke-linecap="round" stroke-linejoin="round"/>
  <path d="M12.3759 84.8539L7.59631 91.3117" stroke="black" stroke-width="3" stroke-linecap="round" stroke-linejoin="round"/>
  <path d="M17.5187 88.7698L13.3672 95.0313" stroke="black" stroke-width="3" stroke-linecap="round" stroke-linejoin="round"/>
  <path d="M22.9362 91.6846L19.2362 98.0345" stroke="black" stroke-width="3" stroke-linecap="round" stroke-linejoin="round"/>
  <path d="M29.0603 94.3345L26.1062 101.008" stroke="black" stroke-width="3" stroke-linecap="round" stroke-linejoin="round"/>
  <path d="M239.804 79.5934L245.869 86.5419" stroke="black" stroke-width="3" stroke-linecap="round" stroke-linejoin="round"/>
  <path d="M236.791 85.4231L241.149 91.3117" stroke="black" stroke-width="3" stroke-linecap="round" stroke-linejoin="round"/>
  <path d="M231.472 89.1329L235.378 95.0313" stroke="black" stroke-width="3" stroke-linecap="round" stroke-linejoin="round"/>
  <path d="M226.054 92.0968L229.509 98.0345" stroke="black" stroke-width="3" stroke-linecap="round" stroke-linejoin="round"/>
  <path d="M219.92 94.8547L222.649 101.008" stroke="black" stroke-width="3" stroke-linecap="round" stroke-linejoin="round"/>
  <path d="M9.32364 79.1615L2.87561 86.5419" stroke="black" stroke-width="3" stroke-linecap="round" stroke-linejoin="round"/>
  <path d="M104.533 206.709C104.533 206.709 98.5264 232.403 77.7003 235.789C56.8743 239.175 68.7791 190.977 68.7791 190.977" fill="#CD6329"/>
  <path d="M68.779 190.977C68.779 190.977 56.8643 239.175 77.7002 235.789C98.5263 232.403 104.533 206.709 104.533 206.709" stroke="black" stroke-width="3" stroke-linecap="round" stroke-linejoin="round"/>
  <path d="M179.299 190.977C179.299 190.977 191.213 239.175 170.377 235.789C149.551 232.403 143.545 206.709 143.545 206.709" fill="#CD6329"/>
  <path d="M179.299 190.977C179.299 190.977 191.213 239.175 170.377 235.789C149.551 232.403 143.545 206.709 143.545 206.709" stroke="black" stroke-width="3" stroke-linecap="round" stroke-linejoin="round"/>
  <path d="M172.389 237.428C171.673 237.428 170.917 237.359 170.142 237.241C148.589 233.738 142.367 208.132 142.112 207.043C141.955 206.356 142.308 205.649 142.956 205.364L178.7 189.632C178.886 189.553 179.092 189.504 179.289 189.504C179.514 189.504 179.73 189.553 179.936 189.652C180.329 189.848 180.614 190.201 180.712 190.623C181.036 191.938 188.573 222.971 180.192 233.679C178.239 236.172 175.608 237.438 172.37 237.438L172.389 237.428Z" fill="#8AB242"/>
  <path d="M179.298 190.977C179.298 190.977 190.418 235.956 172.389 235.956C171.751 235.956 171.084 235.897 170.377 235.789C149.551 232.403 143.545 206.709 143.545 206.709L179.298 190.977ZM179.298 188.032C178.896 188.032 178.494 188.111 178.111 188.278L142.357 204.01C141.062 204.579 140.355 205.992 140.679 207.376C140.944 208.505 147.392 235.033 169.906 238.694C170.76 238.831 171.594 238.9 172.389 238.9C176.05 238.9 179.151 237.408 181.369 234.582C190.045 223.501 182.989 193.636 182.154 190.27C181.948 189.426 181.379 188.719 180.594 188.336C180.182 188.14 179.74 188.032 179.298 188.032Z" fill="black"/>
  <path d="M143.555 206.709L179.308 190.977C179.308 190.977 180.309 195.02 181.222 200.683C181.222 200.683 173.989 212.401 162.143 217.034L159.778 227.751L153.3 225.739C146.038 217.269 143.574 206.709 143.574 206.709H143.555Z" fill="#72912F"/>
  <path d="M75.6884 237.428C72.4497 237.428 69.8194 236.162 67.8664 233.669C59.4849 222.961 67.0223 191.928 67.3462 190.613C67.4541 190.191 67.7388 189.838 68.1215 189.642C68.3276 189.544 68.5534 189.495 68.7693 189.495C68.9754 189.495 69.1717 189.534 69.3581 189.622L105.112 205.355C105.76 205.639 106.113 206.346 105.956 207.033C105.701 208.122 99.4784 233.728 77.9261 237.232C77.1507 237.359 76.395 237.418 75.6786 237.418L75.6884 237.428Z" fill="#8AB242"/>
  <path d="M68.7791 190.977L104.533 206.709C104.533 206.709 98.5264 232.403 77.7003 235.789C76.9937 235.907 76.3263 235.956 75.6884 235.956C57.6692 235.956 68.7791 190.977 68.7791 190.977ZM68.7791 188.032C68.3374 188.032 67.886 188.13 67.4836 188.336C66.7082 188.719 66.1292 189.426 65.9231 190.27C65.0889 193.636 58.0422 223.511 66.7082 234.582C68.9165 237.408 72.0276 238.9 75.6884 238.9C76.4833 238.9 77.3176 238.831 78.1714 238.694C100.686 235.033 107.134 208.505 107.399 207.376C107.722 205.992 107.016 204.579 105.72 204.01L69.9666 188.278C69.5838 188.111 69.1815 188.032 68.7791 188.032Z" fill="black"/>
  <path d="M104.533 206.709L68.779 190.977C68.779 190.977 67.778 195.02 66.8652 200.683C66.8652 200.683 74.0984 212.401 85.9443 217.034L88.3096 227.751L94.7871 225.739C102.05 217.269 104.513 206.709 104.513 206.709H104.533Z" fill="#72912F"/>
  <path d="M34.0951 181.358C29.6394 181.358 26.1258 178.561 23.633 173.055C13.8775 151.464 36.4309 124.553 37.3927 123.424C37.6773 123.091 38.0895 122.904 38.5116 122.904C38.5803 122.904 38.649 122.904 38.7275 122.924C39.228 123.002 39.6598 123.326 39.8659 123.787L56.9625 162.721C57.1686 163.192 57.1196 163.742 56.8153 164.164C56.3246 164.87 44.6161 181.368 34.0951 181.368V181.358Z" fill="#8AB242"/>
  <path d="M38.5115 124.376L55.6081 163.31C55.6081 163.31 43.9683 179.886 34.0852 179.886C30.6404 179.886 27.4115 177.874 24.9677 172.457C15.487 151.464 38.5115 124.386 38.5115 124.386M38.5115 121.442C37.6576 121.442 36.8332 121.815 36.264 122.482C35.2728 123.65 12.1501 151.248 22.2785 173.674C25.7038 181.25 30.5815 182.84 34.0852 182.84C45.1754 182.84 56.7368 166.843 58.0126 165.018C58.6015 164.173 58.7094 163.084 58.2972 162.142L41.2006 123.208C40.7884 122.276 39.9346 121.628 38.9335 121.481C38.7863 121.461 38.6489 121.452 38.5115 121.452V121.442Z" fill="black"/>
  <path d="M38.5115 124.376C38.5115 124.376 37.4025 124.926 33.9675 130.54L31.1017 144.584L42.1625 152.141L45.2147 162.328L37.7558 167.128L45.3227 174.577C51.1033 169.728 55.6081 163.32 55.6081 163.32L38.5115 124.386V124.376Z" fill="#72912F"/>
  <path d="M213.237 181.358C202.716 181.358 191.007 164.861 190.516 164.154C190.222 163.732 190.163 163.182 190.369 162.711L207.466 123.778C207.672 123.316 208.094 122.983 208.604 122.914C208.673 122.904 208.742 122.894 208.82 122.894C209.252 122.894 209.664 123.081 209.939 123.414C210.901 124.553 233.454 151.454 223.699 173.046C221.216 178.552 217.692 181.349 213.237 181.349V181.358Z" fill="#8AB242"/>
  <path d="M208.82 124.376C208.82 124.376 231.845 151.464 222.364 172.447C219.91 177.874 216.691 179.876 213.246 179.876C203.363 179.876 191.723 163.3 191.723 163.3L208.82 124.366M208.82 121.422C208.683 121.422 208.535 121.432 208.398 121.452C207.397 121.599 206.533 122.256 206.131 123.179L189.034 162.112C188.622 163.055 188.73 164.144 189.319 164.988C190.605 166.814 202.156 182.811 213.246 182.811C216.74 182.811 221.628 181.221 225.053 173.644C235.181 151.209 212.059 123.611 211.068 122.453C210.508 121.785 209.684 121.412 208.82 121.412V121.422Z" fill="black"/>
  <path d="M208.82 124.376C208.82 124.376 209.929 124.926 213.364 130.54L216.23 144.584L205.169 152.141L202.117 162.328L209.576 167.128L202.009 174.577C196.228 169.728 191.724 163.32 191.724 163.32L208.82 124.386V124.376Z" fill="#72912F"/>
  <path d="M92.3826 222.834C92.147 222.834 91.9017 222.775 91.6857 222.657C91.2539 222.422 90.9595 221.99 90.9104 221.499L90.0664 212.391C81.4297 207.573 73.6764 201.036 67.0223 192.949H55.2745C54.8426 192.949 54.4206 192.753 54.1458 192.419C53.8612 192.086 53.7533 191.644 53.822 191.212L56.3246 177.305L44.2137 168.767C43.7524 168.443 43.5169 167.893 43.6052 167.334C43.6935 166.784 44.0861 166.323 44.6161 166.156L50.8678 164.183C49.1994 159.512 47.8646 154.634 46.8636 149.678L36.9314 143.141C36.3917 142.788 36.1463 142.121 36.3328 141.493L40.1898 128.41L32.3481 102.147C32.1715 101.548 32.3874 100.9 32.8977 100.527L44.6259 92.1067L40.9455 71.4376C40.8572 70.9175 41.0437 70.3875 41.4461 70.0538C41.711 69.8281 42.0545 69.7103 42.3882 69.7103C42.5649 69.7103 42.7317 69.7398 42.8986 69.7986L49.8766 72.3896V52.918C49.8766 52.3193 50.2397 51.7795 50.7991 51.5538C50.9758 51.4851 51.1623 51.4458 51.3487 51.4458C51.7413 51.4458 52.1241 51.6028 52.4087 51.8973L59.0628 58.8164L65.5697 40.4733C65.7758 39.8943 66.3156 39.5017 66.9339 39.4919H66.9536C67.5621 39.4919 68.1018 39.8649 68.3276 40.4341L70.9873 47.2943L102.678 26.6155C102.923 26.4584 103.198 26.3799 103.483 26.3799C103.728 26.3799 103.964 26.4388 104.179 26.5566C104.651 26.8118 104.955 27.3123 104.955 27.8521V31.9349L123.376 19.8239C123.622 19.6669 123.906 19.5786 124.181 19.5786C124.456 19.5786 124.741 19.6571 124.986 19.8239L143.407 31.9349V27.8619C143.407 27.3221 143.702 26.8216 144.183 26.5664C144.399 26.4486 144.644 26.3897 144.88 26.3897C145.164 26.3897 145.439 26.4683 145.684 26.6253L177.375 47.3041L180.035 40.4439C180.251 39.8747 180.8 39.5017 181.409 39.5017H181.428C182.047 39.5017 182.586 39.9041 182.792 40.4832L189.299 58.8262L195.953 51.9071C196.238 51.6126 196.621 51.4556 197.013 51.4556C197.2 51.4556 197.386 51.4949 197.563 51.5636C198.122 51.7893 198.486 52.3291 198.486 52.9278V72.3994L205.464 69.8085C205.63 69.7496 205.807 69.7201 205.974 69.7201C206.317 69.7201 206.651 69.8379 206.916 70.0636C207.319 70.3973 207.515 70.9273 207.417 71.4475L203.736 92.1165L215.464 100.537C215.975 100.9 216.201 101.548 216.014 102.157L208.163 128.449L210.812 138.558C210.95 139.088 210.783 139.647 210.39 140.011L201.852 147.891C200.831 153.505 199.359 159.021 197.465 164.301L203.363 166.166C203.893 166.333 204.286 166.794 204.374 167.344C204.463 167.893 204.227 168.453 203.766 168.776L191.802 177.197C191.763 177.276 191.714 177.364 191.674 177.443L194.157 191.212C194.236 191.644 194.118 192.086 193.834 192.419C193.559 192.753 193.137 192.949 192.705 192.949H181.36C174.588 201.174 166.697 207.789 157.884 212.627L157.059 221.499C157.01 221.99 156.726 222.432 156.284 222.657C156.068 222.775 155.832 222.834 155.587 222.834C155.342 222.834 155.106 222.775 154.89 222.657L145.959 217.838C138.883 220.194 131.561 221.391 124.161 221.391C116.761 221.391 109.263 220.164 102.109 217.76L93.0205 222.657C92.8046 222.775 92.5592 222.834 92.3237 222.834H92.3826Z" fill="#8AB242"/>
  <path d="M124.22 21.0409L144.929 34.6534V27.8423L178.14 49.5124L181.458 40.9641L188.759 61.5546L197.062 52.918V74.4997L206.033 71.1825L202.186 92.7642L214.66 101.735L206.69 128.42L209.448 138.931L200.547 147.146C199.428 153.437 197.769 159.502 195.61 165.243L202.971 167.569L190.722 176.196C190.546 176.53 190.369 176.863 190.192 177.197L192.764 191.477H180.722C173.891 199.908 165.696 206.817 156.559 211.704L155.656 221.362L146.165 216.239C139.207 218.633 131.846 219.919 124.23 219.919C116.614 219.919 109.077 218.604 102.05 216.16L92.4021 221.362L91.4796 211.469C82.5093 206.591 74.4615 199.77 67.7387 191.467H55.2941L57.9636 176.638L45.0773 167.559L52.8012 165.125C50.858 159.914 49.3171 154.447 48.2179 148.785L37.7754 141.905L41.7601 128.41L33.7908 101.725L46.2648 92.7544L42.4176 71.1727L51.3879 74.4899V52.9081L59.6909 61.5448L66.9928 40.9543L70.31 49.5026L103.522 27.8325V34.6436L124.23 21.0311M124.22 18.0966C123.661 18.0966 123.092 18.2536 122.601 18.5775L106.456 29.1967V27.8521C106.456 26.7725 105.867 25.7813 104.915 25.2611C104.474 25.0256 103.993 24.9078 103.512 24.9078C102.953 24.9078 102.393 25.0648 101.902 25.3887L71.7331 45.0763L69.731 39.9041C69.2893 38.7755 68.1999 38.0296 66.9829 38.0296C66.9731 38.0296 66.9535 38.0296 66.9437 38.0296C65.7169 38.0492 64.6275 38.8245 64.2153 39.9924L58.5033 56.088L53.5078 50.8864C52.9386 50.2975 52.1731 49.9835 51.3879 49.9835C51.015 49.9835 50.642 50.0522 50.2887 50.1994C49.1699 50.6508 48.4436 51.7304 48.4436 52.9278V70.2796L43.4481 68.4246C43.1144 68.2971 42.7709 68.2382 42.4274 68.2382C41.7502 68.2382 41.073 68.4737 40.5431 68.9252C39.7285 69.6024 39.3457 70.6623 39.5322 71.7026L43.0555 91.4589L32.0831 99.3399C31.0624 100.076 30.6208 101.371 30.9839 102.569L38.7078 128.42L34.9685 141.08C34.6054 142.327 35.0863 143.661 36.1757 144.368L45.5877 150.571C46.4808 154.889 47.629 159.129 49.0227 163.241L44.2136 164.762C43.1439 165.096 42.3587 166.009 42.1919 167.118C42.025 168.227 42.4863 169.336 43.4089 169.974L54.7543 177.973L52.4184 190.957C52.2614 191.811 52.497 192.694 53.0564 193.371C53.6158 194.039 54.4402 194.431 55.3137 194.431H66.3745C72.8716 202.204 80.3795 208.544 88.7218 213.304L89.4971 221.646C89.5854 222.628 90.1645 223.501 91.0379 223.972C91.4698 224.208 91.9507 224.326 92.4316 224.326C92.9125 224.326 93.3934 224.208 93.8252 223.972L102.354 219.379C109.469 221.705 116.83 222.893 124.26 222.893C131.689 222.893 138.883 221.745 145.92 219.468L154.291 223.982C154.723 224.218 155.204 224.336 155.685 224.336C156.166 224.336 156.637 224.218 157.079 223.982C157.952 223.511 158.531 222.647 158.62 221.656L159.375 213.55C167.884 208.77 175.53 202.351 182.145 194.431H192.803C193.676 194.431 194.501 194.048 195.06 193.371C195.62 192.704 195.855 191.821 195.698 190.957L193.362 177.973L204.708 169.974C205.621 169.326 206.092 168.217 205.925 167.118C205.748 166.009 204.973 165.096 203.903 164.762L199.457 163.359C201.077 158.599 202.372 153.662 203.314 148.647L211.49 141.1C212.285 140.364 212.618 139.245 212.343 138.195L209.801 128.488L217.535 102.598C217.898 101.391 217.447 100.096 216.436 99.3693L205.464 91.4884L208.957 71.8597C209.007 71.6536 209.026 71.4376 209.026 71.2119C209.026 69.5925 207.721 68.2774 206.101 68.2676H206.082C206.043 68.2676 205.993 68.2676 205.954 68.2676C205.621 68.2774 205.297 68.3559 205.002 68.4737L200.066 70.2992V52.9474C200.066 51.75 199.339 50.6607 198.221 50.219C197.867 50.0718 197.494 50.0031 197.121 50.0031C196.336 50.0031 195.561 50.3172 195.001 50.906L190.006 56.1076L184.294 40.0121C183.882 38.854 182.792 38.0688 181.566 38.0492C181.556 38.0492 181.536 38.0492 181.526 38.0492C180.309 38.0492 179.22 38.7951 178.778 39.9237L176.776 45.0959L146.607 25.4083C146.116 25.0943 145.557 24.9274 144.997 24.9274C144.516 24.9274 144.035 25.0452 143.594 25.2807C142.642 25.7911 142.053 26.7921 142.053 27.8717V29.2163L125.908 18.5972C125.418 18.2733 124.858 18.1162 124.289 18.1162L124.22 18.0966Z" fill="black"/>
  <path d="M46.2551 92.7642L48.8264 87.0228L42.4078 71.1825L46.2551 92.7642Z" fill="#72912F"/>
  <path d="M202.186 92.7642L197.759 86.2868L206.023 71.1825L202.186 92.7642Z" fill="#72912F"/>
  <path d="M52.7816 165.125L45.0577 167.559L57.9439 176.638L55.2744 191.467H67.719C74.4517 199.77 82.4994 206.581 91.4599 211.469L92.3825 221.362L102.03 216.16C109.057 218.604 116.506 219.919 124.21 219.919C131.915 219.919 139.187 218.633 146.146 216.239L155.636 221.362L156.539 211.704C165.676 206.807 173.871 199.908 180.702 191.477H192.744L190.173 177.197C190.349 176.863 190.526 176.53 190.703 176.196L202.951 167.569L195.59 165.243C197.749 159.492 199.408 153.437 200.527 147.146L209.428 138.931L197.74 143.593C197.74 143.593 196.434 159.08 191.35 167.55L196.935 168.561L189.319 173.635C189.319 173.635 173.577 198.691 153.604 206.473L152.417 212.146L143.613 209.8C143.613 209.8 136.262 212.902 124.201 212.902C112.139 212.902 104.788 209.8 104.788 209.8L95.9844 212.146L94.7968 206.473C74.8246 198.691 59.0824 173.635 59.0824 173.635L51.4664 168.561L57.0508 167.55C51.9768 159.09 50.6617 145.88 50.6617 145.88L37.746 141.924L48.1884 148.804C49.2877 154.467 50.8285 159.934 52.7718 165.145L52.7816 165.125Z" fill="#72912F"/>
  <path d="M41.7405 128.42L44.0861 119.381L33.7712 101.735L41.7405 128.42Z" fill="#72912F"/>
  <path d="M206.632 128.42L204.286 119.381L214.601 101.735L206.632 128.42Z" fill="#72912F"/>
  <path d="M51.3782 74.4997L55.7063 69.3374L51.3782 52.9179V74.4997Z" fill="#72912F"/>
  <path d="M197.053 74.4997L192.715 69.3374L197.053 52.9179V74.4997Z" fill="#72912F"/>
  <path d="M70.3003 49.5124L67.6112 52.9179L66.983 40.9641L70.3003 49.5124Z" fill="#72912F"/>
  <path d="M178.131 49.5124L180.82 52.9179L181.448 40.9641L178.131 49.5124Z" fill="#72912F"/>
  <path d="M123.082 55.4795C132.632 55.4795 140.375 52.7904 140.375 49.4731C140.375 46.1559 132.632 43.4667 123.082 43.4667C113.531 43.4667 105.789 46.1559 105.789 49.4731C105.789 52.7904 113.531 55.4795 123.082 55.4795Z" fill="#72912F"/>
  <path d="M140.375 49.4731C140.375 52.7904 132.631 55.4795 123.082 55.4795C113.532 55.4795 105.789 52.7904 105.789 49.4731" stroke="#C5FF5F" stroke-width="3" stroke-linecap="round" stroke-linejoin="round"/>
  <path d="M134.859 132.669C127.94 135.525 120.167 135.525 113.238 132.669" stroke="black" stroke-width="3" stroke-linecap="round" stroke-linejoin="round"/>
  <path d="M130.708 138.754C126.252 139.667 122.071 139.814 117.399 138.754" stroke="#72912F" stroke-width="3" stroke-linecap="round" stroke-linejoin="round"/>
  <path d="M62.3702 120.264C62.3702 120.264 70.0353 129.902 84.9629 129.44" stroke="#C5FF5F" stroke-width="3" stroke-linecap="round" stroke-linejoin="round"/>
  <path d="M185.717 120.264C185.717 120.264 178.052 129.902 163.124 129.44" stroke="#C5FF5F" stroke-width="3" stroke-linecap="round" stroke-linejoin="round"/>
  <path d="M128.863 101.735C128.863 101.735 130.197 111.51 135.517 117.496" stroke="#72912F" stroke-width="3" stroke-linecap="round" stroke-linejoin="round"/>
  <path d="M119.598 101.735C119.598 101.735 118.263 111.51 112.944 117.496" stroke="#72912F" stroke-width="3" stroke-linecap="round" stroke-linejoin="round"/>
  <path d="M66.2273 164.262L85.0512 159.021L82.5093 171.093L65.4421 164.262" fill="#72912F"/>
  <path d="M82.5093 171.093L65.8936 164.262L70.8105 157.441" stroke="black" stroke-width="3" stroke-linecap="round" stroke-linejoin="round"/>
  <path d="M95.4545 195.481L104.66 183.282L106.859 193.95L95.4545 195.481Z" fill="#72912F"/>
  <path d="M106.859 193.95L95.4545 195.481L94.002 186.158" stroke="black" stroke-width="3" stroke-linecap="round" stroke-linejoin="round"/>
  <path d="M104.994 171.937L113.346 162.534L114.445 171.426L104.994 171.937Z" fill="#72912F"/>
  <path d="M114.445 171.426L104.994 171.937L104.415 164.193" stroke="black" stroke-width="3" stroke-linecap="round" stroke-linejoin="round"/>
  <path d="M142.338 171.937L133.986 162.534L132.877 171.426L142.338 171.937Z" fill="#72912F"/>
  <path d="M132.877 171.426L142.338 171.937L142.917 164.193" stroke="black" stroke-width="3" stroke-linecap="round" stroke-linejoin="round"/>
  <path d="M182.213 164.262L163.38 159.021L165.922 171.093L182.989 164.262" fill="#72912F"/>
  <path d="M165.922 171.093L182.537 164.262L177.63 157.441" stroke="black" stroke-width="3" stroke-linecap="round" stroke-linejoin="round"/>
  <path d="M152.976 195.481L143.771 183.282L141.572 193.95L152.976 195.481Z" fill="#72912F"/>
  <path d="M141.572 193.95L152.976 195.481L154.439 186.158" stroke="black" stroke-width="3" stroke-linecap="round" stroke-linejoin="round"/>
  <path d="M162.732 124.749C134.113 124.749 133.397 99.173 133.387 98.908C133.387 98.4664 133.573 98.0345 133.917 97.7499C134.368 97.377 145.213 88.5539 164.97 88.5539C172.546 88.5539 180.466 89.8788 188.534 92.4796C189.103 92.6661 189.505 93.1764 189.545 93.7751C189.584 94.364 190.487 108.183 182.066 117.241C177.444 122.217 170.927 124.739 162.722 124.739L162.732 124.749Z" fill="white"/>
  <path d="M164.979 90.0358C171.673 90.0358 179.397 91.086 188.092 93.8929C188.092 93.8929 190.242 123.277 162.742 123.277C135.242 123.277 134.869 98.8884 134.869 98.8884C134.869 98.8884 145.527 90.0358 164.989 90.0358M164.989 87.0915C144.703 87.0915 133.465 96.2287 132.994 96.6213C132.307 97.1905 131.915 98.0444 131.934 98.9276C131.934 99.2123 132.082 105.866 135.958 112.55C139.57 118.782 147.147 126.212 162.752 126.212C171.388 126.212 178.258 123.532 183.175 118.242C192.028 108.722 191.086 94.2855 191.036 93.6671C190.948 92.4698 190.143 91.4491 189.005 91.0762C180.8 88.4263 172.723 87.0719 164.989 87.0719V87.0915Z" fill="black"/>
  <path d="M185.472 96.16C185.472 96.16 158.836 86.6793 137.509 100.557" stroke="#DBDBDB" stroke-width="3" stroke-linecap="round" stroke-linejoin="round"/>
  <path d="M85.3652 124.749C77.1506 124.749 70.6437 122.227 66.0211 117.251C57.6004 108.192 58.5033 94.3738 58.5524 93.7849C58.5916 93.1863 58.994 92.6759 59.5632 92.4894C67.6208 89.8788 75.5508 88.5637 83.1275 88.5637C102.884 88.5637 113.729 97.377 114.18 97.7597C114.524 98.0444 114.72 98.4664 114.71 98.9178C114.71 99.173 113.984 124.759 85.3652 124.759V124.749Z" fill="white"/>
  <path d="M83.1276 90.0359C102.58 90.0359 113.248 98.8884 113.248 98.8884C113.248 98.8884 112.875 123.277 85.3751 123.277C57.8752 123.277 60.0246 93.8929 60.0246 93.8929C68.7201 91.086 76.444 90.0359 83.1374 90.0359M83.1374 87.0916C75.4135 87.0916 67.3265 88.4361 59.1217 91.0958C57.9832 91.4688 57.1784 92.4894 57.0901 93.6868C57.041 94.2953 56.0988 108.732 64.9514 118.262C69.8684 123.552 76.7384 126.231 85.3751 126.231C100.98 126.231 108.566 118.802 112.168 112.57C116.035 105.886 116.182 99.2221 116.192 98.9473C116.202 98.0542 115.819 97.2101 115.132 96.6409C114.661 96.2483 103.424 87.1112 83.1374 87.1112V87.0916Z" fill="black"/>
  <path d="M86.9159 111.765C91.1167 111.765 94.5221 108.359 94.5221 104.159C94.5221 99.958 91.1167 96.5526 86.9159 96.5526C82.7152 96.5526 79.3098 99.958 79.3098 104.159C79.3098 108.359 82.7152 111.765 86.9159 111.765Z" fill="black"/>
  <path d="M83.2258 104.169C85.0958 104.169 86.6118 102.653 86.6118 100.783C86.6118 98.9125 85.0958 97.3966 83.2258 97.3966C81.3558 97.3966 79.8398 98.9125 79.8398 100.783C79.8398 102.653 81.3558 104.169 83.2258 104.169Z" fill="white"/>
  <path d="M161.495 111.765C165.696 111.765 169.101 108.359 169.101 104.159C169.101 99.958 165.696 96.5526 161.495 96.5526C157.295 96.5526 153.889 99.958 153.889 104.159C153.889 108.359 157.295 111.765 161.495 111.765Z" fill="black"/>
  <path d="M62.3702 96.16C62.3702 96.16 89.0064 86.6793 110.333 100.557" stroke="#DBDBDB" stroke-width="3" stroke-linecap="round" stroke-linejoin="round"/>
  <path d="M158.109 104.169C159.979 104.169 161.495 102.653 161.495 100.783C161.495 98.9125 159.979 97.3966 158.109 97.3966C156.239 97.3966 154.723 98.9125 154.723 100.783C154.723 102.653 156.239 104.169 158.109 104.169Z" fill="white"/>
  <path d="M117.89 94.4719C117.586 94.4719 117.291 94.3836 117.036 94.1971C116.889 94.0892 101.932 83.6565 80.0556 83.6565C72.5476 83.6565 65.02 84.8833 57.6691 87.2976C57.5219 87.3467 57.3648 87.3762 57.2078 87.3762C56.776 87.3762 56.354 87.1897 56.0693 86.8462C55.6866 86.3751 55.6179 85.7273 55.9123 85.1974L62.5174 73.2827C62.6646 73.0178 62.8805 72.8117 63.1553 72.6743L74.3241 67.1586C74.5302 67.0604 74.7461 67.0016 74.9718 67.0016C75.0699 67.0016 75.1681 67.0114 75.276 67.031L111.53 74.5684C112.011 74.6666 112.414 75.0003 112.6 75.4615L113.974 78.9064L115.358 76.9337C115.642 76.5313 116.094 76.3056 116.565 76.3056C116.693 76.3056 116.82 76.3252 116.948 76.3546C117.546 76.5117 117.978 77.0318 118.027 77.6501L119.342 92.8722C119.392 93.4414 119.107 93.991 118.606 94.2757C118.381 94.4032 118.126 94.4719 117.87 94.4719H117.89Z" fill="#72912F"/>
  <path d="M74.9915 68.4737L111.246 76.0111L113.631 81.9783L116.575 77.7875L117.89 93.0096C117.89 93.0096 102.707 82.204 80.0557 82.204C73.0777 82.204 65.3832 83.2345 57.2079 85.9138L63.8129 73.9992L74.9817 68.4835M74.9817 65.5392C74.5302 65.5392 74.0886 65.6374 73.6764 65.8435L62.5076 71.3591C61.9678 71.6241 61.5262 72.0461 61.2318 72.5761L54.6267 84.4907C54.0378 85.5507 54.1654 86.8658 54.9309 87.7982C55.5002 88.4852 56.3344 88.8679 57.1981 88.8679C57.5023 88.8679 57.8164 88.8189 58.1206 88.7207C65.3243 86.3555 72.6949 85.1581 80.0459 85.1581C101.402 85.1581 116.025 95.3258 116.173 95.4239C116.683 95.7871 117.282 95.9637 117.88 95.9637C118.381 95.9637 118.891 95.8361 119.343 95.5711C120.334 95.0019 120.913 93.9027 120.815 92.7642L119.5 77.5422C119.392 76.3056 118.528 75.2751 117.331 74.9512C117.075 74.8825 116.82 74.853 116.565 74.853C115.721 74.853 114.906 75.2162 114.337 75.8737L113.964 74.9414C113.601 74.0286 112.796 73.3514 111.835 73.1552L75.5803 65.6177C75.3841 65.5785 75.178 65.5588 74.9817 65.5588V65.5392Z" fill="black"/>
  <path d="M117.89 92.9998L116.575 77.7777L115.446 87.9356C89.5756 73.9894 61.5458 81.9684 61.5458 81.9684L63.8227 73.9796L57.2177 85.8942C91.9212 74.4899 117.89 92.99 117.89 92.99V92.9998Z" fill="#607527"/>
  <path d="M129.442 94.4719C129.186 94.4719 128.941 94.4032 128.715 94.2757C128.215 93.991 127.93 93.4414 127.979 92.8722L129.294 77.6501C129.343 77.0318 129.785 76.5117 130.374 76.3546C130.502 76.3154 130.629 76.3056 130.757 76.3056C131.228 76.3056 131.679 76.5313 131.964 76.9337L133.348 78.9064L134.722 75.4615C134.908 75.0003 135.301 74.6666 135.791 74.5684L172.046 67.031C172.144 67.0114 172.242 67.0016 172.35 67.0016C172.576 67.0016 172.801 67.0506 172.998 67.1586L184.166 72.6743C184.431 72.8117 184.657 73.0178 184.804 73.2827L191.409 85.1974C191.704 85.7273 191.645 86.3849 191.252 86.8462C190.968 87.1897 190.546 87.3762 190.114 87.3762C189.957 87.3762 189.81 87.3565 189.653 87.2976C182.302 84.8833 174.774 83.6565 167.266 83.6565C145.341 83.6565 130.443 94.0892 130.295 94.1971C130.04 94.3836 129.746 94.4719 129.442 94.4719Z" fill="#72912F"/>
  <path d="M172.34 68.4737L183.509 73.9894L190.114 85.904C181.939 83.2149 174.244 82.1942 167.266 82.1942C144.615 82.1942 129.432 92.9998 129.432 92.9998L130.747 77.7777L133.691 81.9684L136.076 76.0013L172.33 68.4639M172.33 65.5196C172.134 65.5196 171.928 65.5392 171.732 65.5785L135.477 73.1159C134.516 73.3122 133.711 73.9894 133.348 74.9021L132.975 75.8345C132.415 75.1867 131.591 74.8138 130.747 74.8138C130.492 74.8138 130.237 74.8432 129.981 74.9119C128.784 75.2358 127.92 76.2663 127.812 77.5029L126.497 92.725C126.399 93.8733 126.968 94.9627 127.969 95.5319C128.421 95.7871 128.931 95.9245 129.432 95.9245C130.03 95.9245 130.629 95.738 131.139 95.3749C131.277 95.2767 145.9 85.109 167.266 85.109C174.617 85.109 181.997 86.3064 189.191 88.6717C189.496 88.7698 189.8 88.8189 190.114 88.8189C190.978 88.8189 191.812 88.4361 192.381 87.7491C193.156 86.8167 193.274 85.5016 192.685 84.4417L186.08 72.527C185.786 72.0069 185.344 71.5849 184.804 71.3101L173.636 65.7944C173.223 65.5883 172.782 65.4901 172.33 65.4901V65.5196Z" fill="black"/>
  <path d="M129.442 92.9998L130.757 77.7777L131.885 87.9356C157.756 73.9894 185.786 81.9684 185.786 81.9684L183.509 73.9796L190.114 85.8942C155.41 74.4899 129.442 92.99 129.442 92.99V92.9998Z" fill="#607527"/>
  <path d="M125.408 45.5081C125.408 45.5081 120.157 30.1585 129.442 14.8088" stroke="#351B00" stroke-width="3" stroke-linecap="round" stroke-linejoin="round"/>
  <path d="M7.0271 75.9424L121.512 2.47217L127.371 2.5605L241.836 76.0111C241.836 76.0111 231.216 64.8031 124.377 64.8031C17.5383 64.8031 7.0271 75.9424 7.0271 75.9424Z" fill="#E9CF9E" stroke="black" stroke-width="3" stroke-linecap="round" stroke-linejoin="round"/>
  <path d="M24.3691 64.8031C24.3691 64.8031 41.3479 56.4413 124.201 56.4413C207.053 56.4413 224.376 64.8031 224.376 64.8031L237.292 73.0865C237.292 73.0865 209.703 64.8031 124.377 64.8031C39.0513 64.8031 11.0117 73.3809 11.0117 73.3809L24.3789 64.8031H24.3691Z" fill="#C5AF76" stroke="black" stroke-width="3" stroke-linecap="round" stroke-linejoin="round"/>
  <path d="M76.2968 57.5994L81.4494 52.4273L91.0576 51.9856L94.9441 46.8821C94.9441 46.8821 107.87 44.0556 125.025 46.3914L127.43 40.7972H138.981L141.552 34.0646C141.552 34.0646 162.32 30.3744 178.67 35.4779L165.038 26.7333C144.781 21.1391 129.913 26.2818 129.913 26.2818L127.135 32.0134H116.84L113.405 36.7341C97.7903 34.781 85.8953 38.5301 85.8953 38.5301L79.0939 45.5376H70.5162L65.2655 49.9344C52.2909 50.2583 42.8397 52.9572 42.8397 52.9572L24.3593 64.8228C24.3593 64.8228 37.275 59.7488 76.287 57.6092L76.2968 57.5994Z" fill="#C5AF76" stroke="black" stroke-width="3" stroke-linecap="round" stroke-linejoin="round"/>
  <path d="M134.074 56.4413L137.273 49.7185L149.198 49.6596L152.927 42.397C152.927 42.397 175.019 38.167 195.266 46.1362L211.342 56.4511C188.76 47.7654 164.027 51.3477 164.027 51.3477L162.192 57.1381L134.074 56.4511V56.4413Z" fill="#C5AF76" stroke="black" stroke-width="3" stroke-linecap="round" stroke-linejoin="round"/>
  <path d="M67.0418 37.4211L73.3328 36.8911L82.4798 29.5107C100.538 26.272 106.957 28.3134 106.957 28.3134L110.5 23.1019H119.303L122.159 17.9985C138.971 14.0924 149.62 16.8404 149.62 16.8404L135.016 7.46767C135.016 7.46767 125.702 6.48624 116.094 10.2942L112.777 15.1818L101.235 15.4664L96.3083 21.3648H92.039L67.0222 37.4113L67.0418 37.4211Z" fill="#C5AF76" stroke="black" stroke-width="3" stroke-linecap="round" stroke-linejoin="round"/>
</svg>
