<svg width="280" height="338" viewBox="0 0 280 338" fill="none" xmlns="http://www.w3.org/2000/svg">
  <path d="M243.174 114.816C243.174 114.816 368.294 71.5988 139.494 71.5988C-89.3059 71.5988 36.4487 114.816 36.4487 114.816H243.174Z" fill="#8E7450"/>
  <path d="M243.174 116.552H36.4484C36.26 116.552 36.0716 116.522 35.8832 116.462C31.9958 115.134 -2.00884 103.114 0.0935117 90.4705C1.18436 83.9254 11.3689 79.1059 31.2322 75.7441C54.2887 71.8468 90.7031 69.8634 139.494 69.8634C188.284 69.8634 224.738 71.8567 247.805 75.7738C267.658 79.1555 277.843 83.9849 278.953 90.5597C281.066 103.174 247.567 115.124 243.739 116.452C243.56 116.512 243.362 116.552 243.174 116.552ZM36.736 113.081H242.876C256.264 108.41 276.752 98.4337 275.522 91.1448C274.401 84.5006 255.252 73.3442 139.484 73.3442C90.8915 73.3442 54.6655 75.3077 31.8074 79.1753C8.2451 83.1618 3.97097 88.3285 3.5148 91.0457C2.29504 98.3543 23.1302 108.4 36.7261 113.091L36.736 113.081Z" fill="black"/>
  <path d="M14.2552 81.218C14.2552 81.218 -5.19162 93.138 44.7195 108.955L36.4489 114.816C36.4489 114.816 -23.1211 95.0916 14.2552 81.218Z" fill="#756042"/>
  <path d="M36.4484 116.551C36.2699 116.551 36.0815 116.522 35.903 116.462C32.2735 115.262 0.420793 104.354 0.202624 91.948C0.113373 87.0293 4.51642 82.9832 13.6597 79.5917C14.4927 79.2843 15.4348 79.6512 15.8215 80.4644C16.2083 81.2676 15.9306 82.2295 15.177 82.6956C15.0183 82.7948 11.9044 84.8079 12.311 87.9714C12.7473 91.4323 17.6165 98.5426 45.2545 107.299C45.8793 107.497 46.3454 108.033 46.4446 108.687C46.5437 109.342 46.266 109.987 45.7305 110.373L37.46 116.234C37.1624 116.442 36.8154 116.551 36.4584 116.551H36.4484ZM9.02855 85.4922C5.99402 87.2276 3.62391 89.3795 3.6735 91.8786C3.80241 99.2269 23.3285 108.509 36.1708 112.882L40.9011 109.53C20.5122 102.718 9.74256 95.5974 8.85005 88.368C8.72113 87.3268 8.80047 86.3648 9.01864 85.4922H9.02855Z" fill="black"/>
  <path d="M265.01 81.2185C265.01 81.2185 284.457 93.1385 234.546 108.956L242.817 114.817C242.817 114.817 302.387 95.0921 265.01 81.2185Z" fill="#756042"/>
  <path d="M242.817 116.552C242.46 116.552 242.113 116.443 241.815 116.235L233.544 110.374C233.009 109.997 232.731 109.343 232.83 108.688C232.93 108.034 233.396 107.498 234.02 107.3C261.658 98.5432 266.528 91.4329 266.964 87.9719C267.371 84.7886 264.227 82.7755 264.088 82.6863C263.334 82.2103 263.057 81.2484 263.453 80.4451C263.85 79.6518 264.772 79.2749 265.605 79.5823C274.749 82.9739 279.152 87.0199 279.062 91.9386C278.844 104.354 246.992 115.253 243.362 116.453C243.184 116.512 242.995 116.542 242.817 116.542V116.552ZM238.364 109.531L243.094 112.883C255.936 108.51 275.463 99.2275 275.592 91.8791C275.631 89.3801 273.271 87.2183 270.236 85.4927C270.455 86.3654 270.534 87.3174 270.405 88.3686C269.522 95.6078 258.743 102.718 238.354 109.541L238.364 109.531Z" fill="black"/>
  <path d="M8.6023 103.045C8.24529 103.045 7.87837 102.936 7.57095 102.708C6.79744 102.143 6.63877 101.052 7.20403 100.278L12.5492 93.049C13.1243 92.2755 14.2053 92.1169 14.9788 92.6821C15.7523 93.2474 15.911 94.3382 15.3457 95.1117L10.0006 102.341C9.66339 102.797 9.1378 103.045 8.6023 103.045Z" fill="black"/>
  <path d="M15.0677 107.21C14.7404 107.21 14.4032 107.121 14.1156 106.923C13.3124 106.397 13.0942 105.316 13.6297 104.513L18.2807 97.4919C18.8063 96.6887 19.8872 96.4705 20.6806 97.006C21.4838 97.5316 21.702 98.6125 21.1665 99.4158L16.5155 106.437C16.1783 106.943 15.6329 107.21 15.0677 107.21Z" fill="black"/>
  <path d="M21.6528 110.582C21.3553 110.582 21.0578 110.503 20.7801 110.344C19.9471 109.858 19.6694 108.797 20.1554 107.974L24.2907 100.854C24.7766 100.031 25.8377 99.743 26.6608 100.229C27.4938 100.715 27.7714 101.776 27.2855 102.599L23.1502 109.719C22.823 110.275 22.2478 110.582 21.6429 110.582H21.6528Z" fill="black"/>
  <path d="M29.3483 113.914C29.1103 113.914 28.8723 113.864 28.6442 113.765C27.7715 113.378 27.3748 112.347 27.7616 111.474L31.0738 103.997C31.4606 103.124 32.482 102.728 33.3646 103.114C34.2373 103.501 34.6339 104.533 34.2472 105.405L30.935 112.882C30.6474 113.527 30.0127 113.914 29.3483 113.914Z" fill="black"/>
  <path d="M275.671 97.6999C275.185 97.6999 274.709 97.5015 274.362 97.1049L267.559 89.3202C266.924 88.5963 267.004 87.5054 267.728 86.8708C268.452 86.2361 269.543 86.3154 270.177 87.0393L276.98 94.824C277.615 95.5479 277.535 96.6388 276.812 97.2735C276.484 97.561 276.078 97.6999 275.671 97.6999Z" fill="black"/>
  <path d="M270.375 103.045C269.84 103.045 269.324 102.797 268.977 102.341L264.098 95.7363C263.533 94.9628 263.691 93.8818 264.465 93.3067C265.238 92.7414 266.319 92.9001 266.895 93.6736L271.774 100.278C272.339 101.052 272.18 102.133 271.407 102.708C271.099 102.936 270.732 103.045 270.375 103.045Z" fill="black"/>
  <path d="M263.909 107.21C263.344 107.21 262.799 106.933 262.461 106.437L258.078 99.8222C257.553 99.019 257.771 97.948 258.564 97.4125C259.367 96.8869 260.438 97.105 260.964 97.8984L265.347 104.513C265.873 105.316 265.655 106.387 264.861 106.923C264.564 107.121 264.237 107.21 263.909 107.21Z" fill="black"/>
  <path d="M257.325 110.582C256.73 110.582 256.145 110.275 255.817 109.719L251.95 103.055C251.464 102.222 251.751 101.161 252.575 100.685C253.408 100.199 254.469 100.487 254.945 101.31L258.812 107.974C259.298 108.807 259.011 109.868 258.187 110.344C257.91 110.503 257.612 110.582 257.315 110.582H257.325Z" fill="black"/>
  <path d="M249.629 113.914C248.965 113.914 248.33 113.527 248.042 112.882L244.988 105.99C244.601 105.118 244.988 104.086 245.871 103.7C246.743 103.313 247.775 103.7 248.161 104.582L251.216 111.474C251.602 112.347 251.216 113.378 250.333 113.765C250.105 113.864 249.867 113.914 249.629 113.914Z" fill="black"/>
  <path d="M3.30655 97.6997C2.89997 97.6997 2.49338 97.5608 2.16613 97.2732C1.4422 96.6386 1.37278 95.5477 1.99754 94.8238L9.22687 86.5532C9.85163 85.8293 10.9524 85.7599 11.6763 86.3846C12.4002 87.0193 12.4697 88.1101 11.8449 88.8341L4.61557 97.1047C4.26848 97.5013 3.79248 97.6997 3.30655 97.6997Z" fill="black"/>
  <path d="M117.25 230.644C117.25 230.644 110.517 259.442 87.1728 263.24C63.8287 267.029 77.1767 213.012 77.1767 213.012" fill="#CD6329"/>
  <path d="M84.9019 265.164C81.6096 265.164 78.8725 263.994 76.7305 261.684C66.308 250.378 75.1141 214.133 75.4909 212.595C75.719 211.663 76.6611 211.108 77.5933 211.326C78.5254 211.554 79.0907 212.496 78.8626 213.428C76.4033 223.395 71.673 251.082 79.289 259.333C81.1435 261.336 83.6227 262.06 86.8952 261.525C108.801 257.965 115.495 230.525 115.555 230.247C115.773 229.315 116.705 228.73 117.637 228.958C118.569 229.176 119.145 230.108 118.926 231.041C118.639 232.26 111.657 261.019 87.4406 264.946C86.558 265.085 85.7052 265.164 84.892 265.164H84.9019Z" fill="black"/>
  <path d="M201.047 213.012C201.047 213.012 214.395 267.029 191.051 263.24C167.707 259.452 160.973 230.644 160.973 230.644" fill="#CD6329"/>
  <path d="M193.322 265.164C192.509 265.164 191.656 265.095 190.773 264.946C166.557 261.009 159.575 232.26 159.288 231.041C159.069 230.108 159.645 229.176 160.577 228.958C161.519 228.74 162.441 229.315 162.659 230.247C162.729 230.525 169.423 257.965 191.319 261.525C194.591 262.06 197.08 261.336 198.925 259.333C206.531 251.082 201.811 223.405 199.351 213.428C199.123 212.496 199.689 211.554 200.621 211.326C201.563 211.108 202.495 211.663 202.723 212.595C203.1 214.133 211.906 250.368 201.484 261.684C199.351 264.004 196.604 265.164 193.312 265.164H193.322Z" fill="black"/>
  <path d="M193.303 265.165C192.499 265.165 191.646 265.096 190.774 264.957C166.557 261.02 159.576 232.271 159.288 231.051C159.1 230.238 159.516 229.405 160.28 229.068L200.343 211.436C200.562 211.337 200.8 211.287 201.048 211.287C201.305 211.287 201.573 211.347 201.811 211.466C202.267 211.694 202.604 212.11 202.733 212.606C203.1 214.084 211.559 248.901 202.138 260.93C199.937 263.747 196.962 265.175 193.303 265.175V265.165Z" fill="#8AB242"/>
  <path d="M201.047 213.012C201.047 213.012 213.503 263.429 193.302 263.429C192.588 263.429 191.845 263.369 191.051 263.241C167.707 259.452 160.974 230.644 160.974 230.644L201.037 213.012M201.037 209.541C200.561 209.541 200.085 209.64 199.639 209.839L159.575 227.471C158.048 228.145 157.215 229.811 157.592 231.437C157.89 232.707 165.139 262.546 190.486 266.662C191.448 266.82 192.39 266.9 193.292 266.9C197.448 266.9 200.978 265.204 203.487 261.991C213.255 249.516 205.331 215.967 204.399 212.179C204.151 211.187 203.477 210.344 202.565 209.898C202.079 209.66 201.553 209.541 201.037 209.541Z" fill="black"/>
  <path d="M160.983 230.644L201.047 213.012C201.047 213.012 202.168 217.544 203.189 223.891C203.189 223.891 195.077 237.031 181.798 242.217L179.141 254.236L171.872 251.985C163.74 242.485 160.973 230.654 160.973 230.654L160.983 230.644Z" fill="#72912F"/>
  <path d="M84.9217 265.165C81.2624 265.165 78.2972 263.737 76.0858 260.92C66.6649 248.882 75.1239 214.074 75.4908 212.596C75.6098 212.1 75.947 211.684 76.4131 211.456C76.6511 211.337 76.9188 211.277 77.1767 211.277C77.4147 211.277 77.6527 211.327 77.8807 211.426L117.954 229.058C118.718 229.395 119.135 230.228 118.946 231.041C118.659 232.261 111.677 261.02 87.4604 264.947C86.5877 265.086 85.7348 265.155 84.9316 265.155L84.9217 265.165Z" fill="#8AB242"/>
  <path d="M77.1764 213.012L117.24 230.644C117.24 230.644 110.507 259.442 87.1626 263.241C86.3692 263.369 85.6255 263.429 84.9115 263.429C64.711 263.429 77.1665 213.012 77.1665 213.012M77.1665 209.541C76.6409 209.541 76.1153 209.66 75.6393 209.898C74.717 210.354 74.0427 211.187 73.8047 212.179C72.8725 215.967 64.949 249.516 74.717 261.991C77.226 265.204 80.7563 266.9 84.9115 266.9C85.8139 266.9 86.756 266.82 87.7179 266.662C113.065 262.546 120.324 232.697 120.612 231.437C120.989 229.811 120.156 228.145 118.629 227.471L78.5647 209.839C78.1185 209.64 77.6425 209.541 77.1665 209.541Z" fill="black"/>
  <path d="M117.25 230.644L77.1863 213.012C77.1863 213.012 76.0657 217.544 75.0443 223.891C75.0443 223.891 83.1562 237.031 96.4348 242.217L99.0925 254.236L106.361 251.985C114.493 242.485 117.26 230.654 117.26 230.654L117.25 230.644Z" fill="#72912F"/>
  <path d="M38.2927 202.322C33.2649 202.322 29.2883 199.178 26.4918 192.97C15.5436 168.724 40.8513 138.527 41.9322 137.248C42.2594 136.861 42.7454 136.633 43.2511 136.633C43.3305 136.633 43.4197 136.633 43.499 136.653C44.094 136.742 44.5998 137.129 44.8378 137.674L63.997 181.308C64.2449 181.864 64.1755 182.508 63.8284 183.004C63.2731 183.787 50.1234 202.322 38.2927 202.322Z" fill="#8AB242"/>
  <path d="M43.2516 138.369L62.4108 182.002C62.4108 182.002 49.3603 200.576 38.2932 200.576C34.4355 200.576 30.8159 198.325 28.069 192.246C17.4481 168.724 43.2516 138.359 43.2516 138.359M43.2516 134.888C42.2401 134.888 41.2682 135.324 40.6038 136.108C39.4931 137.417 13.5112 168.426 24.9055 193.664C28.7731 202.242 34.3165 204.037 38.2932 204.037C50.8081 204.037 63.809 186.038 65.2569 183.986C65.9511 182.994 66.08 181.705 65.5941 180.594L46.4348 136.96C45.9588 135.87 44.9473 135.096 43.7573 134.918C43.5887 134.898 43.4201 134.878 43.2516 134.878V134.888Z" fill="black"/>
  <path d="M43.2515 138.369C43.2515 138.369 42.0119 138.993 38.1642 145.271L34.9512 161.009L47.3471 169.478L50.7684 180.892L42.4086 186.277L50.8973 194.627C57.373 189.192 62.4206 182.012 62.4206 182.012L43.2614 138.379L43.2515 138.369Z" fill="#72912F"/>
  <path d="M239.088 202.322C227.247 202.322 214.098 183.798 213.552 183.004C213.205 182.508 213.136 181.864 213.384 181.308L232.543 137.675C232.781 137.129 233.287 136.742 233.882 136.653C233.961 136.643 234.05 136.633 234.13 136.633C234.635 136.633 235.121 136.852 235.449 137.248C236.529 138.527 261.837 168.724 250.889 192.971C248.082 199.178 244.116 202.322 239.088 202.322Z" fill="#8AB242"/>
  <path d="M234.129 138.369C234.129 138.369 259.933 168.724 249.312 192.256C246.565 198.335 242.945 200.587 239.088 200.587C228.011 200.587 214.97 182.012 214.97 182.012L234.129 138.379M234.129 134.908C233.961 134.908 233.792 134.918 233.624 134.947C232.444 135.116 231.432 135.89 230.946 136.99L211.787 180.624C211.301 181.735 211.43 183.024 212.124 184.016C213.562 186.068 226.573 204.067 239.088 204.067C243.054 204.067 248.598 202.272 252.475 193.694C263.87 168.456 237.888 137.446 236.777 136.137C236.113 135.354 235.141 134.918 234.129 134.918V134.908Z" fill="black"/>
  <path d="M234.13 138.369C234.13 138.369 235.369 138.994 239.217 145.271L242.43 161.009L230.034 169.478L226.613 180.892L234.973 186.277L226.484 194.627C220.008 189.192 214.96 182.013 214.96 182.013L234.12 138.379L234.13 138.369Z" fill="#72912F"/>
  <path d="M103.635 248.812C103.357 248.812 103.07 248.743 102.812 248.604C102.296 248.326 101.959 247.81 101.899 247.235L100.957 237.071C91.2884 231.676 82.6212 224.357 75.1637 215.313H62.0339C61.5183 215.313 61.0323 215.085 60.7051 214.688C60.3778 214.292 60.239 213.776 60.3282 213.27L63.1248 197.731L49.5884 188.191C49.0529 187.814 48.7752 187.159 48.8744 186.505C48.9735 185.85 49.4396 185.315 50.0644 185.117L56.9962 182.925C55.1517 177.719 53.6543 172.294 52.5436 166.771L41.4467 159.462C40.812 159.045 40.5244 158.252 40.7327 157.518L45.0564 142.881L36.2701 113.468C36.0619 112.754 36.3197 111.99 36.9247 111.564L50.0247 102.153L45.9093 79.0368C45.8002 78.422 46.0283 77.7972 46.5043 77.4006C46.8216 77.1328 47.2183 76.994 47.6149 76.994C47.8133 76.994 48.0215 77.0337 48.2199 77.1031L55.9351 79.9591V58.2612C55.9351 57.5571 56.3615 56.9125 57.026 56.6547C57.2342 56.5654 57.4524 56.5258 57.6706 56.5258C58.1366 56.5258 58.5829 56.7142 58.9201 57.0613L66.2783 64.717L73.5275 44.2885C73.7754 43.6042 74.4101 43.148 75.134 43.1381H75.1637C75.8778 43.1381 76.5223 43.5745 76.7802 44.2488L79.7255 51.8351L115.158 28.7191C115.446 28.5307 115.773 28.4415 116.11 28.4415C116.398 28.4415 116.675 28.5109 116.933 28.6497C117.498 28.9571 117.846 29.5422 117.846 30.1769V34.5899L138.363 21.0931C138.651 20.9047 138.988 20.8055 139.315 20.8055C139.643 20.8055 139.98 20.9047 140.267 21.0931L160.785 34.5899V30.1769C160.785 29.5422 161.132 28.9571 161.698 28.6497C161.955 28.5109 162.243 28.4415 162.521 28.4415C162.848 28.4415 163.185 28.5406 163.473 28.7191L198.905 51.8351L201.851 44.2488C202.108 43.5844 202.753 43.1381 203.467 43.1381H203.497C204.221 43.148 204.865 43.6141 205.103 44.2885L212.352 64.717L219.711 57.0613C220.048 56.7142 220.494 56.5258 220.96 56.5258C221.178 56.5258 221.397 56.5654 221.605 56.6547C222.259 56.9224 222.696 57.5571 222.696 58.2612V79.9591L230.411 77.1031C230.609 77.0337 230.808 76.994 231.016 76.994C231.412 76.994 231.809 77.1328 232.126 77.4006C232.602 77.7972 232.831 78.422 232.721 79.0368L228.606 102.153L241.706 111.564C242.311 112 242.569 112.764 242.361 113.468L233.564 142.911L236.53 154.216C236.688 154.841 236.5 155.495 236.024 155.932L226.474 164.748C225.333 171.005 223.687 177.153 221.595 183.044L228.12 185.107C228.745 185.305 229.211 185.84 229.31 186.495C229.409 187.15 229.132 187.804 228.596 188.181L215.208 197.612C215.169 197.691 215.129 197.77 215.089 197.84L217.866 213.25C217.955 213.756 217.817 214.282 217.489 214.669C217.162 215.065 216.676 215.293 216.16 215.293H203.487C195.9 224.496 187.075 231.894 177.217 237.318L176.295 247.215C176.245 247.791 175.898 248.306 175.383 248.584C175.125 248.723 174.847 248.792 174.56 248.792C174.272 248.792 173.994 248.723 173.736 248.584L163.76 243.209C155.837 245.847 147.626 247.186 139.335 247.186C131.045 247.186 122.635 245.817 114.633 243.12L104.488 248.594C104.23 248.733 103.952 248.802 103.665 248.802L103.635 248.812Z" fill="#8AB242"/>
  <path d="M139.315 22.5408L162.52 37.8027V30.1767L199.738 54.4629L203.457 44.8833L211.648 67.9596L220.95 58.2809V82.4778L230.996 78.759L226.682 102.956L240.664 113.002L231.729 142.911L234.814 154.692L224.837 163.904C223.588 170.955 221.723 177.748 219.304 184.194L227.554 186.802L213.82 196.471C213.621 196.848 213.423 197.225 213.225 197.592L216.111 213.597H202.614C194.948 223.048 185.765 230.783 175.531 236.267L174.52 247.096L163.879 241.354C156.074 244.032 147.834 245.48 139.295 245.48C130.757 245.48 122.318 244.002 114.434 241.265L103.615 247.096L102.583 236.009C92.5277 230.545 83.5133 222.899 75.9667 213.597H62.0138L65.0086 196.967L50.5698 186.792L59.2272 184.055C57.0455 178.214 55.3199 172.086 54.0903 165.739L42.3885 158.034L46.851 142.901L37.916 112.992L51.8987 102.946L47.5849 78.7491L57.6306 82.4679V58.2709L66.9325 67.9497L75.1237 44.8734L78.8425 54.453L116.06 30.1668V37.7928L139.265 22.5309M139.256 19.06C138.591 19.06 137.927 19.2484 137.352 19.6352L119.521 31.3568V30.1668C119.521 28.8975 118.827 27.7174 117.706 27.1124C117.191 26.8348 116.625 26.6959 116.05 26.6959C115.386 26.6959 114.731 26.8844 114.156 27.2612L80.5185 49.207L78.3467 43.614C77.831 42.2752 76.5418 41.4025 75.1138 41.4025C75.094 41.4025 75.0841 41.4025 75.0642 41.4025C73.6164 41.4223 72.3272 42.3446 71.8413 43.7131L65.5342 61.4939L60.1197 55.8711C59.4552 55.1769 58.5429 54.81 57.6206 54.81C57.1843 54.81 56.748 54.8893 56.3215 55.0579C55.0125 55.5835 54.1498 56.8628 54.1498 58.2809V77.4897L48.7749 75.4964C48.3782 75.3476 47.9716 75.2782 47.565 75.2782C46.7618 75.2782 45.9684 75.5559 45.3338 76.0815C44.3817 76.8748 43.9256 78.1243 44.1437 79.354L48.0708 101.399L35.8632 110.175C34.6633 111.038 34.1377 112.565 34.5641 113.983L43.2016 142.901L39.0267 157.042C38.5903 158.51 39.1754 160.086 40.4448 160.919L50.9367 167.831C51.9185 172.592 53.1878 177.282 54.715 181.814L49.4889 183.46C48.2295 183.857 47.3072 184.938 47.1089 186.237C46.9105 187.536 47.4659 188.845 48.5369 189.609L61.1708 198.504L58.5726 212.953C58.3941 213.964 58.6619 215.006 59.3263 215.799C59.9907 216.592 60.9626 217.048 61.9939 217.048H74.3106C81.5796 225.726 89.9592 232.806 99.2711 238.131L100.134 247.394C100.243 248.554 100.927 249.585 101.949 250.131C102.464 250.408 103.02 250.537 103.585 250.537C104.15 250.537 104.715 250.399 105.231 250.121L114.721 245.004C122.685 247.602 130.935 248.921 139.265 248.921C147.596 248.921 155.648 247.632 163.522 245.093L172.844 250.121C173.359 250.399 173.925 250.537 174.49 250.537C175.055 250.537 175.62 250.399 176.126 250.131C177.157 249.585 177.832 248.554 177.941 247.394L178.774 238.399C188.274 233.044 196.812 225.874 204.21 217.039H216.071C217.102 217.039 218.074 216.582 218.738 215.789C219.403 214.996 219.671 213.964 219.492 212.943L216.894 198.494L229.528 189.599C230.609 188.835 231.164 187.536 230.956 186.227C230.758 184.928 229.825 183.847 228.576 183.45L223.756 181.933C225.541 176.657 226.979 171.193 228.021 165.64L237.144 157.221C238.086 156.348 238.473 155.029 238.146 153.789L235.309 142.95L243.967 113.973C244.393 112.555 243.868 111.028 242.668 110.165L230.46 101.389L234.357 79.4928C234.407 79.2548 234.437 78.997 234.437 78.7392C234.437 76.8252 232.9 75.2782 230.986 75.2683C230.986 75.2683 230.966 75.2683 230.956 75.2683C230.906 75.2683 230.857 75.2683 230.807 75.2683C230.411 75.2881 230.034 75.3675 229.677 75.5063L224.381 77.4698V58.261C224.381 56.8429 223.518 55.5736 222.209 55.0381C221.793 54.8695 221.347 54.7902 220.91 54.7902C219.988 54.7902 219.076 55.1571 218.411 55.8513L212.997 61.4741L206.69 43.6933C206.204 42.3248 204.924 41.4025 203.467 41.3827C203.447 41.3827 203.437 41.3827 203.417 41.3827C201.989 41.3827 200.7 42.2653 200.184 43.5941L198.012 49.1872L164.375 27.2414C163.8 26.8645 163.135 26.6761 162.481 26.6761C161.915 26.6761 161.34 26.8149 160.825 27.0926C159.704 27.6975 159.01 28.8677 159.01 30.147V31.337L141.179 19.6154C140.604 19.2385 139.94 19.0402 139.275 19.0402L139.256 19.06Z" fill="black"/>
  <path d="M51.9284 102.936L54.8142 96.4999L47.6146 78.7488L51.9284 102.936Z" fill="#72912F"/>
  <path d="M226.691 102.936L221.733 95.6768L231.005 78.7488L226.691 102.936Z" fill="#72912F"/>
  <path d="M59.2471 184.045L50.5897 186.782L65.0286 196.957L62.0337 213.588H75.9866C83.5333 222.889 92.5476 230.535 102.603 235.999L103.635 247.086L114.454 241.255C122.338 243.992 130.678 245.47 139.315 245.47C147.953 245.47 156.104 244.022 163.899 241.345L174.54 247.086L175.551 236.257C185.795 230.773 194.978 223.038 202.634 213.588H216.13L213.245 197.582C213.443 197.205 213.641 196.838 213.84 196.461L227.574 186.792L219.324 184.184C221.743 177.738 223.608 170.955 224.857 163.895L234.833 154.682L221.733 159.908C221.733 159.908 220.266 177.272 214.574 186.753L220.831 187.893L212.293 193.585C212.293 193.585 194.651 221.67 172.259 230.396L170.93 236.753L161.063 234.125C161.063 234.125 152.822 237.606 139.295 237.606C125.769 237.606 117.528 234.125 117.528 234.125L107.661 236.753L106.332 230.396C83.9399 221.67 66.2979 193.585 66.2979 193.585L57.7596 187.893L64.0171 186.753C58.3248 177.262 56.8572 162.467 56.8572 162.467L42.3787 158.034L54.0805 165.739C55.3101 172.086 57.0357 178.214 59.2173 184.055L59.2471 184.045Z" fill="#72912F"/>
  <path d="M46.8713 142.901L49.4992 132.766L37.9363 112.992L46.8713 142.901Z" fill="#72912F"/>
  <path d="M231.68 142.901L229.052 132.766L240.615 112.992L231.68 142.901Z" fill="#72912F"/>
  <path d="M57.6705 82.4677L62.5297 76.6763L57.6705 58.2807V82.4677Z" fill="#72912F"/>
  <path d="M220.95 82.4677L216.091 76.6763L220.95 58.2807V82.4677Z" fill="#72912F"/>
  <path d="M78.882 54.4627L75.8673 58.2807L75.1632 44.8732L78.882 54.4627Z" fill="#72912F"/>
  <path d="M199.738 54.4627L202.753 58.2807L203.467 44.8732L199.738 54.4627Z" fill="#72912F"/>
  <path d="M138.036 61.1467C148.743 61.1467 157.423 58.132 157.423 54.4132C157.423 50.6944 148.743 47.6797 138.036 47.6797C127.329 47.6797 118.649 50.6944 118.649 54.4132C118.649 58.132 127.329 61.1467 138.036 61.1467Z" fill="#72912F"/>
  <path d="M138.036 62.882C127.544 62.882 116.913 59.9764 116.913 54.413C116.913 53.4511 117.687 52.6776 118.649 52.6776C119.61 52.6776 120.384 53.4511 120.384 54.413C120.384 56.1088 126.612 59.4111 138.036 59.4111C149.46 59.4111 155.688 56.1088 155.688 54.413C155.688 53.4511 156.461 52.6776 157.423 52.6776C158.385 52.6776 159.159 53.4511 159.159 54.413C159.159 59.9764 148.538 62.882 138.036 62.882Z" fill="#C5FF5F"/>
  <path d="M151.235 151.806C151.017 151.806 150.789 151.766 150.571 151.677C143.183 148.633 135.051 148.633 127.663 151.677C126.78 152.044 125.759 151.618 125.392 150.735C125.025 149.853 125.451 148.831 126.334 148.464C134.575 145.073 143.649 145.063 151.89 148.464C152.772 148.831 153.199 149.843 152.832 150.735C152.554 151.409 151.909 151.806 151.225 151.806H151.235Z" fill="black"/>
  <path d="M131.67 155.227C130.985 155.227 130.341 154.82 130.063 154.156C129.696 153.273 130.123 152.252 131.005 151.885C136.241 149.723 142.013 149.723 147.249 151.885C148.132 152.252 148.558 153.264 148.191 154.156C147.824 155.039 146.813 155.465 145.92 155.098C141.537 153.293 136.707 153.293 132.324 155.098C132.106 155.187 131.888 155.227 131.66 155.227H131.67Z" fill="#72912F"/>
  <path d="M94.1445 144.805C77.5439 144.805 68.9956 134.303 68.6287 133.847C68.0337 133.093 68.1527 132.002 68.9064 131.407C69.6501 130.812 70.741 130.931 71.3459 131.685C71.4252 131.784 79.6264 141.78 95.2552 141.314C96.2072 141.274 97.0105 142.038 97.0402 143C97.07 143.962 96.3163 144.755 95.3544 144.785C94.9379 144.795 94.5313 144.805 94.1346 144.805H94.1445Z" fill="#C5FF5F"/>
  <path d="M184.079 144.804C183.673 144.804 183.266 144.804 182.86 144.785C181.898 144.755 181.144 143.952 181.174 143C181.204 142.048 182.027 141.274 182.959 141.314C198.608 141.79 206.789 131.784 206.868 131.685C207.473 130.941 208.564 130.812 209.308 131.417C210.051 132.022 210.18 133.103 209.585 133.856C209.218 134.313 200.67 144.814 184.07 144.814L184.079 144.804Z" fill="#C5FF5F"/>
  <path d="M152.971 132.389C152.495 132.389 152.019 132.19 151.672 131.804C145.434 124.783 143.857 113.696 143.798 113.23C143.669 112.278 144.333 111.405 145.285 111.276C146.247 111.147 147.11 111.811 147.239 112.754C147.249 112.853 148.746 123.285 154.27 129.503C154.905 130.217 154.845 131.318 154.121 131.952C153.794 132.25 153.377 132.389 152.971 132.389Z" fill="#72912F"/>
  <path d="M125.69 132.388C125.283 132.388 124.867 132.24 124.539 131.952C123.825 131.317 123.756 130.217 124.39 129.503C129.934 123.265 131.412 112.862 131.421 112.753C131.55 111.801 132.433 111.147 133.375 111.266C134.327 111.395 134.992 112.267 134.863 113.219C134.803 113.685 133.216 124.782 126.989 131.793C126.642 132.18 126.166 132.379 125.69 132.379V132.388Z" fill="#72912F"/>
  <path d="M74.3105 183.083L95.4134 177.203L92.5673 190.729L73.4379 183.083" fill="#72912F"/>
  <path d="M92.5674 192.465C92.3492 192.465 92.1211 192.425 91.903 192.336L73.2793 184.68C72.7834 184.482 72.4165 184.065 72.2678 183.55C72.119 183.044 72.2182 182.488 72.5256 182.062L78.0294 174.416C78.5847 173.633 79.6756 173.464 80.4491 174.02C81.2226 174.575 81.4011 175.666 80.8458 176.439L76.6311 182.3L93.2219 189.123C94.1045 189.49 94.5309 190.501 94.164 191.384C93.8863 192.058 93.2417 192.455 92.5575 192.455L92.5674 192.465Z" fill="black"/>
  <path d="M107.076 218.07L117.389 204.394L119.859 216.344L107.076 218.07Z" fill="#72912F"/>
  <path d="M107.076 219.805C106.233 219.805 105.499 219.19 105.361 218.337L103.724 207.885C103.576 206.943 104.22 206.05 105.172 205.902C106.124 205.753 107.007 206.398 107.156 207.35L108.534 216.116L119.631 214.619C120.593 214.49 121.456 215.154 121.584 216.106C121.713 217.058 121.049 217.931 120.097 218.06L107.314 219.775C107.235 219.785 107.156 219.795 107.076 219.795V219.805Z" fill="black"/>
  <path d="M117.766 191.672L127.127 181.14L128.367 191.106L117.766 191.672Z" fill="#72912F"/>
  <path d="M117.766 193.407C116.864 193.407 116.11 192.713 116.041 191.8L115.386 183.123C115.317 182.171 116.031 181.338 116.983 181.259C117.945 181.199 118.768 181.904 118.847 182.856L119.373 189.837L128.278 189.361C129.22 189.292 130.053 190.045 130.103 190.997C130.152 191.949 129.419 192.772 128.467 192.822L117.866 193.387C117.866 193.387 117.806 193.387 117.776 193.387L117.766 193.407Z" fill="black"/>
  <path d="M159.625 191.672L150.254 181.14L149.024 191.106L159.625 191.672Z" fill="#72912F"/>
  <path d="M159.625 193.407C159.625 193.407 159.565 193.407 159.536 193.407L148.935 192.842C147.983 192.792 147.239 191.969 147.298 191.017C147.348 190.055 148.161 189.311 149.123 189.381L158.028 189.857L158.554 182.875C158.623 181.923 159.456 181.209 160.418 181.279C161.37 181.348 162.094 182.181 162.015 183.143L161.36 191.82C161.291 192.733 160.537 193.427 159.635 193.427L159.625 193.407Z" fill="black"/>
  <path d="M204.31 183.083L183.207 177.202L186.053 190.729L205.183 183.083" fill="#72912F"/>
  <path d="M186.053 192.465C185.369 192.465 184.725 192.058 184.447 191.394C184.08 190.511 184.506 189.49 185.389 189.133L201.98 182.31L197.765 176.449C197.2 175.675 197.378 174.585 198.162 174.029C198.935 173.474 200.026 173.642 200.582 174.426L206.085 182.072C206.393 182.498 206.492 183.054 206.343 183.559C206.194 184.065 205.828 184.482 205.332 184.69L186.708 192.346C186.49 192.435 186.272 192.474 186.044 192.474L186.053 192.465Z" fill="black"/>
  <path d="M171.545 218.07L161.232 204.395L158.762 216.344L171.545 218.07Z" fill="#72912F"/>
  <path d="M171.545 219.805C171.466 219.805 171.386 219.805 171.307 219.786L158.524 218.07C157.572 217.941 156.908 217.068 157.037 216.116C157.166 215.164 158.029 214.5 158.99 214.629L170.087 216.126L171.466 207.36C171.615 206.418 172.487 205.763 173.449 205.912C174.391 206.061 175.046 206.943 174.897 207.895L173.261 218.348C173.132 219.201 172.388 219.815 171.545 219.815V219.805Z" fill="black"/>
  <path d="M182.483 138.874C150.323 138.874 149.51 110.116 149.51 109.828C149.51 109.303 149.728 108.807 150.134 108.47C150.64 108.043 162.818 98.1462 185.002 98.1462C193.5 98.1462 202.396 99.6337 211.44 102.549C212.114 102.767 212.59 103.372 212.64 104.076C212.689 104.731 213.701 120.261 204.24 130.435C199.034 136.028 191.715 138.874 182.493 138.874H182.483Z" fill="white"/>
  <path d="M184.992 99.8815C192.489 99.8815 201.146 101.052 210.894 104.205C210.894 104.205 213.304 137.139 182.483 137.139C151.662 137.139 151.245 109.798 151.245 109.798C151.245 109.798 163.195 99.8815 185.002 99.8815M185.002 96.4107C162.203 96.4107 149.559 106.694 149.034 107.131C148.22 107.805 147.764 108.807 147.784 109.858C147.784 110.175 147.953 117.682 152.316 125.209C156.382 132.23 164.92 140.61 182.493 140.61C192.221 140.61 199.966 137.585 205.51 131.625C215.486 120.895 214.415 104.642 214.365 103.957C214.266 102.549 213.314 101.339 211.975 100.903C202.763 97.918 193.689 96.4107 185.012 96.4107H185.002Z" fill="black"/>
  <path d="M154.21 113.418C153.645 113.418 153.09 113.141 152.753 112.625C152.227 111.822 152.455 110.751 153.258 110.225C177.604 94.3781 207.295 104.662 208.544 105.108C209.447 105.425 209.913 106.417 209.596 107.32C209.278 108.222 208.277 108.698 207.384 108.371C207.097 108.272 178.04 98.2357 155.153 113.121C154.865 113.309 154.538 113.398 154.21 113.398V113.418Z" fill="#DBDBDB"/>
  <path d="M95.7707 138.874C86.5382 138.874 79.2295 136.038 74.0232 130.435C64.5626 120.251 65.5741 104.731 65.6237 104.076C65.6733 103.372 66.1493 102.767 66.8236 102.549C75.8677 99.6238 84.7631 98.1462 93.2618 98.1462C115.436 98.1462 127.613 108.043 128.129 108.47C128.536 108.807 128.764 109.303 128.754 109.828C128.754 110.116 127.941 138.874 95.7806 138.874H95.7707Z" fill="white"/>
  <path d="M93.2524 99.8815C115.059 99.8815 127.009 109.798 127.009 109.798C127.009 109.798 126.593 137.139 95.7713 137.139C64.9499 137.139 67.3597 104.205 67.3597 104.205C77.1079 101.052 85.7652 99.8815 93.2623 99.8815M93.2623 96.4107C84.5851 96.4107 75.5113 97.918 66.2887 100.903C64.94 101.339 63.9979 102.539 63.8987 103.957C63.8492 104.642 62.7881 120.895 72.7544 131.625C78.2979 137.585 86.0429 140.61 95.7713 140.61C113.344 140.61 121.882 132.24 125.958 125.209C130.321 117.682 130.48 110.175 130.49 109.858C130.51 108.807 130.044 107.805 129.24 107.131C128.715 106.694 116.071 96.4107 93.2722 96.4107H93.2623Z" fill="black"/>
  <path d="M97.5063 124.228C102.211 124.228 106.025 120.414 106.025 115.709C106.025 111.005 102.211 107.191 97.5063 107.191C92.8017 107.191 88.9878 111.005 88.9878 115.709C88.9878 120.414 92.8017 124.228 97.5063 124.228Z" fill="black"/>
  <path d="M93.3706 115.709C95.4628 115.709 97.1588 114.013 97.1588 111.921C97.1588 109.829 95.4628 108.133 93.3706 108.133C91.2784 108.133 89.5824 109.829 89.5824 111.921C89.5824 114.013 91.2784 115.709 93.3706 115.709Z" fill="white"/>
  <path d="M181.095 124.228C185.8 124.228 189.613 120.414 189.613 115.709C189.613 111.005 185.8 107.191 181.095 107.191C176.39 107.191 172.576 111.005 172.576 115.709C172.576 120.414 176.39 124.228 181.095 124.228Z" fill="black"/>
  <path d="M123.746 113.418C123.419 113.418 123.091 113.329 122.804 113.14C99.9158 98.2454 70.8696 108.281 70.5721 108.39C69.6696 108.708 68.6779 108.242 68.3606 107.339C68.0433 106.437 68.5094 105.445 69.4118 105.128C70.6613 104.681 100.352 94.3977 124.698 110.245C125.501 110.77 125.729 111.841 125.204 112.645C124.876 113.16 124.311 113.438 123.746 113.438V113.418Z" fill="#DBDBDB"/>
  <path d="M177.297 115.709C179.389 115.709 181.085 114.013 181.085 111.921C181.085 109.829 179.389 108.133 177.297 108.133C175.205 108.133 173.509 109.829 173.509 111.921C173.509 114.013 175.205 115.709 177.297 115.709Z" fill="white"/>
  <path d="M132.225 104.939C131.868 104.939 131.521 104.83 131.223 104.622C131.054 104.503 114.315 92.8306 89.8304 92.8306C81.4309 92.8306 72.9917 94.1992 64.7608 96.9064C64.5823 96.9659 64.4038 96.9957 64.2154 96.9957C63.7096 96.9957 63.2138 96.7676 62.8766 96.3709C62.4205 95.8255 62.351 95.052 62.6981 94.4272L70.096 81.0693C70.2646 80.7619 70.5324 80.514 70.8398 80.3553L83.3548 74.1673C83.5928 74.0483 83.8605 73.9888 84.1283 73.9888C84.2473 73.9888 84.3663 73.9987 84.4853 74.0284L125.114 82.4775C125.68 82.5965 126.156 82.9932 126.374 83.5287L127.861 87.2376L129.319 85.1551C129.646 84.689 130.182 84.4212 130.737 84.4212C130.886 84.4212 131.035 84.4411 131.193 84.4807C131.897 84.6691 132.403 85.284 132.473 86.0079L133.95 103.075C134.01 103.749 133.672 104.394 133.087 104.731C132.82 104.88 132.522 104.959 132.225 104.959V104.939Z" fill="#72912F"/>
  <path d="M84.1385 75.7046L124.768 84.1537L127.445 90.8376L130.747 86.137L132.225 103.194C132.225 103.194 115.208 91.0756 89.8208 91.0756C81.9965 91.0756 73.3788 92.2259 64.2157 95.2406L71.6136 81.8827L84.1286 75.6947M84.1286 72.2238C83.603 72.2238 83.0675 72.3428 82.5915 72.5808L70.0765 78.7689C69.4418 79.0862 68.9163 79.582 68.5791 80.1969L61.1812 93.5548C60.487 94.8043 60.6357 96.3513 61.5382 97.4521C62.2125 98.2652 63.1943 98.7115 64.2157 98.7115C64.5727 98.7115 64.9396 98.652 65.2966 98.533C73.3491 95.8852 81.5998 94.5464 89.8208 94.5464C113.819 94.5464 130.043 105.901 130.212 106.02C130.817 106.447 131.521 106.665 132.225 106.665C132.82 106.665 133.415 106.516 133.95 106.209C135.121 105.534 135.805 104.245 135.686 102.896L134.208 85.8395C134.079 84.3817 133.058 83.162 131.65 82.7852C131.352 82.7058 131.045 82.6661 130.747 82.6661C129.845 82.6661 128.962 83.0232 128.308 83.6677L127.99 82.8645C127.554 81.7836 126.612 80.9902 125.472 80.7522L84.8426 72.3031C84.6046 72.2535 84.3765 72.2337 84.1385 72.2337L84.1286 72.2238Z" fill="black"/>
  <path d="M132.225 103.204L130.747 86.1471L129.478 97.5316C100.491 81.9027 69.0649 90.8477 69.0649 90.8477L71.6135 81.8928L64.2156 95.2507C103.109 82.468 132.225 103.204 132.225 103.204Z" fill="#607527"/>
  <path d="M145.166 104.939C144.869 104.939 144.571 104.86 144.303 104.711C143.718 104.374 143.381 103.729 143.441 103.055L144.918 85.9882C144.978 85.2643 145.493 84.6495 146.197 84.4611C146.346 84.4214 146.495 84.4016 146.654 84.4016C147.209 84.4016 147.744 84.6693 148.072 85.1354L149.529 87.2179L151.017 83.5091C151.235 82.9735 151.701 82.5769 152.276 82.4579L192.905 74.0088C193.024 73.989 193.143 73.9691 193.262 73.9691C193.53 73.9691 193.788 74.0286 194.036 74.1476L206.551 80.3357C206.868 80.4944 207.126 80.7423 207.295 81.0497L214.693 94.4076C215.04 95.0323 214.97 95.8059 214.514 96.3513C214.177 96.7579 213.681 96.976 213.175 96.976C212.997 96.976 212.808 96.9463 212.63 96.8868C204.399 94.1795 195.97 92.811 187.56 92.811C163.076 92.811 146.336 104.493 146.168 104.602C145.87 104.81 145.513 104.919 145.166 104.919V104.939Z" fill="#72912F"/>
  <path d="M193.253 75.7045L205.768 81.8926L213.165 95.2505C204.002 92.2358 195.385 91.0855 187.56 91.0855C162.173 91.0855 145.156 103.204 145.156 103.204L146.634 86.1469L149.936 90.8475L152.614 84.1636L193.243 75.7145M193.243 72.2436C193.005 72.2436 192.767 72.2634 192.539 72.313L151.91 80.7621C150.769 81.0001 149.827 81.7934 149.391 82.8744L149.073 83.6776C148.419 83.033 147.546 82.676 146.634 82.676C146.336 82.676 146.029 82.7157 145.731 82.795C144.323 83.1719 143.302 84.3916 143.173 85.8494L141.695 102.906C141.576 104.255 142.26 105.544 143.431 106.218C143.966 106.526 144.561 106.675 145.156 106.675C145.86 106.675 146.574 106.456 147.169 106.03C147.328 105.921 163.671 94.5563 187.56 94.5563C195.781 94.5563 204.032 95.8951 212.085 98.5429C212.442 98.6619 212.808 98.7214 213.165 98.7214C214.177 98.7214 215.169 98.2751 215.843 97.462C216.755 96.3612 216.894 94.8142 216.2 93.5647L208.802 80.2068C208.455 79.5919 207.939 79.0862 207.305 78.7788L194.79 72.5907C194.314 72.3527 193.778 72.2337 193.253 72.2337L193.243 72.2436Z" fill="black"/>
  <path d="M145.166 103.204L146.644 86.1471L147.913 97.5315C176.9 81.9027 208.326 90.8476 208.326 90.8476L205.777 81.8928L213.175 95.2507C174.282 82.4679 145.166 103.204 145.166 103.204Z" fill="#607527"/>
  <path d="M140.644 51.7059C139.92 51.7059 139.246 51.2498 138.998 50.5357C138.75 49.8019 132.978 32.3682 143.668 14.6767C144.164 13.8536 145.225 13.5958 146.049 14.0916C146.872 14.5874 147.129 15.6584 146.634 16.4716C136.796 32.7351 142.221 49.2565 142.27 49.4152C142.578 50.3176 142.092 51.3093 141.189 51.6167C141.001 51.6762 140.812 51.7059 140.634 51.7059H140.644Z" fill="#351B00"/>
  <path d="M7.95789 84.0844L136.281 1.73547L142.846 1.83464L271.139 84.1637C271.139 84.1637 259.229 71.5992 139.484 71.5992C19.739 71.5992 7.95789 84.0844 7.95789 84.0844Z" fill="#E9CF9E"/>
  <path d="M271.139 85.8991C270.812 85.8991 270.494 85.8098 270.207 85.6214L268.441 84.4909C262.829 81.7142 237.749 73.3345 139.494 73.3345C41.2382 73.3345 15.9604 81.7539 10.526 84.4909L8.89963 85.5322C8.15588 86.0082 7.18403 85.8495 6.62869 85.1752C6.07335 84.5008 6.1031 83.5092 6.70803 82.8745C6.78736 82.7951 7.1642 82.4282 8.18563 81.863L135.348 0.27767C135.636 0.089251 135.993 0 136.31 0L142.875 0.0991677C143.203 0.0991677 143.51 0.198335 143.788 0.376837L270.901 81.9522C271.942 82.5175 272.329 82.8943 272.408 82.9736C273.013 83.6083 273.043 84.6 272.488 85.2743C272.15 85.6908 271.655 85.8991 271.149 85.8991H271.139ZM139.484 69.8637C208.197 69.8637 241.696 74.0485 257.831 77.688L142.33 3.56012L136.786 3.48079L21.2064 77.6384C37.3112 74.0188 70.7704 69.8637 139.494 69.8637H139.484Z" fill="black"/>
  <path d="M27.4043 71.5991C27.4043 71.5991 46.4445 62.2179 139.295 62.2179C232.146 62.2179 251.573 71.5991 251.573 71.5991L266.051 80.8912C266.051 80.8912 235.131 71.5991 139.504 71.5991C43.8761 71.5991 12.42 81.2184 12.42 81.2184L27.4043 71.609V71.5991Z" fill="#C5AF76"/>
  <path d="M12.4201 82.9538C11.7557 82.9538 11.1309 82.577 10.8433 81.9423C10.4764 81.1589 10.7541 80.2267 11.478 79.7507L26.4622 70.1413C26.5217 70.1017 26.5713 70.0719 26.6308 70.0422C27.4242 69.6554 47.0891 60.4824 139.285 60.4824C231.482 60.4824 251.504 69.6455 252.317 70.0322C252.376 70.062 252.436 70.1017 252.495 70.1314L266.974 79.4234C267.698 79.8895 267.975 80.8217 267.608 81.6051C267.242 82.3885 266.369 82.7951 265.536 82.5472C265.228 82.458 233.584 73.3345 139.484 73.3345C45.3834 73.3345 13.2333 82.7753 12.9258 82.8745C12.7572 82.9241 12.5887 82.9538 12.4201 82.9538ZM28.2274 73.1362L21.603 77.3905C37.0038 74.5345 72.3868 69.8736 139.484 69.8736C206.581 69.8736 241.716 74.3758 256.968 77.1426L250.74 73.1461C249.332 72.5511 227.416 63.9731 139.295 63.9731C51.1749 63.9731 29.6356 72.5412 28.2373 73.1461L28.2274 73.1362Z" fill="black"/>
  <path d="M85.606 63.5271L91.3875 57.7357L102.157 57.2399L106.521 51.5179C106.521 51.5179 121.009 48.3544 140.238 50.9724L142.925 44.705H155.876L158.762 37.1584C158.762 37.1584 182.037 33.0231 200.373 38.7351L185.101 28.9374C162.392 22.6601 145.731 28.4316 145.731 28.4316L142.618 34.8478H131.084L127.237 40.1433C109.734 37.9517 96.4054 42.1465 96.4054 42.1465L88.7794 49.9907H79.1601L73.2696 54.9193C58.7316 55.2862 48.1405 58.3009 48.1405 58.3009L27.4243 71.5993C27.4243 71.5993 41.9028 65.9071 85.6259 63.5172L85.606 63.5271Z" fill="#C5AF76"/>
  <path d="M27.4047 73.3347C26.77 73.3347 26.1651 72.9876 25.8577 72.3826C25.4511 71.5893 25.7188 70.6175 26.4626 70.1315L47.1787 56.8331C47.3176 56.7439 47.4762 56.6745 47.6448 56.6249C48.0812 56.5059 58.3252 53.6201 72.6053 53.1937L78.0298 48.6518C78.3372 48.394 78.7339 48.2452 79.1405 48.2452H88.0259L95.1462 40.9266C95.3445 40.7184 95.5924 40.5696 95.8701 40.4804C96.4155 40.3118 109.258 36.355 126.414 38.2888L129.666 33.8163C129.994 33.3701 130.519 33.1023 131.075 33.1023H141.527L144.165 27.658C144.363 27.2415 144.72 26.9242 145.156 26.7754C145.861 26.5275 162.6 20.9047 185.557 27.2514C185.726 27.301 185.885 27.3704 186.033 27.4597L201.305 37.2574C202.039 37.7235 202.307 38.6656 201.94 39.449C201.573 40.2325 200.681 40.6291 199.848 40.3713C184.199 35.4823 164.554 38.0111 160.022 38.6854L157.493 45.29C157.235 45.9644 156.591 46.4106 155.877 46.4106H144.076L141.834 51.6268C141.527 52.3408 140.773 52.7673 140.01 52.6582C123.518 50.417 110.428 52.5193 107.512 53.0648L103.556 58.2612C103.248 58.6677 102.772 58.9157 102.257 58.9454L92.1612 59.4115L86.8558 64.7269C86.5483 65.0343 86.1517 65.2128 85.7252 65.2327C42.9542 67.573 28.2079 73.1363 28.0592 73.1958C27.8509 73.2752 27.6427 73.3148 27.4344 73.3148L27.4047 73.3347ZM48.8348 59.9073L37.49 67.1863C46.3358 65.3814 61.33 63.1303 84.8427 61.8213L90.1481 56.496C90.4555 56.1886 90.8621 56.0101 91.2985 55.9902L101.255 55.534L105.122 50.4567C105.37 50.1294 105.727 49.9013 106.134 49.8121C106.719 49.6831 120.493 46.7478 139.147 49.0683L141.319 44.0108C141.596 43.3761 142.221 42.9596 142.915 42.9596H154.667L157.126 36.5335C157.344 35.9682 157.84 35.5517 158.445 35.4427C159.248 35.3038 175.194 32.537 191.18 34.9072L184.367 30.5339C165.059 25.268 150.194 28.9174 146.941 29.8595L144.155 35.6013C143.867 36.1963 143.262 36.5831 142.598 36.5831H131.947L128.625 41.1646C128.248 41.6803 127.634 41.9481 127.009 41.8687C111.747 39.9647 99.6484 43.0389 97.3179 43.6934L90.0093 51.2103C89.682 51.5475 89.2358 51.7359 88.7697 51.7359H79.7851L74.3804 56.258C74.0829 56.5059 73.7061 56.6546 73.3094 56.6646C60.3581 56.9918 50.481 59.4809 48.8447 59.9173L48.8348 59.9073Z" fill="black"/>
  <path d="M150.353 62.228L153.943 54.6912L167.31 54.6218L171.485 46.4801C171.485 46.4801 196.248 41.73 218.947 50.665L236.966 62.228C211.648 52.4897 183.931 56.506 183.931 56.506L181.878 63.0015L150.363 62.228H150.353Z" fill="#C5AF76"/>
  <path d="M181.868 64.7369C181.868 64.7369 181.838 64.7369 181.828 64.7369L150.313 63.9634C149.728 63.9535 149.182 63.6362 148.875 63.1403C148.567 62.6445 148.538 62.0197 148.786 61.4842L152.375 53.9475C152.663 53.3426 153.268 52.9657 153.932 52.9558L166.239 52.8963L169.938 45.6868C170.186 45.2108 170.632 44.8736 171.158 44.7745C172.189 44.5761 196.684 40.0342 219.581 49.0486C219.69 49.0883 219.79 49.1378 219.879 49.2073L237.898 60.7702C238.641 61.2462 238.909 62.2181 238.513 63.0114C238.106 63.8048 237.174 64.1717 236.341 63.8444C214.494 55.4449 190.545 57.4977 185.25 58.0927L183.534 63.5172C183.306 64.2411 182.631 64.727 181.878 64.727L181.868 64.7369ZM153.07 60.562L180.608 61.2363L182.265 55.9903C182.463 55.3557 183.008 54.8896 183.673 54.8003C184.645 54.6615 204.141 51.9443 225.452 56.9225L218.143 52.2319C198.518 44.5662 177.048 47.3627 172.625 48.0569L168.847 55.4251C168.55 56.0003 167.965 56.3672 167.31 56.3672L155.033 56.4267L153.06 60.562H153.07Z" fill="black"/>
  <path d="M75.2334 40.9167L82.2843 40.3316L92.5382 32.061C112.778 28.4314 119.968 30.7222 119.968 30.7222L123.945 24.8812H133.812L137.015 19.1593C155.857 14.776 167.797 17.8602 167.797 17.8602L151.424 7.35829C151.424 7.35829 140.982 6.26744 130.212 10.5217L126.493 15.9958L113.562 16.3231L108.038 22.9375H103.258L75.2235 40.9266L75.2334 40.9167Z" fill="#C5AF76"/>
  <path d="M75.2332 42.6521C74.4994 42.6521 73.835 42.186 73.587 41.472C73.3292 40.7184 73.6267 39.8853 74.2911 39.4589L102.326 21.4699C102.604 21.2914 102.931 21.1922 103.268 21.1922H107.235L112.243 15.2025C112.56 14.8157 113.036 14.5976 113.532 14.5777L125.581 14.2802L128.794 9.54002C128.992 9.25243 129.27 9.02434 129.587 8.90534C140.624 4.54196 151.166 5.58322 151.612 5.63281C151.88 5.66256 152.138 5.75181 152.366 5.90056L168.729 16.4024C169.443 16.8586 169.72 17.7709 169.383 18.5544C169.046 19.3378 168.193 19.7543 167.36 19.5361C167.251 19.5064 155.867 16.7098 138.145 20.6766L135.319 25.7242C135.012 26.2696 134.436 26.6068 133.802 26.6068H124.847L121.386 31.6842C120.95 32.3188 120.156 32.5965 119.422 32.3585C119.363 32.3387 112.292 30.3157 93.252 33.6774L83.3452 41.6704C83.0774 41.8885 82.7501 42.0175 82.4031 42.0472L75.3522 42.6323C75.3522 42.6323 75.2531 42.6323 75.2035 42.6323L75.2332 42.6521ZM103.784 24.6631L95.88 29.7306C109.446 27.6084 116.507 28.2926 119.204 28.7686L122.516 23.8995C122.844 23.4235 123.379 23.1359 123.954 23.1359H132.81L135.517 18.3064C135.755 17.88 136.162 17.5726 136.638 17.4635C146.753 15.1132 154.905 14.8554 160.399 15.1529L150.878 9.04418C148.955 8.91526 140.277 8.54834 131.372 11.9399L127.961 16.9677C127.643 17.4338 127.128 17.7114 126.572 17.7313L114.424 18.0387L109.406 24.0483C109.079 24.4449 108.593 24.673 108.078 24.673H103.803L103.784 24.6631Z" fill="black"/>
  <path d="M19.0359 295.188L26.0671 298.211L25.0359 320.078L40.1296 320.969L41.7703 328L19.0359 328.234V295.188ZM50.0671 295.023L64.2703 295.914L73.739 299.758L75.3562 310.047L74.5593 323.43L64.2703 328.164L49.2468 327.438L43.9031 316.328V304.492L50.0671 295.023ZM56.3718 301.539L50.7234 309.391L53.9109 320.406L62.7468 321.508L68.3484 316L67.575 304.258L56.3718 301.539ZM107.114 328H97.739L93.0515 318.625H88.364L83.6765 328H76.6453L84.7078 295.234L97.739 295.305L107.114 328ZM95.3953 312.906L89.8171 299.875L86.0203 312.906H95.3953ZM131.653 328H109.458V295.188H130.552L139.927 303.461V320.969L131.653 328ZM127.552 321.086L133.247 315.391V305.898L116.161 302.102V321.086H127.552ZM144.567 295.188H153.473L153.802 328H144.567V295.188ZM185.864 328H177.802V323.312L166.973 306.906L165.145 328H156.708L159.052 295.188H168.427L177.802 318.625L180.895 295.188H187.177L185.864 328ZM219.661 311.594L218.395 324.227L206.677 328L191.137 326.734L190.27 309.25L194.958 295.188H206.677L219.895 297.531L212.536 304.562L201.145 299.055L195.192 309.25L197.677 321.766L207.942 322.445L207.637 315.555L201.239 314.805L201.942 310.445L219.661 311.594ZM226.809 321.531L232.177 324.906L227.325 330.719L222.802 325.891L226.809 321.531ZM239.887 321.531L245.255 324.906L240.403 330.719L235.88 325.891L239.887 321.531ZM252.966 321.531L258.333 324.906L253.481 330.719L248.958 325.891L252.966 321.531Z" fill="#C5FF5F"/>
</svg>