<svg width="346" height="93" viewBox="0 0 346 93" fill="none" xmlns="http://www.w3.org/2000/svg">
  <path d="M0.523438 12.2124H8.58594L16.9297 32.2984L22.7891 12.2124L30.1484 33.3062L37.0156 12.2124H43.5312L35.6797 45.0249H27.8516L23.9609 30.9624L18.2891 45.0249H6.73438L0.523438 12.2124ZM45.7578 45.0249V12.2124L66.8516 9.86868V16.8999L51.6641 19.2437L51.2891 23.9312H66.8516V29.9781L52.7891 30.9624V37.3374L66.8516 36.9624V43.7593L45.7578 45.0249ZM111.383 45.0249H102.008L97.3203 35.6499H92.6328L87.9453 45.0249H80.9141L88.9766 12.2593L102.008 12.3296L111.383 45.0249ZM99.6641 29.9312L94.0859 16.8999L90.2891 29.9312H99.6641ZM139.039 45.0249H129.664L127.32 32.439L123.289 32.3687L121.625 45.0249H113.258L114.805 13.0327L129.664 12.2124L138.219 14.5562L137.375 26.2749L132.008 30.9624L139.039 45.0249ZM120.172 26.814L128.117 26.064L133.086 19.3609L125 16.5249L120.125 17.1812L120.172 26.814ZM142.367 45.0249V12.2124L163.461 9.86868V16.8999L148.273 19.2437L147.898 23.9312H163.461V29.9781L149.398 30.9624V37.3374L163.461 36.9624V43.7593L142.367 45.0249ZM178.695 14.5562L198.594 12.2124L199.789 19.2437H186.453L186.523 26.2749H199.789L198.898 33.3062H188.07L186.664 45.0249H178.695V14.5562ZM204.148 12.2124H213.055L213.383 45.0249H204.148V12.2124ZM217.789 45.3531C216.711 45.3531 216.172 45.2671 216.172 45.0952C216.172 45.064 219.023 40.0327 224.727 30.0015L217.695 12.2124H227.727L230.727 27.0952L238.789 12.2124H245.82L236.445 30.2359L245.82 45.0249H233.094L229.414 32.3687L223.297 45.0249C220.812 45.2437 218.977 45.3531 217.789 45.3531ZM249.148 12.2124H258.055L258.383 45.0249H249.148V12.2124ZM290.445 45.0249H282.383V40.3374L271.555 23.9312L269.727 45.0249H261.289L263.633 12.2124H273.008L282.383 35.6499L285.477 12.2124H291.758L290.445 45.0249ZM324.242 28.6187L322.977 41.2515L311.258 45.0249L295.719 43.7593L294.852 26.2749L299.539 12.2124H311.258L324.477 14.5562L317.117 21.5874L305.727 16.0796L299.773 26.2749L302.258 38.7906L312.523 39.4702L312.219 32.5796L305.82 31.8296L306.523 27.4702L324.242 28.6187ZM334.883 39.7984L338.633 43.5249L334.883 46.3609L331.227 42.6109L334.883 39.7984ZM333.805 36.5874L330.195 24.8687V16.9702L334.883 10.8062L339.57 16.4312V26.2281L336.195 36.5874H333.805Z" fill="#C5FF5F"/>
  <path d="M22.6719 63.1499L33.0938 62.9937L36.7344 69.3999L35.8906 77.8062L26.7031 78.2124L25.5938 85.0249L21.1094 85.1812L22.6719 63.1499ZM27.625 66.9781L26.8906 73.6812L31.7031 72.9624L32.2031 69.2437L27.625 66.9781ZM38.9219 63.1499L43.6094 65.1656L42.9219 79.7437L52.9844 80.3374L54.0781 85.0249L38.9219 85.1812V63.1499ZM56.0781 85.0249V63.1499L70.1406 61.5874V66.2749L60.0156 67.8374L59.7656 70.9624H70.1406V74.9937L60.7656 75.6499V79.8999L70.1406 79.6499V84.1812L56.0781 85.0249ZM91.8906 85.0249H85.6406L82.5156 78.7749H79.3906L76.2656 85.0249H71.5781L76.9531 63.1812L85.6406 63.2281L91.8906 85.0249ZM84.0781 74.9624L80.3594 66.2749L77.8281 74.9624H84.0781ZM105.359 70.9624H99.2812L107.828 77.2124L107.188 84.3843L100.016 85.0249L92.7188 84.1812L95.3281 78.3218L99.0781 80.3374H102.5L100.016 77.2124L93.7656 73.2281L93.3281 67.3687L96.8906 63.6343L103.141 63.7437L107.828 65.8374L105.359 70.9624ZM110.016 85.0249V63.1499L124.078 61.5874V66.2749L113.953 67.8374L113.703 70.9624H124.078V74.9937L114.703 75.6499V79.8999L124.078 79.6499V84.1812L110.016 85.0249ZM128.016 85.0249L126.453 82.3999L129.578 79.7437L132.703 82.3999L130.391 89.7124L126.453 90.1499L125.906 87.6499L129.578 86.5874L128.016 85.0249ZM142.688 63.8531L154.203 62.4624L159.953 68.7437L155.766 74.0874L160.453 78.7749L158.891 84.0874L143.266 85.0249L142.688 63.8531ZM148.109 71.7437L155.078 69.3531L147.594 66.1499C147.719 69.8791 147.891 71.7437 148.109 71.7437ZM148.078 75.9937L147.594 82.2593L155.281 80.2124L148.078 75.9937ZM162.016 85.0249V63.1499L176.078 61.5874V66.2749L165.953 67.8374L165.703 70.9624H176.078V74.9937L166.703 75.6499V79.8999L176.078 79.6499V84.1812L162.016 85.0249ZM187.641 63.1499L198.062 62.9937L201.703 69.3999L200.859 77.8062L191.672 78.2124L190.562 85.0249L186.078 85.1812L187.641 63.1499ZM192.594 66.9781L191.859 73.6812L196.672 72.9624L197.172 69.2437L192.594 66.9781ZM223.266 85.0249H217.016L213.891 78.7749H210.766L207.641 85.0249H202.953L208.328 63.1812L217.016 63.2281L223.266 85.0249ZM215.453 74.9624L211.734 66.2749L209.203 74.9624H215.453ZM239 85.0249H229.781L230.453 68.7437L224.359 68.3374V63.1499H242.797V68.4312L236.703 69.3999L239 85.0249ZM245.516 63.1499H251.453L251.672 85.0249H245.516V63.1499ZM254.078 85.0249V63.1499L268.141 61.5874V66.2749L258.016 67.8374L257.766 70.9624H268.141V74.9937L258.766 75.6499V79.8999L268.141 79.6499V84.1812L254.078 85.0249ZM289.328 85.0249H283.953V81.8999L276.734 70.9624L275.516 85.0249H269.891L271.453 63.1499H277.703L283.953 78.7749L286.016 63.1499H290.203L289.328 85.0249ZM306.594 85.0249H297.375L298.047 68.7437L291.953 68.3374V63.1499H310.391V68.4312L304.297 69.3999L306.594 85.0249ZM317.453 81.5406L319.953 84.0249L317.453 85.9156L315.016 83.4156L317.453 81.5406ZM316.734 79.3999L314.328 71.5874V66.3218L317.453 62.2124L320.578 65.9624V72.4937L318.328 79.3999H316.734Z" fill="#C5FF5F"/>
</svg>
