<svg width="327" height="77" viewBox="0 0 327 77" fill="none" xmlns="http://www.w3.org/2000/svg">
<path d="M309.414 2.58579L308.828 2H308H18H17.2146L16.6391 2.53441L2.6391 15.5344L2 16.1279V17V58V58.7883L2.53789 59.3646L16.5379 74.3646L17.1309 75H18H308H308.785L309.361 74.4656L323.361 61.4656L324.02 60.8532L323.999 59.9535L322.999 16.9535L322.981 16.1524L322.414 15.5858L309.414 2.58579Z" fill="#324C0B" stroke="#6FA72E" stroke-width="4"/>
<path d="M69 75H70.7435L70.9813 73.2728L80.4813 4.27279L80.7942 2H78.5H18H17.1928L16.6117 2.56031L2.61173 16.0603L2 16.6502V17.5V58V58.7883L2.53789 59.3646L16.5379 74.3646L17.1309 75H18H69Z" fill="#5B8A27" stroke="#6FA72E" stroke-width="4"/>
<mask id="mask0_1162_2422" style="mask-type:alpha" maskUnits="userSpaceOnUse" x="4" y="4" width="75" height="69">
<path d="M69 73L78.5 4H18L4 17.5V58L18 73H69Z" fill="#C5FF5F"/>
</mask>
<g mask="url(#mask0_1162_2422)">
<path d="M17.5671 81.7856L7.1656 77.8518L5.79485 75.8669L2.37914 58.8038L11.0497 52.5419L34.3558 51.2518L57.6602 52.5419L66.3307 58.8038L62.915 75.8669L61.5408 77.8587L50.9042 81.4237L34.3592 83.7706L17.5671 81.7856Z" fill="#555456"/>
<path d="M34.3558 51.5949L57.5418 52.8799L65.9515 58.9531L62.5941 75.7297L61.3246 77.5688L50.827 81.0874L34.3575 83.424L17.6529 81.4494L7.39034 77.5688L6.12081 75.7297L2.76343 58.9531L11.1732 52.8799L34.3592 51.5949M34.3592 50.907H34.3215L11.1354 52.1937L10.9347 52.204L10.7717 52.3223L2.35684 58.3972L2 58.6563L2.08578 59.0886L5.44316 75.8652L5.47061 76.0042L5.55124 76.1208L6.82077 77.9599L6.94257 78.1366L7.1433 78.2121L17.4059 82.0927L17.4848 82.1219L17.5689 82.1322L34.2734 84.1068L34.3626 84.1171L34.4501 84.1051L50.9197 81.7685L50.9814 81.7599L51.0415 81.7393L61.5391 78.2207L61.7552 78.1486L61.8856 77.9599L63.1551 76.1208L63.2358 76.0042L63.2632 75.8652L66.6206 59.0886L66.7064 58.6563L66.3495 58.3972L57.9398 52.3241L57.7768 52.2057L57.5761 52.1954L34.3901 50.9104H34.3523L34.3592 50.907Z" fill="black"/>
<path d="M32.647 67.8963L52.5958 65.7742L64.1399 62.0479L65.9515 58.953L57.5418 52.8799L34.3558 51.5949L11.1698 52.8799L2.76 58.953L4.56993 62.0479L18.6805 65.6301L32.647 67.8963Z" fill="#7C7C7C"/>
<path d="M2.76 58.9531L6.11738 75.7297L7.38862 77.5688L4.56993 62.048L2.76 58.9531Z" fill="#252525"/>
<path d="M65.9515 58.9531L62.5924 75.7297L61.3229 77.5688L64.1399 62.048L65.9515 58.9531Z" fill="#252525"/>
<path d="M4.56993 62.048L18.6805 65.6301L17.6495 81.4494L7.38863 77.5688L4.56993 62.048Z" fill="#555456"/>
<path d="M18.6805 65.6301L32.647 67.8963L34.3558 83.424L17.6495 81.4494L18.6805 65.6301Z" fill="#6D6D6D"/>
<path d="M52.5958 65.7742L32.647 67.8963L34.3558 83.424L50.8253 81.0874L52.5958 65.7742Z" fill="#636363"/>
<path d="M52.5958 65.7742L64.1399 62.048L61.3229 77.5688L50.8253 81.0874L52.5958 65.7742Z" fill="#555456"/>
<path d="M10.1679 68.5775L10.6928 66.6183L8.88632 63.1442L12.5319 62.048L10.7803 63.64L11.4374 66.891L10.1679 68.5775Z" fill="#252525"/>
<path d="M35.1398 67.6304L35.9221 72.6193L37.2825 67.4023L35.4417 65.7742L35.1398 67.6304Z" fill="#252525"/>
<path d="M57.4835 64.1958L57.2982 66.8378L58.9194 68.6769L58.3927 66.8378L60.0139 63.3809L54.0574 62.0479L53.2391 61.4355L53.0058 62.3705L57.4835 64.1958Z" fill="#252525"/>
<path d="M10.4492 53.3998L13.1461 54.2661L13.4086 55.5374L13.8032 54.4686L13.5424 52.7478L11.1697 52.8799L10.4492 53.3998Z" fill="#252525"/>
<path d="M56.0475 52.7976L54.5241 54.1426L50.8253 54.6487L55.3424 55.1565L57.5418 52.8799L56.0475 52.7976Z" fill="#252525"/>
<path d="M12.5319 62.048L9.4233 63.3124L10.8901 66.5531L10.1679 68.5775L10.6928 66.6183L8.88632 63.1442L12.5319 62.048Z" fill="#9F9F9F"/>
<path d="M11.1698 52.8799L13.3211 52.9674L13.8032 54.4686L13.5424 52.7478L11.1698 52.8799Z" fill="#9F9F9F"/>
<path d="M50.8253 54.6487L54.6699 54.508L56.509 52.7976H56.0475L54.5241 54.1426L50.8253 54.6487Z" fill="#9F9F9F"/>
<path d="M53.2391 61.4355L53.6182 62.1955L59.4443 63.6623L58.0873 66.8601L58.9194 68.6769L58.3927 66.8378L60.0139 63.3809L54.0574 62.0479L53.2391 61.4355Z" fill="#9F9F9F"/>
<path d="M35.4417 65.7742L36.9446 67.5086L35.9221 72.6193L37.2825 67.4023L35.4417 65.7742Z" fill="#9F9F9F"/>
<path d="M5.8669 69.1967L8.04225 77.8175L7.38862 77.5688L5.8669 69.1967Z" fill="#9F9F9F"/>
<path d="M60.6058 77.809L62.9802 68.4402L61.3229 77.5688L60.6058 77.809Z" fill="#9F9F9F"/>
<path d="M26.9634 82.5508L25.3661 77.8175L27.5261 73.7293L27.3511 70.926L28.811 74.1376L27.4094 78.3939L30.3945 82.9557L26.9634 82.5508Z" fill="#252525"/>
<path d="M27.5123 82.616L25.8053 77.8175L27.8795 73.9334L27.3511 70.926L27.5261 73.7293L25.3661 77.8175L26.9634 82.5508L27.5123 82.616Z" fill="#9F9F9F"/>
<path d="M65.5329 58.9959L63.934 61.7786L59.5353 63.2729L60.0139 63.381L64.1399 62.0479L65.9515 58.9531L57.5418 52.8799L65.5329 58.9959Z" fill="#9F9F9F"/>
<path d="M2.76 58.953L4.56993 62.0479L8.88632 63.1442L9.32551 63.0121L4.75693 61.8112L2.93327 58.953L10.4492 53.3997L2.76 58.953Z" fill="#9F9F9F"/>
<path d="M10.9553 58.2531L11.6244 59.5226H15.3369L16.8363 58.2531L14.196 57.4211L10.9553 58.2531Z" fill="#878689"/>
<path d="M54.1587 58.8192L53.5325 57.5274L49.8217 57.4021L48.2811 58.6202L50.8905 59.5415L54.1587 58.8192Z" fill="#878689"/>
<path d="M19.5692 60.6464L19.2484 59.744L16.7968 59.394L15.6886 60.0905L17.3527 60.89L19.5692 60.6464Z" fill="#878689"/>
<path d="M21.247 52.3206L34.3558 51.8351L49.2607 52.4201L34.3558 51.5949L21.247 52.3206Z" fill="#9F9F9F"/>
<path d="M10.9553 63.4822L18.7732 65.4362L32.6471 67.6922L35.1758 67.404L35.1398 67.6304L32.6471 67.8963L18.6805 65.6301L10.7803 63.64L10.9553 63.4822Z" fill="#9F9F9F"/>
<path d="M37.063 67.2084L52.4345 65.6301L57.245 64.0998L57.4835 64.1959L52.5958 65.7742L37.2825 67.4023L37.063 67.2084Z" fill="#9F9F9F"/>
<path d="M18.6805 65.6301L18.1213 74.1976L18.9053 65.6764L18.6805 65.6301Z" fill="#9F9F9F"/>
<path d="M12.2832 71.1594L12.8973 73.0877L14.5649 71.9194L14.7073 69.9139L13.4961 69.4953L12.5319 70.4594L12.2832 71.1594Z" fill="#5E5E5E"/>
<path d="M47.1351 70.2329L46.2481 74.328L47.8968 68.984L47.1351 70.2329Z" fill="#706F70"/>
<path d="M47.5966 71.9383L46.7096 76.0334L48.3583 70.6893L47.5966 71.9383Z" fill="#706F70"/>
<path opacity="0.3" d="M34.3558 63.0705C43.2479 63.0705 50.4564 61.2992 50.4564 59.1143C50.4564 56.9294 43.2479 55.1582 34.3558 55.1582C25.4636 55.1582 18.2551 56.9294 18.2551 59.1143C18.2551 61.2992 25.4636 63.0705 34.3558 63.0705Z" fill="black"/>
<path d="M52.0813 34.3397C52.0813 34.3397 73.4814 26.949 34.3491 26.949C-4.78315 26.949 16.725 34.3397 16.725 34.3397H52.0813Z" fill="#8E7450" stroke="black" stroke-width="0.7" stroke-linecap="round" stroke-linejoin="round"/>
<path d="M12.9282 28.5942C12.9282 28.5942 9.6017 30.6323 18.1384 33.3378L16.7231 34.3396C16.7231 34.3396 6.53425 30.9668 12.9282 28.5925V28.5942Z" fill="#756042" stroke="black" stroke-width="0.7" stroke-linecap="round" stroke-linejoin="round"/>
<path d="M55.8159 28.5942C55.8159 28.5942 59.1424 30.6323 50.6057 33.3378L52.021 34.3396C52.021 34.3396 62.2098 30.9668 55.8159 28.5925V28.5942Z" fill="#756042" stroke="black" stroke-width="0.7" stroke-linecap="round" stroke-linejoin="round"/>
<path d="M12.8767 30.7936L11.9623 32.0305" stroke="black" stroke-width="0.7" stroke-linecap="round" stroke-linejoin="round"/>
<path d="M13.8632 31.5433L13.0672 32.7425" stroke="black" stroke-width="0.7" stroke-linecap="round" stroke-linejoin="round"/>
<path d="M14.9011 32.1008L14.1926 33.3189" stroke="black" stroke-width="0.7" stroke-linecap="round" stroke-linejoin="round"/>
<path d="M16.0763 32.6104L15.5101 33.8885" stroke="black" stroke-width="0.7" stroke-linecap="round" stroke-linejoin="round"/>
<path d="M56.4747 29.7848L57.6378 31.1161" stroke="black" stroke-width="0.7" stroke-linecap="round" stroke-linejoin="round"/>
<path d="M55.8982 30.9017L56.732 32.0305" stroke="black" stroke-width="0.7" stroke-linecap="round" stroke-linejoin="round"/>
<path d="M54.8775 31.6119L55.6272 32.7424" stroke="black" stroke-width="0.7" stroke-linecap="round" stroke-linejoin="round"/>
<path d="M53.8395 32.1798L54.5018 33.3189" stroke="black" stroke-width="0.7" stroke-linecap="round" stroke-linejoin="round"/>
<path d="M52.6627 32.7099L53.1859 33.8885" stroke="black" stroke-width="0.7" stroke-linecap="round" stroke-linejoin="round"/>
<path d="M12.2917 29.7025L11.0565 31.1161" stroke="black" stroke-width="0.7" stroke-linecap="round" stroke-linejoin="round"/>
<path d="M30.5437 54.1512C30.5437 54.1512 29.3926 59.0766 25.4004 59.7251C21.4083 60.3736 23.6917 51.1352 23.6917 51.1352" fill="#CD6329"/>
<path d="M23.69 51.1352C23.69 51.1352 21.4066 60.3736 25.3987 59.7251C29.3909 59.0766 30.542 54.1512 30.542 54.1512" stroke="black" stroke-width="0.7" stroke-linecap="round" stroke-linejoin="round"/>
<path d="M44.8757 51.1352C44.8757 51.1352 47.1591 60.3736 43.1669 59.7251C39.1748 59.0766 38.0236 54.1512 38.0236 54.1512" fill="#CD6329"/>
<path d="M44.8757 51.1352C44.8757 51.1352 47.1591 60.3736 43.1669 59.7251C39.1748 59.0766 38.0236 54.1512 38.0236 54.1512" stroke="black" stroke-width="0.7" stroke-linecap="round" stroke-linejoin="round"/>
<path d="M43.5512 60.015C43.4157 60.015 43.2716 60.003 43.1258 59.979C39.0101 59.3099 37.8212 54.4171 37.7732 54.2095C37.7457 54.0894 37.8075 53.9659 37.9207 53.9162L44.7744 50.9002C44.807 50.8865 44.8431 50.8779 44.8774 50.8779C44.9168 50.8779 44.9546 50.8865 44.9906 50.9036C45.0592 50.9379 45.109 50.9997 45.1261 51.0735C45.1879 51.3256 46.6307 57.2615 45.0318 59.3048C44.6629 59.7766 44.1654 60.015 43.5529 60.015H43.5512Z" fill="#8AB242"/>
<path d="M44.8757 51.1352C44.8757 51.1352 47.0064 59.7577 43.5512 59.7577C43.4294 59.7577 43.3025 59.7474 43.1669 59.7251C39.1748 59.0766 38.0236 54.1512 38.0236 54.1512L44.8774 51.1352M44.8774 50.6205C44.807 50.6205 44.7367 50.6343 44.6698 50.6634L37.8161 53.6794C37.5896 53.7789 37.4661 54.026 37.5227 54.2679C37.5725 54.4823 38.8008 59.5364 43.0846 60.2329C43.2459 60.2587 43.402 60.2724 43.553 60.2724C44.2392 60.2724 44.8208 59.9927 45.2342 59.4643C46.8829 57.3593 45.5344 51.655 45.3766 51.0117C45.3406 50.8642 45.2411 50.7406 45.1038 50.6737C45.0318 50.6394 44.9546 50.6205 44.8774 50.6205Z" fill="black"/>
<path d="M38.0236 54.1512L44.8774 51.1353C44.8774 51.1353 45.0695 51.9107 45.2445 52.9949C45.2445 52.9949 43.8583 55.2423 41.5869 56.1293L41.1323 58.1846L39.8902 57.7986C38.4989 56.1739 38.0254 54.1512 38.0254 54.1512H38.0236Z" fill="#72912F"/>
<path d="M25.0144 60.015C24.402 60.015 23.9045 59.7766 23.5356 59.3048C21.9367 57.2615 23.3795 51.3256 23.4413 51.0735C23.4601 50.9997 23.5099 50.9379 23.5768 50.9036C23.6128 50.8865 23.6523 50.8779 23.69 50.8779C23.726 50.8779 23.7603 50.8847 23.7929 50.9002L30.6467 53.9162C30.7599 53.9659 30.8217 54.0894 30.7942 54.2095C30.7462 54.4171 29.5573 59.3099 25.4416 59.979C25.2941 60.003 25.1517 60.015 25.0162 60.015H25.0144Z" fill="#8AB242"/>
<path d="M23.69 51.1352L30.5437 54.1512C30.5437 54.1512 29.3926 59.0766 25.4004 59.7251C25.2649 59.7474 25.1362 59.7577 25.0161 59.7577C21.561 59.7577 23.6917 51.1352 23.6917 51.1352M23.6917 50.6205C23.6145 50.6205 23.5356 50.6377 23.4653 50.6737C23.3297 50.7406 23.2285 50.8642 23.1925 51.0117C23.0329 51.655 21.6862 57.3593 23.3349 59.4643C23.7501 59.9927 24.3316 60.2724 25.0161 60.2724C25.1654 60.2724 25.3232 60.2587 25.4845 60.2329C29.7683 59.5364 30.9966 54.4823 31.0464 54.2679C31.103 54.026 30.9795 53.7789 30.753 53.6794L23.8993 50.6634C23.8324 50.6343 23.7621 50.6205 23.6917 50.6205Z" fill="black"/>
<path d="M30.5437 54.1512L23.69 51.1353C23.69 51.1353 23.4979 51.9107 23.3229 52.9949C23.3229 52.9949 24.7091 55.2423 26.9805 56.1293L27.4351 58.1846L28.6772 57.7986C30.0685 56.1739 30.542 54.1512 30.542 54.1512H30.5437Z" fill="#72912F"/>
<path d="M17.0404 49.2669C16.1964 49.2669 15.5307 48.7368 15.0572 47.6903C13.1941 43.5661 17.5071 38.4193 17.6924 38.2014C17.7421 38.1431 17.8142 38.1105 17.8879 38.1105C17.8999 38.1105 17.912 38.1105 17.9257 38.1139C18.0132 38.1277 18.0887 38.1843 18.1247 38.2649L21.4014 45.7277C21.4375 45.81 21.4289 45.9061 21.3757 45.9799C21.2813 46.1137 19.0442 49.2669 17.0404 49.2669Z" fill="#8AB242"/>
<path d="M17.8879 38.3678L21.1647 45.8306C21.1647 45.8306 18.9327 49.0078 17.0387 49.0078C16.3782 49.0078 15.7606 48.6218 15.2906 47.5822C13.4738 43.5591 17.8862 38.3661 17.8862 38.3661M17.8862 37.8514C17.737 37.8514 17.5929 37.9166 17.4934 38.0333C17.3046 38.2546 12.8922 43.5231 14.8205 47.7949C15.4655 49.2223 16.3817 49.5225 17.037 49.5225C19.1386 49.5225 21.3397 46.4739 21.5833 46.1256C21.6862 45.9781 21.7051 45.7877 21.633 45.623L18.3563 38.1602C18.2842 37.9972 18.135 37.884 17.96 37.8583C17.9343 37.8549 17.9102 37.8531 17.8862 37.8531V37.8514Z" fill="black"/>
<path d="M17.8879 38.3679C17.8879 38.3679 17.6752 38.4743 17.0164 39.5482L16.4674 42.24L18.5879 43.6879L19.1729 45.6402L17.7421 46.5598L19.1935 47.9871C20.3018 47.0573 21.1647 45.8289 21.1647 45.8289L17.8879 38.3662V38.3679Z" fill="#72912F"/>
<path d="M51.3828 49.2669C49.3773 49.2669 47.1419 46.1137 47.0476 45.9798C46.9961 45.9061 46.9858 45.81 47.0218 45.7277L50.2986 38.2649C50.3346 38.1843 50.4084 38.1259 50.4976 38.1139C50.5096 38.1122 50.5216 38.1105 50.5353 38.1105C50.6108 38.1105 50.6829 38.1431 50.7309 38.2014C50.9162 38.4193 55.2274 43.5643 53.366 47.6903C52.8943 48.7368 52.2269 49.2669 51.3828 49.2669Z" fill="#8AB242"/>
<path d="M50.5353 38.3679C50.5353 38.3679 54.9478 43.5592 53.131 47.5839C52.6609 48.6236 52.0433 49.0096 51.3828 49.0096C49.4888 49.0096 47.2569 45.8323 47.2569 45.8323L50.5336 38.3696M50.5336 37.8549C50.5096 37.8549 50.4839 37.8566 50.4599 37.86C50.2849 37.8858 50.1339 38.0007 50.0636 38.162L46.7868 45.6247C46.7147 45.7894 46.7336 45.9799 46.8366 46.1274C47.0802 46.4757 49.283 49.5242 51.3828 49.5242C52.0382 49.5242 52.9543 49.224 53.5994 47.7967C55.5277 43.5249 51.1152 38.2581 50.9265 38.035C50.8287 37.9184 50.6846 37.8532 50.5336 37.8532V37.8549Z" fill="black"/>
<path d="M50.5353 38.3679C50.5353 38.3679 50.7481 38.4742 51.4068 39.5482L51.9558 42.2399L49.8354 43.6879L49.2504 45.6402L50.6812 46.5598L49.2298 47.9871C48.1215 47.0573 47.2586 45.8289 47.2586 45.8289L50.5353 38.3662V38.3679Z" fill="#72912F"/>
<path d="M40.3414 57.2186C40.2985 57.2186 40.2573 57.2083 40.2196 57.1877L38.4989 56.2596C37.1436 56.7125 35.7368 56.9424 34.3163 56.9424C32.8958 56.9424 31.4581 56.7074 30.0874 56.2442L28.3358 57.1877C28.298 57.2083 28.2552 57.2186 28.214 57.2186C28.1728 57.2186 28.1299 57.2083 28.0922 57.1877C28.0167 57.1465 27.9652 57.0711 27.9566 56.9853L27.7919 55.2251C26.1296 54.3004 24.6404 53.0446 23.3623 51.4886H21.0978C21.0223 51.4886 20.9485 51.4543 20.9005 51.3959C20.8507 51.3376 20.8319 51.2604 20.8439 51.1849L21.3277 48.5035L18.9928 46.8582C18.9121 46.8016 18.8709 46.7056 18.8864 46.6078C18.9018 46.5117 18.9705 46.4311 19.0631 46.4019L20.2863 46.0159C19.9621 45.1101 19.7013 44.1665 19.5091 43.2041L17.598 41.9448C17.5036 41.8831 17.4607 41.7664 17.4933 41.6566L18.2362 39.1433L16.7299 34.1012C16.699 33.9966 16.7368 33.8833 16.826 33.8182L19.0871 32.1935L18.3786 28.2151C18.3631 28.1242 18.3957 28.0315 18.4661 27.9732C18.5124 27.9337 18.5724 27.9131 18.6308 27.9131C18.6599 27.9131 18.6908 27.9183 18.72 27.9286L20.0924 28.4364V24.669C20.0924 24.5643 20.1559 24.47 20.2537 24.4305C20.2846 24.4185 20.3172 24.4116 20.3498 24.4116C20.4184 24.4116 20.4853 24.4391 20.5351 24.4906L21.8372 25.8459L23.0981 22.2912C23.1342 22.19 23.2285 22.1214 23.3366 22.1196H23.34C23.4464 22.1196 23.5407 22.1848 23.5802 22.2843L24.1017 23.6276L30.2023 19.6475C30.2452 19.62 30.2933 19.6063 30.343 19.6063C30.3859 19.6063 30.4271 19.6166 30.4648 19.6372C30.5472 19.6818 30.6003 19.7693 30.6003 19.8637V20.6923L34.1705 18.3437C34.2133 18.3162 34.2631 18.3008 34.3111 18.3008C34.3592 18.3008 34.4089 18.3145 34.4518 18.3437L38.0219 20.6923V19.8637C38.0219 19.7693 38.0734 19.6818 38.1575 19.6372C38.1952 19.6166 38.2381 19.6063 38.2793 19.6063C38.329 19.6063 38.377 19.62 38.4199 19.6475L44.5205 23.6276L45.0421 22.2843C45.0798 22.1848 45.1759 22.1196 45.2822 22.1196H45.2857C45.3938 22.1196 45.4881 22.19 45.5241 22.2912L46.7851 25.8459L48.0872 24.4906C48.137 24.4391 48.2039 24.4116 48.2725 24.4116C48.3051 24.4116 48.3377 24.4185 48.3686 24.4305C48.4664 24.47 48.5298 24.5643 48.5298 24.669V28.4364L49.9023 27.9286C49.9315 27.9183 49.9623 27.9131 49.9915 27.9131C50.0515 27.9131 50.1099 27.9337 50.1562 27.9732C50.2265 28.0315 50.2608 28.1242 50.2437 28.2151L49.5352 32.1935L51.7963 33.8182C51.8855 33.8816 51.925 33.9949 51.8924 34.1012L50.3844 39.1467L50.8939 41.0922C50.9179 41.1848 50.8887 41.2826 50.8201 41.3461L49.1766 42.8627C48.9793 43.9503 48.6928 45.0157 48.3257 46.0382L49.4803 46.4019C49.5729 46.4311 49.6415 46.5117 49.657 46.6078C49.6724 46.7038 49.6312 46.8016 49.5506 46.8582L47.2534 48.476C47.2431 48.4966 47.2329 48.5155 47.2208 48.5361L47.6978 51.1849C47.7115 51.2604 47.6909 51.3376 47.6412 51.3959C47.5931 51.4543 47.5194 51.4886 47.4439 51.4886H45.2565C43.9561 53.0703 42.4395 54.3416 40.7445 55.2697L40.585 56.9836C40.5764 57.0694 40.5267 57.1465 40.4495 57.186C40.4117 57.2066 40.3705 57.2169 40.3277 57.2169L40.3414 57.2186Z" fill="#8AB242"/>
<path d="M34.3163 18.5598L38.2861 21.1692V19.8637L44.6526 24.0171L45.2891 22.3787L46.689 26.3262L48.2811 24.6707V28.8087L50.0001 28.1722L49.2624 32.3102L51.6539 34.0292L50.1253 39.145L50.6537 41.1591L48.9467 42.734C48.7323 43.9401 48.4132 45.1015 47.9997 46.2029L49.4116 46.649L47.063 48.3028C47.0287 48.3662 46.9944 48.4314 46.9618 48.4949L47.4542 51.2313H45.145C43.8343 52.8473 42.2646 54.1718 40.5129 55.1085L40.3414 56.9596L38.5212 55.9783C37.1864 56.4363 35.7762 56.6834 34.3163 56.6834C32.8563 56.6834 31.4118 56.4312 30.0651 55.9611L28.2157 56.9596L28.039 55.0639C26.32 54.1289 24.7777 52.8216 23.4876 51.2295H21.1012L21.6124 48.3868L19.142 46.6472L20.6226 46.1806C20.2486 45.1821 19.9535 44.1339 19.7442 43.048L17.7421 41.7304L18.5055 39.1433L16.977 34.0275L19.3685 32.3085L18.6308 28.1705L20.3498 28.807V24.669L21.9418 26.3245L23.3417 22.377L23.9782 24.0154L30.3447 19.862V21.1675L34.3146 18.5581M34.3129 18.0434C34.2151 18.0434 34.1156 18.0709 34.0298 18.1275L30.8577 20.2136V19.8637C30.8577 19.675 30.7548 19.5017 30.5883 19.4108C30.5111 19.3696 30.4271 19.349 30.343 19.349C30.2452 19.349 30.1474 19.3764 30.0617 19.4331L24.227 23.2399L23.8204 22.1917C23.7432 21.9927 23.5528 21.864 23.34 21.864C23.3383 21.864 23.3349 21.864 23.3332 21.864C23.1187 21.8675 22.9283 22.003 22.8562 22.2071L21.7343 25.369L20.7203 24.3139C20.6208 24.2109 20.487 24.156 20.3498 24.156C20.2846 24.156 20.2194 24.168 20.1576 24.1938C19.9621 24.2727 19.8351 24.4614 19.8351 24.6707V28.0693L18.8092 27.6901C18.7509 27.6678 18.6908 27.6575 18.6308 27.6575C18.5124 27.6575 18.394 27.6987 18.3014 27.7776C18.159 27.896 18.0921 28.0813 18.1247 28.2631L18.804 32.082L16.675 33.6123C16.4966 33.741 16.4194 33.9674 16.4829 34.1767L17.9668 39.145L17.2463 41.5863C17.1828 41.8042 17.2669 42.0375 17.4573 42.161L19.2793 43.3602C19.4525 44.2094 19.6807 45.0449 19.9569 45.8512L18.9859 46.1583C18.7989 46.2166 18.6617 46.3762 18.6325 46.57C18.6033 46.7639 18.684 46.9578 18.8452 47.0693L21.0463 48.6201L20.5917 51.1403C20.5642 51.2896 20.6054 51.444 20.7032 51.5624C20.801 51.679 20.9451 51.7476 21.0978 51.7476H23.2405C24.4912 53.2471 25.9391 54.4703 27.5483 55.3847L27.6993 57.011C27.7148 57.1826 27.816 57.3353 27.9687 57.4176C28.0441 57.4588 28.1282 57.4794 28.2123 57.4794C28.2963 57.4794 28.3804 57.4588 28.4559 57.4176L30.108 56.5255C31.4719 56.975 32.8855 57.2032 34.3129 57.2032C35.7402 57.2032 37.1195 56.9802 38.4697 56.5427L40.0926 57.4176C40.1681 57.4588 40.2522 57.4794 40.3362 57.4794C40.4203 57.4794 40.5027 57.4588 40.5799 57.4176C40.7325 57.3353 40.8338 57.1843 40.8492 57.011L40.9967 55.4327C42.6368 54.5132 44.1122 53.2762 45.3852 51.7494H47.4507C47.6034 51.7494 47.7475 51.6825 47.8453 51.5641C47.9431 51.4474 47.9843 51.293 47.9568 51.142L47.5022 48.6219L49.7033 47.071C49.8628 46.9578 49.9452 46.7639 49.916 46.5718C49.8869 46.3779 49.7496 46.2183 49.5626 46.16L48.6619 45.8752C48.981 44.9437 49.2349 43.9795 49.4185 42.9965L50.9985 41.5383C51.1375 41.4096 51.1958 41.214 51.1478 41.0304L50.6571 39.1553L52.1428 34.1784C52.2063 33.9674 52.1274 33.741 51.9507 33.614L49.8217 32.0837L50.4976 28.2871C50.5062 28.2511 50.5096 28.2134 50.5096 28.1739C50.5096 27.8908 50.2814 27.661 49.9984 27.6592C49.9984 27.6592 49.9967 27.6592 49.9949 27.6592C49.9881 27.6592 49.9812 27.6592 49.9726 27.6592C49.9143 27.661 49.8577 27.6747 49.8062 27.6953L48.7923 28.071V24.6724C48.7923 24.4631 48.6654 24.2727 48.4698 24.1955C48.408 24.1698 48.3428 24.1578 48.2776 24.1578C48.1404 24.1578 48.0049 24.2127 47.9071 24.3156L46.8932 25.3707L45.7712 22.2089C45.6991 22.0064 45.5087 21.8692 45.2943 21.8657C45.2925 21.8657 45.2891 21.8657 45.2874 21.8657C45.0747 21.8657 44.8842 21.9961 44.807 22.1934L44.4004 23.2416L38.5658 19.4348C38.48 19.3799 38.3822 19.3507 38.2844 19.3507C38.2004 19.3507 38.1163 19.3713 38.0391 19.4125C37.8727 19.5017 37.7697 19.6767 37.7697 19.8654V20.2154L34.5976 18.1292C34.5119 18.0726 34.4141 18.0452 34.3146 18.0452L34.3129 18.0434Z" fill="black"/>
<path d="M19.3719 32.3085L19.8643 31.2071L18.6342 28.1722L19.3719 32.3085Z" fill="#72912F"/>
<path d="M49.2624 32.3085L48.4149 31.0681L50.0001 28.1722L49.2624 32.3085Z" fill="#72912F"/>
<path d="M20.6243 46.1806L19.1437 46.6472L21.6142 48.3868L21.1029 51.2295H23.4893C24.7794 52.8216 26.3217 54.1271 28.0407 55.0638L28.2174 56.9595L30.0668 55.9611C31.4153 56.4294 32.8409 56.6833 34.318 56.6833C35.7951 56.6833 37.1899 56.4363 38.5229 55.9782L40.3431 56.9595L40.5147 55.1084C42.2663 54.17 43.8377 52.8473 45.1467 51.2312H47.4559L46.9635 48.4949C46.9978 48.4314 47.0321 48.3679 47.0647 48.3027L49.4134 46.6489L48.0014 46.2029C48.4149 45.1015 48.734 43.94 48.9484 42.734L50.6554 41.1591L48.4149 42.0529C48.4149 42.0529 48.1644 45.0226 47.19 46.6438L48.2605 46.8376L46.8005 47.8104C46.8005 47.8104 43.7828 52.6123 39.9537 54.1048L39.7272 55.1925L38.0391 54.743C38.0391 54.743 36.6306 55.3383 34.3163 55.3383C32.002 55.3383 30.5935 54.743 30.5935 54.743L28.9054 55.1925L28.6789 54.1048C24.8497 52.6123 21.832 47.8104 21.832 47.8104L20.3721 46.8376L21.4426 46.6438C20.4699 45.0208 20.2177 42.4904 20.2177 42.4904L17.7404 41.7321L19.7425 43.0497C19.9535 44.1356 20.2486 45.1821 20.6209 46.1823L20.6243 46.1806Z" fill="#72912F"/>
<path d="M18.5073 39.1433L18.9567 37.4106L16.9787 34.0274L18.5073 39.1433Z" fill="#72912F"/>
<path d="M50.115 39.1433L49.6655 37.4106L51.6436 34.0274L50.115 39.1433Z" fill="#72912F"/>
<path d="M20.3532 28.8087L21.1835 27.8188L20.3532 24.6707V28.8087Z" fill="#72912F"/>
<path d="M48.2794 28.8087L47.449 27.8188L48.2794 24.6707V28.8087Z" fill="#72912F"/>
<path d="M23.9817 24.017L23.467 24.6707L23.3452 22.3787L23.9817 24.017Z" fill="#72912F"/>
<path d="M44.6526 24.017L45.1673 24.6707L45.2891 22.3787L44.6526 24.017Z" fill="#72912F"/>
<path d="M34.0984 25.1614C35.9299 25.1614 37.4146 24.646 37.4146 24.0102C37.4146 23.3745 35.9299 22.8591 34.0984 22.8591C32.2669 22.8591 30.7822 23.3745 30.7822 24.0102C30.7822 24.646 32.2669 25.1614 34.0984 25.1614Z" fill="#72912F"/>
<path d="M37.4146 24.0102C37.4146 24.6466 35.9306 25.1613 34.0984 25.1613C32.2662 25.1613 30.7822 24.6449 30.7822 24.0102" stroke="#C5FF5F" stroke-width="0.7" stroke-linecap="round" stroke-linejoin="round"/>
<path d="M32.213 40.3699C33.5408 39.8227 35.03 39.8227 36.3578 40.3699" stroke="black" stroke-width="0.7" stroke-linecap="round" stroke-linejoin="round"/>
<path d="M33.009 40.955C33.8256 40.6187 34.7435 40.6187 35.5601 40.955" stroke="#72912F" stroke-width="0.7" stroke-linecap="round" stroke-linejoin="round"/>
<path d="M22.4599 37.4106C22.4599 37.4106 23.9285 39.2582 26.7918 39.169" stroke="#C5FF5F" stroke-width="0.7" stroke-linecap="round" stroke-linejoin="round"/>
<path d="M46.1057 37.4106C46.1057 37.4106 44.6372 39.2582 41.7739 39.169" stroke="#C5FF5F" stroke-width="0.7" stroke-linecap="round" stroke-linejoin="round"/>
<path d="M35.3782 34.0274C35.3782 34.0274 35.6356 35.9008 36.6529 37.0486" stroke="#72912F" stroke-width="0.7" stroke-linecap="round" stroke-linejoin="round"/>
<path d="M33.2612 34.0274C33.2612 34.0274 33.0039 35.9008 31.9865 37.0486" stroke="#72912F" stroke-width="0.7" stroke-linecap="round" stroke-linejoin="round"/>
<path d="M23.1994 46.0159L26.8089 45.0106L26.3217 47.3249L23.0501 46.0159" fill="#72912F"/>
<path d="M26.3217 47.3249L23.1376 46.0142L24.0777 44.7069" stroke="black" stroke-width="0.7" stroke-linecap="round" stroke-linejoin="round"/>
<path d="M28.8041 51.9998L30.5678 49.6615L30.9898 51.7048L28.8041 51.9998Z" fill="#72912F"/>
<path d="M30.9898 51.7048L28.8041 51.9999L28.5245 50.2122" stroke="black" stroke-width="0.7" stroke-linecap="round" stroke-linejoin="round"/>
<path d="M30.6312 47.4844L32.2336 45.6831L32.4446 47.3884L30.6312 47.4844Z" fill="#72912F"/>
<path d="M32.4446 47.3884L30.6312 47.4844L30.5197 46.0005" stroke="black" stroke-width="0.7" stroke-linecap="round" stroke-linejoin="round"/>
<path d="M37.7903 47.4844L36.1897 45.6831L35.9787 47.3884L37.7903 47.4844Z" fill="#72912F"/>
<path d="M35.9787 47.3884L37.7903 47.4844L37.9018 46.0005" stroke="black" stroke-width="0.7" stroke-linecap="round" stroke-linejoin="round"/>
<path d="M45.4332 46.0159L41.8237 45.0105L42.3126 47.3249L45.5825 46.0159" fill="#72912F"/>
<path d="M42.3126 47.3248L45.4967 46.0141L44.5548 44.7069" stroke="black" stroke-width="0.7" stroke-linecap="round" stroke-linejoin="round"/>
<path d="M39.8302 51.9998L38.0648 49.6615L37.6428 51.7047L39.8302 51.9998Z" fill="#72912F"/>
<path d="M37.6428 51.7048L39.8302 51.9999L40.1098 50.2122" stroke="black" stroke-width="0.7" stroke-linecap="round" stroke-linejoin="round"/>
<path d="M41.7001 38.4142C36.2377 38.4142 36.1005 33.5351 36.1005 33.4853C36.1005 33.4081 36.1331 33.3326 36.1931 33.2829C36.2789 33.2108 38.3513 31.5261 42.1307 31.5261C43.5804 31.5261 45.097 31.7783 46.6393 32.2776C46.7388 32.3102 46.8091 32.3994 46.816 32.504C46.8246 32.6155 46.9961 35.2541 45.3903 36.9834C44.5085 37.9321 43.2664 38.4142 41.7001 38.4142Z" fill="white"/>
<path d="M42.1307 31.7852C43.4123 31.7852 44.8945 31.9859 46.5603 32.5246C46.5603 32.5246 46.9721 38.1569 41.7001 38.1569C36.4282 38.1569 36.3578 33.4819 36.3578 33.4819C36.3578 33.4819 38.4011 31.7852 42.1307 31.7852ZM42.1307 31.2706C38.2604 31.2706 36.1176 33.0119 36.0284 33.0856C35.9083 33.1851 35.8397 33.3344 35.8431 33.4888C35.8431 33.542 35.8723 34.8064 36.6066 36.0759C37.2911 37.2596 38.7322 38.6698 41.7001 38.6698C43.3419 38.6698 44.6458 38.1603 45.579 37.1584C47.262 35.3485 47.0819 32.6018 47.0733 32.4852C47.0579 32.2759 46.9172 32.0975 46.7182 32.0323C45.1501 31.5245 43.6061 31.2671 42.1307 31.2671V31.2706Z" fill="black"/>
<path d="M46.0594 32.9604C46.0594 32.9604 40.9539 31.1436 36.8656 33.8044" stroke="#DBDBDB" stroke-width="0.7" stroke-linecap="round" stroke-linejoin="round"/>
<path d="M26.8707 38.4142C25.3044 38.4142 24.0623 37.9338 23.1805 36.9834C21.573 35.2541 21.7463 32.6155 21.7548 32.504C21.7617 32.3994 21.832 32.3101 21.9315 32.2775C23.4738 31.7783 24.9921 31.5261 26.4401 31.5261C30.2195 31.5261 32.2919 33.2108 32.3777 33.2829C32.4377 33.3326 32.472 33.4064 32.4703 33.4853C32.4703 33.5351 32.3314 38.4142 26.8707 38.4142Z" fill="white"/>
<path d="M26.4401 31.7852C30.1697 31.7852 32.213 33.4819 32.213 33.4819C32.213 33.4819 32.1409 38.1568 26.8707 38.1568C21.6004 38.1568 22.0105 32.5246 22.0105 32.5246C23.6763 31.9859 25.1585 31.7852 26.4401 31.7852ZM26.4401 31.2705C24.9647 31.2705 23.4207 31.5279 21.8509 32.0357C21.6519 32.1009 21.5112 32.2793 21.4958 32.4886C21.4872 32.6052 21.3071 35.3519 22.9901 37.1618C23.9233 38.1654 25.2289 38.6732 26.869 38.6732C29.8369 38.6732 31.278 37.263 31.9625 36.0793C32.6985 34.8098 32.726 33.5454 32.726 33.4922C32.7277 33.3361 32.6608 33.1885 32.5407 33.089C32.4515 33.0153 30.3104 31.274 26.4384 31.274L26.4401 31.2705Z" fill="black"/>
<path d="M27.1675 35.9523C27.9729 35.9523 28.6257 35.2995 28.6257 34.4941C28.6257 33.6887 27.9729 33.0359 27.1675 33.0359C26.3621 33.0359 25.7092 33.6887 25.7092 34.4941C25.7092 35.2995 26.3621 35.9523 27.1675 35.9523Z" fill="black"/>
<path d="M26.4589 34.4941C26.8171 34.4941 27.1074 34.2038 27.1074 33.8456C27.1074 33.4875 26.8171 33.1971 26.4589 33.1971C26.1008 33.1971 25.8105 33.4875 25.8105 33.8456C25.8105 34.2038 26.1008 34.4941 26.4589 34.4941Z" fill="white"/>
<path d="M41.4634 35.9523C42.2687 35.9523 42.9216 35.2995 42.9216 34.4941C42.9216 33.6887 42.2687 33.0359 41.4634 33.0359C40.658 33.0359 40.0051 33.6887 40.0051 34.4941C40.0051 35.2995 40.658 35.9523 41.4634 35.9523Z" fill="black"/>
<path d="M22.4599 32.9604C22.4599 32.9604 27.5655 31.1436 31.6537 33.8044" stroke="#DBDBDB" stroke-width="0.7" stroke-linecap="round" stroke-linejoin="round"/>
<path d="M40.8149 34.4941C41.173 34.4941 41.4634 34.2038 41.4634 33.8456C41.4634 33.4875 41.173 33.1971 40.8149 33.1971C40.4567 33.1971 40.1664 33.4875 40.1664 33.8456C40.1664 34.2038 40.4567 34.4941 40.8149 34.4941Z" fill="white"/>
<path d="M33.1051 32.6121C33.0519 32.6121 33.0004 32.5967 32.9558 32.5641C32.9267 32.5435 30.0548 30.5397 25.8534 30.5397C24.4123 30.5397 22.966 30.7747 21.5541 31.2379C21.5284 31.2465 21.5009 31.2517 21.4735 31.2517C21.398 31.2517 21.3242 31.2191 21.2745 31.159C21.2076 31.0767 21.1956 30.9635 21.247 30.8708L22.5131 28.5857C22.5389 28.5393 22.5766 28.5033 22.6246 28.4793L24.7657 27.4208C24.8017 27.4036 24.8394 27.3933 24.8789 27.3933C24.8961 27.3933 24.9132 27.3951 24.9321 27.3985L31.8819 28.8447C31.9659 28.8619 32.0363 28.9202 32.0689 29.0008L32.3502 29.7025L32.6419 29.2873C32.6916 29.217 32.7706 29.1775 32.8529 29.1775C32.8752 29.1775 32.8975 29.181 32.9198 29.1861C33.0245 29.2136 33.0999 29.3045 33.1085 29.4126L33.3607 32.3308C33.3693 32.4303 33.3195 32.5263 33.232 32.5761C33.1926 32.5984 33.148 32.6104 33.1034 32.6104L33.1051 32.6121Z" fill="#72912F"/>
<path d="M24.8806 27.6523L31.8304 29.0986L32.2885 30.2411L32.8529 29.4365L33.1051 32.3547C33.1051 32.3547 30.1955 30.2823 25.8534 30.2823C24.5152 30.2823 23.0415 30.4796 21.4735 30.9943L22.7396 28.7091L24.8806 27.6506M24.8806 27.1359C24.8017 27.1359 24.7245 27.1531 24.6525 27.1891L22.5114 28.2476C22.4171 28.294 22.3399 28.3677 22.2884 28.4604L21.0223 30.7455C20.9194 30.9308 20.9417 31.1607 21.0755 31.3237C21.175 31.4438 21.3208 31.5107 21.4718 31.5107C21.525 31.5107 21.5799 31.5021 21.633 31.4849C23.0192 31.0303 24.438 30.7987 25.8516 30.7987C29.981 30.7987 32.7774 32.7562 32.8049 32.775C32.8941 32.8385 32.9987 32.8711 33.1034 32.8711C33.1909 32.8711 33.2801 32.8488 33.359 32.8025C33.534 32.703 33.6335 32.5108 33.6163 32.3118L33.3642 29.3936C33.3453 29.1775 33.1943 28.9973 32.985 28.9407C32.9404 28.9287 32.8958 28.9236 32.8512 28.9236C32.6865 28.9236 32.5287 29.0025 32.4309 29.1432L32.412 29.1706L32.3074 28.9098C32.2439 28.7503 32.1032 28.6319 31.9351 28.5976L24.9853 27.1514C24.951 27.1445 24.9149 27.1411 24.8806 27.1411V27.1359Z" fill="black"/>
<path d="M33.1051 32.3548L32.8529 29.4366L32.6367 31.3838C27.6787 28.7092 22.3038 30.2412 22.3038 30.2412L22.7396 28.7109L21.4735 30.9961C28.1265 28.8104 33.1051 32.3565 33.1051 32.3565V32.3548Z" fill="#607527"/>
<path d="M35.3182 32.6121C35.2736 32.6121 35.2307 32.6001 35.1895 32.5778C35.102 32.5281 35.0523 32.432 35.0608 32.3325L35.313 29.4143C35.3216 29.3062 35.3988 29.2153 35.5017 29.1879C35.524 29.181 35.5464 29.1793 35.5687 29.1793C35.651 29.1793 35.7299 29.2187 35.7797 29.2891L36.0713 29.7042L36.3527 29.0026C36.3853 28.9219 36.4539 28.8636 36.5397 28.8465L43.4895 27.4002C43.5066 27.3968 43.5238 27.3951 43.5427 27.3951C43.5821 27.3951 43.6216 27.4037 43.6559 27.4225L45.7969 28.481C45.8432 28.5051 45.8827 28.5411 45.9084 28.5874L47.1745 30.8726C47.226 30.9652 47.2157 31.0801 47.1471 31.1608C47.0973 31.2208 47.0236 31.2534 46.9481 31.2534C46.9206 31.2534 46.8949 31.25 46.8674 31.2397C45.4555 30.7765 44.0093 30.5414 42.5682 30.5414C38.365 30.5414 35.4932 32.5452 35.4657 32.5658C35.4211 32.5967 35.3696 32.6139 35.3165 32.6139L35.3182 32.6121Z" fill="#72912F"/>
<path d="M43.5427 27.6524L45.6837 28.7109L46.9498 30.996C45.3818 30.4814 43.9081 30.2841 42.5699 30.2841C38.2278 30.2841 35.3182 32.3565 35.3182 32.3565L35.5704 29.4383L36.1348 30.2429L36.5929 29.1003L43.5427 27.6541M43.5427 27.1394C43.5083 27.1394 43.4723 27.1429 43.438 27.1497L36.4882 28.5959C36.3201 28.6303 36.1794 28.7486 36.1159 28.9082L36.0113 29.1689L35.9924 29.1415C35.8946 29.0025 35.7368 28.9219 35.5704 28.9219C35.5258 28.9219 35.4812 28.9271 35.4366 28.9391C35.2273 28.9957 35.0763 29.1758 35.0574 29.392L34.8052 32.3102C34.7881 32.5109 34.8876 32.7013 35.0626 32.8008C35.1415 32.8454 35.2307 32.8694 35.3182 32.8694C35.4228 32.8694 35.5275 32.8369 35.6167 32.7734C35.6441 32.7545 38.4577 30.797 42.5699 30.797C43.9836 30.797 45.4041 31.0286 46.7885 31.4833C46.8417 31.5004 46.8949 31.509 46.9498 31.509C47.1008 31.509 47.2466 31.4421 47.3461 31.322C47.4816 31.159 47.5022 30.9291 47.3993 30.7438L46.1332 28.4587C46.0817 28.3678 46.0045 28.2923 45.9102 28.246L43.7691 27.1875C43.6971 27.1514 43.6199 27.1343 43.5409 27.1343L43.5427 27.1394Z" fill="black"/>
<path d="M35.3182 32.3548L35.5704 29.4366L35.7865 31.3838C40.7445 28.7092 46.1194 30.2412 46.1194 30.2412L45.6837 28.7109L46.9498 30.9961C40.2968 28.8104 35.3182 32.3565 35.3182 32.3565V32.3548Z" fill="#607527"/>
<path d="M34.5445 23.2502C34.5445 23.2502 33.5391 20.308 35.3165 17.3658" stroke="#351B00" stroke-width="0.7" stroke-linecap="round" stroke-linejoin="round"/>
<path d="M11.8508 29.0831L33.7999 15L34.9219 15.0171L56.8641 29.0986C56.8641 29.0986 54.8277 26.9507 34.3472 26.9507C13.8666 26.9507 11.8508 29.0849 11.8508 29.0849V29.0831Z" fill="#E9CF9E" stroke="black" stroke-width="0.7" stroke-linecap="round" stroke-linejoin="round"/>
<path d="M15.1773 26.949C15.1773 26.949 18.4335 25.3449 34.3146 25.3449C50.1957 25.3449 53.517 26.949 53.517 26.949L55.9926 28.5376C55.9926 28.5376 50.7035 26.949 34.3472 26.949C17.9909 26.949 12.6143 28.5925 12.6143 28.5925L15.1756 26.949H15.1773Z" fill="#C5AF76" stroke="black" stroke-width="0.7" stroke-linecap="round" stroke-linejoin="round"/>
<path d="M25.1311 25.5679L26.1193 24.578L27.9618 24.494L28.7081 23.5161C28.7081 23.5161 31.1854 22.9757 34.4741 23.4217L34.9339 22.3495H37.1487L37.6411 21.0594C37.6411 21.0594 41.6229 20.3509 44.7573 21.3305L42.1445 19.6543C38.2604 18.5821 35.4108 19.5668 35.4108 19.5668L34.879 20.6648H32.9061L32.249 21.5706C29.2554 21.1966 26.9754 21.9137 26.9754 21.9137L25.6715 23.2553H24.0263L23.0192 24.0977C20.5317 24.1594 18.72 24.6758 18.72 24.6758L15.1773 26.949C15.1773 26.949 17.6529 25.9762 25.1311 25.5662V25.5679Z" fill="#C5AF76" stroke="black" stroke-width="0.7" stroke-linecap="round" stroke-linejoin="round"/>
<path d="M36.2052 25.3466L36.8193 24.0582L39.1045 24.0462L39.8182 22.6531C39.8182 22.6531 44.0539 21.8417 47.9346 23.3685L51.0157 25.3466C46.6856 23.6808 41.9455 24.3687 41.9455 24.3687L41.5938 25.4787L36.2034 25.3466H36.2052Z" fill="#C5AF76" stroke="black" stroke-width="0.7" stroke-linecap="round" stroke-linejoin="round"/>
<path d="M23.3572 21.701L24.5633 21.5998L26.3166 20.1844C29.7786 19.5651 31.0087 19.9562 31.0087 19.9562L31.688 18.9578H33.3762L33.9252 17.9799C37.1487 17.2302 39.1903 17.7569 39.1903 17.7569L36.3904 15.9607C36.3904 15.9607 34.6045 15.7737 32.7637 16.5011L32.1272 17.4378L29.9141 17.4927L28.9689 18.6232H28.1505L23.3555 21.701H23.3572Z" fill="#C5AF76" stroke="black" stroke-width="0.7" stroke-linecap="round" stroke-linejoin="round"/>
</g>
</svg>