<svg width="73" height="84" viewBox="0 0 73 84" fill="none" xmlns="http://www.w3.org/2000/svg">
<g id="bump_icon">
<path id="Vector" d="M8.77114 63.8293L20.7082 33.905L36.5897 40.8928L21.677 67.9565L22.3949 76.6934L12.4301 84L2.07601 80.0796L0 68.9129L8.77114 63.8293Z" fill="#895B3B"/>
<path id="Vector_2" d="M4.61912 26.831L2.55176 22.3851L10.0427 2.223L14.8262 0L69.9788 19.2143L72.2105 23.4966L62.0121 48.1132L57.7044 50.1725L4.61912 26.831Z" fill="#636363"/>
<path id="Vector_3" d="M60.187 15.8022L55.8706 17.784L46.5459 39.5401L47.2898 45.5973L57.7044 50.1725L62.0122 48.1132L72.2106 23.4966L69.9788 19.2143L60.187 15.8022Z" fill="#3F3F3F"/>
<path id="Vector_4" d="M30.9931 38.4285L17.698 66.216L18.2949 75.3837L8.37329 82.4663L12.4302 84L23.7963 77.7273L21.677 67.9565L36.5897 40.8928L30.9931 38.4285Z" fill="#70492F"/>
<path id="Vector_5" d="M10.0427 2.223L55.8706 17.784L60.187 15.8022L14.8262 0L10.0427 2.223Z" fill="#7C7C7C"/>
<path id="Vector_6" d="M2.55176 22.3851L46.5458 39.5401L47.2897 45.5973L4.61912 26.8311L2.55176 22.3851Z" fill="#4C4C4C"/>
<path id="Vector_7" d="M8.77114 63.8293L0 68.9129L18.2948 75.3837L17.698 66.216L8.77114 63.8293Z" fill="#996644"/>
<path id="Vector_8" d="M7.12744 10.0724L10.2847 3.09323L19.1423 5.31623L10.0425 2.22299L7.12744 10.0724Z" fill="#9F9F9F"/>
<path id="Vector_9" d="M3.63301 19.4814L3.01886 22.118L6.24532 23.824L2.55176 22.3851L3.63301 19.4814Z" fill="#9F9F9F"/>
<path id="Vector_10" d="M43.6396 13.6309L54.9539 18.2234L53.0336 24.3926L55.7151 18.1458L60.1872 15.8022L55.4296 17.6375L43.6396 13.6309Z" fill="#9F9F9F"/>
<path id="Vector_11" d="M11.1758 16.3278L13.174 19.1109L11.6689 21.7906L7.84558 21.6785L6.91138 18.7232L8.00128 16.2331L11.1758 16.3278Z" fill="#5E5C60"/>
<path id="Vector_12" d="M57.7044 50.1725L4.61912 26.8311L2.55176 22.3851L4.70562 26.6157L57.7044 49.7503L61.571 47.8375L71.8212 23.5224L69.8577 19.3952L60.187 15.8022L69.9788 19.2143L72.2105 23.4966L62.0121 48.1132L57.7044 50.1725Z" fill="#252525"/>
<path id="Vector_13" d="M7.84558 21.6785L7.29198 18.8438L8.21753 16.6983L11.1758 16.3278L8.00128 16.2331L6.91138 18.7232L7.84558 21.6785Z" fill="#494949"/>
<path id="Vector_14" d="M19.9815 35.723L29.7561 41.022L33.8648 45.8385L31.2093 50.6636L27.4033 45.9247L17.845 41.0823L19.9815 35.723Z" fill="#442D1D"/>
<path id="Vector_15" d="M16.781 43.7448L26.0452 48.7594L29.3409 54.0498L26.8583 58.5561L23.4935 54.0929L14.8088 48.6905L16.781 43.7448Z" fill="#442D1D"/>
<path id="Vector_16" d="M13.745 51.3443L22.1788 56.8501L25.215 61.5374L23.0265 65.5181L19.8087 61.8045L11.3835 57.2809L13.745 51.3443Z" fill="#442D1D"/>
<path id="Vector_17" d="M10.5183 59.4436L19.0472 63.3726L23.0263 65.5181L21.6768 67.9565L17.6978 66.216L8.771 63.8293L10.5183 59.4436Z" fill="#442D1D"/>
<path id="Vector_18" d="M29.7561 41.022L27.4033 45.9247L17.845 41.0823L19.9815 35.723L29.7561 41.022Z" fill="#604029"/>
<path id="Vector_19" d="M16.781 43.7448L26.0452 48.7594L23.4935 54.0929L14.8088 48.6905L16.781 43.7448Z" fill="#604029"/>
<path id="Vector_20" d="M13.745 51.3443L22.1788 56.8501L19.8087 61.8045L11.3835 57.2809L13.745 51.3443Z" fill="#604029"/>
<path id="Vector_21" d="M10.5183 59.4436L19.0472 63.3726L17.6978 66.216L8.771 63.8293L10.5183 59.4436Z" fill="#604029"/>
<path id="Vector_22" d="M20.4314 34.4995L30.3962 39.6865L30.9931 38.4285L20.7082 33.905L20.4314 34.4995Z" fill="#604029"/>
<path id="Vector_23" d="M30.3962 39.6865L35.1278 43.5466L36.5897 40.8928L30.9931 38.4285L30.3962 39.6865Z" fill="#442D1D"/>
<path id="Vector_24" d="M1.55688 77.2965L10.8903 80.6655L12.43 84L2.07589 80.0796L1.55688 77.2965Z" fill="#5E3E29"/>
<path id="Vector_25" d="M1.55701 77.2965L0.484402 69.1369L9.15174 63.9327L8.77114 63.8293L0 68.9129L1.55701 77.2965Z" fill="#CC8A5C"/>
<path id="Vector_26" d="M38.83 8.35782L33.147 10.0725L30.3962 14.4668L35.1105 10.7359L43.7259 10.0725L38.83 8.35782Z" fill="#F9C900"/>
<path id="Vector_27" d="M30.3962 14.4668L35.5863 10.8996L44.6256 10.3826L43.7259 10.0725L38.83 8.35782L43.2588 10.1069L35.1105 10.7359L30.3962 14.4668Z" fill="#FFED9F"/>
<path id="Vector_28" d="M30.3962 14.4668L33.3286 10.4171L38.83 8.35782L33.147 10.0725L30.3962 14.4668Z" fill="#826900"/>
<path id="Vector_29" d="M18.2947 32.8452L15.7776 27.5462L19.1425 24.1342L17.4643 21.196L21.8153 24.8321L19.1425 28.8559L23.7962 35.2664L18.2947 32.8452Z" fill="#F9C900"/>
<path id="Vector_30" d="M23.4676 34.8097L19.1426 28.8559L21.8154 24.8321L19.7135 29.054L23.4676 34.8097Z" fill="#FFED9F"/>
<path id="Vector_31" d="M18.2947 32.8452L15.7776 27.5462L19.1425 24.1342L16.3225 27.7186L18.4504 32.5609L23.5107 34.827L23.7962 35.2664L18.2947 32.8452Z" fill="#826900"/>
<path id="Vector_32" d="M17.4644 21.196L18.9608 24.3237L19.1425 24.1342L17.4644 21.196Z" fill="#FFED9F"/>
<path id="Vector_33" d="M17.4644 21.196L21.651 25.0906L21.8153 24.8321L17.4644 21.196Z" fill="#826900"/>
<path id="Vector_34" d="M61.9084 16.4054L62.7042 24.7804L59.3826 29.011L59.8583 33.9912L60.5763 29.6658L66.614 25.237L67.8164 18.4647L61.9084 16.4054Z" fill="#8E7300"/>
<path id="Vector_35" d="M66.1121 25.0905L60.1869 29.5365L59.8582 33.9911L60.5761 29.6658L66.6138 25.237L67.8162 18.4646L66.1121 25.0905Z" fill="#635000"/>
<path id="Vector_36" d="M61.4759 16.2503L62.3668 24.6942L59.0193 28.899L59.8583 33.9912L59.3826 29.011L62.7042 24.7804L61.943 16.7586L67.8164 18.4647L61.9084 16.4054L61.4759 16.2503Z" fill="#E5B900"/>
<path id="Vector_37" d="M11.1758 16.3279L13.1739 19.1109L11.6688 21.7906L13.468 19.0592L11.1758 16.3279Z" fill="#9F9F9F"/>
<path id="Vector_38" d="M10.7261 2.45564L14.8262 0L10.0427 2.223L10.7261 2.45564Z" fill="#9F9F9F"/>
<path id="Vector_39" d="M16.9712 66.0178L18.2946 75.3837L17.6978 66.216L16.9712 66.0178Z" fill="#CC8A5C"/>
<path id="Vector_40" d="M9.1516 63.9327L20.708 33.905L8.771 63.8293L9.1516 63.9327Z" fill="#CC8A5C"/>
<path id="Vector_41" d="M16.9712 66.0178L22.1785 56.8501L17.6978 66.216L16.9712 66.0178Z" fill="#CC8A5C"/>
<path id="Vector_42" d="M21.6768 67.9565L23.0262 77.2965L12.2136 83.5175L12.4299 84L23.796 77.7273L21.6768 67.9565Z" fill="#5B3C27"/>
<path id="Vector_43" d="M12.2138 83.5175L2.07593 80.0796L12.43 84L12.2138 83.5175Z" fill="#422A1D"/>
<path id="Vector_44" d="M2.55176 22.3851L4.70562 26.6157L18.1218 32.4747L18.2948 32.8452L4.61912 26.8311L2.55176 22.3851Z" fill="#3A3A3A"/>
<path id="Vector_45" d="M23.5107 34.827L23.7962 35.2664L47.2897 45.5973L47.2378 45.1837L23.5107 34.827Z" fill="#3A3A3A"/>
<path id="Vector_46" d="M5.37183 14.7855L13.1742 12.123L16.712 15.5179L24.7479 11.0805L17.8279 12.2695L13.4683 8.72824L7.12778 10.0724L5.37183 14.7855Z" fill="#F9C900"/>
<path id="Vector_47" d="M13.3209 9.27968L17.6805 12.5797L24.7476 11.0805L17.8275 12.2695L13.4679 8.72824L7.12744 10.0724L13.3209 9.27968Z" fill="#826900"/>
<path id="Vector_48" d="M5.1814 15.3025L13.1394 12.5797L16.6081 16.0176L24.7478 11.0805L16.7119 15.5179L13.174 12.1231L5.76095 14.6562L7.12765 10.0724L5.3717 14.7855L5.1814 15.3025Z" fill="#FFED9F"/>
<path id="Vector_49" d="M50.2739 46.9069L51.3811 41.8923L55.8619 41.0651L56.9691 36.2055L58.7337 44.5633L55.0833 46.4589L54.9017 48.9404L50.2739 46.9069Z" fill="#8E7300"/>
<path id="Vector_50" d="M56.9691 36.2055L58.2925 44.3134L54.7027 46.3727L54.5384 48.3028L50.2739 46.9069L54.5038 48.7681L54.9017 48.9404L55.0833 46.4589L58.7337 44.5633L56.9691 36.2055Z" fill="#635000"/>
<path id="Vector_51" d="M56.9691 36.2055L55.5851 40.8239L51.1389 41.651L50.2739 46.9069L51.3811 41.8923L55.8619 41.0651L56.9691 36.2055Z" fill="#E5B900"/>
<path id="Vector_52" d="M33.865 34.5943L46.1394 38.7129L50.6115 30.0449L46.8227 38.8938L47.2379 45.1837L45.828 39.2557L33.865 34.5943Z" fill="#9F9F9F"/>
<path id="Vector_53" d="M14.8262 0L21.5473 2.95538L25.7079 6.41912L24.9208 3.51544L14.8262 0Z" fill="#F9C900"/>
<path id="Vector_54" d="M14.8262 0L21.4348 3.21387L25.7079 6.41912L21.5473 2.95538L16.1929 0.551441L24.6007 3.40343L14.8262 0Z" fill="#FFED9F"/>
<path id="Vector_55" d="M24.6008 3.40341L25.708 6.41911L24.9209 3.51542L24.6008 3.40341Z" fill="#826900"/>
<path id="Vector_56" d="M56.5714 14.5443L53.8293 15.5179L59.0194 15.3973L56.5714 14.5443Z" fill="#F9C900"/>
<path id="Vector_57" d="M53.8293 15.5179L56.7617 14.6046L56.5714 14.5443L53.8293 15.5179Z" fill="#826900"/>
<path id="Vector_58" d="M53.8293 15.5179L58.7339 15.4059L56.7617 14.6046L59.3827 15.5179H53.8293Z" fill="#FFED9F"/>
<path id="Vector_59" d="M3.71948 24.901L10.8731 27.3136H5.70899L4.61909 26.831L3.71948 24.901Z" fill="#8E7300"/>
<path id="Vector_60" d="M16.3225 27.7185L19.1424 28.8559L23.4674 34.8097L18.4504 32.5608L16.3225 27.7185Z" fill="#8E7300"/>
<path id="Vector_61" d="M15.7776 27.5462L16.3225 27.7185L18.4504 32.5609L23.5107 34.8269L23.7962 35.2664L18.2947 32.8452L15.7776 27.5462Z" fill="#635000"/>
<path id="Vector_62" d="M19.1426 28.8559L19.7135 29.0541L23.5108 34.827L19.1426 28.8559Z" fill="#E5B900"/>
<path id="Vector_63" d="M3.85788 24.9527L4.70559 26.6156L5.89064 27.0982L10.8731 27.3136H5.70899L4.61909 26.831L3.71948 24.901L3.85788 24.9527Z" fill="#635000"/>
<path id="Vector_64" d="M3.85791 24.9527L10.8731 27.3136L3.96171 25.1509L3.85791 24.9527Z" fill="#E5B900"/>
<path id="Vector_65" d="M33.4929 39.5314L36.5896 39.4194L36.2609 37.4118L40.5427 40.9876L39.0462 41.9698L33.4929 39.5314Z" fill="#8E7300"/>
<path id="Vector_66" d="M39.3836 41.7544L34.6001 39.6951L36.8664 39.5831L36.2696 37.4721L36.5896 39.4194L33.4929 39.5314L39.0462 41.9698L39.3836 41.7544Z" fill="#635000"/>
<path id="Vector_67" d="M36.2607 37.4118L40.2052 40.9876L39.3834 41.7544L40.5425 40.9876L36.2607 37.4118Z" fill="#E5B900"/>
<g id="Group">
<path id="Vector_68" d="M45.3782 17.0516L46.0183 27.1585L38.3976 24.7459L38.6485 29.6831L24.7825 22.5229L34.3754 21.9801L34.3235 19.1798L45.3782 17.0516Z" fill="#F9C900"/>
<path id="Vector_69" d="M45.3782 17.0516L34.7992 19.5503V22.5746L24.7825 22.5229L34.3754 21.9801L34.3235 19.1798L45.3782 17.0516Z" fill="#826900"/>
<path id="Vector_70" d="M24.7825 22.5229L39.1069 30.605L38.8301 25.3577L46.546 27.7702L45.3782 17.0516L46.0183 27.1585L38.3976 24.7459L38.6485 29.6831L24.7825 22.5229Z" fill="#FFED9F"/>
</g>
<path id="Vector_71" d="M9.4458 66.733L14.7396 68.1805L9.54095 72.2905L12.8539 73.4537L6.27124 77.2965L8.4424 74.0309L6.27124 73.0745L9.4458 66.733Z" fill="#EABD00"/>
<path id="Vector_72" d="M7.10164 71.4202L9.54095 72.2905L12.8539 73.4537L6.27124 77.2965L8.4424 74.031L6.27124 73.0745L7.10164 71.4202Z" fill="#CEA600"/>
<path id="Vector_73" d="M14.7396 68.1805L10.1984 72.2215L13.5373 73.4623L6.27124 77.2965L12.8539 73.4537L9.54095 72.2905L14.7396 68.1805Z" fill="#FFED9F"/>
<path id="Vector_74" d="M9.44593 66.733L5.83887 73.0745L8.10518 74.1516L6.27137 77.2965L8.44253 74.0309L6.27137 73.0745L9.44593 66.733Z" fill="#FFED9F"/>
</g>
</svg>