<svg width="72" height="84" viewBox="0 0 72 84" fill="none" xmlns="http://www.w3.org/2000/svg">
<g id="smash_icon">
<path id="Vector" d="M8.72941 63.8278L20.6229 33.9034L36.452 40.8904L21.5938 67.9628L22.3133 76.6922L12.3876 84L2.06316 80.0817L0 68.9164L8.72941 63.8278Z" fill="#895B3B"/>
<path id="Vector_2" d="M4.60295 26.8384L2.53979 22.3913L10.0036 2.21919L14.7627 0L69.7051 19.2099L71.933 23.5009L61.7645 48.1114L57.4822 50.1746L4.60295 26.8384Z" fill="#D8AE00"/>
<path id="Vector_3" d="M7.5332 8.89411L22.0273 2.53994L14.7629 0L10.0038 2.21919L7.5332 8.89411Z" fill="#FFED9F"/>
<path id="Vector_4" d="M2.53979 22.3913L30.8692 5.63464L47.1057 11.3127L12.3875 30.2712L4.60295 26.8383L2.53979 22.3913Z" fill="#FFED9F"/>
<path id="Vector_5" d="M19.4958 33.4093L53.746 13.6273L69.7051 19.2099L33.7386 39.6854L19.4958 33.4093Z" fill="#FFED9F"/>
<path id="Vector_6" d="M59.953 15.8031L55.6533 17.7883L46.3691 39.5381L47.106 45.5975L57.4824 50.1746L61.7648 48.1115L71.9332 23.501L69.7054 19.2099L59.953 15.8031Z" fill="#8E7300"/>
<path id="Vector_7" d="M47.1057 45.5975L69.7398 28.7975L65.8475 38.2377L52.8964 48.1547L47.1057 45.5975Z" fill="#A38402"/>
<path id="Vector_8" d="M30.8693 38.4285L17.6234 66.2117L18.2216 75.3832L8.3479 82.4656L12.3875 84L23.7089 77.7238L21.5937 67.9628L36.4519 40.8904L30.8693 38.4285Z" fill="#70492F"/>
<path id="Vector_9" d="M10.0039 2.21919L55.6534 17.7882L59.9531 15.8031L14.763 0L10.0039 2.21919Z" fill="#F9C900"/>
<path id="Vector_10" d="M2.53979 22.3913L46.3689 39.538L47.1057 45.5975L4.60295 26.8384L2.53979 22.3913Z" fill="#A38402"/>
<path id="Vector_11" d="M8.72941 63.8278L0 68.9164L18.2217 75.3832L17.6235 66.2117L8.72941 63.8278Z" fill="#996644"/>
<path id="Vector_12" d="M33.6174 34.5449L45.875 39.3474L47.054 45.1814L46.5598 39.0786L50.5561 29.7164L46.005 38.7839L33.6174 34.5449Z" fill="#FFED9F"/>
<path id="Vector_13" d="M7.09961 10.0644L10.2377 3.09472L19.0711 5.31391L10.0036 2.21918L7.09961 10.0644Z" fill="#FFED9F"/>
<path id="Vector_14" d="M3.61472 19.4873L3.00791 22.1226L6.21533 23.8303L2.53979 22.3913L3.61472 19.4873Z" fill="#FFED9F"/>
<path id="Vector_15" d="M43.4736 13.6273L54.743 18.2217L52.8359 24.3938L55.4972 18.1437L59.9529 15.8031L55.2111 17.6322L43.4736 13.6273Z" fill="#FFED9F"/>
<path id="Vector_16" d="M57.4822 50.1746L4.60295 26.8384L2.53979 22.3914L4.68964 26.6217L57.4822 49.7499L61.3311 47.8341L71.5429 23.5183L69.5924 19.392L59.9528 15.8031L69.7051 19.2099L71.933 23.501L61.7645 48.1115L57.4822 50.1746Z" fill="#725C00"/>
<path id="Vector_17" d="M19.9035 35.7238L29.6385 41.0204L33.7388 45.8316L31.0862 50.66L27.2979 45.9269L17.771 41.0811L19.9035 35.7238Z" fill="#442D1D"/>
<path id="Vector_18" d="M16.7135 43.7424L25.9457 48.7616L29.2312 54.0495L26.7519 58.5573L23.3971 54.0929L14.7544 48.6922L16.7135 43.7424Z" fill="#442D1D"/>
<path id="Vector_19" d="M13.6965 51.3449L22.0878 56.8495L25.1219 61.5393L22.9374 65.5183L19.73 61.808L11.3386 57.283L13.6965 51.3449Z" fill="#442D1D"/>
<path id="Vector_20" d="M10.4717 59.4501L18.9757 63.3771L22.9373 65.5182L21.5936 67.9628L17.6234 66.2117L8.72925 63.8278L10.4717 59.4501Z" fill="#442D1D"/>
<path id="Vector_21" d="M29.6385 41.0204L27.2979 45.9269L17.771 41.0811L19.9035 35.7238L29.6385 41.0204Z" fill="#604029"/>
<path id="Vector_22" d="M16.7135 43.7424L25.9457 48.7616L23.3971 54.0929L14.7544 48.6922L16.7135 43.7424Z" fill="#604029"/>
<path id="Vector_23" d="M13.6965 51.3449L22.0878 56.8495L19.73 61.808L11.3386 57.283L13.6965 51.3449Z" fill="#604029"/>
<path id="Vector_24" d="M10.4717 59.4501L18.9757 63.3771L17.6234 66.2117L8.72925 63.8278L10.4717 59.4501Z" fill="#604029"/>
<path id="Vector_25" d="M20.3455 34.4929L30.2711 39.6854L30.8693 38.4285L20.6229 33.9034L20.3455 34.4929Z" fill="#604029"/>
<path id="Vector_26" d="M30.2712 39.6854L34.987 43.5517L36.452 40.8904L30.8694 38.4285L30.2712 39.6854Z" fill="#442D1D"/>
<path id="Vector_27" d="M1.55151 77.299L10.8531 80.6711L12.3874 83.9999L2.06297 80.0817L1.55151 77.299Z" fill="#5E3E29"/>
<path id="Vector_28" d="M1.5517 77.299L0.47678 69.1418L9.11083 63.9318L8.72941 63.8278L0 68.9164L1.5517 77.299Z" fill="#CC8A5C"/>
<path id="Vector_29" d="M38.68 8.3653L31.5023 9.55291L28.9971 12.821L34.415 10.5932L43.5605 10.0644L38.68 8.3653Z" fill="#7F6700"/>
<path id="Vector_30" d="M28.9971 12.821L34.415 10.5932L44.4534 10.3851L43.5605 10.0644L34.0423 10.2551L28.9971 12.821Z" fill="#FFED9F"/>
<path id="Vector_31" d="M28.9971 12.821L31.9964 9.95167L39.3735 8.60802L38.68 8.3653L31.5023 9.55291L28.9971 12.821Z" fill="#6D5800"/>
<path id="Vector_32" d="M18.2215 32.8458L17.3286 28.1734L22.8506 27.3065L20.6227 29.465L23.7088 35.2644L18.2215 32.8458Z" fill="#7F6700"/>
<path id="Vector_33" d="M23.7091 35.2644L20.1982 29.3003L22.8509 27.3065L20.623 29.465L23.7091 35.2644Z" fill="#FFED9F"/>
<path id="Vector_34" d="M18.2215 32.8458L17.3286 28.1734L22.8506 27.3065L17.7707 28.5288L18.2215 32.8458Z" fill="#6D5800"/>
<path id="Vector_35" d="M61.6693 16.4012L62.4582 24.7839L59.1467 29.0142L59.6235 33.9901L60.3343 29.6644L66.3504 25.2433L67.5554 18.4644L61.6693 16.4012Z" fill="#725C00"/>
<path id="Vector_36" d="M67.1653 18.3257L65.8564 25.0873L59.953 29.5343L59.6235 33.9901L60.3344 29.6644L66.3505 25.2433L67.5554 18.4644L67.1653 18.3257Z" fill="#604E00"/>
<path id="Vector_37" d="M61.2358 16.2538L62.1287 24.6885L58.7913 28.9015L59.6235 33.9901L59.1467 29.0142L62.4581 24.7839L61.6693 16.4012L61.2358 16.2538Z" fill="#D8AE00"/>
<path id="Vector_38" d="M10.6801 2.45325L14.763 0L10.0039 2.21919L10.6801 2.45325Z" fill="#FFED9F"/>
<path id="Vector_39" d="M16.9041 66.021L18.2217 75.3832L17.6236 66.2117L16.9041 66.021Z" fill="#CC8A5C"/>
<path id="Vector_40" d="M9.11067 63.9318L20.6227 33.9034L8.72925 63.8278L9.11067 63.9318Z" fill="#CC8A5C"/>
<path id="Vector_41" d="M16.9041 66.0211L22.088 56.8495L17.6236 66.2118L16.9041 66.0211Z" fill="#CC8A5C"/>
<path id="Vector_42" d="M21.5938 67.9628L22.9375 77.299L12.1709 83.5232L12.3876 83.9999L23.709 77.7238L21.5938 67.9628Z" fill="#5B3C27"/>
<path id="Vector_43" d="M12.171 83.5232L2.06323 80.0817L12.3877 84L12.171 83.5232Z" fill="#422A1D"/>
<path id="Vector_44" d="M2.53979 22.3913L4.68964 26.6216L18.0481 32.473L18.2215 32.8458L4.60295 26.8384L2.53979 22.3913Z" fill="#917603"/>
<path id="Vector_45" d="M23.4231 34.8309L23.7092 35.2644L47.1061 45.5975L47.054 45.1814L23.4231 34.8309Z" fill="#917603"/>
<g id="Group">
<path id="Vector_46" d="M8.58193 21.4898L7.88843 21.0997C7.88843 21.0997 10.0469 19.2879 14.3466 15.6991L14.1819 6.41486L18.7417 8.12259L17.5627 15.3957L23.7609 10.0124L26.9596 11.2087L19.6259 17.7969L21.3596 26.1102L15.5776 23.943L16.063 17.5628L11.1219 22.27C9.96025 21.9492 9.10205 21.6805 8.56459 21.4811L8.58193 21.4898Z" fill="#7F6700"/>
<path id="Vector_47" d="M26.3269 20.0334L26.2489 17.0167L32.5077 13.2891L36.7641 14.8842L30.1065 29.3956C27.2892 28.2687 25.9108 27.6359 25.9628 27.4972L32.7158 17.5541L30.956 16.3492L26.3356 20.0334H26.3269Z" fill="#7F6700"/>
<path id="Vector_48" d="M41.09 16.1152L45.0082 17.6582L45.9098 22.7988L43.6299 30.7133L41.1246 33.8167C40.8386 33.8167 38.8274 33.2532 35.0912 32.1003L33.8342 29.517L37.137 19.5046L41.0813 16.1152H41.09ZM41.246 19.6607L38.8101 22.9721L37.5011 29.6297L41.298 29.0402L42.9884 24.5498L41.246 19.6694V19.6607Z" fill="#7F6700"/>
</g>
<path id="Vector_49" d="M18.7417 8.13126L14.5113 6.88297L14.7454 15.9591L7.88843 21.0997L14.3466 15.6991L14.1819 6.41486L18.7417 8.13126Z" fill="#6D5800"/>
<path id="Vector_50" d="M26.9598 11.2086L23.943 10.4978L17.979 15.6297L17.5715 15.4043L23.7697 10.0124L26.9598 11.2086Z" fill="#6D5800"/>
<path id="Vector_51" d="M16.0719 17.5715L16.5313 17.8142L16.1065 24.1424L15.5864 23.9517L16.0719 17.5715Z" fill="#6D5800"/>
<path id="Vector_52" d="M26.3269 20.0334L26.6823 17.3548L32.6638 13.7573L36.7641 14.8842L32.4991 13.2892L26.2402 17.0167L26.3269 20.0334Z" fill="#6D5800"/>
<path id="Vector_53" d="M32.707 17.5628L33.2272 17.9876L25.9541 27.4972L32.707 17.5628Z" fill="#6D5800"/>
<path id="Vector_54" d="M45.0082 17.6495L41.402 16.8173L37.7178 19.8601L34.6057 29.5344L35.0912 32.0916L33.8342 29.5084L37.1457 19.5046L41.09 16.1152L45.0082 17.6495Z" fill="#6D5800"/>
<path id="Vector_55" d="M41.2372 19.652L43.4217 24.6972L41.87 29.2656L37.501 29.621L41.2979 29.0316L42.9796 24.5325L41.2372 19.652Z" fill="#6D5800"/>
<path id="Vector_56" d="M18.7418 8.13126L17.8056 15.1876L17.5715 15.4043L18.7418 8.13126Z" fill="#FFED9F"/>
<path id="Vector_57" d="M26.9598 11.2087L20.0249 17.8923L21.3685 26.1189L19.6348 17.8056L26.9598 11.2087Z" fill="#FFED9F"/>
<path id="Vector_58" d="M16.0717 17.5715L16.037 17.9876L11.1392 22.2786L16.0717 17.5715Z" fill="#FFED9F"/>
<path id="Vector_59" d="M36.7642 14.8842L30.41 29.5343L30.0979 29.3956L36.7642 14.8842Z" fill="#FFED9F"/>
<path id="Vector_60" d="M32.7071 17.5628L30.9993 16.6613L26.3269 20.0334L30.9473 16.3492L32.7071 17.5628Z" fill="#FFED9F"/>
<path id="Vector_61" d="M45.0081 17.6495L46.2477 22.6774L43.9245 30.8953L41.2632 34.0421L35.0911 32.0916L41.1245 33.8167L43.6298 30.7046L45.9096 22.7901L45.0081 17.6495Z" fill="#FFED9F"/>
<path id="Vector_62" d="M41.2372 19.652L39.122 23.1022L37.501 29.621L38.81 22.9721L41.2372 19.652Z" fill="#FFED9F"/>
</g>
</svg>