<svg width="286" height="94" viewBox="0 0 286 94" fill="none" xmlns="http://www.w3.org/2000/svg">
<path d="M14.4999 73.01L3.99994 34.01L14.4999 6.51001L274.5 18.01L281.5 64.51L270.5 85.51L129.5 83.51L14.4999 73.01Z" fill="#636363"/>
<path d="M3.03693 33.4169L8.35311 35.6313L20.5736 9.78096L14.1598 5.33626L3.03693 33.4169Z" fill="#9F9F9F"/>
<path d="M8.35311 35.6313L21.6403 66.4383L14.1002 73.677L3.03693 33.4169L8.35311 35.6313Z" fill="#7C7C7C"/>
<path d="M20.5736 9.78101L270.807 26.5652L274.905 17.105L14.1598 5.33632L20.5736 9.78101Z" fill="#7C7C7C"/>
<path d="M270.807 26.5652L275.571 62.4677L282.38 64.5218L274.905 17.105L270.807 26.5652Z" fill="#3F3F3F"/>
<path d="M275.571 62.4677L282.38 64.5218L271.335 86.3357L265.276 78.336L275.571 62.4677Z" fill="#3F3F3F"/>
<path d="M21.6403 66.4384L131.53 77.8932L129.528 83.9936L14.1002 73.677L21.6403 66.4384Z" fill="#3F3F3F"/>
<path d="M131.53 77.8931L265.276 78.336L271.335 86.3357L129.528 83.9936L131.53 77.8931Z" fill="#252525"/>
<path d="M29.9261 29.4305L30.3134 37.1178L44.8032 40.0466L52.1497 28.5485L38.0755 21.5574L29.9261 29.4305Z" fill="#5E5C60"/>
<path d="M250.509 47.4898L248.829 57.2262L229.925 58.7094L222.341 42.9436L241.351 36.2173L250.509 47.4898Z" fill="#5E5C60"/>
<path d="M42.122 49.1114L42.3841 54.2265L52.0244 56.1712L56.9044 48.5214L47.5472 43.879L42.122 49.1114Z" fill="#5E5C60"/>
<path d="M53.1009 77.1642L51.8849 69.5971L70.418 59.1553L64.4687 70.9081L69.2431 78.6099L53.1009 77.1642Z" fill="#252525"/>
<path d="M53.1009 77.1642L54.486 77.2879L53.5163 70.2867L70.418 59.1553L51.8849 69.5971L53.1009 77.1642Z" fill="#9F9F9F"/>
<path d="M34.9573 27.2397L41.6252 27.6424L40.3913 52.2227L33.4739 51.805L34.9573 27.2397Z" fill="white"/>
<path d="M64.3975 53.6724L58.3585 53.3077L58.5707 49.7941L51.2069 37.027L48.8858 52.7357L42.5673 52.3541L45.8076 27.8949L52.8248 28.3187L58.7823 46.2905L62.1578 28.8823L66.8592 29.1662L64.3975 53.6724Z" fill="white"/>
<path d="M75.5563 54.5266L68.2766 29.2518L73.537 29.5695L78.6897 49.2559L83.5787 30.1759L90.2765 30.5803L80.7854 55.3633L75.5569 54.5166L75.5563 54.5266Z" fill="white"/>
<path d="M92.8119 30.7335L99.4798 31.1361L98.2459 55.7164L91.3285 55.2987L92.8119 30.7335Z" fill="white"/>
<path d="M117.032 56.8509L106.681 56.2258L108.543 37.9849L101.724 37.1122L102.076 31.2829L122.778 32.533L122.42 38.4622L115.507 39.1368L117.022 56.8403L117.032 56.8509Z" fill="white"/>
<path d="M123.42 57.2367L124.903 32.6714L140.801 31.8682L140.483 37.1286L129.008 38.1989L128.516 41.6956L140.165 42.399L139.891 46.9308L129.316 47.0335L129.028 51.8048L139.575 52.1613L139.268 57.252L123.419 57.2466L123.42 57.2367Z" fill="white"/>
<path d="M151.978 36.0696L166.977 35.2122L167.558 40.5268L157.576 39.924L157.308 45.1875L167.24 45.7872L166.253 51.0073L158.148 50.5178L156.57 59.2285L150.601 58.8681L151.978 36.0596L151.978 36.0696Z" fill="white"/>
<path d="M187.863 61.1283L180.845 60.7045L179.658 51.1756L176.646 50.9436L174.826 60.341L168.558 59.9625L171.162 36.086L182.319 36.1386L188.621 38.2824L187.462 47.0185L183.228 50.2892L187.852 61.1376L187.863 61.1283ZM174.562 46.6402L180.545 46.4404L184.571 41.6444L178.65 39.153L174.968 39.4215L174.572 46.6308L174.562 46.6402Z" fill="white"/>
<path d="M190.358 61.279L191.842 36.7137L207.739 35.9105L207.421 41.1709L195.946 42.2412L195.454 45.7379L207.103 46.4413L206.829 50.9731L196.254 51.0758L195.966 55.8471L206.513 56.2035L206.206 61.2943L190.357 61.2889L190.358 61.279Z" fill="white"/>
<path d="M229.926 63.6684L223.887 63.3037L224.099 59.7901L216.735 47.023L214.414 62.7317L208.096 62.3501L211.336 37.8909L218.353 38.3147L224.311 56.2865L227.686 38.8783L232.388 39.1622L229.926 63.6684Z" fill="white"/>
<path d="M247.709 48.8935L240.881 48.4811L250.06 56.0782L248.855 64.0902L240.756 64.3224L232.618 62.8793L235.95 56.4785L240.026 58.9987L243.869 59.2308L241.296 55.549L234.549 50.6534L234.457 44.0458L238.713 40.0952L245.723 40.6387L250.841 43.3121L247.718 48.904L247.709 48.8935Z" fill="white"/>
<path d="M137.279 10.8879L144.118 18.0732L141.094 24.0317L146.952 31.3782L147.342 24.9199L155.384 18.8236L153.944 11.6438L137.279 10.8879Z" fill="#252525"/>
<path d="M152.586 11.5617L153.635 18.5877L146.125 24.3355L146.952 31.3781L147.342 24.9199L155.384 18.8236L153.944 11.6437L152.586 11.5617Z" fill="#9F9F9F"/>
<path d="M282.38 64.5219L275.571 62.4678L255.461 65.8517L271.065 69.4087L275.998 77.1401L282.38 64.5219Z" fill="#252525"/>
<path d="M255.461 65.8517L275.473 64.1048L281.242 66.7674L282.38 64.5219L275.571 62.4678L255.461 65.8517Z" fill="#9F9F9F"/>
<path d="M21.6403 66.4383L8.35311 35.6314L20.5736 9.78101L10.9484 35.7881L21.6403 66.4383Z" fill="#9F9F9F"/>
<path d="M155.384 18.8236L269.466 28.6983L273.229 44.8445L270.807 26.5652L155.384 18.8236Z" fill="#9F9F9F"/>
<path d="M79.8403 72.5075L131.53 77.8931L238.864 78.2437L131.604 76.6653L79.8403 72.5075Z" fill="#9F9F9F"/>
</svg>