<svg width="308" height="92" viewBox="0 0 308 92" fill="none" xmlns="http://www.w3.org/2000/svg">
  <path d="M3.78906 12.1875L19.4219 11.9531L24.8828 21.5625L23.6172 34.1719L9.83594 34.7812L8.17188 45L1.44531 45.2344L3.78906 12.1875ZM11.2188 17.9297L10.1172 27.9844L17.3359 26.9062L18.0859 21.3281L11.2188 17.9297ZM28.1641 12.1875L35.1953 15.2109L34.1641 37.0781L49.2578 37.9688L50.8984 45L28.1641 45.2344V12.1875ZM83.1953 45H73.8203L69.1328 35.625H64.4453L59.7578 45H52.7266L60.7891 12.2344L73.8203 12.3047L83.1953 45ZM71.4766 29.9062L65.8984 16.875L62.1016 29.9062H71.4766ZM84.1328 12.1875H88.8203L93.5078 26.25H97.4688L101.734 12.1875H108.32L109 22.4062L98.1953 30.9375L103.891 44.3438L88.8203 45L92.2656 30.9375L84.1328 21.5625V12.1875ZM122.383 45L125.992 12.1875H134.102L141.133 26.25L150.508 12.1875H159.883L159.18 45H147.109L148.164 29.4375L140.312 38.6953L133.047 28.5938L129.414 45H122.383ZM168.367 12.0234L182.57 12.9141L192.039 16.7578L193.656 27.0469L192.859 40.4297L182.57 45.1641L167.547 44.4375L162.203 33.3281V21.4922L168.367 12.0234ZM174.672 18.5391L169.023 26.3906L172.211 37.4062L181.047 38.5078L186.648 33L185.875 21.2578L174.672 18.5391ZM195.719 13.2422L212.992 11.1562L221.617 20.5781L215.336 28.5938L222.367 35.625L220.023 43.5938L196.586 45L195.719 13.2422ZM203.852 25.0781L214.305 21.4922L203.078 16.6875C203.266 22.2812 203.523 25.0781 203.852 25.0781ZM203.805 31.4531L203.078 40.8516L214.609 37.7812L203.805 31.4531ZM225.93 12.1875H234.836L235.164 45H225.93V12.1875ZM239.008 12.1875L246.039 15.2109L245.008 37.0781L260.102 37.9688L261.742 45L239.008 45.2344V12.1875ZM264.742 45V12.1875L285.836 9.84375V16.875L270.648 19.2188L270.273 23.9062H285.836V29.9531L271.773 30.9375V37.3125L285.836 36.9375V43.7344L264.742 45ZM296.898 39.7734L300.648 43.5L296.898 46.3359L293.242 42.5859L296.898 39.7734ZM295.82 36.5625L292.211 24.8438V16.9453L296.898 10.7812L301.586 16.4062V26.2031L298.211 36.5625H295.82Z" fill="#C5FF5F"/>
  <path d="M18.125 85H3.32812V63.125H17.3906L23.6406 68.6406V80.3125L18.125 85ZM15.3906 80.3906L19.1875 76.5938V70.2656L7.79688 67.7344V80.3906H15.3906ZM29.4531 63.0156L38.9219 63.6094L45.2344 66.1719L46.3125 73.0312L45.7812 81.9531L38.9219 85.1094L28.9062 84.625L25.3438 77.2188V69.3281L29.4531 63.0156ZM33.6562 67.3594L29.8906 72.5938L32.0156 79.9375L37.9062 80.6719L41.6406 77L41.125 69.1719L33.6562 67.3594ZM66.9219 85H61.5469V81.875L54.3281 70.9375L53.1094 85H47.4844L49.0469 63.125H55.2969L61.5469 78.75L63.6094 63.125H67.7969L66.9219 85ZM70.0156 61.5L76.2656 61.4375L74.9219 69.2969L71.875 69.375L70.0156 61.5ZM92.9062 85H83.6875L84.3594 68.7188L78.2656 68.3125V63.125H96.7031V68.4062L90.6094 69.375L92.9062 85ZM106.281 63.8281L117.797 62.4375L123.547 68.7188L119.359 74.0625L124.047 78.75L122.484 84.0625L106.859 85L106.281 63.8281ZM111.703 71.7188L118.672 69.3281L111.188 66.125C111.312 69.8542 111.484 71.7188 111.703 71.7188ZM111.672 75.9688L111.188 82.2344L118.875 80.1875L111.672 75.9688ZM125.609 85V63.125L139.672 61.5625V66.25L129.547 67.8125L129.297 70.9375H139.672V74.9688L130.297 75.625V79.875L139.672 79.625V84.1562L125.609 85ZM149.828 63.4375H153.891L154.828 74.375L164.203 73.9062L163.203 62.9688H169.531C169.958 62.9688 170.604 70.0312 171.469 84.1562L165.766 84.3594L164.844 77.0312L154.828 77.5L155.281 84.625L150.672 85.3125L149.828 63.4375ZM193.047 85H186.797L183.672 78.75H180.547L177.422 85H172.734L178.109 63.1562L186.797 63.2031L193.047 85ZM185.234 74.9375L181.516 66.25L178.984 74.9375H185.234ZM193.984 85L196.391 63.125H201.797L206.484 72.5L212.734 63.125H218.984L218.516 85H210.469L211.172 74.625L205.938 80.7969L201.094 74.0625L198.672 85H193.984ZM233.172 70.9375H227.094L235.641 77.1875L235 84.3594L227.828 85L220.531 84.1562L223.141 78.2969L226.891 80.3125H230.312L227.828 77.1875L221.578 73.2031L221.141 67.3438L224.703 63.6094L230.953 63.7188L235.641 65.8125L233.172 70.9375ZM252.156 85H242.938L243.609 68.7188L237.516 68.3125V63.125H255.953V68.4062L249.859 69.375L252.156 85ZM257.859 85V63.125L271.922 61.5625V66.25L261.797 67.8125L261.547 70.9375H271.922V74.9688L262.547 75.625V79.875L271.922 79.625V84.1562L257.859 85ZM291.172 85H284.922L283.359 76.6094L280.672 76.5625L279.562 85H273.984L275.016 63.6719L284.922 63.125L290.625 64.6875L290.062 72.5L286.484 75.625L291.172 85ZM278.594 72.8594L283.891 72.3594L287.203 67.8906L281.812 66L278.562 66.4375L278.594 72.8594ZM298.547 81.5156L301.047 84L298.547 85.8906L296.109 83.3906L298.547 81.5156ZM297.828 79.375L295.422 71.5625V66.2969L298.547 62.1875L301.672 65.9375V72.4688L299.422 79.375H297.828Z" fill="#C5FF5F"/>
</svg>
