<svg width="280" height="436" viewBox="0 0 280 436" fill="none" xmlns="http://www.w3.org/2000/svg">
  <path d="M118.588 230.957C118.588 230.957 111.998 259.146 89.1481 262.856C66.2981 266.566 79.3681 213.697 79.3681 213.697" fill="#CD6329"/>
  <path d="M79.3681 213.707C79.3681 213.707 66.2981 266.577 89.1481 262.867C111.998 259.157 118.588 230.967 118.588 230.967" stroke="black" stroke-width="3" stroke-linecap="round" stroke-linejoin="round"/>
  <path d="M200.608 213.707C200.608 213.707 213.678 266.576 190.828 262.867C167.978 259.157 161.388 230.967 161.388 230.967" fill="#CD6329"/>
  <path d="M200.608 213.707C200.608 213.707 213.678 266.577 190.828 262.867C167.978 259.157 161.388 230.967 161.388 230.967" stroke="black" stroke-width="3" stroke-linecap="round" stroke-linejoin="round"/>
  <path d="M193.028 264.546C192.248 264.546 191.428 264.477 190.588 264.337C167.018 260.507 160.208 232.487 159.928 231.297C159.768 230.597 160.128 229.877 160.788 229.587L200.008 212.327C200.198 212.247 200.408 212.197 200.608 212.197C200.838 212.197 201.058 212.247 201.268 212.347C201.668 212.547 201.958 212.907 202.058 213.337C202.418 214.777 210.678 248.767 201.508 260.467C199.388 263.167 196.538 264.537 193.018 264.537L193.028 264.546Z" fill="#8AB242"/>
  <path d="M200.608 213.707C200.608 213.707 212.798 263.046 193.028 263.046C192.338 263.046 191.598 262.986 190.828 262.856C167.978 259.146 161.388 230.957 161.388 230.957L200.608 213.697M200.608 210.697C200.198 210.697 199.788 210.777 199.398 210.947L160.178 228.207C158.858 228.787 158.138 230.227 158.468 231.637C158.758 232.867 165.798 261.827 190.348 265.817C191.268 265.967 192.168 266.046 193.028 266.046C196.968 266.046 200.318 264.437 202.698 261.396C212.148 249.336 204.428 216.667 203.518 212.987C203.308 212.127 202.728 211.407 201.928 211.017C201.508 210.817 201.058 210.707 200.608 210.707V210.697Z" fill="black"/>
  <path d="M161.398 230.957L200.618 213.697C200.618 213.697 201.718 218.127 202.718 224.337C202.718 224.337 194.778 237.197 181.778 242.267L179.178 254.027L172.068 251.827C164.108 242.537 161.398 230.947 161.398 230.947V230.957Z" fill="#72912F"/>
  <path d="M86.9479 264.546C83.4279 264.546 80.5779 263.177 78.4579 260.477C69.2979 248.777 77.5579 214.787 77.9079 213.347C78.0179 212.917 78.3079 212.557 78.6979 212.357C78.9079 212.257 79.1379 212.207 79.3579 212.207C79.5679 212.207 79.7679 212.247 79.9579 212.337L119.178 229.597C119.838 229.887 120.198 230.607 120.038 231.307C119.758 232.497 112.948 260.517 89.3779 264.347C88.5379 264.487 87.7179 264.557 86.9379 264.557L86.9479 264.546Z" fill="#8AB242"/>
  <path d="M79.368 213.707L118.588 230.967C118.588 230.967 111.998 259.157 89.148 262.867C88.368 262.997 87.638 263.057 86.948 263.057C67.178 263.057 79.368 213.717 79.368 213.717M79.368 210.717C78.918 210.717 78.458 210.817 78.048 211.027C77.258 211.417 76.668 212.137 76.458 212.997C75.548 216.677 67.838 249.347 77.278 261.407C79.658 264.447 82.998 266.057 86.948 266.057C87.808 266.057 88.708 265.976 89.628 265.826C114.178 261.836 121.218 232.876 121.508 231.646C121.838 230.236 121.118 228.797 119.798 228.217L80.578 210.957C80.188 210.787 79.778 210.707 79.368 210.707V210.717Z" fill="black"/>
  <path d="M118.588 230.957L79.3681 213.697C79.3681 213.697 78.2681 218.127 77.2681 224.337C77.2681 224.337 85.2081 237.197 98.2081 242.267L100.808 254.027L107.918 251.827C115.878 242.537 118.588 230.947 118.588 230.947V230.957Z" fill="#72912F"/>
  <path d="M174.658 248.536C174.408 248.536 174.168 248.476 173.948 248.356L164.108 243.046C156.348 245.636 148.298 246.946 140.178 246.946C132.058 246.946 123.828 245.606 115.978 242.946L105.968 248.346C105.748 248.466 105.498 248.526 105.258 248.526C105.018 248.526 104.768 248.466 104.548 248.346C104.108 248.106 103.808 247.666 103.758 247.166L102.818 237.106C93.318 231.816 84.798 224.636 77.478 215.736H64.538C64.098 215.736 63.668 215.536 63.388 215.196C63.098 214.856 62.988 214.406 63.058 213.966L65.818 198.636L52.468 189.226C51.998 188.896 51.758 188.336 51.848 187.766C51.938 187.206 52.338 186.736 52.878 186.566L59.858 184.366C58.008 179.196 56.518 173.806 55.428 168.306L44.498 161.106C43.948 160.746 43.698 160.066 43.888 159.426L48.138 145.046L39.528 116.236C39.348 115.626 39.568 114.966 40.088 114.586L53.008 105.306L48.958 82.5565C48.868 82.0265 49.058 81.4865 49.468 81.1465C49.738 80.9165 50.088 80.7965 50.428 80.7965C50.598 80.7965 50.778 80.8265 50.948 80.8865L58.768 83.7765V62.2565C58.768 61.6465 59.138 61.0965 59.708 60.8665C59.888 60.7965 60.078 60.7565 60.268 60.7565C60.668 60.7565 61.058 60.9165 61.348 61.2165L68.768 68.9365L75.968 48.6365C76.178 48.0465 76.728 47.6465 77.358 47.6365H77.378C77.998 47.6365 78.548 48.0165 78.778 48.5965L81.748 56.2565L116.628 33.4965C116.878 33.3365 117.158 33.2565 117.448 33.2565C117.698 33.2565 117.938 33.3165 118.158 33.4365C118.638 33.6965 118.948 34.2065 118.948 34.7565V39.4465L139.338 26.0365C139.588 25.8765 139.878 25.7865 140.158 25.7865C140.438 25.7865 140.728 25.8665 140.978 26.0365L161.368 39.4465V34.7565C161.368 34.2065 161.668 33.6965 162.158 33.4365C162.378 33.3165 162.628 33.2565 162.868 33.2565C163.158 33.2565 163.438 33.3365 163.688 33.4965L198.568 56.2565L201.538 48.5965C201.758 48.0165 202.318 47.6365 202.938 47.6365H202.958C203.588 47.6365 204.138 48.0465 204.348 48.6365L211.548 68.9365L218.968 61.2165C219.258 60.9165 219.648 60.7565 220.048 60.7565C220.238 60.7565 220.428 60.7965 220.608 60.8665C221.178 61.0965 221.548 61.6465 221.548 62.2565V83.7765L229.368 80.8865C229.538 80.8265 229.718 80.7965 229.888 80.7965C230.238 80.7965 230.578 80.9165 230.848 81.1465C231.258 81.4865 231.458 82.0265 231.358 82.5565L227.308 105.306L240.228 114.586C240.748 114.956 240.978 115.616 240.788 116.236L232.168 145.106L235.078 156.226C235.218 156.766 235.048 157.336 234.648 157.706L225.248 166.376C224.118 172.586 222.488 178.676 220.398 184.516L226.978 186.596C227.518 186.766 227.918 187.236 228.008 187.796C228.098 188.356 227.858 188.926 227.388 189.256L214.248 198.516C214.188 198.626 214.128 198.736 214.078 198.846L216.808 213.996C216.888 214.436 216.768 214.886 216.478 215.226C216.198 215.566 215.768 215.766 215.328 215.766H202.828C195.388 224.816 186.708 232.086 177.028 237.396L176.118 247.196C176.068 247.696 175.778 248.146 175.328 248.376C175.108 248.496 174.868 248.556 174.618 248.556L174.658 248.536Z" fill="#8AB242"/>
  <path d="M140.188 27.2865L162.898 42.2265V34.7565L199.328 58.5265L202.968 49.1465L210.978 71.7365L220.088 62.2665V85.9465L229.928 82.3065L225.708 105.986L239.398 115.826L230.658 145.096L233.678 156.626L223.908 165.636C222.688 172.536 220.858 179.186 218.488 185.486L226.568 188.036L213.128 197.506C212.938 197.876 212.738 198.236 212.548 198.606L215.368 214.266H202.158C194.658 223.516 185.668 231.086 175.648 236.456L174.658 247.046L164.248 241.426C156.618 244.046 148.538 245.466 140.188 245.466C131.838 245.466 123.568 244.016 115.858 241.336L105.268 247.046L104.258 236.196C94.418 230.846 85.598 223.366 78.208 214.256H64.558L67.488 197.986L53.358 188.026L61.828 185.346C59.688 179.626 58.008 173.636 56.798 167.426L45.338 159.886L49.708 145.076L40.968 115.806L54.658 105.966L50.438 82.2865L60.278 85.9265V62.2465L69.388 71.7165L77.398 49.1265L81.038 58.5065L117.468 34.7365V42.2065L140.188 27.2665M140.188 24.2865C139.618 24.2865 139.038 24.4465 138.538 24.7765L120.468 36.6565V34.7565C120.468 33.6565 119.868 32.6465 118.898 32.1165C118.448 31.8765 117.958 31.7565 117.468 31.7565C116.898 31.7565 116.328 31.9165 115.828 32.2465L82.498 53.9965L80.198 48.0665C79.748 46.9165 78.638 46.1565 77.398 46.1565C77.388 46.1565 77.368 46.1565 77.358 46.1565C76.108 46.1765 74.998 46.9665 74.578 48.1565L68.188 66.1665L62.448 60.1965C61.868 59.5965 61.088 59.2765 60.288 59.2765C59.908 59.2765 59.528 59.3465 59.168 59.4965C58.028 59.9565 57.288 61.0565 57.288 62.2765V81.6465L51.498 79.4965C51.158 79.3665 50.808 79.3065 50.458 79.3065C49.768 79.3065 49.078 79.5465 48.538 80.0065C47.708 80.6965 47.318 81.7765 47.508 82.8365L51.398 104.656L39.248 113.386C38.208 114.136 37.758 115.456 38.128 116.676L46.618 145.096L42.498 159.046C42.128 160.316 42.618 161.676 43.728 162.396L54.138 169.246C55.128 174.086 56.418 178.836 57.988 183.426L52.488 185.166C51.398 185.506 50.598 186.436 50.428 187.566C50.258 188.696 50.728 189.826 51.668 190.476L64.238 199.336L61.648 213.726C61.488 214.596 61.728 215.496 62.298 216.186C62.868 216.866 63.708 217.266 64.598 217.266H76.838C83.998 225.836 92.268 232.826 101.458 238.056L102.318 247.326C102.408 248.326 102.998 249.216 103.888 249.696C104.328 249.936 104.818 250.056 105.308 250.056C105.798 250.056 106.288 249.936 106.728 249.696L116.168 244.606C123.978 247.176 132.058 248.476 140.228 248.476C148.398 248.476 156.288 247.206 164.008 244.696L173.278 249.696C173.718 249.936 174.208 250.056 174.698 250.056C175.188 250.056 175.668 249.936 176.118 249.696C177.008 249.216 177.598 248.336 177.688 247.326L178.528 238.316C187.908 233.056 196.328 225.986 203.618 217.256H215.418C216.308 217.256 217.148 216.866 217.718 216.176C218.288 215.496 218.528 214.596 218.368 213.716L215.778 199.326L228.348 190.466C229.278 189.806 229.758 188.676 229.588 187.556C229.418 186.426 228.618 185.496 227.528 185.156L222.428 183.546C224.248 178.236 225.698 172.736 226.738 167.136L235.768 158.806C236.578 158.056 236.918 156.916 236.638 155.846L233.828 145.136L242.328 116.666C242.698 115.436 242.238 114.116 241.208 113.376L229.058 104.646L232.918 82.9565C232.968 82.7465 232.988 82.5265 232.988 82.2965C232.988 80.6465 231.658 79.3065 230.008 79.2965C230.008 79.2965 229.998 79.2965 229.988 79.2965C229.948 79.2965 229.898 79.2965 229.858 79.2965C229.518 79.3065 229.188 79.3865 228.888 79.5065L223.158 81.6265V62.2565C223.158 61.0365 222.418 59.9265 221.278 59.4765C220.918 59.3265 220.538 59.2565 220.158 59.2565C219.358 59.2565 218.568 59.5765 217.998 60.1765L212.258 66.1465L205.868 48.1365C205.448 46.9565 204.338 46.1565 203.088 46.1365C203.078 46.1365 203.058 46.1365 203.048 46.1365C201.808 46.1365 200.698 46.8965 200.248 48.0465L197.948 53.9765L164.618 32.2265C164.118 31.9065 163.548 31.7365 162.978 31.7365C162.488 31.7365 161.998 31.8565 161.548 32.0965C160.578 32.6165 159.978 33.6365 159.978 34.7365V36.6365L141.908 24.7565C141.408 24.4265 140.838 24.2665 140.258 24.2665L140.188 24.2865Z" fill="black"/>
  <path d="M54.658 105.966L57.478 99.6665L50.438 82.2865L54.658 105.966Z" fill="#72912F"/>
  <path d="M225.708 105.966L220.858 98.8565L229.928 82.2865L225.708 105.966Z" fill="#72912F"/>
  <path d="M61.8281 185.346L53.3581 188.026L67.4881 197.986L64.5581 214.256H78.2081C85.5881 223.366 94.4181 230.836 104.258 236.196L105.268 247.046L115.858 241.336C123.568 244.016 131.738 245.466 140.188 245.466C148.638 245.466 156.618 244.056 164.248 241.426L174.658 247.046L175.648 236.456C185.668 231.086 194.658 223.516 202.158 214.266H215.368L212.548 198.606C212.748 198.246 212.938 197.876 213.128 197.506L226.568 188.036L218.488 185.486C220.848 179.176 222.678 172.536 223.908 165.636L233.678 156.626L220.858 161.736C220.858 161.736 219.428 178.726 213.858 188.016L219.988 189.126L211.628 194.696C211.628 194.696 194.358 222.176 172.448 230.726L171.148 236.946L161.488 234.376C161.488 234.376 153.428 237.786 140.188 237.786C126.948 237.786 118.888 234.376 118.888 234.376L109.228 236.946L107.928 230.726C86.0181 222.186 68.7481 194.696 68.7481 194.696L60.3881 189.126L66.5181 188.016C60.9481 178.736 59.5181 164.246 59.5181 164.246L45.3481 159.906L56.8081 167.446C58.0181 173.656 59.6981 179.656 61.8381 185.366L61.8281 185.346Z" fill="#72912F"/>
  <path d="M49.708 145.076L52.278 135.166L40.968 115.806L49.708 145.076Z" fill="#72912F"/>
  <path d="M230.588 145.076L228.018 135.166L239.338 115.806L230.588 145.076Z" fill="#72912F"/>
  <path d="M60.2781 85.9365L65.0281 80.2665L60.2781 62.2565V85.9365Z" fill="#72912F"/>
  <path d="M220.088 85.9365L215.328 80.2665L220.088 62.2565V85.9365Z" fill="#72912F"/>
  <path d="M81.0379 58.5165L78.0879 62.2565L77.3979 49.1365L81.0379 58.5165Z" fill="#72912F"/>
  <path d="M199.328 58.5165L202.278 62.2565L202.968 49.1365L199.328 58.5165Z" fill="#72912F"/>
  <path d="M138.938 65.0665C149.415 65.0665 157.908 62.1161 157.908 58.4765C157.908 54.8369 149.415 51.8865 138.938 51.8865C128.461 51.8865 119.968 54.8369 119.968 58.4765C119.968 62.1161 128.461 65.0665 138.938 65.0665Z" fill="#72912F"/>
  <path d="M157.908 58.4765C157.908 62.1165 149.418 65.0665 138.938 65.0665C128.458 65.0665 119.968 62.1165 119.968 58.4765" stroke="#C5FF5F" stroke-width="3" stroke-linecap="round" stroke-linejoin="round"/>
  <path d="M112.588 149.346C112.588 149.346 136.748 158.196 167.788 149.346" stroke="black" stroke-width="3" stroke-linecap="round" stroke-linejoin="round"/>
  <path d="M121.148 156.066C139.508 160.026 157.718 156.066 157.718 156.066" stroke="#72912F" stroke-width="3" stroke-linecap="round" stroke-linejoin="round"/>
  <path d="M72.3379 135.166C72.3379 135.166 80.7479 145.736 97.1179 145.236" stroke="#C5FF5F" stroke-width="3" stroke-linecap="round" stroke-linejoin="round"/>
  <path d="M207.648 135.166C207.648 135.166 199.238 145.736 182.868 145.236" stroke="#C5FF5F" stroke-width="3" stroke-linecap="round" stroke-linejoin="round"/>
  <path d="M146.258 115.806C146.258 115.806 147.728 126.536 153.558 133.096" stroke="#72912F" stroke-width="3" stroke-linecap="round" stroke-linejoin="round"/>
  <path d="M134.148 115.806C134.148 115.806 132.678 126.536 126.848 133.096" stroke="#72912F" stroke-width="3" stroke-linecap="round" stroke-linejoin="round"/>
  <path d="M76.568 184.406L97.228 178.646L94.438 191.896L75.718 184.406" fill="#72912F"/>
  <path d="M94.438 191.896L76.208 184.396L81.598 176.916" stroke="black" stroke-width="3" stroke-linecap="round" stroke-linejoin="round"/>
  <path d="M108.638 218.646L118.728 205.267L121.148 216.967L108.638 218.646Z" fill="#72912F"/>
  <path d="M121.148 216.967L108.638 218.647L107.038 208.427" stroke="black" stroke-width="3" stroke-linecap="round" stroke-linejoin="round"/>
  <path d="M119.098 192.817L128.258 182.507L129.468 192.257L119.098 192.817Z" fill="#72912F"/>
  <path d="M129.468 192.257L119.098 192.817L118.458 184.317" stroke="black" stroke-width="3" stroke-linecap="round" stroke-linejoin="round"/>
  <path d="M160.058 192.817L150.898 182.507L149.688 192.257L160.058 192.817Z" fill="#72912F"/>
  <path d="M149.688 192.257L160.058 192.817L160.698 184.317" stroke="black" stroke-width="3" stroke-linecap="round" stroke-linejoin="round"/>
  <path d="M203.798 184.406L183.148 178.646L185.938 191.896L204.658 184.406" fill="#72912F"/>
  <path d="M185.938 191.896L204.158 184.396L198.778 176.916" stroke="black" stroke-width="3" stroke-linecap="round" stroke-linejoin="round"/>
  <path d="M171.728 218.646L161.638 205.266L159.218 216.966L171.728 218.646Z" fill="#72912F"/>
  <path d="M159.218 216.966L171.728 218.646L173.338 208.426" stroke="black" stroke-width="3" stroke-linecap="round" stroke-linejoin="round"/>
  <path d="M182.438 140.936C151.158 140.936 150.368 112.986 150.358 112.706C150.358 112.256 150.548 111.816 150.898 111.526C151.388 111.116 163.258 101.466 184.898 101.466C193.198 101.466 201.878 102.916 210.708 105.766C211.288 105.956 211.698 106.476 211.738 107.086C211.788 107.726 212.778 122.836 203.568 132.736C198.518 138.176 191.398 140.926 182.428 140.926L182.438 140.936Z" fill="white"/>
  <path d="M184.898 102.967C192.238 102.967 200.708 104.117 210.248 107.197C210.248 107.197 212.598 139.426 182.438 139.426C152.278 139.426 151.858 112.677 151.858 112.677C151.858 112.677 163.548 102.967 184.898 102.967ZM184.898 99.9665C162.728 99.9665 150.458 109.947 149.948 110.367C149.248 110.947 148.848 111.817 148.868 112.717C148.868 113.027 149.028 120.267 153.248 127.547C157.178 134.337 165.428 142.417 182.448 142.417C191.858 142.417 199.338 139.497 204.688 133.747C214.328 123.377 213.298 107.627 213.248 106.967C213.158 105.747 212.338 104.707 211.178 104.327C202.198 101.427 193.358 99.9465 184.908 99.9465L184.898 99.9665Z" fill="black"/>
  <path d="M207.378 109.697C207.378 109.697 178.158 99.2965 154.768 114.527" stroke="#DBDBDB" stroke-width="3" stroke-linecap="round" stroke-linejoin="round"/>
  <path d="M97.568 140.936C88.598 140.936 81.478 138.176 76.428 132.746C67.228 122.846 68.218 107.736 68.258 107.096C68.298 106.486 68.708 105.966 69.288 105.776C78.118 102.916 86.808 101.476 95.098 101.476C116.738 101.476 128.598 111.126 129.098 111.536C129.448 111.826 129.648 112.256 129.638 112.716C129.638 112.996 128.848 140.946 97.568 140.946V140.936Z" fill="white"/>
  <path d="M95.1081 102.966C116.448 102.966 128.148 112.676 128.148 112.676C128.148 112.676 127.738 139.426 97.5681 139.426C67.3981 139.426 69.7581 107.196 69.7581 107.196C79.2981 104.116 87.7681 102.966 95.1081 102.966ZM95.1081 99.9665C86.6581 99.9665 77.8181 101.436 68.8381 104.346C67.6781 104.726 66.8581 105.766 66.7681 106.986C66.7181 107.656 65.6881 123.396 75.3281 133.766C80.6781 139.516 88.1581 142.436 97.5681 142.436C114.578 142.436 122.838 134.346 126.768 127.566C130.988 120.286 131.138 113.036 131.148 112.736C131.158 111.826 130.768 110.966 130.068 110.386C129.558 109.966 117.288 99.9865 95.1181 99.9865L95.1081 99.9665Z" fill="black"/>
  <path d="M85.34 127.056C89.9461 127.056 93.68 123.323 93.68 118.716C93.68 114.11 89.9461 110.376 85.34 110.376C80.7339 110.376 77 114.11 77 118.716C77 123.323 80.7339 127.056 85.34 127.056Z" fill="black"/>
  <path d="M194.362 126.68C198.968 126.68 202.702 122.946 202.702 118.34C202.702 113.734 198.968 110 194.362 110C189.756 110 186.022 113.734 186.022 118.34C186.022 122.946 189.756 126.68 194.362 126.68Z" fill="black"/>
  <path d="M72.3379 109.697C72.3379 109.697 101.558 99.2965 124.948 114.527" stroke="#DBDBDB" stroke-width="3" stroke-linecap="round" stroke-linejoin="round"/>
  <path d="M133.248 107.726C132.938 107.726 132.638 107.636 132.378 107.446C132.218 107.326 115.788 95.8665 91.748 95.8665C83.498 95.8665 75.228 97.2165 67.158 99.8665C67.008 99.9165 66.848 99.9465 66.688 99.9465C66.248 99.9465 65.818 99.7565 65.528 99.4065C65.138 98.9265 65.068 98.2665 65.368 97.7265L72.608 84.6565C72.758 84.3865 72.978 84.1765 73.258 84.0365L85.508 77.9865C85.718 77.8865 85.938 77.8265 86.168 77.8265C86.268 77.8265 86.368 77.8365 86.478 77.8565L126.248 86.1265C126.738 86.2265 127.148 86.5665 127.338 87.0365L128.928 91.0065L130.568 88.6665C130.858 88.2565 131.318 88.0265 131.798 88.0265C131.928 88.0265 132.058 88.0465 132.188 88.0765C132.798 88.2365 133.238 88.7665 133.288 89.3965L134.738 106.096C134.788 106.676 134.498 107.236 133.988 107.526C133.758 107.656 133.498 107.726 133.238 107.726H133.248Z" fill="#72912F"/>
  <path d="M86.178 79.3165L125.948 87.5865L128.568 94.1265L131.798 89.5265L133.238 106.226C133.238 106.226 116.588 94.3665 91.738 94.3665C84.078 94.3665 75.648 95.4965 66.678 98.4365L73.918 85.3665L86.168 79.3165M86.168 76.3165C85.708 76.3165 85.258 76.4165 84.838 76.6265L72.588 82.6765C72.038 82.9465 71.588 83.3765 71.288 83.9165L64.048 96.9865C63.448 98.0665 63.578 99.4065 64.358 100.356C64.938 101.056 65.788 101.446 66.668 101.446C66.978 101.446 67.298 101.396 67.608 101.296C75.528 98.6965 83.648 97.3765 91.738 97.3765C115.358 97.3765 131.338 108.566 131.498 108.676C132.018 109.046 132.628 109.236 133.238 109.236C133.748 109.236 134.268 109.106 134.728 108.836C135.748 108.256 136.328 107.136 136.228 105.976L134.788 89.2765C134.678 88.0165 133.798 86.9665 132.578 86.6365C132.318 86.5665 132.058 86.5365 131.798 86.5365C130.838 86.5365 129.918 86.9965 129.348 87.8165L129.298 87.8865L128.738 86.4865C128.368 85.5565 127.548 84.8665 126.568 84.6665L86.798 76.3965C86.598 76.3565 86.388 76.3365 86.188 76.3365L86.168 76.3165Z" fill="black"/>
  <path d="M133.248 106.226L131.808 89.5265L130.568 100.666C102.188 85.3665 71.438 94.1264 71.438 94.1264L73.928 85.3665L66.688 98.4365C104.758 85.9265 133.248 106.226 133.248 106.226Z" fill="#607527"/>
  <path d="M145.908 107.726C145.648 107.726 145.398 107.656 145.168 107.526C144.658 107.236 144.368 106.676 144.418 106.096L145.868 89.3965C145.918 88.7665 146.368 88.2365 146.968 88.0765C147.098 88.0365 147.228 88.0265 147.358 88.0265C147.838 88.0265 148.298 88.2565 148.588 88.6665L150.228 91.0065L151.818 87.0365C152.008 86.5665 152.408 86.2265 152.908 86.1265L192.678 77.8565C192.778 77.8365 192.878 77.8265 192.988 77.8265C193.218 77.8265 193.448 77.8765 193.648 77.9865L205.898 84.0365C206.168 84.1765 206.398 84.3865 206.548 84.6565L213.788 97.7265C214.088 98.2665 214.028 98.9365 213.628 99.4065C213.338 99.7565 212.908 99.9465 212.468 99.9465C212.308 99.9465 212.158 99.9265 211.998 99.8665C203.928 97.2165 195.648 95.8665 187.408 95.8665C163.318 95.8665 146.938 107.326 146.778 107.446C146.518 107.636 146.218 107.726 145.908 107.726Z" fill="#72912F"/>
  <path d="M192.978 79.3165L205.228 85.3665L212.468 98.4365C203.498 95.4865 195.068 94.3665 187.408 94.3665C162.558 94.3665 145.908 106.226 145.908 106.226L147.348 89.5265L150.578 94.1265L153.198 87.5865L192.968 79.3165M192.968 76.3165C192.768 76.3165 192.558 76.3365 192.358 76.3765L152.588 84.6465C151.608 84.8465 150.788 85.5365 150.418 86.4665L149.858 87.8665L149.808 87.7965C149.238 86.9865 148.318 86.5165 147.358 86.5165C147.098 86.5165 146.838 86.5465 146.578 86.6165C145.358 86.9465 144.478 87.9965 144.368 89.2565L142.928 105.956C142.828 107.126 143.408 108.236 144.428 108.816C144.888 109.076 145.408 109.216 145.918 109.216C146.528 109.216 147.138 109.026 147.658 108.656C147.818 108.546 163.908 97.3565 187.418 97.3565C195.508 97.3565 203.618 98.6765 211.548 101.276C211.858 101.376 212.168 101.426 212.488 101.426C213.368 101.426 214.218 101.036 214.798 100.336C215.588 99.3865 215.708 98.0465 215.108 96.9665L207.868 83.8965C207.568 83.3665 207.118 82.9265 206.568 82.6565L194.318 76.6065C193.898 76.3965 193.448 76.2965 192.988 76.2965L192.968 76.3165Z" fill="black"/>
  <path d="M145.908 106.226L147.348 89.5265L148.588 100.666C176.968 85.3665 207.718 94.1265 207.718 94.1265L205.228 85.3665L212.468 98.4365C174.398 85.9265 145.908 106.226 145.908 106.226Z" fill="#607527"/>
  <path d="M131.498 57.2865C131.498 57.2865 118.108 31.8665 130.088 4.38648C130.088 4.38648 149.038 -4.91352 155.268 14.3065C155.268 14.3065 138.768 31.0465 146.828 57.2865C146.828 57.2865 138.888 61.5565 131.498 57.2865Z" fill="#725126" stroke="black" stroke-width="3" stroke-linecap="round" stroke-linejoin="round"/>
  <path d="M130.088 4.38648C130.088 4.38648 134.878 22.0165 155.268 14.3065C155.268 14.3065 150.938 -4.50352 130.088 4.38648Z" fill="#A87B45" stroke="black" stroke-width="3" stroke-linecap="round" stroke-linejoin="round"/>
  <path d="M141.488 54.1265C141.488 54.1265 135.728 37.2865 145.908 20.4565" stroke="#351B00" stroke-width="3" stroke-linecap="round" stroke-linejoin="round"/>
  <path d="M250.996 408.315L150.604 419.753L26.546 408.315L18.7197 281.955L26.546 183.866L139.247 173.883L250.996 183.866L260.905 322.38L250.996 408.315Z" fill="#636363"/>
  <path d="M11.6743 177.3L26.546 183.865L139.247 173.883L250.995 183.865L265.745 177.3L139.247 166L11.6743 177.3Z" fill="#7C7C7C"/>
  <path d="M11.6744 177.3L26.546 183.866L18.7197 281.955L0 276.821L11.6744 177.3Z" fill="#9F9F9F"/>
  <path d="M0 276.821L18.7197 281.955L26.546 408.315L11.6744 423.105L0 276.821Z" fill="#7C7C7C"/>
  <path d="M11.6743 423.105L151.515 436L265.745 423.105L250.995 408.315L150.604 419.753L26.546 408.315L11.6743 423.105Z" fill="#3F3F3F"/>
  <path d="M151.515 436L150.604 419.753L250.995 408.315L265.745 423.105L151.515 436Z" fill="#252525"/>
  <path d="M250.996 183.866L265.745 177.3L279.559 327.156L265.745 423.105L250.996 408.315L260.905 320.574L250.996 183.866Z" fill="#3F3F3F"/>
  <path d="M26.546 408.315L18.7197 281.955L26.546 183.866L139.247 173.883L31.2728 188.055L22.5434 281.955L26.546 408.315Z" fill="#9F9F9F"/>
  <path d="M150.604 419.753L247.017 406.151L258.374 320.297L250.995 183.866L260.904 320.574L250.995 408.315L150.604 419.753Z" fill="#9F9F9F"/>
  <path d="M128.419 202.951H120.91V210.46H128.419V202.951Z" fill="black"/>
  <path d="M165.972 202.951H158.463V210.46H165.972V202.951Z" fill="black"/>
  <path d="M113.4 210.46H105.891V217.969H113.4V210.46Z" fill="black"/>
  <path d="M120.909 210.46H113.4V217.969H120.909V210.46Z" fill="black"/>
  <path d="M128.419 210.46H120.91V217.969H128.419V210.46Z" fill="black"/>
  <path d="M150.954 210.46H143.445V217.969H150.954V210.46Z" fill="black"/>
  <path d="M158.463 210.46H150.954V217.969H158.463V210.46Z" fill="black"/>
  <path d="M173.481 210.46H165.972V217.969H173.481V210.46Z" fill="black"/>
  <path d="M113.4 217.969H105.891V225.478H113.4V217.969Z" fill="black"/>
  <path d="M165.972 217.969H158.463V225.478H165.972V217.969Z" fill="black"/>
  <path d="M173.481 217.969H165.972V225.478H173.481V217.969Z" fill="black"/>
  <path d="M120.909 225.478H113.4V232.987H120.909V225.478Z" fill="black"/>
  <path d="M143.437 225.478H135.927V232.987H143.437V225.478Z" fill="black"/>
  <path d="M165.972 225.478H158.463V232.987H165.972V225.478Z" fill="black"/>
  <path d="M173.481 225.478H165.972V232.987H173.481V225.478Z" fill="black"/>
  <path d="M113.4 232.987H105.891V240.496H113.4V232.987Z" fill="black"/>
  <path d="M120.909 232.987H113.4V240.496H120.909V232.987Z" fill="black"/>
  <path d="M128.419 232.987H120.91V240.496H128.419V232.987Z" fill="black"/>
  <path d="M143.437 232.987H135.927V240.496H143.437V232.987Z" fill="black"/>
  <path d="M150.954 232.987H143.445V240.496H150.954V232.987Z" fill="black"/>
  <path d="M158.463 232.987H150.954V240.496H158.463V232.987Z" fill="black"/>
  <path d="M173.481 232.987H165.972V240.496H173.481V232.987Z" fill="black"/>
  <path d="M113.4 240.496H105.891V248.006H113.4V240.496Z" fill="black"/>
  <path d="M128.419 240.496H120.91V248.006H128.419V240.496Z" fill="black"/>
  <path d="M143.437 240.496H135.927V248.006H143.437V240.496Z" fill="black"/>
  <path d="M165.972 240.496H158.463V248.006H165.972V240.496Z" fill="black"/>
  <path d="M113.4 248.006H105.891V255.515H113.4V248.006Z" fill="black"/>
  <path d="M128.419 248.006H120.91V255.515H128.419V248.006Z" fill="black"/>
  <path d="M143.437 248.006H135.927V255.515H143.437V248.006Z" fill="black"/>
  <path d="M158.463 248.006H150.954V255.515H158.463V248.006Z" fill="black"/>
  <path d="M173.481 248.006H165.972V255.515H173.481V248.006Z" fill="black"/>
  <path d="M113.4 255.515H105.891V263.024H113.4V255.515Z" fill="black"/>
  <path d="M128.419 255.515H120.91V263.024H128.419V255.515Z" fill="black"/>
  <path d="M135.928 255.515H128.419V263.024H135.928V255.515Z" fill="black"/>
  <path d="M53.3201 263.024H45.811V270.533H53.3201V263.024Z" fill="black"/>
  <path d="M60.8372 263.024H53.3281V270.533H60.8372V263.024Z" fill="black"/>
  <path d="M75.8552 263.024H68.3462V270.533H75.8552V263.024Z" fill="black"/>
  <path d="M98.3823 263.024H90.8733V270.533H98.3823V263.024Z" fill="black"/>
  <path d="M105.891 263.024H98.3823V270.533H105.891V263.024Z" fill="black"/>
  <path d="M135.928 263.024H128.419V270.533H135.928V263.024Z" fill="black"/>
  <path d="M143.437 263.024H135.927V270.533H143.437V263.024Z" fill="black"/>
  <path d="M150.954 263.024H143.445V270.533H150.954V263.024Z" fill="black"/>
  <path d="M158.463 263.024H150.954V270.533H158.463V263.024Z" fill="black"/>
  <path d="M173.481 263.024H165.972V270.533H173.481V263.024Z" fill="black"/>
  <path d="M188.499 263.024H180.99V270.533H188.499V263.024Z" fill="black"/>
  <path d="M196.008 263.024H188.499V270.533H196.008V263.024Z" fill="black"/>
  <path d="M203.517 263.024H196.008V270.533H203.517V263.024Z" fill="black"/>
  <path d="M218.535 263.024H211.026V270.533H218.535V263.024Z" fill="black"/>
  <path d="M226.044 263.024H218.535V270.533H226.044V263.024Z" fill="black"/>
  <path d="M53.3201 270.533H45.811V278.042H53.3201V270.533Z" fill="black"/>
  <path d="M68.3462 270.533H60.8372V278.042H68.3462V270.533Z" fill="black"/>
  <path d="M75.8552 270.533H68.3462V278.042H75.8552V270.533Z" fill="black"/>
  <path d="M90.8735 270.533H83.3645V278.042H90.8735V270.533Z" fill="black"/>
  <path d="M120.909 270.533H113.4V278.042H120.909V270.533Z" fill="black"/>
  <path d="M135.928 270.533H128.419V278.042H135.928V270.533Z" fill="black"/>
  <path d="M143.437 270.533H135.927V278.042H143.437V270.533Z" fill="black"/>
  <path d="M150.954 270.533H143.445V278.042H150.954V270.533Z" fill="black"/>
  <path d="M165.972 270.533H158.463V278.042H165.972V270.533Z" fill="black"/>
  <path d="M173.481 270.533H165.972V278.042H173.481V270.533Z" fill="black"/>
  <path d="M188.499 270.533H180.99V278.042H188.499V270.533Z" fill="black"/>
  <path d="M203.517 270.533H196.008V278.042H203.517V270.533Z" fill="black"/>
  <path d="M226.044 270.533H218.535V278.042H226.044V270.533Z" fill="black"/>
  <path d="M53.3201 278.042H45.811V285.551H53.3201V278.042Z" fill="black"/>
  <path d="M68.3462 278.042H60.8372V285.551H68.3462V278.042Z" fill="black"/>
  <path d="M75.8552 278.042H68.3462V285.551H75.8552V278.042Z" fill="black"/>
  <path d="M83.3643 278.042H75.8552V285.551H83.3643V278.042Z" fill="black"/>
  <path d="M90.8735 278.042H83.3645V285.551H90.8735V278.042Z" fill="black"/>
  <path d="M98.3823 278.042H90.8733V285.551H98.3823V278.042Z" fill="black"/>
  <path d="M105.891 278.042H98.3823V285.551H105.891V278.042Z" fill="black"/>
  <path d="M113.4 278.042H105.891V285.551H113.4V278.042Z" fill="black"/>
  <path d="M135.928 278.042H128.419V285.551H135.928V278.042Z" fill="black"/>
  <path d="M143.437 278.042H135.927V285.551H143.437V278.042Z" fill="black"/>
  <path d="M150.954 278.042H143.445V285.551H150.954V278.042Z" fill="black"/>
  <path d="M180.99 278.042H173.481V285.551H180.99V278.042Z" fill="black"/>
  <path d="M188.499 278.042H180.99V285.551H188.499V278.042Z" fill="black"/>
  <path d="M196.008 278.042H188.499V285.551H196.008V278.042Z" fill="black"/>
  <path d="M211.026 278.042H203.517V285.551H211.026V278.042Z" fill="black"/>
  <path d="M218.535 278.042H211.026V285.551H218.535V278.042Z" fill="black"/>
  <path d="M53.3201 285.559H45.811V293.068H53.3201V285.559Z" fill="black"/>
  <path d="M60.8372 285.559H53.3281V293.068H60.8372V285.559Z" fill="black"/>
  <path d="M83.3643 285.559H75.8552V293.068H83.3643V285.559Z" fill="black"/>
  <path d="M120.909 285.559H113.4V293.068H120.909V285.559Z" fill="black"/>
  <path d="M128.419 285.559H120.91V293.068H128.419V285.559Z" fill="black"/>
  <path d="M135.928 285.559H128.419V293.068H135.928V285.559Z" fill="black"/>
  <path d="M143.437 285.559H135.927V293.068H143.437V285.559Z" fill="black"/>
  <path d="M150.954 285.559H143.445V293.068H150.954V285.559Z" fill="black"/>
  <path d="M158.463 285.559H150.954V293.068H158.463V285.559Z" fill="black"/>
  <path d="M173.481 285.559H165.972V293.068H173.481V285.559Z" fill="black"/>
  <path d="M180.99 285.559H173.481V293.068H180.99V285.559Z" fill="black"/>
  <path d="M188.499 285.559H180.99V293.068H188.499V285.559Z" fill="black"/>
  <path d="M196.008 285.559H188.499V293.068H196.008V285.559Z" fill="black"/>
  <path d="M203.517 285.559H196.008V293.068H203.517V285.559Z" fill="black"/>
  <path d="M233.553 285.559H226.044V293.068H233.553V285.559Z" fill="black"/>
  <path d="M75.8552 293.068H68.3462V300.577H75.8552V293.068Z" fill="black"/>
  <path d="M83.3643 293.068H75.8552V300.577H83.3643V293.068Z" fill="black"/>
  <path d="M98.3823 293.068H90.8733V300.577H98.3823V293.068Z" fill="black"/>
  <path d="M105.891 293.068H98.3823V300.577H105.891V293.068Z" fill="black"/>
  <path d="M113.4 293.068H105.891V300.577H113.4V293.068Z" fill="black"/>
  <path d="M128.419 293.068H120.91V300.577H128.419V293.068Z" fill="black"/>
  <path d="M135.928 293.068H128.419V300.577H135.928V293.068Z" fill="black"/>
  <path d="M150.954 293.068H143.445V300.577H150.954V293.068Z" fill="black"/>
  <path d="M173.481 293.068H165.972V300.577H173.481V293.068Z" fill="black"/>
  <path d="M188.499 293.068H180.99V300.577H188.499V293.068Z" fill="black"/>
  <path d="M196.008 293.068H188.499V300.577H196.008V293.068Z" fill="black"/>
  <path d="M218.535 293.068H211.026V300.577H218.535V293.068Z" fill="black"/>
  <path d="M226.044 293.068H218.535V300.577H226.044V293.068Z" fill="black"/>
  <path d="M233.553 293.068H226.044V300.577H233.553V293.068Z" fill="black"/>
  <path d="M60.8372 300.577H53.3281V308.086H60.8372V300.577Z" fill="black"/>
  <path d="M83.3643 300.577H75.8552V308.086H83.3643V300.577Z" fill="black"/>
  <path d="M90.8735 300.577H83.3645V308.086H90.8735V300.577Z" fill="black"/>
  <path d="M120.909 300.577H113.4V308.086H120.909V300.577Z" fill="black"/>
  <path d="M135.928 300.577H128.419V308.086H135.928V300.577Z" fill="black"/>
  <path d="M158.463 300.577H150.954V308.086H158.463V300.577Z" fill="black"/>
  <path d="M196.008 300.577H188.499V308.086H196.008V300.577Z" fill="black"/>
  <path d="M203.517 300.577H196.008V308.086H203.517V300.577Z" fill="black"/>
  <path d="M218.535 300.577H211.026V308.086H218.535V300.577Z" fill="black"/>
  <path d="M226.044 300.577H218.535V308.086H226.044V300.577Z" fill="black"/>
  <path d="M233.553 300.577H226.044V308.086H233.553V300.577Z" fill="black"/>
  <path d="M53.3201 308.086H45.811V315.595H53.3201V308.086Z" fill="black"/>
  <path d="M83.3643 308.086H75.8552V315.595H83.3643V308.086Z" fill="black"/>
  <path d="M90.8735 308.086H83.3645V315.595H90.8735V308.086Z" fill="black"/>
  <path d="M98.3823 308.086H90.8733V315.595H98.3823V308.086Z" fill="black"/>
  <path d="M105.891 308.086H98.3823V315.595H105.891V308.086Z" fill="black"/>
  <path d="M113.4 308.086H105.891V315.595H113.4V308.086Z" fill="black"/>
  <path d="M120.909 308.086H113.4V315.595H120.909V308.086Z" fill="black"/>
  <path d="M135.928 308.086H128.419V315.595H135.928V308.086Z" fill="black"/>
  <path d="M150.954 308.086H143.445V315.595H150.954V308.086Z" fill="black"/>
  <path d="M158.463 308.086H150.954V315.595H158.463V308.086Z" fill="black"/>
  <path d="M165.972 308.086H158.463V315.595H165.972V308.086Z" fill="black"/>
  <path d="M173.481 308.086H165.972V315.595H173.481V308.086Z" fill="black"/>
  <path d="M188.499 308.086H180.99V315.595H188.499V308.086Z" fill="black"/>
  <path d="M203.517 308.086H196.008V315.595H203.517V308.086Z" fill="black"/>
  <path d="M211.026 308.086H203.517V315.595H211.026V308.086Z" fill="black"/>
  <path d="M233.553 308.086H226.044V315.595H233.553V308.086Z" fill="black"/>
  <path d="M60.8372 315.595H53.3281V323.104H60.8372V315.595Z" fill="black"/>
  <path d="M135.928 315.595H128.419V323.104H135.928V315.595Z" fill="black"/>
  <path d="M150.954 315.595H143.445V323.104H150.954V315.595Z" fill="black"/>
  <path d="M158.463 315.595H150.954V323.104H158.463V315.595Z" fill="black"/>
  <path d="M188.499 315.595H180.99V323.104H188.499V315.595Z" fill="black"/>
  <path d="M196.008 315.595H188.499V323.104H196.008V315.595Z" fill="black"/>
  <path d="M53.3201 323.104H45.811V330.613H53.3201V323.104Z" fill="black"/>
  <path d="M60.8372 323.104H53.3281V330.613H60.8372V323.104Z" fill="black"/>
  <path d="M68.3462 323.104H60.8372V330.613H68.3462V323.104Z" fill="black"/>
  <path d="M75.8552 323.104H68.3462V330.613H75.8552V323.104Z" fill="black"/>
  <path d="M83.3643 323.104H75.8552V330.613H83.3643V323.104Z" fill="black"/>
  <path d="M98.3823 323.104H90.8733V330.613H98.3823V323.104Z" fill="black"/>
  <path d="M120.909 323.104H113.4V330.613H120.909V323.104Z" fill="black"/>
  <path d="M128.419 323.104H120.91V330.613H128.419V323.104Z" fill="black"/>
  <path d="M143.437 323.104H135.927V330.613H143.437V323.104Z" fill="black"/>
  <path d="M158.463 323.104H150.954V330.613H158.463V323.104Z" fill="black"/>
  <path d="M173.481 323.104H165.972V330.613H173.481V323.104Z" fill="black"/>
  <path d="M180.99 323.104H173.481V330.613H180.99V323.104Z" fill="black"/>
  <path d="M188.499 323.104H180.99V330.613H188.499V323.104Z" fill="black"/>
  <path d="M196.008 323.104H188.499V330.613H196.008V323.104Z" fill="black"/>
  <path d="M203.517 323.104H196.008V330.613H203.517V323.104Z" fill="black"/>
  <path d="M233.553 323.104H226.044V330.613H233.553V323.104Z" fill="black"/>
  <path d="M113.4 330.613H105.891V338.122H113.4V330.613Z" fill="black"/>
  <path d="M143.437 330.613H135.927V338.122H143.437V330.613Z" fill="black"/>
  <path d="M150.954 330.613H143.445V338.122H150.954V330.613Z" fill="black"/>
  <path d="M173.481 330.613H165.972V338.122H173.481V330.613Z" fill="black"/>
  <path d="M203.517 330.613H196.008V338.122H203.517V330.613Z" fill="black"/>
  <path d="M113.4 338.122H105.891V345.631H113.4V338.122Z" fill="black"/>
  <path d="M120.909 338.122H113.4V345.631H120.909V338.122Z" fill="black"/>
  <path d="M135.928 338.122H128.419V345.631H135.928V338.122Z" fill="black"/>
  <path d="M143.437 338.122H135.927V345.631H143.437V338.122Z" fill="black"/>
  <path d="M150.954 338.122H143.445V345.631H150.954V338.122Z" fill="black"/>
  <path d="M165.972 338.122H158.463V345.631H165.972V338.122Z" fill="black"/>
  <path d="M173.481 338.122H165.972V345.631H173.481V338.122Z" fill="black"/>
  <path d="M188.499 338.122H180.99V345.631H188.499V338.122Z" fill="black"/>
  <path d="M203.517 338.122H196.008V345.631H203.517V338.122Z" fill="black"/>
  <path d="M211.026 338.122H203.517V345.631H211.026V338.122Z" fill="black"/>
  <path d="M226.044 338.122H218.535V345.631H226.044V338.122Z" fill="black"/>
  <path d="M233.553 338.122H226.044V345.631H233.553V338.122Z" fill="black"/>
  <path d="M128.419 345.631H120.91V353.14H128.419V345.631Z" fill="black"/>
  <path d="M143.437 345.631H135.927V353.14H143.437V345.631Z" fill="black"/>
  <path d="M150.954 345.631H143.445V353.14H150.954V345.631Z" fill="black"/>
  <path d="M158.463 345.631H150.954V353.14H158.463V345.631Z" fill="black"/>
  <path d="M173.481 345.631H165.972V353.14H173.481V345.631Z" fill="black"/>
  <path d="M203.517 345.631H196.008V353.14H203.517V345.631Z" fill="black"/>
  <path d="M211.026 345.631H203.517V353.14H211.026V345.631Z" fill="black"/>
  <path d="M218.535 345.631H211.026V353.14H218.535V345.631Z" fill="black"/>
  <path d="M226.044 345.631H218.535V353.14H226.044V345.631Z" fill="black"/>
  <path d="M233.553 345.631H226.044V353.14H233.553V345.631Z" fill="black"/>
  <path d="M143.437 353.14H135.927V360.649H143.437V353.14Z" fill="black"/>
  <path d="M165.972 353.14H158.463V360.649H165.972V353.14Z" fill="black"/>
  <path d="M173.481 353.14H165.972V360.649H173.481V353.14Z" fill="black"/>
  <path d="M180.99 353.14H173.481V360.649H180.99V353.14Z" fill="black"/>
  <path d="M188.499 353.14H180.99V360.649H188.499V353.14Z" fill="black"/>
  <path d="M196.008 353.14H188.499V360.649H196.008V353.14Z" fill="black"/>
  <path d="M203.517 353.14H196.008V360.649H203.517V353.14Z" fill="black"/>
  <path d="M218.535 353.14H211.026V360.649H218.535V353.14Z" fill="black"/>
  <path d="M226.044 353.14H218.535V360.649H226.044V353.14Z" fill="black"/>
  <path d="M113.4 360.649H105.891V368.158H113.4V360.649Z" fill="black"/>
  <path d="M120.909 360.649H113.4V368.158H120.909V360.649Z" fill="black"/>
  <path d="M128.419 360.649H120.91V368.158H128.419V360.649Z" fill="black"/>
  <path d="M135.928 360.649H128.419V368.158H135.928V360.649Z" fill="black"/>
  <path d="M150.954 360.649H143.445V368.158H150.954V360.649Z" fill="black"/>
  <path d="M158.463 360.649H150.954V368.158H158.463V360.649Z" fill="black"/>
  <path d="M165.972 360.649H158.463V368.158H165.972V360.649Z" fill="black"/>
  <path d="M173.481 360.649H165.972V368.158H173.481V360.649Z" fill="black"/>
  <path d="M180.99 360.649H173.481V368.158H180.99V360.649Z" fill="black"/>
  <path d="M196.008 360.649H188.499V368.158H196.008V360.649Z" fill="black"/>
  <path d="M203.517 360.649H196.008V368.158H203.517V360.649Z" fill="black"/>
  <path d="M128.419 368.158H120.91V375.667H128.419V368.158Z" fill="black"/>
  <path d="M143.437 368.158H135.927V375.667H143.437V368.158Z" fill="black"/>
  <path d="M150.954 368.158H143.445V375.667H150.954V368.158Z" fill="black"/>
  <path d="M165.972 368.158H158.463V375.667H165.972V368.158Z" fill="black"/>
  <path d="M196.008 368.158H188.499V375.667H196.008V368.158Z" fill="black"/>
  <path d="M211.026 368.158H203.517V375.667H211.026V368.158Z" fill="black"/>
  <path d="M218.535 368.158H211.026V375.667H218.535V368.158Z" fill="black"/>
  <path d="M233.553 368.158H226.044V375.667H233.553V368.158Z" fill="black"/>
  <path d="M113.4 375.675H105.891V383.184H113.4V375.675Z" fill="black"/>
  <path d="M120.909 375.675H113.4V383.184H120.909V375.675Z" fill="black"/>
  <path d="M158.463 375.675H150.954V383.184H158.463V375.675Z" fill="black"/>
  <path d="M173.481 375.675H165.972V383.184H173.481V375.675Z" fill="black"/>
  <path d="M180.99 375.675H173.481V383.184H180.99V375.675Z" fill="black"/>
  <path d="M211.026 375.675H203.517V383.184H211.026V375.675Z" fill="black"/>
  <path d="M226.044 375.675H218.535V383.184H226.044V375.675Z" fill="black"/>
  <path d="M233.553 375.675H226.044V383.184H233.553V375.675Z" fill="black"/>
  <path d="M113.4 383.184H105.891V390.694H113.4V383.184Z" fill="black"/>
  <path d="M120.909 383.184H113.4V390.694H120.909V383.184Z" fill="black"/>
  <path d="M143.437 383.184H135.927V390.694H143.437V383.184Z" fill="black"/>
  <path d="M173.481 383.184H165.972V390.694H173.481V383.184Z" fill="black"/>
  <path d="M203.517 383.184H196.008V390.694H203.517V383.184Z" fill="black"/>
  <path d="M211.026 383.184H203.517V390.694H211.026V383.184Z" fill="black"/>
  <path d="M226.044 383.184H218.535V390.694H226.044V383.184Z" fill="black"/>
  <path d="M233.553 383.184H226.044V390.694H233.553V383.184Z" fill="black"/>
  <path d="M90.9466 202.951H45.8923V255.523H98.4637V202.951H90.9547H90.9466ZM90.9466 217.969V248.006H53.4014V210.46H90.9466V217.969Z" fill="black"/>
  <path d="M75.8552 217.969H68.3462H60.8372V225.478V232.987V240.496H68.3462H75.8552H83.3643V232.987V225.478V217.969H75.8552Z" fill="black"/>
  <path d="M226.126 202.951H181.071V255.523H233.643V202.951H226.134H226.126ZM226.126 217.969V248.006H188.58V210.46H226.126V217.969Z" fill="black"/>
  <path d="M211.026 217.969H203.517H196.008V225.478V232.987V240.496H203.517H211.026H218.535V232.987V225.478V217.969H211.026Z" fill="black"/>
  <path d="M90.9466 338.122H45.8923V390.694H98.4637V338.122H90.9547H90.9466ZM90.9466 353.14V383.176H53.4014V345.631H90.9466V353.14Z" fill="black"/>
  <path d="M75.8552 353.14H68.3462H60.8372V360.649V368.158V375.675H68.3462H75.8552H83.3643V368.158V360.649V353.14H75.8552Z" fill="black"/>
  <path d="M61.7808 427.726L75.8551 412.863L77.4985 396.608L90.8732 414.246L89.0915 430.24L61.7808 427.726Z" fill="#252525"/>
  <path d="M77.4985 396.608L89.1323 414.742L87.3343 430.085L89.0916 430.24L90.8732 414.246L77.4985 396.608Z" fill="#9F9F9F"/>
  <path d="M276.362 349.39L257.341 328.067L249.002 330.613L241.941 328.067L246.928 336.991L256.015 338.122L273.547 368.923L276.362 349.39Z" fill="#252525"/>
  <path d="M241.941 328.067L249.002 329.442L257.593 326.187L276.655 347.372L276.362 349.39L257.341 328.067L249.002 330.613L241.941 328.067Z" fill="#9F9F9F"/>
  <path d="M96.5762 169.783L109.65 177.772L105.24 193.042L123.114 175.315L120.909 167.627L96.5762 169.783Z" fill="#252525"/>
  <path d="M119.705 167.733L120.535 175.543L105.24 193.042L123.114 175.315L120.909 167.627L119.705 167.733Z" fill="#9F9F9F"/>
  <path d="M89.3177 192.116C68.5877 192.116 35.1277 184.786 33.5877 165.106C33.3077 161.566 33.2977 152.646 39.2277 146.236C43.2377 141.896 49.0977 139.706 56.6477 139.706C62.7077 139.706 69.9377 141.146 78.1277 143.986C98.1477 150.916 110.198 159.606 113.948 169.806C116.488 176.706 114.488 182.436 112.368 186.026C109.128 191.516 95.1677 192.116 89.3177 192.116Z" fill="#8AB242"/>
  <path d="M56.6477 141.206C62.1777 141.206 69.0677 142.436 77.6377 145.396C114.418 158.126 117.248 174.806 111.088 185.266C109.048 188.726 100.248 190.616 89.3277 190.616C67.2577 190.616 36.4977 182.926 35.0877 164.986C34.4877 157.346 36.5977 141.206 56.6477 141.206ZM56.6477 138.206C48.6577 138.206 42.4277 140.566 38.1277 145.226C31.7977 152.066 31.7977 161.486 32.0977 165.226C33.7377 186.056 67.2177 193.616 89.3277 193.616C96.9177 193.616 110.178 192.726 113.678 186.786C116.908 181.306 117.508 175.096 115.368 169.286C111.448 158.636 99.0877 149.646 78.6277 142.566C70.2677 139.676 62.8777 138.206 56.6577 138.206H56.6477Z" fill="black"/>
  <path d="M39.8176 162.096C39.8176 162.096 34.9976 181.366 85.0976 186.276" stroke="#72912F" stroke-width="3" stroke-linecap="round" stroke-linejoin="round"/>
  <path d="M191.137 192.116C185.287 192.116 171.317 191.526 168.087 186.026C165.967 182.436 163.977 176.696 166.507 169.806C170.257 159.596 182.317 150.916 202.337 143.986C210.537 141.146 217.767 139.706 223.817 139.706C231.367 139.706 237.227 141.906 241.237 146.246C247.157 152.656 247.147 161.576 246.867 165.116C245.317 184.786 211.857 192.126 191.137 192.126V192.116Z" fill="#8AB242"/>
  <path d="M223.808 141.206C243.868 141.206 245.968 157.346 245.368 164.986C243.958 182.916 213.198 190.616 191.128 190.616C180.198 190.616 171.408 188.726 169.368 185.266C163.198 174.806 166.038 158.126 202.818 145.396C211.388 142.426 218.288 141.206 223.808 141.206ZM223.808 138.206C217.578 138.206 210.188 139.676 201.838 142.566C181.378 149.646 169.008 158.636 165.098 169.286C162.958 175.096 163.558 181.316 166.788 186.786C170.288 192.726 183.548 193.616 191.138 193.616C213.248 193.616 246.728 186.056 248.368 165.226C248.658 161.496 248.658 152.066 242.338 145.226C238.038 140.566 231.798 138.206 223.818 138.206H223.808Z" fill="black"/>
  <path d="M240.648 162.096C240.648 162.096 245.468 181.366 195.368 186.276" stroke="#72912F" stroke-width="3" stroke-linecap="round" stroke-linejoin="round"/>
</svg>
