<svg width="63" height="32" viewBox="0 0 63 32" fill="none" xmlns="http://www.w3.org/2000/svg">
<mask id="path-1-outside-1_1523_2266" maskUnits="userSpaceOnUse" x="-3" y="-3" width="69" height="38" fill="black">
<rect fill="white" x="-3" y="-3" width="69" height="38"/>
<path d="M1.496 2.688H28.664V6.304H1.496V2.688ZM0.44 14.144H29.592V17.824H0.44V14.144ZM19 4.8H23V30.912H19V4.8ZM7.704 4.8H11.64V13.216C11.64 19.392 10.84 26.4 3.48 31.04C2.776 30.144 1.336 28.8 0.344 28.16C6.968 24.16 7.704 18.4 7.704 13.216V4.8ZM48.536 26.176H58.744V29.632H48.536V26.176ZM46.616 17.472H60.792V30.752H56.984V20.928H50.264V30.88H46.616V17.472ZM44.568 11.392C48.376 11.232 54.168 10.912 59.608 10.56L59.576 13.984C54.424 14.4 48.92 14.816 44.952 15.104L44.568 11.392ZM54.648 7.36L57.688 5.824C59.704 8.512 61.816 12.096 62.584 14.528L59.256 16.288C58.584 13.888 56.6 10.176 54.648 7.36ZM50.136 0.799999L54.392 1.6C53.08 5.696 51.352 10.368 49.912 13.376L46.68 12.544C47.992 9.376 49.432 4.448 50.136 0.799999ZM32.216 7.2H42.584V10.752H32.216V7.2ZM36.536 0.799999L40.152 1.216C38.808 8 36.824 16.608 35.256 22.368L32.12 20.672C33.592 15.648 35.448 7.168 36.536 0.799999ZM34.04 20.192L36.12 17.504C39.48 19.584 43.704 22.688 45.56 25.088L43.256 28.16C41.464 25.76 37.4 22.4 34.04 20.192ZM41.176 7.2H41.816L42.488 7.104L44.76 7.52C44.024 20 40.952 27.072 34.584 31.008C34.072 30.08 33.048 28.672 32.28 27.936C37.72 25.088 40.568 18.016 41.176 7.904V7.2Z"/>
</mask>
<path d="M1.496 2.688H28.664V6.304H1.496V2.688ZM0.44 14.144H29.592V17.824H0.44V14.144ZM19 4.8H23V30.912H19V4.8ZM7.704 4.8H11.64V13.216C11.64 19.392 10.84 26.4 3.48 31.04C2.776 30.144 1.336 28.8 0.344 28.16C6.968 24.16 7.704 18.4 7.704 13.216V4.8ZM48.536 26.176H58.744V29.632H48.536V26.176ZM46.616 17.472H60.792V30.752H56.984V20.928H50.264V30.88H46.616V17.472ZM44.568 11.392C48.376 11.232 54.168 10.912 59.608 10.56L59.576 13.984C54.424 14.4 48.92 14.816 44.952 15.104L44.568 11.392ZM54.648 7.36L57.688 5.824C59.704 8.512 61.816 12.096 62.584 14.528L59.256 16.288C58.584 13.888 56.6 10.176 54.648 7.36ZM50.136 0.799999L54.392 1.6C53.08 5.696 51.352 10.368 49.912 13.376L46.68 12.544C47.992 9.376 49.432 4.448 50.136 0.799999ZM32.216 7.2H42.584V10.752H32.216V7.2ZM36.536 0.799999L40.152 1.216C38.808 8 36.824 16.608 35.256 22.368L32.12 20.672C33.592 15.648 35.448 7.168 36.536 0.799999ZM34.04 20.192L36.12 17.504C39.48 19.584 43.704 22.688 45.56 25.088L43.256 28.16C41.464 25.76 37.4 22.4 34.04 20.192ZM41.176 7.2H41.816L42.488 7.104L44.76 7.52C44.024 20 40.952 27.072 34.584 31.008C34.072 30.08 33.048 28.672 32.28 27.936C37.72 25.088 40.568 18.016 41.176 7.904V7.2Z" fill="white"/>
<path d="M1.496 2.688V-0.312C-0.160854 -0.312 -1.504 1.03115 -1.504 2.688H1.496ZM28.664 2.688H31.664C31.664 1.03115 30.3209 -0.312 28.664 -0.312V2.688ZM28.664 6.304V9.304C30.3209 9.304 31.664 7.96085 31.664 6.304H28.664ZM1.496 6.304H-1.504C-1.504 7.96085 -0.160854 9.304 1.496 9.304V6.304ZM0.44 14.144V11.144C-1.21685 11.144 -2.56 12.4871 -2.56 14.144H0.44ZM29.592 14.144H32.592C32.592 12.4871 31.2489 11.144 29.592 11.144V14.144ZM29.592 17.824V20.824C31.2489 20.824 32.592 19.4809 32.592 17.824H29.592ZM0.44 17.824H-2.56C-2.56 19.4809 -1.21685 20.824 0.44 20.824V17.824ZM19 4.8V1.8C17.3431 1.8 16 3.14315 16 4.8H19ZM23 4.8H26C26 3.14315 24.6569 1.8 23 1.8V4.8ZM23 30.912V33.912C24.6569 33.912 26 32.5689 26 30.912H23ZM19 30.912H16C16 32.5689 17.3431 33.912 19 33.912V30.912ZM7.704 4.8V1.8C6.04715 1.8 4.704 3.14315 4.704 4.8H7.704ZM11.64 4.8H14.64C14.64 3.14315 13.2969 1.8 11.64 1.8V4.8ZM3.48 31.04L1.12104 32.8935C2.07057 34.1019 3.77981 34.3974 5.0799 33.5778L3.48 31.04ZM0.344 28.16L-1.20678 25.5919C-2.09268 26.1269 -2.6403 27.0807 -2.65567 28.1154C-2.67104 29.1502 -2.152 30.1198 -1.28238 30.6809L0.344 28.16ZM1.496 5.688H28.664V-0.312H1.496V5.688ZM25.664 2.688V6.304H31.664V2.688H25.664ZM28.664 3.304H1.496V9.304H28.664V3.304ZM4.496 6.304V2.688H-1.504V6.304H4.496ZM0.44 17.144H29.592V11.144H0.44V17.144ZM26.592 14.144V17.824H32.592V14.144H26.592ZM29.592 14.824H0.44V20.824H29.592V14.824ZM3.44 17.824V14.144H-2.56V17.824H3.44ZM19 7.8H23V1.8H19V7.8ZM20 4.8V30.912H26V4.8H20ZM23 27.912H19V33.912H23V27.912ZM22 30.912V4.8H16V30.912H22ZM7.704 7.8H11.64V1.8H7.704V7.8ZM8.64 4.8V13.216H14.64V4.8H8.64ZM8.64 13.216C8.64 19.1829 7.84818 24.7397 1.8801 28.5022L5.0799 33.5778C13.8318 28.0603 14.64 19.6011 14.64 13.216H8.64ZM5.83896 29.1865C4.94612 28.0502 3.26368 26.4735 1.97038 25.6391L-1.28238 30.6809C-0.59168 31.1265 0.605885 32.2378 1.12104 32.8935L5.83896 29.1865ZM1.89478 30.7281C5.76636 28.3902 8.04683 25.4344 9.30198 22.2245C10.5224 19.1036 10.704 15.912 10.704 13.216H4.704C4.704 15.704 4.51763 17.9844 3.71402 20.0395C2.94517 22.0056 1.54564 23.9298 -1.20678 25.5919L1.89478 30.7281ZM10.704 13.216V4.8H4.704V13.216H10.704ZM48.536 26.176V23.176C46.8791 23.176 45.536 24.5191 45.536 26.176H48.536ZM58.744 26.176H61.744C61.744 24.5191 60.4009 23.176 58.744 23.176V26.176ZM58.744 29.632V32.632C60.4009 32.632 61.744 31.2889 61.744 29.632H58.744ZM48.536 29.632H45.536C45.536 31.2889 46.8791 32.632 48.536 32.632V29.632ZM46.616 17.472V14.472C44.9591 14.472 43.616 15.8151 43.616 17.472H46.616ZM60.792 17.472H63.792C63.792 15.8151 62.4489 14.472 60.792 14.472V17.472ZM60.792 30.752V33.752C62.4489 33.752 63.792 32.4089 63.792 30.752H60.792ZM56.984 30.752H53.984C53.984 32.4089 55.3271 33.752 56.984 33.752V30.752ZM56.984 20.928H59.984C59.984 19.2711 58.6409 17.928 56.984 17.928V20.928ZM50.264 20.928V17.928C48.6071 17.928 47.264 19.2711 47.264 20.928H50.264ZM50.264 30.88V33.88C51.9209 33.88 53.264 32.5369 53.264 30.88H50.264ZM46.616 30.88H43.616C43.616 32.5369 44.9591 33.88 46.616 33.88V30.88ZM44.568 11.392L44.4421 8.39464C43.6153 8.42938 42.8397 8.80403 42.2985 9.43C41.7574 10.056 41.4988 10.8776 41.5839 11.7007L44.568 11.392ZM59.608 10.56L62.6079 10.588C62.6157 9.75391 62.2758 8.95419 61.6699 8.38087C61.064 7.80755 60.2467 7.5124 59.4143 7.56626L59.608 10.56ZM59.576 13.984L59.8175 16.9743C61.3649 16.8493 62.5614 15.5644 62.5759 14.012L59.576 13.984ZM44.952 15.104L41.9679 15.4127C42.1347 17.0252 43.5523 18.2135 45.1692 18.0961L44.952 15.104ZM54.648 7.36L53.2951 4.68238C52.5206 5.07372 51.9534 5.78127 51.7401 6.62242C51.5267 7.46357 51.6881 8.35589 52.1824 9.06909L54.648 7.36ZM57.688 5.824L60.088 4.024C59.2152 2.86031 57.6334 2.49039 56.3351 3.14638L57.688 5.824ZM62.584 14.528L63.9865 17.18C65.2674 16.5026 65.8811 15.0064 65.4447 13.6246L62.584 14.528ZM59.256 16.288L56.3671 17.0969C56.6117 17.9705 57.2385 18.6865 58.0721 19.0445C58.9057 19.4025 59.8565 19.3641 60.6585 18.94L59.256 16.288ZM50.136 0.799999L50.6902 -2.14837C49.0674 -2.4534 47.5032 -1.38974 47.1904 0.23154L50.136 0.799999ZM54.392 1.6L57.249 2.51513C57.5115 1.69574 57.4095 0.803094 56.969 0.0640171C56.5284 -0.67506 55.7918 -1.18942 54.9462 -1.34837L54.392 1.6ZM49.912 13.376L49.1641 16.2813C50.5521 16.6386 51.999 15.9642 52.6179 14.6714L49.912 13.376ZM46.68 12.544L43.9083 11.3961C43.5758 12.199 43.6078 13.1067 43.996 13.8842C44.3842 14.6617 45.0905 15.2326 45.9321 15.4493L46.68 12.544ZM32.216 7.2V4.2C30.5591 4.2 29.216 5.54314 29.216 7.2H32.216ZM42.584 7.2H45.584C45.584 5.54314 44.2409 4.2 42.584 4.2V7.2ZM42.584 10.752V13.752C44.2409 13.752 45.584 12.4089 45.584 10.752H42.584ZM32.216 10.752H29.216C29.216 12.4089 30.5591 13.752 32.216 13.752V10.752ZM36.536 0.799999L36.8789 -2.18034C35.2962 -2.36242 33.8472 -1.27564 33.5788 0.294758L36.536 0.799999ZM40.152 1.216L43.0948 1.79901C43.2576 0.977123 43.0693 0.124594 42.5755 -0.552253C42.0816 -1.2291 41.3272 -1.66858 40.4949 -1.76434L40.152 1.216ZM35.256 22.368L33.8289 25.0068C34.6345 25.4425 35.5951 25.4863 36.437 25.1257C37.279 24.7652 37.9101 24.0397 38.1507 23.156L35.256 22.368ZM32.12 20.672L29.241 19.8285C28.8432 21.1864 29.4482 22.6377 30.6929 23.3108L32.12 20.672ZM34.04 20.192L31.6674 18.356C31.1559 19.0171 30.9433 19.8616 31.081 20.686C31.2186 21.5105 31.6939 22.2401 32.3925 22.6991L34.04 20.192ZM36.12 17.504L37.6991 14.9532C36.3931 14.1447 34.6874 14.4533 33.7474 15.668L36.12 17.504ZM45.56 25.088L47.96 26.888C48.7699 25.8082 48.7589 24.3205 47.9332 23.2528L45.56 25.088ZM43.256 28.16L40.8522 29.9549C41.4178 30.7124 42.3074 31.159 43.2528 31.16C44.1982 31.161 45.0888 30.7163 45.656 29.96L43.256 28.16ZM41.176 7.2V4.2C39.5191 4.2 38.176 5.54314 38.176 7.2H41.176ZM41.816 7.2V10.2C41.958 10.2 42.0997 10.1899 42.2403 10.1698L41.816 7.2ZM42.488 7.104L43.0283 4.15306C42.7099 4.09476 42.3842 4.08837 42.0637 4.13415L42.488 7.104ZM44.76 7.52L47.7548 7.69662C47.844 6.18379 46.791 4.842 45.3003 4.56906L44.76 7.52ZM34.584 31.008L31.9573 32.4572C32.3541 33.1764 33.0284 33.7015 33.8229 33.9098C34.6174 34.1182 35.4626 33.9917 36.1613 33.5599L34.584 31.008ZM32.28 27.936L30.8886 25.2782C30.033 25.7261 29.4454 26.5585 29.3097 27.5147C29.1741 28.4708 29.507 29.4338 30.2043 30.102L32.28 27.936ZM41.176 7.904L44.1706 8.08405C44.1742 8.0241 44.176 7.96406 44.176 7.904H41.176ZM48.536 29.176H58.744V23.176H48.536V29.176ZM55.744 26.176V29.632H61.744V26.176H55.744ZM58.744 26.632H48.536V32.632H58.744V26.632ZM51.536 29.632V26.176H45.536V29.632H51.536ZM46.616 20.472H60.792V14.472H46.616V20.472ZM57.792 17.472V30.752H63.792V17.472H57.792ZM60.792 27.752H56.984V33.752H60.792V27.752ZM59.984 30.752V20.928H53.984V30.752H59.984ZM56.984 17.928H50.264V23.928H56.984V17.928ZM47.264 20.928V30.88H53.264V20.928H47.264ZM50.264 27.88H46.616V33.88H50.264V27.88ZM49.616 30.88V17.472H43.616V30.88H49.616ZM44.6939 14.3894C48.5316 14.2281 54.3475 13.9067 59.8017 13.5537L59.4143 7.56626C53.9885 7.91734 48.2204 8.23589 44.4421 8.39464L44.6939 14.3894ZM56.6081 10.532L56.5761 13.956L62.5759 14.012L62.6079 10.588L56.6081 10.532ZM59.3346 10.9937C54.192 11.409 48.6962 11.8244 44.7348 12.1119L45.1692 18.0961C49.1438 17.8076 54.656 17.391 59.8175 16.9743L59.3346 10.9937ZM47.9361 14.7953L47.5521 11.0833L41.5839 11.7007L41.9679 15.4127L47.9361 14.7953ZM56.0009 10.0376L59.0409 8.50162L56.3351 3.14638L53.2951 4.68238L56.0009 10.0376ZM55.288 7.624C57.2207 10.2009 59.1036 13.4692 59.7233 15.4314L65.4447 13.6246C64.5284 10.7228 62.1873 6.82309 60.088 4.024L55.288 7.624ZM61.1815 11.876L57.8535 13.636L60.6585 18.94L63.9865 17.18L61.1815 11.876ZM62.1449 15.4791C61.3434 12.6166 59.1491 8.58744 57.1136 5.65091L52.1824 9.06909C54.0509 11.7646 55.8246 15.1594 56.3671 17.0969L62.1449 15.4791ZM49.5818 3.74836L53.8378 4.54836L54.9462 -1.34837L50.6902 -2.14837L49.5818 3.74836ZM51.535 0.684863C50.2408 4.72539 48.5609 9.25051 47.2061 12.0806L52.6179 14.6714C54.1431 11.4855 55.9192 6.66661 57.249 2.51513L51.535 0.684863ZM50.6599 10.4707L47.4279 9.63872L45.9321 15.4493L49.1641 16.2813L50.6599 10.4707ZM49.4517 13.6919C50.85 10.3155 52.3441 5.19057 53.0816 1.36846L47.1904 0.23154C46.52 3.70543 45.134 8.43654 43.9083 11.3961L49.4517 13.6919ZM32.216 10.2H42.584V4.2H32.216V10.2ZM39.584 7.2V10.752H45.584V7.2H39.584ZM42.584 7.752H32.216V13.752H42.584V7.752ZM35.216 10.752V7.2H29.216V10.752H35.216ZM36.1931 3.78034L39.8091 4.19634L40.4949 -1.76434L36.8789 -2.18034L36.1931 3.78034ZM37.2092 0.632991C35.876 7.3625 33.9074 15.9006 32.3613 21.58L38.1507 23.156C39.7406 17.3154 41.74 8.6375 43.0948 1.79901L37.2092 0.632991ZM36.6831 19.7292L33.5471 18.0332L30.6929 23.3108L33.8289 25.0068L36.6831 19.7292ZM34.999 21.5155C36.5133 16.3471 38.3925 7.74725 39.4931 1.30524L33.5788 0.294758C32.5035 6.58875 30.6707 14.9489 29.241 19.8285L34.999 21.5155ZM36.4126 22.028L38.4926 19.34L33.7474 15.668L31.6674 18.356L36.4126 22.028ZM34.5409 20.0548C36.1411 21.0454 37.9454 22.2794 39.5557 23.539C41.207 24.8307 42.4909 26.0233 43.1868 26.9232L47.9332 23.2528C46.7731 21.7527 45.017 20.1933 43.2523 18.813C41.4466 17.4006 39.4589 16.0426 37.6991 14.9532L34.5409 20.0548ZM43.16 23.288L40.856 26.36L45.656 29.96L47.96 26.888L43.16 23.288ZM45.6598 26.3651C43.5564 23.548 39.149 19.9596 35.6875 17.6849L32.3925 22.6991C35.651 24.8404 39.3716 27.972 40.8522 29.9549L45.6598 26.3651ZM41.176 10.2H41.816V4.2H41.176V10.2ZM42.2403 10.1698L42.9123 10.0738L42.0637 4.13415L41.3917 4.23015L42.2403 10.1698ZM41.9477 10.0549L44.2197 10.4709L45.3003 4.56906L43.0283 4.15306L41.9477 10.0549ZM41.7652 7.34338C41.0483 19.4988 38.1117 25.3008 33.0067 28.4561L36.1613 33.5599C43.7923 28.8432 46.9997 20.5012 47.7548 7.69662L41.7652 7.34338ZM37.2107 29.5588C36.5863 28.427 35.3881 26.7594 34.3557 25.77L30.2043 30.102C30.7079 30.5846 31.5577 31.733 31.9573 32.4572L37.2107 29.5588ZM33.6714 30.5938C40.615 26.9586 43.5515 18.38 44.1706 8.08405L38.1814 7.72394C37.5845 17.652 34.825 23.2174 30.8886 25.2782L33.6714 30.5938ZM44.176 7.904V7.2H38.176V7.904H44.176Z" fill="#496D20" mask="url(#path-1-outside-1_1523_2266)"/>
</svg>