<svg width="97" height="22" viewBox="0 0 97 22" fill="none" xmlns="http://www.w3.org/2000/svg">
  <mask id="path-1-outside-1_2369_1263" maskUnits="userSpaceOnUse" x="-3" y="-3" width="103" height="28" fill="black">
  <rect fill="white" x="-3" y="-3" width="103" height="28"/>
  <path d="M13.1562 7.9375H7.07812L15.625 14.1875L14.9844 21.3594L7.8125 22L0.515625 21.1562L3.125 15.2969L6.875 17.3125H10.2969L7.8125 14.1875L1.5625 10.2031L1.125 4.34375L4.6875 0.609375L10.9375 0.71875L15.625 2.8125L13.1562 7.9375ZM32.1406 22H22.9219L23.5938 5.71875L17.5 5.3125V0.125H35.9375V5.40625L29.8438 6.375L32.1406 22ZM57.375 22H51.125L48 15.75H44.875L41.75 22H37.0625L42.4375 0.15625L51.125 0.203125L57.375 22ZM49.5625 11.9375L45.8438 3.25L43.3125 11.9375H49.5625ZM75.8125 22H69.5625L68 13.6094L65.3125 13.5625L64.2031 22H58.625L59.6562 0.671875L69.5625 0.125L75.2656 1.6875L74.7031 9.5L71.125 12.625L75.8125 22ZM63.2344 9.85938L68.5312 9.35938L71.8438 4.89062L66.4531 3L63.2031 3.4375L63.2344 9.85938ZM92.3594 22H83.1406L83.8125 5.71875L77.7188 5.3125V0.125H96.1562V5.40625L90.0625 6.375L92.3594 22Z"/>
  </mask>
  <path d="M13.1562 7.9375H7.07812L15.625 14.1875L14.9844 21.3594L7.8125 22L0.515625 21.1562L3.125 15.2969L6.875 17.3125H10.2969L7.8125 14.1875L1.5625 10.2031L1.125 4.34375L4.6875 0.609375L10.9375 0.71875L15.625 2.8125L13.1562 7.9375ZM32.1406 22H22.9219L23.5938 5.71875L17.5 5.3125V0.125H35.9375V5.40625L29.8438 6.375L32.1406 22ZM57.375 22H51.125L48 15.75H44.875L41.75 22H37.0625L42.4375 0.15625L51.125 0.203125L57.375 22ZM49.5625 11.9375L45.8438 3.25L43.3125 11.9375H49.5625ZM75.8125 22H69.5625L68 13.6094L65.3125 13.5625L64.2031 22H58.625L59.6562 0.671875L69.5625 0.125L75.2656 1.6875L74.7031 9.5L71.125 12.625L75.8125 22ZM63.2344 9.85938L68.5312 9.35938L71.8438 4.89062L66.4531 3L63.2031 3.4375L63.2344 9.85938ZM92.3594 22H83.1406L83.8125 5.71875L77.7188 5.3125V0.125H96.1562V5.40625L90.0625 6.375L92.3594 22Z" fill="white"/>
  <path d="M13.1562 7.9375V10.9375C14.3085 10.9375 15.359 10.2775 15.859 9.23944L13.1562 7.9375ZM7.07812 7.9375V4.9375C5.78015 4.9375 4.62939 5.77223 4.22639 7.00605C3.82339 8.23988 4.25957 9.59294 5.3073 10.3591L7.07812 7.9375ZM15.625 14.1875L18.6131 14.4544C18.7067 13.4068 18.2448 12.3867 17.3958 11.7659L15.625 14.1875ZM14.9844 21.3594L15.2513 24.3475C16.6973 24.2183 17.8433 23.0723 17.9725 21.6263L14.9844 21.3594ZM7.8125 22L7.4679 24.9801C7.67093 25.0036 7.87584 25.0063 8.07941 24.9881L7.8125 22ZM0.515625 21.1562L-2.2249 19.9358C-2.61336 20.8081 -2.56337 21.8132 -2.09028 22.6426C-1.61719 23.472 -0.777517 24.0267 0.171026 24.1364L0.515625 21.1562ZM3.125 15.2969L4.54533 12.6544C3.81045 12.2594 2.94428 12.1883 2.15481 12.4581C1.36534 12.7279 0.723879 13.3143 0.38447 14.0764L3.125 15.2969ZM6.875 17.3125L5.45467 19.955C5.8913 20.1897 6.37929 20.3125 6.875 20.3125V17.3125ZM10.2969 17.3125V20.3125C11.4484 20.3125 12.4984 19.6533 12.9988 18.6162C13.4992 17.5791 13.3618 16.347 12.6452 15.4456L10.2969 17.3125ZM7.8125 14.1875L10.1608 12.3206C9.95401 12.0604 9.70541 11.8365 9.42517 11.6578L7.8125 14.1875ZM1.5625 10.2031L-1.42917 10.4265C-1.35875 11.3697 -0.847685 12.2244 -0.050172 12.7328L1.5625 10.2031ZM1.125 4.34375L-1.04569 2.27297C-1.63157 2.88712 -1.92987 3.7207 -1.86667 4.56713L1.125 4.34375ZM4.6875 0.609375L4.73999 -2.39017C3.90171 -2.40484 3.09554 -2.06805 2.51681 -1.4614L4.6875 0.609375ZM10.9375 0.71875L12.161 -2.02042C11.7922 -2.18516 11.3939 -2.27372 10.99 -2.28079L10.9375 0.71875ZM15.625 2.8125L18.3278 4.11444C18.6796 3.38411 18.7208 2.5425 18.4422 1.78125C18.1635 1.02001 17.5887 0.403936 16.8485 0.073329L15.625 2.8125ZM13.1562 4.9375H7.07812V10.9375H13.1562V4.9375ZM5.3073 10.3591L13.8542 16.6091L17.3958 11.7659L8.84895 5.51589L5.3073 10.3591ZM12.6369 13.9206L11.9963 21.0925L17.9725 21.6263L18.6131 14.4544L12.6369 13.9206ZM14.7175 18.3713L7.54559 19.0119L8.07941 24.9881L15.2513 24.3475L14.7175 18.3713ZM8.1571 19.0199L0.860224 18.1761L0.171026 24.1364L7.4679 24.9801L8.1571 19.0199ZM3.25615 22.3767L5.86553 16.5173L0.38447 14.0764L-2.2249 19.9358L3.25615 22.3767ZM1.70467 17.9393L5.45467 19.955L8.29533 14.67L4.54533 12.6544L1.70467 17.9393ZM6.875 20.3125H10.2969V14.3125H6.875V20.3125ZM12.6452 15.4456L10.1608 12.3206L5.46418 16.0544L7.94855 19.1794L12.6452 15.4456ZM9.42517 11.6578L3.17517 7.67344L-0.050172 12.7328L6.19983 16.7172L9.42517 11.6578ZM4.55417 9.97975L4.11667 4.12037L-1.86667 4.56713L-1.42917 10.4265L4.55417 9.97975ZM3.29569 6.41453L6.85819 2.68015L2.51681 -1.4614L-1.04569 2.27297L3.29569 6.41453ZM4.63501 3.60892L10.885 3.71829L10.99 -2.28079L4.73999 -2.39017L4.63501 3.60892ZM9.714 3.45792L14.4015 5.55167L16.8485 0.073329L12.161 -2.02042L9.714 3.45792ZM12.9222 1.51056L10.4535 6.63556L15.859 9.23944L18.3278 4.11444L12.9222 1.51056ZM32.1406 22V25C33.0124 25 33.8411 24.6208 34.411 23.961C34.9808 23.3012 35.2355 22.4262 35.1087 21.5637L32.1406 22ZM22.9219 22L19.9244 21.8763C19.8907 22.6927 20.1915 23.4876 20.7573 24.0771C21.323 24.6667 22.1048 25 22.9219 25V22ZM23.5938 5.71875L26.5912 5.84245C26.6583 4.21657 25.417 2.83364 23.7933 2.72539L23.5938 5.71875ZM17.5 5.3125H14.5C14.5 6.89189 15.7245 8.2008 17.3004 8.30585L17.5 5.3125ZM17.5 0.125V-2.875C15.8431 -2.875 14.5 -1.53185 14.5 0.125H17.5ZM35.9375 0.125H38.9375C38.9375 -1.53185 37.5944 -2.875 35.9375 -2.875V0.125ZM35.9375 5.40625L36.4085 8.36905C37.8652 8.13746 38.9375 6.88127 38.9375 5.40625H35.9375ZM29.8438 6.375L29.3727 3.41221C27.75 3.67019 26.6367 5.18562 26.8756 6.81131L29.8438 6.375ZM32.1406 19H22.9219V25H32.1406V19ZM25.9193 22.1237L26.5912 5.84245L20.5963 5.59505L19.9244 21.8763L25.9193 22.1237ZM23.7933 2.72539L17.6996 2.31914L17.3004 8.30585L23.3942 8.7121L23.7933 2.72539ZM20.5 5.3125V0.125H14.5V5.3125H20.5ZM17.5 3.125H35.9375V-2.875H17.5V3.125ZM32.9375 0.125V5.40625H38.9375V0.125H32.9375ZM35.4665 2.44346L29.3727 3.41221L30.3148 9.3378L36.4085 8.36905L35.4665 2.44346ZM26.8756 6.81131L29.1725 22.4363L35.1087 21.5637L32.8119 5.93869L26.8756 6.81131ZM57.375 22V25C58.3169 25 59.2041 24.5577 59.7709 23.8055C60.3377 23.0532 60.5184 22.0785 60.2588 21.1731L57.375 22ZM51.125 22L48.4417 23.3416C48.9499 24.358 49.9887 25 51.125 25V22ZM48 15.75L50.6833 14.4084C50.1751 13.392 49.1363 12.75 48 12.75V15.75ZM44.875 15.75V12.75C43.7387 12.75 42.6999 13.392 42.1917 14.4084L44.875 15.75ZM41.75 22V25C42.8863 25 43.9251 24.358 44.4333 23.3416L41.75 22ZM37.0625 22L34.1494 21.2832C33.9291 22.1783 34.1326 23.1251 34.7013 23.8506C35.27 24.5762 36.1406 25 37.0625 25V22ZM42.4375 0.15625L42.4537 -2.84371C41.0669 -2.85119 39.8558 -1.90719 39.5244 -0.560565L42.4375 0.15625ZM51.125 0.203125L54.0088 -0.623768C53.6415 -1.90455 52.4736 -2.78964 51.1412 -2.79683L51.125 0.203125ZM49.5625 11.9375V14.9375C50.5707 14.9375 51.5115 14.4311 52.0667 13.5895C52.6219 12.748 52.7172 11.6838 52.3204 10.7569L49.5625 11.9375ZM45.8438 3.25L48.6017 2.06944C48.1032 0.904868 46.9269 0.178927 45.6625 0.255484C44.398 0.332039 43.3179 1.19459 42.9635 2.4108L45.8438 3.25ZM43.3125 11.9375L40.4323 11.0983C40.1682 12.0047 40.3462 12.9826 40.9128 13.7378C41.4793 14.4931 42.3684 14.9375 43.3125 14.9375V11.9375ZM57.375 19H51.125V25H57.375V19ZM53.8083 20.6584L50.6833 14.4084L45.3167 17.0916L48.4417 23.3416L53.8083 20.6584ZM48 12.75H44.875V18.75H48V12.75ZM42.1917 14.4084L39.0667 20.6584L44.4333 23.3416L47.5583 17.0916L42.1917 14.4084ZM41.75 19H37.0625V25H41.75V19ZM39.9756 22.7168L45.3506 0.873065L39.5244 -0.560565L34.1494 21.2832L39.9756 22.7168ZM42.4213 3.15621L51.1088 3.20308L51.1412 -2.79683L42.4537 -2.84371L42.4213 3.15621ZM48.2412 1.03002L54.4912 22.8269L60.2588 21.1731L54.0088 -0.623768L48.2412 1.03002ZM52.3204 10.7569L48.6017 2.06944L43.0858 4.43056L46.8046 13.1181L52.3204 10.7569ZM42.9635 2.4108L40.4323 11.0983L46.1927 12.7767L48.724 4.0892L42.9635 2.4108ZM43.3125 14.9375H49.5625V8.9375H43.3125V14.9375ZM75.8125 22V25C76.8522 25 77.8178 24.4616 78.3645 23.5772C78.9111 22.6927 78.9608 21.5883 78.4958 20.6584L75.8125 22ZM69.5625 22L66.6132 22.5492C66.8777 23.9698 68.1175 25 69.5625 25V22ZM68 13.6094L70.9493 13.0602C70.6884 11.6589 69.4775 10.6347 68.0523 10.6098L68 13.6094ZM65.3125 13.5625L65.3648 10.563C63.8394 10.5364 62.537 11.6588 62.3381 13.1714L65.3125 13.5625ZM64.2031 22V25C65.7088 25 66.9812 23.8839 67.1775 22.3911L64.2031 22ZM58.625 22L55.6285 21.8551C55.5889 22.6749 55.8869 23.4752 56.4531 24.0695C57.0193 24.6637 57.8042 25 58.625 25V22ZM59.6562 0.671875L59.4909 -2.32356C57.9563 -2.23885 56.734 -1.00812 56.6598 0.526989L59.6562 0.671875ZM69.5625 0.125L70.3552 -2.76837C70.0434 -2.85379 69.7199 -2.88826 69.3971 -2.87044L69.5625 0.125ZM75.2656 1.6875L78.2579 1.90294C78.3607 0.474498 77.4396 -0.827453 76.0583 -1.20587L75.2656 1.6875ZM74.7031 9.5L76.6765 11.7596C77.2724 11.2392 77.6386 10.5045 77.6954 9.71544L74.7031 9.5ZM71.125 12.625L69.1516 10.3654C68.1226 11.2642 67.8307 12.7446 68.4417 13.9666L71.125 12.625ZM63.2344 9.85938L60.2344 9.87397C60.2385 10.7161 60.5964 11.5177 61.2206 12.083C61.8448 12.6483 62.6779 12.9252 63.5163 12.8461L63.2344 9.85938ZM68.5312 9.35938L68.8132 12.3461C69.6607 12.2661 70.4344 11.8298 70.9413 11.1459L68.5312 9.35938ZM71.8438 4.89062L74.2538 6.67711C74.8214 5.91141 74.9914 4.92156 74.7117 4.01038C74.432 3.09921 73.736 2.37514 72.8366 2.05969L71.8438 4.89062ZM66.4531 3L67.446 0.169065C66.9994 0.0124149 66.522 -0.0363288 66.0529 0.0268183L66.4531 3ZM63.2031 3.4375L62.8029 0.464318C61.3086 0.665466 60.1958 1.94439 60.2032 3.4521L63.2031 3.4375ZM75.8125 19H69.5625V25H75.8125V19ZM72.5118 21.4508L70.9493 13.0602L65.0507 14.1586L66.6132 22.5492L72.5118 21.4508ZM68.0523 10.6098L65.3648 10.563L65.2602 16.562L67.9477 16.6089L68.0523 10.6098ZM62.3381 13.1714L61.2287 21.6089L67.1775 22.3911L68.2869 13.9536L62.3381 13.1714ZM64.2031 19H58.625V25H64.2031V19ZM61.6215 22.1449L62.6527 0.816761L56.6598 0.526989L55.6285 21.8551L61.6215 22.1449ZM59.8216 3.66731L69.7279 3.12044L69.3971 -2.87044L59.4909 -2.32356L59.8216 3.66731ZM68.7698 3.01837L74.4729 4.58087L76.0583 -1.20587L70.3552 -2.76837L68.7698 3.01837ZM72.2734 1.47206L71.7109 9.28456L77.6954 9.71544L78.2579 1.90294L72.2734 1.47206ZM72.7297 7.24044L69.1516 10.3654L73.0984 14.8846L76.6765 11.7596L72.7297 7.24044ZM68.4417 13.9666L73.1292 23.3416L78.4958 20.6584L73.8083 11.2834L68.4417 13.9666ZM63.5163 12.8461L68.8132 12.3461L68.2493 6.37265L62.9524 6.87265L63.5163 12.8461ZM70.9413 11.1459L74.2538 6.67711L69.4337 3.10414L66.1212 7.57289L70.9413 11.1459ZM72.8366 2.05969L67.446 0.169065L65.4602 5.83093L70.8509 7.72156L72.8366 2.05969ZM66.0529 0.0268183L62.8029 0.464318L63.6034 6.41068L66.8534 5.97318L66.0529 0.0268183ZM60.2032 3.4521L60.2344 9.87397L66.2343 9.84478L66.2031 3.4229L60.2032 3.4521ZM92.3594 22V25C93.2312 25 94.0599 24.6208 94.6297 23.961C95.1996 23.3012 95.4543 22.4262 95.3275 21.5637L92.3594 22ZM83.1406 22L80.1432 21.8763C80.1095 22.6927 80.4103 23.4876 80.976 24.0771C81.5418 24.6667 82.3235 25 83.1406 25V22ZM83.8125 5.71875L86.81 5.84245C86.877 4.21657 85.6357 2.83364 84.0121 2.72539L83.8125 5.71875ZM77.7188 5.3125H74.7188C74.7188 6.89189 75.9433 8.2008 77.5192 8.30585L77.7188 5.3125ZM77.7188 0.125V-2.875C76.0619 -2.875 74.7188 -1.53185 74.7188 0.125H77.7188ZM96.1562 0.125H99.1562C99.1562 -1.53185 97.8131 -2.875 96.1562 -2.875V0.125ZM96.1562 5.40625L96.6273 8.36905C98.084 8.13746 99.1562 6.88127 99.1562 5.40625H96.1562ZM90.0625 6.375L89.5915 3.41221C87.9687 3.67019 86.8554 5.18562 87.0944 6.81131L90.0625 6.375ZM92.3594 19H83.1406V25H92.3594V19ZM86.1381 22.1237L86.81 5.84245L80.815 5.59505L80.1432 21.8763L86.1381 22.1237ZM84.0121 2.72539L77.9183 2.31914L77.5192 8.30585L83.6129 8.7121L84.0121 2.72539ZM80.7188 5.3125V0.125H74.7188V5.3125H80.7188ZM77.7188 3.125H96.1562V-2.875H77.7188V3.125ZM93.1562 0.125V5.40625H99.1562V0.125H93.1562ZM95.6852 2.44346L89.5915 3.41221L90.5335 9.3378L96.6273 8.36905L95.6852 2.44346ZM87.0944 6.81131L89.3913 22.4363L95.3275 21.5637L93.0306 5.93869L87.0944 6.81131Z" fill="#496D20" mask="url(#path-1-outside-1_2369_1263)"/>
</svg>