<svg width="122" height="24" viewBox="0 0 122 24" fill="none" xmlns="http://www.w3.org/2000/svg">
<mask id="path-1-outside-1_3006_1695" maskUnits="userSpaceOnUse" x="-3" y="-3" width="128" height="30" fill="black">
<rect fill="white" x="-3" y="-3" width="128" height="30"/>
<path d="M0.09375 1.4375H4.15625L5.09375 12.375L14.4688 11.9062L13.4688 0.96875H19.7969C20.224 0.96875 20.8698 8.03125 21.7344 22.1562L16.0312 22.3594L15.1094 15.0312L5.09375 15.5L5.54688 22.625L0.9375 23.3125L0.09375 1.4375ZM43.3125 23H37.0625L33.9375 16.75H30.8125L27.6875 23H23L28.375 1.15625L37.0625 1.20312L43.3125 23ZM35.5 12.9375L31.7812 4.25L29.25 12.9375H35.5ZM44.2031 1.125H47.6094L48.9375 9.51562L52.8438 12.0625L58.1562 9.35938L58.7812 0.8125H61.9844V23L57.2969 23.7344L57.1406 15.1875L51.2812 18.3125L44.4531 12.0625L44.2031 1.125ZM83.3438 23H77.0938L73.9688 16.75H70.8438L67.7188 23H63.0312L68.4062 1.15625L77.0938 1.20312L83.3438 23ZM75.5312 12.9375L71.8125 4.25L69.2812 12.9375H75.5312ZM99.0781 23H89.8594L90.5312 6.71875L84.4375 6.3125V1.125H102.875V6.40625L96.7812 7.375L99.0781 23ZM104.938 0.8125L110.406 1.125L109.859 10.5L118.375 10.9688L121.5 17.7812L117.875 23.4688L104.547 23.0156L104.938 0.8125ZM109.812 19.875L117.359 18.3125L110.406 13.625L109.812 19.875Z"/>
</mask>
<path d="M0.09375 1.4375H4.15625L5.09375 12.375L14.4688 11.9062L13.4688 0.96875H19.7969C20.224 0.96875 20.8698 8.03125 21.7344 22.1562L16.0312 22.3594L15.1094 15.0312L5.09375 15.5L5.54688 22.625L0.9375 23.3125L0.09375 1.4375ZM43.3125 23H37.0625L33.9375 16.75H30.8125L27.6875 23H23L28.375 1.15625L37.0625 1.20312L43.3125 23ZM35.5 12.9375L31.7812 4.25L29.25 12.9375H35.5ZM44.2031 1.125H47.6094L48.9375 9.51562L52.8438 12.0625L58.1562 9.35938L58.7812 0.8125H61.9844V23L57.2969 23.7344L57.1406 15.1875L51.2812 18.3125L44.4531 12.0625L44.2031 1.125ZM83.3438 23H77.0938L73.9688 16.75H70.8438L67.7188 23H63.0312L68.4062 1.15625L77.0938 1.20312L83.3438 23ZM75.5312 12.9375L71.8125 4.25L69.2812 12.9375H75.5312ZM99.0781 23H89.8594L90.5312 6.71875L84.4375 6.3125V1.125H102.875V6.40625L96.7812 7.375L99.0781 23ZM104.938 0.8125L110.406 1.125L109.859 10.5L118.375 10.9688L121.5 17.7812L117.875 23.4688L104.547 23.0156L104.938 0.8125ZM109.812 19.875L117.359 18.3125L110.406 13.625L109.812 19.875Z" fill="white"/>
<path d="M0.09375 1.4375V-1.5625C-0.721958 -1.5625 -1.5025 -1.23034 -2.06806 -0.642538C-2.63363 -0.0547347 -2.93546 0.738027 -2.90402 1.55313L0.09375 1.4375ZM4.15625 1.4375L7.14529 1.1813C7.01227 -0.370556 5.71379 -1.5625 4.15625 -1.5625V1.4375ZM5.09375 12.375L2.10471 12.6312C2.24266 14.2407 3.63022 15.4519 5.24356 15.3713L5.09375 12.375ZM14.4688 11.9062L14.6186 14.9025C15.4346 14.8617 16.1988 14.4898 16.7344 13.8727C17.27 13.2556 17.5307 12.4468 17.4563 11.6331L14.4688 11.9062ZM13.4688 0.96875V-2.03125C12.6256 -2.03125 11.8214 -1.67644 11.253 -1.05369C10.6846 -0.430946 10.4044 0.402248 10.4812 1.2419L13.4688 0.96875ZM21.7344 22.1562L21.8412 25.1544C22.6496 25.1256 23.4121 24.7715 23.9558 24.1725C24.4995 23.5735 24.7782 22.7804 24.7288 21.973L21.7344 22.1562ZM16.0312 22.3594L13.0547 22.7338C13.2485 24.2746 14.5861 25.4127 16.138 25.3575L16.0312 22.3594ZM15.1094 15.0312L18.0859 14.6568C17.8905 13.1033 16.5332 11.9613 14.9691 12.0345L15.1094 15.0312ZM5.09375 15.5L4.9535 12.5033C4.15002 12.5409 3.3953 12.8996 2.85874 13.4988C2.32219 14.0981 2.04875 14.8877 2.0998 15.6904L5.09375 15.5ZM5.54688 22.625L5.98944 25.5922C7.53103 25.3622 8.63975 23.9901 8.54083 22.4346L5.54688 22.625ZM0.9375 23.3125L-2.06027 23.4281C-2.0274 24.2802 -1.63347 25.0781 -0.976947 25.6222C-0.320419 26.1664 0.536662 26.4055 1.38006 26.2797L0.9375 23.3125ZM0.09375 4.4375H4.15625V-1.5625H0.09375V4.4375ZM1.16721 1.6937L2.10471 12.6312L8.08279 12.1188L7.14529 1.1813L1.16721 1.6937ZM5.24356 15.3713L14.6186 14.9025L14.3189 8.90999L4.94394 9.37874L5.24356 15.3713ZM17.4563 11.6331L16.4563 0.695603L10.4812 1.2419L11.4812 12.1794L17.4563 11.6331ZM13.4688 3.96875H19.7969V-2.03125H13.4688V3.96875ZM19.7969 3.96875C18.71 3.96875 18.0047 3.3997 17.7147 3.10919C17.4193 2.81343 17.2664 2.52985 17.2122 2.42454C17.0961 2.19902 17.0603 2.04246 17.0731 2.08952C17.0864 2.13817 17.1295 2.33067 17.1922 2.74355C17.3125 3.53497 17.4538 4.78686 17.614 6.53882C17.9327 10.0235 18.3081 15.2838 18.74 22.3395L24.7288 21.973C24.2961 14.9037 23.9163 9.57021 23.5891 5.99243C23.4264 4.21314 23.2722 2.81659 23.1242 1.84239C23.0528 1.37245 22.9686 0.902843 22.8615 0.510091C22.8141 0.336447 22.7198 0.0143614 22.5469 -0.321508C22.4643 -0.481994 22.2833 -0.806958 21.9604 -1.13031C21.6428 -1.44841 20.9104 -2.03125 19.7969 -2.03125V3.96875ZM21.6276 19.1582L15.9245 19.3613L16.138 25.3575L21.8412 25.1544L21.6276 19.1582ZM19.0078 21.9849L18.0859 14.6568L12.1328 15.4057L13.0547 22.7338L19.0078 21.9849ZM14.9691 12.0345L4.9535 12.5033L5.234 18.4967L15.2496 18.028L14.9691 12.0345ZM2.0998 15.6904L2.55292 22.8154L8.54083 22.4346L8.0877 15.3096L2.0998 15.6904ZM5.10431 19.6578L0.494938 20.3453L1.38006 26.2797L5.98944 25.5922L5.10431 19.6578ZM3.93527 23.1969L3.09152 1.32187L-2.90402 1.55313L-2.06027 23.4281L3.93527 23.1969ZM43.3125 23V26C44.2544 26 45.1416 25.5577 45.7084 24.8055C46.2752 24.0532 46.4559 23.0785 46.1963 22.1731L43.3125 23ZM37.0625 23L34.3792 24.3416C34.8874 25.358 35.9262 26 37.0625 26V23ZM33.9375 16.75L36.6208 15.4084C36.1126 14.392 35.0738 13.75 33.9375 13.75V16.75ZM30.8125 16.75V13.75C29.6762 13.75 28.6374 14.392 28.1292 15.4084L30.8125 16.75ZM27.6875 23V26C28.8238 26 29.8626 25.358 30.3708 24.3416L27.6875 23ZM23 23L20.0869 22.2832C19.8666 23.1783 20.0701 24.1251 20.6388 24.8506C21.2075 25.5762 22.0781 26 23 26V23ZM28.375 1.15625L28.3912 -1.84371C27.0044 -1.85119 25.7933 -0.907187 25.4619 0.439435L28.375 1.15625ZM37.0625 1.20312L39.9463 0.376232C39.579 -0.904548 38.4111 -1.78964 37.0787 -1.79683L37.0625 1.20312ZM35.5 12.9375V15.9375C36.5082 15.9375 37.449 15.4311 38.0042 14.5895C38.5594 13.748 38.6547 12.6838 38.2579 11.7569L35.5 12.9375ZM31.7812 4.25L34.5392 3.06944C34.0407 1.90487 32.8644 1.17893 31.6 1.25548C30.3355 1.33204 29.2554 2.19459 28.901 3.4108L31.7812 4.25ZM29.25 12.9375L26.3698 12.0983C26.1057 13.0047 26.2837 13.9826 26.8502 14.7378C27.4168 15.4931 28.3059 15.9375 29.25 15.9375V12.9375ZM43.3125 20H37.0625V26H43.3125V20ZM39.7458 21.6584L36.6208 15.4084L31.2542 18.0916L34.3792 24.3416L39.7458 21.6584ZM33.9375 13.75H30.8125V19.75H33.9375V13.75ZM28.1292 15.4084L25.0042 21.6584L30.3708 24.3416L33.4958 18.0916L28.1292 15.4084ZM27.6875 20H23V26H27.6875V20ZM25.9131 23.7168L31.2881 1.87306L25.4619 0.439435L20.0869 22.2832L25.9131 23.7168ZM28.3588 4.15621L37.0463 4.20308L37.0787 -1.79683L28.3912 -1.84371L28.3588 4.15621ZM34.1787 2.03002L40.4287 23.8269L46.1963 22.1731L39.9463 0.376232L34.1787 2.03002ZM38.2579 11.7569L34.5392 3.06944L29.0233 5.43056L32.7421 14.1181L38.2579 11.7569ZM28.901 3.4108L26.3698 12.0983L32.1302 13.7767L34.6615 5.0892L28.901 3.4108ZM29.25 15.9375H35.5V9.9375H29.25V15.9375ZM44.2031 1.125V-1.875C43.3956 -1.875 42.6222 -1.54944 42.0577 -0.971943C41.4933 -0.394442 41.1855 0.38623 41.2039 1.19355L44.2031 1.125ZM47.6094 1.125L50.5725 0.655979C50.3418 -0.80166 49.0852 -1.875 47.6094 -1.875V1.125ZM48.9375 9.51562L45.9744 9.98465C46.107 10.8226 46.5883 11.5653 47.299 12.0287L48.9375 9.51562ZM52.8438 12.0625L51.2053 14.5755C52.1042 15.1616 53.2478 15.2229 54.2042 14.7363L52.8438 12.0625ZM58.1562 9.35938L59.5167 12.0332C60.4528 11.5568 61.0717 10.6257 61.1483 9.57817L58.1562 9.35938ZM58.7812 0.8125V-2.1875C57.2093 -2.1875 55.9039 -0.974074 55.7892 0.593706L58.7812 0.8125ZM61.9844 0.8125H64.9844C64.9844 -0.844354 63.6412 -2.1875 61.9844 -2.1875V0.8125ZM61.9844 23L62.4487 25.9638C63.9085 25.7351 64.9844 24.4776 64.9844 23H61.9844ZM57.2969 23.7344L54.2974 23.7892C54.3132 24.6562 54.7035 25.474 55.3675 26.0317C56.0316 26.5894 56.9045 26.8324 57.7612 26.6982L57.2969 23.7344ZM57.1406 15.1875L60.1401 15.1327C60.121 14.0888 59.5606 13.13 58.6605 12.601C57.7604 12.0721 56.6501 12.0491 55.7289 12.5404L57.1406 15.1875ZM51.2812 18.3125L49.2557 20.5254C50.1937 21.384 51.571 21.558 52.693 20.9596L51.2812 18.3125ZM44.4531 12.0625L41.4539 12.1311C41.4726 12.9487 41.8243 13.7232 42.4276 14.2754L44.4531 12.0625ZM44.2031 4.125H47.6094V-1.875H44.2031V4.125ZM44.6463 1.59402L45.9744 9.98465L51.9006 9.0466L50.5725 0.655979L44.6463 1.59402ZM47.299 12.0287L51.2053 14.5755L54.4822 9.54947L50.576 7.00259L47.299 12.0287ZM54.2042 14.7363L59.5167 12.0332L56.7958 6.6856L51.4833 9.38872L54.2042 14.7363ZM61.1483 9.57817L61.7733 1.03129L55.7892 0.593706L55.1642 9.14058L61.1483 9.57817ZM58.7812 3.8125H61.9844V-2.1875H58.7812V3.8125ZM58.9844 0.8125V23H64.9844V0.8125H58.9844ZM61.52 20.0362L56.8325 20.7705L57.7612 26.6982L62.4487 25.9638L61.52 20.0362ZM60.2964 23.6795L60.1401 15.1327L54.1411 15.2423L54.2974 23.7892L60.2964 23.6795ZM55.7289 12.5404L49.8695 15.6654L52.693 20.9596L58.5524 17.8346L55.7289 12.5404ZM53.3068 16.0996L46.4787 9.84957L42.4276 14.2754L49.2557 20.5254L53.3068 16.0996ZM47.4523 11.9939L47.2023 1.05645L41.2039 1.19355L41.4539 12.1311L47.4523 11.9939ZM83.3438 23V26C84.2856 26 85.1728 25.5577 85.7396 24.8055C86.3065 24.0532 86.4872 23.0785 86.2275 22.1731L83.3438 23ZM77.0938 23L74.4105 24.3416C74.9186 25.358 75.9574 26 77.0938 26V23ZM73.9688 16.75L76.652 15.4084C76.1439 14.392 75.1051 13.75 73.9688 13.75V16.75ZM70.8438 16.75V13.75C69.7074 13.75 68.6686 14.392 68.1605 15.4084L70.8438 16.75ZM67.7188 23V26C68.8551 26 69.8939 25.358 70.402 24.3416L67.7188 23ZM63.0312 23L60.1181 22.2832C59.8979 23.1783 60.1014 24.1251 60.6701 24.8506C61.2387 25.5762 62.1094 26 63.0312 26V23ZM68.4062 1.15625L68.4224 -1.84371C67.0357 -1.85119 65.8245 -0.907187 65.4931 0.439435L68.4062 1.15625ZM77.0938 1.20312L79.9775 0.376232C79.6103 -0.904548 78.4423 -1.78964 77.1099 -1.79683L77.0938 1.20312ZM75.5312 12.9375V15.9375C76.5395 15.9375 77.4802 15.4311 78.0354 14.5895C78.5906 13.748 78.6859 12.6838 78.2892 11.7569L75.5312 12.9375ZM71.8125 4.25L74.5704 3.06944C74.0719 1.90487 72.8957 1.17893 71.6312 1.25548C70.3667 1.33204 69.2866 2.19459 68.9323 3.4108L71.8125 4.25ZM69.2812 12.9375L66.401 12.0983C66.1369 13.0047 66.3149 13.9826 66.8815 14.7378C67.4481 15.4931 68.3371 15.9375 69.2812 15.9375V12.9375ZM83.3438 20H77.0938V26H83.3438V20ZM79.777 21.6584L76.652 15.4084L71.2855 18.0916L74.4105 24.3416L79.777 21.6584ZM73.9688 13.75H70.8438V19.75H73.9688V13.75ZM68.1605 15.4084L65.0355 21.6584L70.402 24.3416L73.527 18.0916L68.1605 15.4084ZM67.7188 20H63.0312V26H67.7188V20ZM65.9444 23.7168L71.3194 1.87306L65.4931 0.439435L60.1181 22.2832L65.9444 23.7168ZM68.3901 4.15621L77.0776 4.20308L77.1099 -1.79683L68.4224 -1.84371L68.3901 4.15621ZM74.21 2.03002L80.46 23.8269L86.2275 22.1731L79.9775 0.376232L74.21 2.03002ZM78.2892 11.7569L74.5704 3.06944L69.0546 5.43056L72.7733 14.1181L78.2892 11.7569ZM68.9323 3.4108L66.401 12.0983L72.1615 13.7767L74.6927 5.0892L68.9323 3.4108ZM69.2812 15.9375H75.5312V9.9375H69.2812V15.9375ZM99.0781 23V26C99.9499 26 100.779 25.6208 101.348 24.961C101.918 24.3012 102.173 23.4262 102.046 22.5637L99.0781 23ZM89.8594 23L86.8619 22.8763C86.8282 23.6927 87.129 24.4876 87.6948 25.0771C88.2605 25.6667 89.0423 26 89.8594 26V23ZM90.5312 6.71875L93.5287 6.84245C93.5958 5.21657 92.3545 3.83364 90.7308 3.72539L90.5312 6.71875ZM84.4375 6.3125H81.4375C81.4375 7.89189 82.662 9.2008 84.2379 9.30585L84.4375 6.3125ZM84.4375 1.125V-1.875C82.7806 -1.875 81.4375 -0.531854 81.4375 1.125H84.4375ZM102.875 1.125H105.875C105.875 -0.531854 104.532 -1.875 102.875 -1.875V1.125ZM102.875 6.40625L103.346 9.36905C104.803 9.13746 105.875 7.88127 105.875 6.40625H102.875ZM96.7812 7.375L96.3102 4.41221C94.6875 4.67019 93.5742 6.18562 93.8131 7.81131L96.7812 7.375ZM99.0781 20H89.8594V26H99.0781V20ZM92.8568 23.1237L93.5287 6.84245L87.5338 6.59505L86.8619 22.8763L92.8568 23.1237ZM90.7308 3.72539L84.6371 3.31914L84.2379 9.30585L90.3317 9.7121L90.7308 3.72539ZM87.4375 6.3125V1.125H81.4375V6.3125H87.4375ZM84.4375 4.125H102.875V-1.875H84.4375V4.125ZM99.875 1.125V6.40625H105.875V1.125H99.875ZM102.404 3.44346L96.3102 4.41221L97.2523 10.3378L103.346 9.36905L102.404 3.44346ZM93.8131 7.81131L96.11 23.4363L102.046 22.5637L99.7494 6.93869L93.8131 7.81131ZM104.938 0.8125L105.109 -2.18261C104.294 -2.22918 103.495 -1.94172 102.897 -1.38653C102.299 -0.831333 101.952 -0.0563412 101.938 0.759728L104.938 0.8125ZM110.406 1.125L113.401 1.2997C113.448 0.504788 113.176 -0.275952 112.646 -0.870516C112.117 -1.46508 111.372 -1.82469 110.577 -1.87011L110.406 1.125ZM109.859 10.5L106.864 10.3253C106.818 11.1213 107.09 11.903 107.621 12.4979C108.152 13.0927 108.898 13.4516 109.694 13.4955L109.859 10.5ZM118.375 10.9688L121.102 9.71792C120.638 8.7061 119.651 8.03447 118.54 7.97328L118.375 10.9688ZM121.5 17.7812L124.03 19.3937C124.577 18.5346 124.652 17.4564 124.227 16.5304L121.5 17.7812ZM117.875 23.4688L117.773 26.467C118.834 26.5031 119.834 25.9761 120.405 25.0812L117.875 23.4688ZM104.547 23.0156L101.547 22.9629C101.519 24.6003 102.808 25.9582 104.445 26.0139L104.547 23.0156ZM109.812 19.875L106.826 19.5913C106.736 20.5392 107.101 21.4737 107.81 22.1092C108.52 22.7447 109.488 23.0058 110.421 22.8127L109.812 19.875ZM117.359 18.3125L117.968 21.2502C119.149 21.0055 120.07 20.0765 120.303 18.8924C120.536 17.7082 120.037 16.4996 119.036 15.825L117.359 18.3125ZM110.406 13.625L112.083 11.1375C111.206 10.5459 110.081 10.4604 109.124 10.9126C108.168 11.3648 107.52 12.2877 107.42 13.3413L110.406 13.625ZM104.766 3.80761L110.235 4.12011L110.577 -1.87011L105.109 -2.18261L104.766 3.80761ZM107.411 0.950297L106.864 10.3253L112.854 10.6747L113.401 1.2997L107.411 0.950297ZM109.694 13.4955L118.21 13.9642L118.54 7.97328L110.024 7.50453L109.694 13.4955ZM115.648 12.2196L118.773 19.0321L124.227 16.5304L121.102 9.71792L115.648 12.2196ZM118.97 16.1688L115.345 21.8563L120.405 25.0812L124.03 19.3937L118.97 16.1688ZM117.977 20.4705L104.649 20.0174L104.445 26.0139L117.773 26.467L117.977 20.4705ZM107.546 23.0684L107.937 0.865272L101.938 0.759728L101.547 22.9629L107.546 23.0684ZM110.421 22.8127L117.968 21.2502L116.751 15.3748L109.204 16.9373L110.421 22.8127ZM119.036 15.825L112.083 11.1375L108.729 16.1125L115.682 20.8L119.036 15.825ZM107.42 13.3413L106.826 19.5913L112.799 20.1587L113.393 13.9087L107.42 13.3413Z" fill="#496D20" mask="url(#path-1-outside-1_3006_1695)"/>
</svg>