<svg width="372" height="180" viewBox="0 0 372 180" fill="none" xmlns="http://www.w3.org/2000/svg">
  <path d="M55.7922 162.551L31.9477 154.321L18.5728 140.972L1 30.2083L49.4203 4.84973L185.414 0L321.267 4.84973L371 30.2283L348.077 145.112L339.331 154.031L310.297 163.741L236.76 178.22L138.837 180L55.7922 162.551Z" fill="#636363"/>
  <path d="M233.987 67.9675L302.843 60.9924L348.598 50.5196L371.445 29.879L322.751 4.98831L185.395 0.0671082L47.9164 4.98831L0.473633 29.879L20.4431 51.6584L63.524 60.8297L140.575 65.3137L233.987 67.9675Z" fill="#7C7C7C"/>
  <path d="M0.473633 29.8791L17.9724 140.413L30.7532 153.184L20.4431 51.6584L0.473633 29.8791Z" fill="#252525"/>
  <path d="M371.445 29.8791L348.598 144.592L340.494 152.879L348.598 50.5196L371.445 29.8791Z" fill="#252525"/>
  <path d="M42.5277 7.71333L59.6299 13.2039L61.1856 20.7382L63.5242 14.4037L61.9888 4.20544L47.9166 4.98836L42.5277 7.71333Z" fill="#252525"/>
  <path d="M313.895 4.50035L304.866 12.4719L282.945 15.4714L309.716 18.481L322.751 4.9884L313.895 4.50035Z" fill="#252525"/>
  <path d="M47.9166 4.98836L60.667 5.50692L63.5242 14.4037L61.9888 4.20544L47.9166 4.98836Z" fill="#9F9F9F"/>
  <path d="M282.945 15.4714L305.731 14.6376L316.641 4.50035H313.895L304.866 12.4719L282.945 15.4714Z" fill="#9F9F9F"/>
  <path d="M55.1458 26.493L59.1112 34.0172H81.1244L90.0009 26.493L74.3527 21.5617L55.1458 26.493Z" fill="#878689"/>
  <path d="M289.299 31.9431L285.588 24.2766L263.595 23.5344L254.465 30.7637L269.94 36.2136L289.299 31.9431Z" fill="#878689"/>
  <path d="M108.76 39.2028L106.849 33.8647L92.3294 31.7905L85.761 35.9186L95.6136 40.6466L108.76 39.2028Z" fill="#878689"/>
  <path d="M82.2124 128.7L81.9583 132.604L87.0421 134.902L90.9059 131.089L86.2999 126.219L82.2124 128.7Z" fill="#5E5C60"/>
  <path d="M63.5242 60.8296L53.0616 89.3299L54.3834 161.348L30.7535 153.183L20.4434 104.958V51.6583L63.5242 60.8296Z" fill="#555456"/>
  <path d="M44.7035 86.7167L47.825 75.1153L37.1082 54.5154L58.7248 48.0284L48.3435 57.4539L52.2378 76.732L44.7035 86.7167Z" fill="#252525"/>
  <path d="M58.7248 48.0284L40.2907 55.5118L48.9841 74.7188L44.7035 86.7167L47.825 75.1153L37.1082 54.5154L58.7248 48.0284Z" fill="#9F9F9F"/>
  <path d="M302.843 60.9925L320.301 106.412L321.399 144.592L311.618 162.558L340.494 152.879L348.598 102.07V50.5197L302.843 60.9925Z" fill="#555456"/>
  <path d="M233.987 67.9674L241.907 107.083L233.865 167.886L237.291 177.22L311.618 162.558L321.399 144.592L319.813 89.3298L302.843 60.9923L233.987 67.9674Z" fill="#6D6D6D"/>
  <path d="M140.576 65.3137L137.586 107.662L139.813 158.664L138.318 179.02L54.3835 161.348L53.0616 89.3299L63.5243 60.8297L140.576 65.3137Z" fill="#6D6D6D"/>
  <path d="M54.3835 161.348L53.0616 89.33L56.7424 161.846L54.3835 161.348Z" fill="#9F9F9F"/>
  <path d="M302.843 60.9924L318.491 89.8689L321.399 144.592L319.813 89.33L304.531 60.6467L302.843 60.9924Z" fill="#9F9F9F"/>
  <path d="M136.427 178.623L139.132 158.318L139.396 149.167L139.955 158.257L138.318 179.02L136.427 178.623Z" fill="#9F9F9F"/>
  <path d="M233.865 167.886L236 177.241L237.291 177.22L234.983 167.815L236.447 145.812L233.865 167.886Z" fill="#9F9F9F"/>
  <path d="M325.151 56.061L322.751 69.1266L334.82 53.6716L316.64 48.8724L300.657 50.5196L315.024 51.4753L325.151 56.061Z" fill="#252525"/>
  <path d="M300.657 50.5196L316.671 48.0996L336.529 53.2852L322.751 69.1266L334.82 53.6716L316.64 48.8724L300.657 50.5196Z" fill="#9F9F9F"/>
  <path d="M306.269 163.616L318.633 149.676L311.618 162.558L306.269 163.616Z" fill="#252525"/>
  <path d="M304.754 163.91L318.633 149.676L306.269 163.616L304.754 163.91Z" fill="#9F9F9F"/>
  <path d="M16.3353 21.5617L2.63937 29.8789L20.4431 49.7365L39.0603 53.9358L37.1081 54.5154L37.5148 55.2983L20.4431 51.6583L0.473633 29.8789L16.3353 21.5617Z" fill="#9F9F9F"/>
  <path d="M63.524 60.8298L140.433 67.3778L233.865 69.1267L302.843 60.9924L304.531 60.6467L325.151 56.0611L302.843 60.1282L233.987 67.9675L140.575 65.3137L63.524 60.8298Z" fill="#9F9F9F"/>
  <path d="M345.1 51.3229L348.598 50.5197L371.445 29.8791L322.751 4.98839L368.506 29.8791L348.537 49.6757L345.1 51.3229Z" fill="#9F9F9F"/>
  <path d="M348.598 79.9858L347.845 102.619L339.518 153.204L340.494 152.879L348.598 102.07V79.9858Z" fill="#9F9F9F"/>
  <path d="M19.1011 50.2044L20.4432 104.958V51.6584L19.1011 50.2044Z" fill="#9F9F9F"/>
  <path d="M32.9497 126.656L27.8658 119.925L32.9497 110.357L40.0672 118.511L37.6269 126.219L32.9497 126.656Z" fill="#636363"/>
  <path d="M177.393 169.503L170.072 162.772L177.393 153.204H184.185L187.642 161.348L184.134 169.066L177.393 169.503Z" fill="#6D6D6D"/>
  <path d="M194.088 159.183L197.474 156.071L194.088 151.638L190.946 151.648L189.34 155.41L190.967 158.979L194.088 159.183Z" fill="#6D6D6D"/>
  <path d="M331.638 92.0955L340.494 96.9862L345.365 91.3838L343.067 82.6191L336.529 83.8901L331.638 92.0955Z" fill="#636363"/>
</svg>