<svg width="388" height="282" viewBox="0 0 388 282" fill="none" xmlns="http://www.w3.org/2000/svg">
<path d="M35.3721 4H354.837L384 36V249.5L354.837 278H35.3721L4 249.5V36L35.3721 4Z" fill="#496D20"/>
<mask id="mask0_2302_11313" style="mask-type:alpha" maskUnits="userSpaceOnUse" x="4" y="4" width="380" height="274">
<path d="M35.3721 4H354.837L384 36V249.5L354.837 278H35.3721L4 249.5V36L35.3721 4Z" fill="#496D20"/>
</mask>
<g mask="url(#mask0_2302_11313)">
<path d="M131.413 -91.6553C133.296 -91.8331 146.202 -93.8512 153.904 -95.0603C156.968 -95.5404 159.775 -93.2467 159.89 -90.1439C160.974 -62.6014 165.326 53.8987 162.271 71.9373C161.169 78.4451 151.567 77.7339 150.288 77.7961C149.009 77.8583 131.058 78.4362 125.897 80.0009C120.745 81.5656 120.212 78.4629 121.189 74.2755C122.158 70.0881 122.335 44.8126 123.579 19.5727C124.742 -3.89797 123.374 -72.1053 123.374 -72.1053C123.374 -72.1053 120.647 -90.6418 131.404 -91.6464L131.413 -91.6553Z" fill="#476723"/>
<path d="M120.896 89.2203C120.896 89.2203 120.337 84.2505 123.046 84.0016C124.538 83.8593 150.013 82.5703 150.013 82.5703C127.336 111.037 128.81 124.426 128.81 124.426C145.82 121.901 161.018 98.1729 161.018 98.1729C160.912 107.917 161.187 123.768 158.602 141.7C153.77 175.315 154.019 221.43 154.294 238.206C154.357 242.02 151.763 245.363 148.05 246.234C138.466 248.501 121.163 252.013 118.169 248.626C112.698 242.429 120.896 89.2114 120.896 89.2114V89.2203Z" fill="#476723"/>
<path d="M167.627 72.3018C167.627 72.3018 184.966 60.3265 203.432 66.5053C203.432 66.5053 184.513 74.0888 167.627 72.3018Z" fill="#476723"/>
<path d="M170.425 80.9167C170.425 80.9167 199.453 80.9611 207.11 104.601C207.11 104.601 181.111 94.5012 170.425 80.9167Z" fill="#476723"/>
<path d="M164.687 83.8772C164.687 83.8772 185.738 97.1595 171.278 126.507C171.278 126.507 163.31 106.308 164.687 83.8772Z" fill="#476723"/>
<path d="M157.155 84.8907C157.155 84.8907 161.063 103.383 132.879 119.448C132.879 119.448 142.108 96.0126 157.155 84.8907Z" fill="#476723"/>
<path d="M150.759 251.275C150.759 251.275 120.87 253.32 116.597 259.819C112.316 266.309 117.485 417.65 117.485 417.65C117.485 417.65 136.281 412.289 150.528 411.4C153.069 411.24 155.041 409.142 155.005 406.599L153.193 279.564C153.193 279.564 156.053 251.106 150.759 251.275Z" fill="#476723"/>
<path d="M333.294 -91.6553C335.178 -91.8331 348.084 -93.8512 355.785 -95.0603C358.849 -95.5404 361.656 -93.2467 361.772 -90.1439C362.855 -62.6014 367.208 53.8987 364.152 71.9373C363.051 78.4451 353.449 77.7339 352.17 77.7961C350.891 77.8583 332.939 78.4362 327.778 80.0009C322.627 81.5656 322.094 78.4629 323.071 74.2755C324.039 70.0881 324.217 44.8126 325.46 19.5727C326.624 -3.89797 325.256 -72.1053 325.256 -72.1053C325.256 -72.1053 322.529 -90.6418 333.286 -91.6464L333.294 -91.6553Z" fill="#476723"/>
<path d="M322.786 89.2203C322.786 89.2203 322.227 84.2505 324.936 84.0016C326.428 83.8593 351.903 82.5703 351.903 82.5703C329.226 111.037 330.701 124.426 330.701 124.426C347.711 121.901 362.909 98.1729 362.909 98.1729C362.802 107.917 363.077 123.768 360.493 141.7C355.661 175.315 355.909 221.43 356.185 238.206C356.247 242.02 353.653 245.363 349.94 246.234C340.356 248.501 323.053 252.013 320.06 248.626C314.588 242.429 322.786 89.2114 322.786 89.2114V89.2203Z" fill="#476723"/>
<path d="M369.517 72.3018C369.517 72.3018 386.856 60.3265 405.323 66.5053C405.323 66.5053 386.403 74.0888 369.517 72.3018Z" fill="#476723"/>
<path d="M372.315 80.9167C372.315 80.9167 401.343 80.9611 409 104.601C409 104.601 383.001 94.5012 372.315 80.9167Z" fill="#476723"/>
<path d="M366.577 83.8772C366.577 83.8772 387.629 97.1595 373.168 126.507C373.168 126.507 365.2 106.308 366.577 83.8772Z" fill="#476723"/>
<path d="M359.045 84.8907C359.045 84.8907 362.953 103.383 334.769 119.448C334.769 119.448 343.998 96.0126 359.045 84.8907Z" fill="#476723"/>
<path d="M352.649 251.275C352.649 251.275 322.76 253.32 318.487 259.819C314.206 266.309 319.376 417.65 319.376 417.65C319.376 417.65 338.171 412.289 352.418 411.4C354.959 411.24 356.931 409.142 356.895 406.599L355.083 279.564C355.083 279.564 357.943 251.106 352.649 251.275Z" fill="#476723"/>
<path d="M31.6537 -88.8104C30.4013 -91.2197 60.7084 -91.6553 60.7084 -91.6553C60.7084 -91.6553 65.8336 51.4538 62.3694 71.9373C61.268 78.4451 59.225 77.4049 57.9459 77.4671C56.6668 77.5294 31.1563 78.4362 25.9956 80.0009C20.8437 81.5656 20.3108 78.4629 21.2878 74.2755C22.256 70.0881 22.4337 44.8126 23.6772 19.5727C24.8408 -3.89799 23.4729 -72.1053 23.4729 -72.1053C23.4729 -72.1053 32.3021 -60.8678 39.4525 -59.4809C39.4525 -59.4809 42.1972 -68.5225 31.6448 -88.8104H31.6537Z" fill="#476723"/>
<path d="M20.9947 89.2203C20.9947 89.2203 20.4351 84.2506 23.1442 84.0016C25.8445 83.7438 61.2324 81.3523 61.2324 81.3523C61.2324 81.3523 64.7054 99.9066 58.7009 141.709C52.6963 183.512 54.535 244.652 54.535 244.652C54.535 244.652 23.313 255.204 18.2766 248.643C13.2403 242.082 21.0036 89.2292 21.0036 89.2292L20.9947 89.2203Z" fill="#476723"/>
<path d="M70.1771 239.7C70.1771 239.7 87.5158 227.724 105.982 233.903C105.982 233.903 87.0628 241.487 70.1771 239.7Z" fill="#476723"/>
<path d="M72.9751 248.306C72.9751 248.306 102.003 248.35 109.66 271.99C109.66 271.99 83.6607 261.89 72.9751 248.306Z" fill="#476723"/>
<path d="M67.2459 251.275C67.2459 251.275 88.2974 264.557 73.8367 293.904C73.8367 293.904 65.8691 273.705 67.2459 251.275Z" fill="#476723"/>
<path d="M59.7136 252.279C59.7136 252.279 62.023 272.799 33.8389 288.855C33.8389 288.855 44.6666 263.393 59.7136 252.279Z" fill="#476723"/>
<path d="M48.9658 255.48C48.9658 255.48 20.9682 253.32 16.6957 259.81C12.4143 266.3 17.5839 417.641 17.5839 417.641C17.5839 417.641 36.3793 412.28 50.6268 411.391C53.1672 411.231 55.1391 409.133 55.1036 406.591L53.2916 279.555C53.2916 279.555 35.0291 295.816 24.681 299.621C24.681 299.621 32.1601 273.848 48.9747 255.471L48.9658 255.48Z" fill="#476723"/>
<path d="M235.56 -88.8104C234.308 -91.2197 264.615 -91.6553 264.615 -91.6553C264.615 -91.6553 269.74 51.4538 266.276 71.9373C265.175 78.4451 263.132 77.4049 261.853 77.4671C260.573 77.5294 235.063 78.4362 229.902 80.0009C224.75 81.5656 224.217 78.4629 225.194 74.2755C226.163 70.0881 226.34 44.8126 227.584 19.5727C228.747 -3.89799 227.38 -72.1053 227.38 -72.1053C227.38 -72.1053 236.209 -60.8678 243.359 -59.4809C243.359 -59.4809 246.104 -68.5225 235.551 -88.8104H235.56Z" fill="#476723"/>
<path d="M224.901 89.2203C224.901 89.2203 224.342 84.2506 227.051 84.0016C229.751 83.7438 265.139 81.3523 265.139 81.3523C265.139 81.3523 268.612 99.9066 262.608 141.709C256.603 183.512 258.442 244.652 258.442 244.652C258.442 244.652 227.22 255.204 222.183 248.643C217.147 242.082 224.91 89.2292 224.91 89.2292L224.901 89.2203Z" fill="#476723"/>
<path d="M274.084 239.7C274.084 239.7 291.422 227.724 309.889 233.903C309.889 233.903 290.969 241.487 274.084 239.7Z" fill="#476723"/>
<path d="M276.882 248.306C276.882 248.306 305.91 248.35 313.566 271.99C313.566 271.99 287.567 261.89 276.882 248.306Z" fill="#476723"/>
<path d="M271.144 251.275C271.144 251.275 292.195 264.557 277.734 293.904C277.734 293.904 269.767 273.705 271.144 251.275Z" fill="#476723"/>
<path d="M263.62 252.279C263.62 252.279 265.93 272.799 237.745 288.855C237.745 288.855 248.573 263.393 263.62 252.279Z" fill="#476723"/>
<path d="M252.872 255.48C252.872 255.48 224.875 253.32 220.602 259.81C216.321 266.3 221.49 417.641 221.49 417.641C221.49 417.641 240.286 412.28 254.533 411.391C257.074 411.231 259.046 409.133 259.01 406.591L257.198 279.555C257.198 279.555 238.936 295.816 228.588 299.621C228.588 299.621 236.067 273.848 252.881 255.471L252.872 255.48Z" fill="#476723"/>
</g>
<path d="M35.3721 2H34.532L33.9439 2.59987L2.57184 34.5999L2 35.1832V36V249.5V250.385L2.65517 250.98L34.0273 279.48L34.5993 280H35.3721H354.837H355.652L356.235 279.43L385.398 250.93L386 250.342V249.5V36V35.2254L385.478 34.6528L356.315 2.65284L355.72 2H354.837H35.3721Z" stroke="#6FA72E" stroke-width="4"/>
</svg>